<?xml version="1.0" encoding="UTF-8" standalone="no"?><!DOCTYPE svg PUBLIC "-//W3C//DTD SVG 1.1//EN" "http://www.w3.org/Graphics/SVG/1.1/DTD/svg11.dtd"><svg width="100%" height="100%" viewBox="0 0 1675 1675" version="1.1" xmlns="http://www.w3.org/2000/svg" xmlns:xlink="http://www.w3.org/1999/xlink" xml:space="preserve" xmlns:serif="http://www.serif.com/" style="fill-rule:evenodd;clip-rule:evenodd;stroke-linejoin:round;stroke-miterlimit:2;"><rect id="Mesa-de-trabajo4" serif:id="Mesa de trabajo4" x="0" y="0" width="1674.23" height="1674.23" style="fill:none;"/><g><path d="M1130.743,279.427c0,0 -2.924,-40.59 48.266,-39.374c95.987,2.281 116.424,130.445 111.753,356.295c-3.362,162.534 100.618,494.118 -33.321,650.299c17.618,-32.509 19.569,-57.436 8.967,-88.409c-10.196,81.859 -43.596,116.716 -125.18,126.958c21.539,-46.172 24.617,-89.412 -0.155,-128.231l-2.535,63.7c-70.862,-63.883 -33.002,-225.521 -13.379,-344.507c24.557,-148.908 51.562,-560.205 51.562,-560.205l-45.978,-36.525Z" style="fill:#d12a61;"/><clipPath id="_clip1"><path d="M1130.743,279.427c0,0 -2.924,-40.59 48.266,-39.374c95.987,2.281 116.424,130.445 111.753,356.295c-3.362,162.534 100.618,494.118 -33.321,650.299c17.618,-32.509 19.569,-57.436 8.967,-88.409c-10.196,81.859 -43.596,116.716 -125.18,126.958c21.539,-46.172 24.617,-89.412 -0.155,-128.231l-2.535,63.7c-70.862,-63.883 -33.002,-225.521 -13.379,-344.507c24.557,-148.908 51.562,-560.205 51.562,-560.205l-45.978,-36.525Z"/></clipPath><g clip-path="url(#_clip1)"><path d="M1118.591,281.556l38.211,17.024c12.838,-54.795 82.638,-34.964 109.444,8.504c-36.269,-80.509 -102.464,-113.374 -147.655,-25.527Z" style="fill:#eb3b74;"/></g><g><path d="M543.487,279.427c0,0 2.924,-40.59 -48.266,-39.374c-95.987,2.281 -116.424,130.445 -111.753,356.295c3.362,162.534 -100.618,494.118 33.321,650.299c-17.618,-32.509 -19.569,-57.436 -8.967,-88.409c10.196,81.859 43.596,116.716 125.18,126.958c-21.539,-46.172 -24.617,-89.412 0.155,-128.231l2.535,63.7c70.862,-63.883 33.002,-225.521 13.379,-344.507c-24.557,-148.908 -51.562,-560.205 -51.562,-560.205l45.978,-36.525Z" style="fill:#d12a61;"/><clipPath id="_clip2"><path d="M543.487,279.427c0,0 2.924,-40.59 -48.266,-39.374c-95.987,2.281 -116.424,130.445 -111.753,356.295c3.362,162.534 -100.618,494.118 33.321,650.299c-17.618,-32.509 -19.569,-57.436 -8.967,-88.409c10.196,81.859 43.596,116.716 125.18,126.958c-21.539,-46.172 -24.617,-89.412 0.155,-128.231l2.535,63.7c70.862,-63.883 33.002,-225.521 13.379,-344.507c-24.557,-148.908 -51.562,-560.205 -51.562,-560.205l45.978,-36.525Z"/></clipPath><g clip-path="url(#_clip2)"><path d="M555.065,281.556l-38.211,17.024c-12.838,-54.795 -82.638,-34.964 -109.444,8.504c36.269,-80.509 102.464,-113.374 147.655,-25.527Z" style="fill:#eb3b74;"/></g><path d="M509.475,288.468c-29.713,24.501 -38.73,62.712 -20.123,85.277c18.606,22.564 57.836,20.992 87.548,-3.509c29.713,-24.501 38.73,-62.712 20.123,-85.277c-18.606,-22.564 -57.836,-20.992 -87.548,3.509Z" style="fill:#9f1d49;"/></g><path d="M1164.754,288.468c29.713,24.501 38.73,62.712 20.123,85.277c-18.606,22.564 -57.836,20.992 -87.548,-3.509c-29.713,-24.501 -38.73,-62.712 -20.123,-85.277c18.606,-22.564 57.836,-20.992 87.548,3.509Z" style="fill:#9f1d49;"/><path d="M837.115,521.774l340.035,-82.982c55.032,493.697 149.629,536.078 101.539,774.819c-14.207,70.53 -83.607,144.625 -131.327,141.082c-8.654,-14.001 -10.482,-29.428 -10.413,-45c-11.374,52.816 -58.007,89.046 -121.201,97.028c-10.786,-17.141 -12.431,-36.388 -9.691,-57.38c-42.676,63.232 -89.67,52.265 -168.942,68.536c-76.956,-16.178 -118.972,-2.873 -168.942,-68.536c1.6,17.68 -0.936,37.184 -9.691,57.38c-63.194,-7.982 -109.827,-44.212 -121.201,-97.028c-0.231,16.461 -0.893,32.584 -10.413,45c-47.72,3.543 -117.12,-70.552 -131.327,-141.082c-48.09,-238.741 46.507,-281.122 101.539,-774.819l340.035,82.982Z" style="fill:#9f1d49;"/><path d="M497.079,804.181c0,0 -17.149,-76.167 -31.475,-200.496c-34.302,-297.675 97.625,-370.424 371.511,-319.009c273.886,-51.415 405.813,21.334 371.511,319.009c-14.327,124.329 -31.475,200.496 -31.475,200.496l0,232.728l-680.071,0l-0,-232.728Z" style="fill:#e7316b;"/></g></svg>