<?xml version="1.0" encoding="UTF-8" standalone="no"?><!DOCTYPE svg PUBLIC "-//W3C//DTD SVG 1.1//EN" "http://www.w3.org/Graphics/SVG/1.1/DTD/svg11.dtd"><svg width="100%" height="100%" viewBox="0 0 1675 1675" version="1.1" xmlns="http://www.w3.org/2000/svg" xmlns:xlink="http://www.w3.org/1999/xlink" xml:space="preserve" xmlns:serif="http://www.serif.com/" style="fill-rule:evenodd;clip-rule:evenodd;stroke-linejoin:round;stroke-miterlimit:2;"><rect id="Mesa-de-trabajo4" serif:id="Mesa de trabajo4" x="0" y="0" width="1674.23" height="1674.23" style="fill:none;"/><g><path d="M443.833,1156.781c-23.283,24.747 -53.659,80.64 -63.047,209.057c27.937,44.97 61.382,84.785 100.216,119.557c40.723,-24.094 87.272,-70.374 118.652,-115.154c8.409,-75.566 -12.807,-144.072 -43.507,-210.251l-112.313,-3.209Z" style="fill:#fdca42;"/><g><g><path d="M479.269,1119.306c-84.904,75.084 -105.008,174.761 -13.539,242.157c22.872,16.853 23.242,48.372 3.577,78.597c94.751,6.347 157.944,-100.508 68.699,-313.39l-58.737,-7.363Z" style="fill:#834593;"/><clipPath id="_clip1"><path d="M479.269,1119.306c-84.904,75.084 -105.008,174.761 -13.539,242.157c22.872,16.853 23.242,48.372 3.577,78.597c94.751,6.347 157.944,-100.508 68.699,-313.39l-58.737,-7.363Z"/></clipPath><g clip-path="url(#_clip1)"><path d="M445.855,1140.562c-1.145,3.527 35.235,17.902 34.254,21.386c-10.634,37.765 -11.395,72.933 3.394,104.008c-3.066,-34.249 4.742,-68.319 22.279,-102.229c1.976,-3.821 50.321,-7.538 52.543,-11.356l-112.47,-11.809Z" style="fill:#8f3993;fill-opacity:0.51;"/></g><path d="M449.15,1134.327l-9.078,22.454c37.542,10.043 76.915,11.831 118.253,4.749l-9.73,-26.252l-99.445,-0.951Z" style="fill:#fdca42;"/><ellipse cx="500.128" cy="1053.231" rx="91.433" ry="103.55" style="fill:#673274;"/><clipPath id="_clip2"><ellipse cx="500.128" cy="1053.231" rx="91.433" ry="103.55"/></clipPath><g clip-path="url(#_clip2)"><path d="M412.657,999.359c24.625,45.592 64.963,47.583 64.761,50.203c-2.597,33.634 6.564,91.533 31.353,117.675l16.979,-1.342c-22.414,-25.561 -32.959,-77.221 -29.412,-115.779c0.215,-2.339 77.031,-4.347 97.877,-13.589l-181.559,-37.168Z" style="fill:#8f3993;fill-opacity:0.51;"/></g><path d="M525.352,781.159c56.636,11.999 90.507,78.905 75.59,149.316c-14.917,70.411 -73.01,117.834 -129.646,105.835c-56.636,-11.999 -90.507,-78.905 -75.59,-149.316c14.917,-70.411 73.01,-117.834 129.646,-105.835Z" style="fill:#733b81;"/><clipPath id="_clip3"><path d="M525.352,781.159c56.636,11.999 90.507,78.905 75.59,149.316c-14.917,70.411 -73.01,117.834 -129.646,105.835c-56.636,-11.999 -90.507,-78.905 -75.59,-149.316c14.917,-70.411 73.01,-117.834 129.646,-105.835Z"/></clipPath><g clip-path="url(#_clip3)"><path d="M495.551,877.144c18.943,28.773 32.467,115.558 4.666,164.318l-21.61,3.525c19.722,-37.95 18.676,-94.834 3.752,-138.502c-3.35,-9.803 -51.715,-4.672 -87.574,-69.572l100.766,40.23Z" style="fill:#8f3993;fill-opacity:0.51;"/></g><path d="M523.667,609.463c60.63,12.845 96.888,84.468 80.919,159.843c-15.969,75.375 -78.157,126.142 -138.787,113.297c-60.63,-12.845 -96.888,-84.468 -80.919,-159.843c15.969,-75.375 78.157,-126.142 138.787,-113.297Z" style="fill:#7b408a;"/><clipPath id="_clip4"><path d="M523.667,609.463c60.63,12.845 96.888,84.468 80.919,159.843c-15.969,75.375 -78.157,126.142 -138.787,113.297c-60.63,-12.845 -96.888,-84.468 -80.919,-159.843c15.969,-75.375 78.157,-126.142 138.787,-113.297Z"/></clipPath><g clip-path="url(#_clip4)"><path d="M394.785,666.091c-1.325,62.455 67.286,64.672 64.366,78.181c-9.291,42.991 -8.946,108.123 15.98,146.149l23.193,2.32c-28.725,-47.782 -25.185,-131.472 -1.03,-180.137l-102.509,-46.513Z" style="fill:#8f3993;fill-opacity:0.51;"/></g><path d="M479.029,439.515c61.975,-0.106 112.399,62.36 112.531,139.408c0.132,77.048 -50.076,139.688 -112.051,139.794c-61.975,0.106 -112.399,-62.36 -112.531,-139.408c-0.132,-77.048 50.076,-139.688 112.051,-139.794Z" style="fill:#854795;"/><clipPath id="_clip5"><path d="M479.029,439.515c61.975,-0.106 112.399,62.36 112.531,139.408c0.132,77.048 -50.076,139.688 -112.051,139.794c-61.975,0.106 -112.399,-62.36 -112.531,-139.408c-0.132,-77.048 50.076,-139.688 112.051,-139.794Z"/></clipPath><g clip-path="url(#_clip5)"><path d="M498.853,509.97c17.522,39.22 13.138,154.466 -22.915,214.77l-24.118,2.345c25.75,-46.757 37.335,-120.698 28.605,-178.939c-1.082,-7.216 -53.5,-9.195 -48.943,-108.631l67.37,70.455Z" style="fill:#8f3993;fill-opacity:0.34;"/></g><path d="M569.076,258.795c60.63,12.845 96.888,84.468 80.919,159.843c-15.969,75.375 -78.157,126.142 -138.787,113.297c-60.63,-12.845 -96.888,-84.468 -80.919,-159.843c15.969,-75.375 78.157,-126.142 138.787,-113.297Z" style="fill:#8c4b9d;"/><clipPath id="_clip6"><path d="M569.076,258.795c60.63,12.845 96.888,84.468 80.919,159.843c-15.969,75.375 -78.157,126.142 -138.787,113.297c-60.63,-12.845 -96.888,-84.468 -80.919,-159.843c15.969,-75.375 78.157,-126.142 138.787,-113.297Z"/></clipPath><g clip-path="url(#_clip6)"><path d="M523.4,251.226c-18.125,42.991 -17.049,77.073 5.929,105.991l51.011,-40.247l-40.197,-79.989l-16.742,14.246Z" style="fill:#914499;"/></g><ellipse cx="641.62" cy="293.444" rx="112.291" ry="133.85" style="fill:#8c4b9d;"/></g><g><path d="M463.003,491.528c3.53,-34.777 36.482,-103.259 86.363,-131.201l17.969,8.12c-45.818,27.844 -76.342,82.592 -84.431,134.16l-19.902,-11.078Z" style="fill:#92499c;"/></g></g><path d="M976.666,356.838l200.484,0l0,680.071l-680.071,0l0,-680.071l200.484,-0c-25.201,-42.495 -57.796,-124.114 -5.85,-192.006c42.943,-56.126 96.948,-64.158 145.401,-27.671c48.453,-36.487 102.457,-28.455 145.401,27.671c51.946,67.892 19.351,149.511 -5.85,192.006Z" style="fill:#99509f;"/><path d="M420.811,1246.428c-6.834,27.633 1.605,49.899 23.627,67.39c-0.931,-25.533 -8.378,-48.187 -23.627,-67.39Z" style="fill:#b267a9;"/><path d="M423.764,1042.025c-6.834,27.633 7.745,63.616 29.767,81.107c-0.931,-25.533 -14.517,-61.903 -29.767,-81.107Z" style="fill:#b267a9;"/><path d="M416.819,904.772c-11.035,24.473 -7.606,46.593 8.686,66.619c3.795,-23.861 1.313,-46.169 -8.686,-66.619Z" style="fill:#b267a9;"/><path d="M404.292,746.399c-8.092,29.449 -1.653,53.933 17.708,74.003c0.744,-27.604 -4.748,-52.453 -17.708,-74.003Z" style="fill:#b267a9;"/><path d="M400.655,564.637c-14.336,31.493 -10.201,60.025 10.362,85.924c5.097,-30.74 2.171,-59.511 -10.362,-85.924Z" style="fill:#b267a9;"/><path d="M464.347,347.442c-21.805,28.15 -25.533,57.454 -13.183,87.785c12.956,-29.452 17.88,-58.725 13.183,-87.785Z" style="fill:#b267a9;"/><path d="M613.523,186.325c-33.479,11.664 -50.97,35.611 -54.242,70.483c26.007,-18.336 44.577,-41.512 54.242,-70.483Z" style="fill:#b267a9;"/></g></svg>