<?xml version="1.0" encoding="UTF-8" standalone="no"?><!DOCTYPE svg PUBLIC "-//W3C//DTD SVG 1.1//EN" "http://www.w3.org/Graphics/SVG/1.1/DTD/svg11.dtd"><svg width="100%" height="100%" viewBox="0 0 1675 1675" version="1.1" xmlns="http://www.w3.org/2000/svg" xmlns:xlink="http://www.w3.org/1999/xlink" xml:space="preserve" xmlns:serif="http://www.serif.com/" style="fill-rule:evenodd;clip-rule:evenodd;stroke-linejoin:round;stroke-miterlimit:2;"><rect id="Mesa-de-trabajo4" serif:id="Mesa de trabajo4" x="0" y="0" width="1674.23" height="1674.23" style="fill:none;"/><g><path d="M497.079,969.365c-10.709,-15.592 -17.956,-31.939 -22.453,-48.883c-47.108,-6.105 -71.425,-40.091 -71.425,-40.091c0,0 -21.362,-6.187 -42.262,-39.582c-10.696,-17.091 -13.704,-38.657 -13.704,-38.657c0,0 -10.332,-10.485 -15.265,-33.749c-4.408,-20.792 -0.173,-36.244 -0.173,-36.244c0,0 -6.196,-14.255 -3.199,-38.189c5.889,-47.027 28.531,-63.392 28.531,-63.392c0,0 6.442,-37.185 32.558,-51.574c13.339,-7.349 26.424,-15.871 41.276,-20.547c-29.55,-189.479 127.519,-329.998 406.151,-291.156c278.632,-38.842 435.7,101.677 406.151,291.156c14.851,4.676 27.937,13.198 41.276,20.547c26.115,14.389 32.558,51.574 32.558,51.574c0,0 22.642,16.365 28.531,63.392c2.997,23.934 -3.199,38.189 -3.199,38.189c0,0 4.235,15.452 -0.173,36.244c-4.932,23.264 -15.265,33.749 -15.265,33.749c0,0 -3.008,21.566 -13.704,38.657c-20.899,33.394 -42.262,39.582 -42.262,39.582c0,0 -24.316,33.987 -71.425,40.091c-4.497,16.945 -11.744,33.291 -22.453,48.883l0,67.544l-680.071,0l-0,-67.544Z"/><path d="M1293.82,641.974c0,0 8.891,44.564 7.467,50.695c-1.423,6.131 -16.007,-13.909 -16.007,-13.909c-2.231,14.561 -2.405,29.006 -0.389,43.328c0,0 17.022,-16.37 22.241,-14.863c5.218,1.507 9.069,23.906 9.069,23.906c9.176,-38.258 -0.036,-67.077 -22.38,-89.156Z" style="fill:#fff;"/><path d="M379.627,653.852c-10.417,15.143 -17.013,32.244 -15.979,53.253c0,0 8.422,-7.678 12.737,-5.877c4.495,1.876 14.187,18.024 14.187,18.024c7.923,-11.963 8.59,-27.807 6.002,-43.69c0,0 -15.313,17.843 -17.808,16.484c-4.182,-2.277 0.861,-38.195 0.861,-38.195Z" style="fill:#fff;"/></g></svg>