<?xml version="1.0" encoding="UTF-8" standalone="no"?><!DOCTYPE svg PUBLIC "-//W3C//DTD SVG 1.1//EN" "http://www.w3.org/Graphics/SVG/1.1/DTD/svg11.dtd"><svg width="100%" height="100%" viewBox="0 0 836 836" version="1.1" xmlns="http://www.w3.org/2000/svg" xmlns:xlink="http://www.w3.org/1999/xlink" xml:space="preserve" xmlns:serif="http://www.serif.com/" style="fill-rule:evenodd;clip-rule:evenodd;stroke-linejoin:round;stroke-miterlimit:2;"><g id="Mystery-ears"><rect x="0" y="-0" width="835.946" height="835.946" style="fill:none;"/><g><g><path d="M455.185,496.965c-9.811,-4.828 -16.471,-14.008 -25.644,-19.213c-8.927,-5.059 -19.589,-6.906 -29.65,-5.182c-26.123,3.806 -43.792,32.196 -35.966,57.37c2.072,7.844 6.197,23.653 8.268,31.497c2.955,15.638 12.006,29.512 26.782,36.046c9.767,3.85 20.567,7.044 30.041,12.143c-29.885,-4.02 -55.334,-14.374 -61.817,-46.838c-2.169,-7.819 -6.591,-23.54 -8.764,-31.363c-9.326,-28.172 11.075,-60.712 40.547,-64.522c23.258,-4.121 44.976,10.484 56.203,30.063" style="fill-rule:nonzero;"/></g><path d="M409.311,592.809c0,-1.67 1.356,-3.025 3.025,-3.025c1.67,0 3.025,1.356 3.025,3.025l0,12.606c0,1.67 -1.356,3.025 -3.025,3.025c-1.67,0 -3.025,-1.356 -3.025,-3.025l0,-12.606Zm0,18.908c0,-1.67 1.356,-3.025 3.025,-3.025c1.67,0 3.025,1.356 3.025,3.025l0,25.211c0,1.67 -1.356,3.025 -3.025,3.025c-1.67,0 -3.025,-1.356 -3.025,-3.025l0,-25.211Zm0,31.515c0,-1.67 1.356,-3.025 3.025,-3.025c1.67,0 3.025,1.356 3.025,3.025l0,25.211c0,1.67 -1.356,3.025 -3.025,3.025c-1.67,0 -3.025,-1.356 -3.025,-3.025l0,-25.211Zm0,31.514c0,-1.67 1.356,-3.025 3.025,-3.025c1.67,0 3.025,1.356 3.025,3.025l0,25.211c0,1.67 -1.356,3.025 -3.025,3.025c-1.67,0 -3.025,-1.356 -3.025,-3.025l0,-25.211Zm0,31.514c0,-1.67 1.356,-3.025 3.025,-3.025c1.67,0 3.025,1.356 3.025,3.025l0,25.211c0,1.67 -1.356,3.025 -3.025,3.025c-1.67,0 -3.025,-1.356 -3.025,-3.025l-0,-25.211Zm0,31.514c0,-1.67 1.356,-3.025 3.025,-3.025c1.67,0 3.025,1.356 3.025,3.025l0,12.606c0,1.67 -1.356,3.025 -3.025,3.025c-1.67,0 -3.025,-1.356 -3.025,-3.025l0,-12.606Z" style="fill:#e8e8e9;"/><path d="M412.336,767.237l-22.624,-95.642l45.249,0l-22.624,95.642Z" style="fill:#e8e8e9;"/><circle cx="412.336" cy="585.437" r="15.759" style="fill:#e8e8e9;"/><path d="M371.414,583.594l23.209,-12.952c3.833,-2.139 5.208,-6.987 3.069,-10.82c-2.139,-3.833 -6.987,-5.208 -10.82,-3.069l-23.209,12.952c-3.833,2.139 -5.208,6.987 -3.069,10.82c2.139,3.833 6.987,5.208 10.82,3.069Z" style="fill:#e8e8e9;"/></g></g></svg>