<?xml version="1.0" encoding="UTF-8" standalone="no"?><!DOCTYPE svg PUBLIC "-//W3C//DTD SVG 1.1//EN" "http://www.w3.org/Graphics/SVG/1.1/DTD/svg11.dtd"><svg width="100%" height="100%" viewBox="0 0 836 836" version="1.1" xmlns="http://www.w3.org/2000/svg" xmlns:xlink="http://www.w3.org/1999/xlink" xml:space="preserve" xmlns:serif="http://www.serif.com/" style="fill-rule:evenodd;clip-rule:evenodd;stroke-linejoin:round;stroke-miterlimit:2;"><g id="Romance-torso-back"><rect x="0" y="-0" width="835.946" height="835.946" style="fill:none;"/><rect x="242" y="374.119" width="351.95" height="62.345" style="fill:#defeff;"/><clipPath id="_clip1"><rect x="242" y="374.119" width="351.95" height="62.345"/></clipPath><g clip-path="url(#_clip1)"><rect x="416.438" y="394.824" width="3.075" height="41.641" style="fill:#fff;"/></g><rect x="242" y="374.119" width="351.95" height="20.704" style="fill:#91c9fa;"/><g><path d="M337.549,374.171l0,20.601c0,2.42 -1.965,4.385 -4.385,4.385l-8.771,0c-2.42,0 -4.385,-1.965 -4.385,-4.385l0,-20.601c0,-2.42 1.965,-4.385 4.385,-4.385l8.771,0c2.42,0 4.385,1.965 4.385,4.385Z" style="fill:#c6f4f3;"/><path d="M515.943,374.171l0,20.601c0,2.42 -1.965,4.385 -4.385,4.385l-8.771,0c-2.42,0 -4.385,-1.965 -4.385,-4.385l0,-20.601c0,-2.42 1.965,-4.385 4.385,-4.385l8.771,0c2.42,0 4.385,1.965 4.385,4.385Z" style="fill:#c6f4f3;"/></g></g></svg>