<?xml version="1.0" encoding="UTF-8" standalone="no"?><!DOCTYPE svg PUBLIC "-//W3C//DTD SVG 1.1//EN" "http://www.w3.org/Graphics/SVG/1.1/DTD/svg11.dtd"><svg width="100%" height="100%" viewBox="0 0 836 836" version="1.1" xmlns="http://www.w3.org/2000/svg" xmlns:xlink="http://www.w3.org/1999/xlink" xml:space="preserve" xmlns:serif="http://www.serif.com/" style="fill-rule:evenodd;clip-rule:evenodd;stroke-linecap:round;stroke-miterlimit:1.5;"><g id="Romance-torso-front"><rect x="0" y="-0" width="835.946" height="835.946" style="fill:none;"/><clipPath id="_clip1"><rect x="0" y="-0" width="835.946" height="835.946"/></clipPath><g clip-path="url(#_clip1)"><path d="M417.975,161.227c3.223,-5.87 9.669,-5.87 12.892,-2.935c3.223,2.935 3.223,8.805 0,14.674c-2.256,4.402 -8.057,8.805 -12.892,11.74c-4.834,-2.935 -10.636,-7.337 -12.892,-11.74c-3.223,-5.87 -3.223,-11.74 0,-14.674c3.223,-2.935 9.669,-2.935 12.892,2.935Z" style="fill:#ffb9ff;"/><path d="M417.975,243.078c3.223,-5.87 9.669,-5.87 12.892,-2.935c3.223,2.935 3.223,8.805 0,14.674c-2.256,4.402 -8.057,8.805 -12.892,11.74c-4.834,-2.935 -10.636,-7.337 -12.892,-11.74c-3.223,-5.87 -3.223,-11.74 0,-14.674c3.223,-2.935 9.669,-2.935 12.892,2.935Z" style="fill:#ffb9ff;"/><path d="M417.975,324.929c3.223,-5.87 9.669,-5.87 12.892,-2.935c3.223,2.935 3.223,8.805 0,14.674c-2.256,4.402 -8.057,8.805 -12.892,11.74c-4.834,-2.935 -10.636,-7.337 -12.892,-11.74c-3.223,-5.87 -3.223,-11.74 0,-14.674c3.223,-2.935 9.669,-2.935 12.892,2.935Z" style="fill:#ffb9ff;"/><g><path d="M417.975,147.481c0,0 95.028,-116.037 95.028,-147.481l-190.056,0c0,31.444 95.028,147.481 95.028,147.481Z" style="fill:#fcd5c6;"/><path d="M322.947,0c0,0 63.352,83.406 95.028,83.406c31.676,0 95.028,-83.406 95.028,-83.406" style="fill:none;stroke:#dddfdf;stroke-width:2.08px;"/><path d="M417.975,88.269c3.223,-5.87 9.669,-5.87 12.892,-2.935c3.223,2.935 3.223,8.805 0,14.674c-2.256,4.402 -8.057,8.805 -12.892,11.74c-4.834,-2.935 -10.636,-7.337 -12.892,-11.74c-3.223,-5.87 -3.223,-11.74 0,-14.674c3.223,-2.935 9.669,-2.935 12.892,2.935Z" style="fill:#00e3fa;stroke:#e9e5e4;stroke-width:2.5px;stroke-linejoin:round;"/><path d="M417.975,147.481l-100.85,-40.661l24.254,-64.498l76.596,105.159Z" style="fill:#faea00;"/><path d="M322.947,0l-28.795,0l-11.599,20.058l55.178,50.9l15.83,-9.66l-30.613,-61.298Z" style="fill:#faea00;"/><path d="M417.975,147.481l96.113,-41.46l-19.518,-63.699l-76.596,105.159Z" style="fill:#faea00;"/><path d="M513.003,0l28.795,0l11.749,20.063l-62.464,54.767l-8.693,-13.532l30.613,-61.298Z" style="fill:#faea00;"/></g><rect x="242" y="374.119" width="351.95" height="62.345" style="fill:#defeff;"/><clipPath id="_clip2"><rect x="242" y="374.119" width="351.95" height="62.345"/></clipPath><g clip-path="url(#_clip2)"><path d="M289.023,394.824l-47.023,0l-0,41.641c29.666,-1.592 44.685,-16.047 47.023,-41.641Z" style="fill:#c6f4f3;"/><path d="M291.472,395.047c-1.233,13.498 -5.883,24.025 -14.063,31.422c-8.111,7.334 -19.763,11.619 -35.277,12.451c-0.674,0.036 -1.334,-0.206 -1.824,-0.671c-0.49,-0.464 -0.768,-1.11 -0.768,-1.785l0,-41.641c-0,-1.358 1.101,-2.459 2.459,-2.459l47.023,0c0.691,0 1.35,0.291 1.816,0.801c0.466,0.51 0.696,1.193 0.633,1.882Zm-2.449,-0.224l-47.023,0l-0,41.641c29.666,-1.592 44.685,-16.047 47.023,-41.641Z" style="fill:#fff;"/><path d="M546.928,394.824l47.023,0l0,41.641c-29.666,-1.592 -44.685,-16.047 -47.023,-41.641Z" style="fill:#c6f4f3;"/><path d="M546.928,392.364l47.023,0c1.358,0 2.459,1.101 2.459,2.459l0,41.641c0,0.675 -0.278,1.321 -0.768,1.785c-0.49,0.464 -1.149,0.707 -1.824,0.671c-15.513,-0.832 -27.166,-5.118 -35.277,-12.451c-8.18,-7.396 -12.83,-17.924 -14.063,-31.422c-0.063,-0.688 0.167,-1.371 0.633,-1.882c0.466,-0.51 1.125,-0.801 1.816,-0.801Zm0,2.459c2.338,25.593 17.357,40.049 47.023,41.641l-0,-41.641l-47.023,0Z" style="fill:#fff;"/><rect x="416.438" y="394.824" width="3.075" height="41.641" style="fill:#fff;"/></g><rect x="242" y="374.119" width="351.95" height="20.704" style="fill:#91c9fa;"/><g><path d="M337.549,374.171l0,20.601c0,2.42 -1.965,4.385 -4.385,4.385l-8.771,0c-2.42,0 -4.385,-1.965 -4.385,-4.385l0,-20.601c0,-2.42 1.965,-4.385 4.385,-4.385l8.771,0c2.42,0 4.385,1.965 4.385,4.385Z" style="fill:#c6f4f3;"/><path d="M515.943,374.171l0,20.601c0,2.42 -1.965,4.385 -4.385,4.385l-8.771,0c-2.42,0 -4.385,-1.965 -4.385,-4.385l0,-20.601c0,-2.42 1.965,-4.385 4.385,-4.385l8.771,0c2.42,0 4.385,1.965 4.385,4.385Z" style="fill:#c6f4f3;"/></g></g></g></svg>