<?xml version="1.0" encoding="UTF-8" standalone="no"?><!DOCTYPE svg PUBLIC "-//W3C//DTD SVG 1.1//EN" "http://www.w3.org/Graphics/SVG/1.1/DTD/svg11.dtd"><svg width="100%" height="100%" viewBox="0 0 836 836" version="1.1" xmlns="http://www.w3.org/2000/svg" xmlns:xlink="http://www.w3.org/1999/xlink" xml:space="preserve" xmlns:serif="http://www.serif.com/" style="fill-rule:evenodd;clip-rule:evenodd;stroke-linejoin:round;stroke-miterlimit:2;"><rect id="Jinu-hair" x="0" y="0" width="835.946" height="835.946" style="fill:none;"/><path d="M417.973,178.073l169.829,33.674l0,140.195c-5.562,-28.308 -16.048,-48.472 -25.81,-65.027c-6.799,-11.53 -12.154,-30.766 -4.061,-60.638l-139.958,-31.109l-0,-0.146l-139.958,31.255c8.093,29.872 2.738,49.107 -4.061,60.638c-9.762,16.556 -20.247,36.72 -25.81,65.027l0,-140.195l169.829,-33.674Z" style="fill:#080605;"/><path d="M360.201,132.554c-11.649,1.741 -22.224,-9.519 -33.915,-10.853c-55.373,-6.317 -111.736,83.077 -98.438,172.465c1.034,6.947 6.164,11.463 13.766,14.613c-0.602,6.863 -0.177,12.953 1.884,17.808c3.38,0.471 6.61,0.631 9.671,0.439c-1.74,19.396 -1.915,42.871 5.759,51.325c37.947,-30.432 80.546,-124.3 82.965,-143.889c0.549,-4.449 7.307,-12.03 13.495,-13.053c13.149,-2.174 65.713,-1.001 65.713,-1.001c14.181,21.815 19.479,54.51 20.772,96.312l4.604,-2.051c1.063,9.602 4.092,16.651 9.899,18.972c2.1,-29.344 10.391,-52.226 16.842,-67.31c11.918,22.756 25.107,43.65 49.506,48.135c0.55,-2.108 1.846,-4.217 3.474,-6.325c2.14,5.706 6.16,9.415 12.946,10.187c-0.866,-3.926 -0.221,-6.268 0.581,-10.193c-2.024,2.786 35.512,34.137 48.075,32.574c4.476,-0.557 11.995,-21.458 13.982,-26.02c34.659,-79.57 -30.207,-178.126 -63.816,-198.757c-10.321,-6.335 -108.213,-11.411 -137.449,-5.325c-21.819,4.543 -27.945,20.097 -40.317,21.945Z"/><path d="M332.356,181.038c-5.319,5.909 -7.601,11.874 -7.605,17.883c0,0 6.018,-5.012 8.738,-4.753c2.72,0.259 5.008,6.224 7.584,6.309c2.575,0.085 6.522,-5.796 8.276,-5.541c1.754,0.255 2.246,7.069 2.246,7.069c2.537,-5.969 4.258,-12.29 4.245,-19.358c0,0 -8.631,8.932 -15.172,9.357c-6.027,0.392 -8.313,-10.967 -8.313,-10.967Z" style="fill:#fff;"/><g><path d="M304.25,158.821c-22.26,13.027 -38.163,39.751 -44.603,69.087c0,0 10.578,-24.139 14.774,-23.374c1.985,0.362 -3.334,27.307 -3.334,27.307c0,0 12.746,-19.962 17.885,-20.263c5.912,-0.346 5.857,14.179 5.857,14.179l12.269,-32.794c0,0 -13.342,12.324 -16.511,7.381c-4.53,-7.066 7.114,-19.678 7.114,-19.678c0,0 -15.395,9.689 -15.772,6.003c-0.71,-6.95 22.32,-27.847 22.32,-27.847Z" style="fill:#fff;"/><path d="M522.352,184.928c8.825,16.556 15.179,33.015 19.675,49.401c0,0 -5.311,-25.515 1.682,-28.242c11.813,-4.606 27.731,18.152 27.731,18.152c0,0 -8.657,-29.637 -7.421,-31.094c1.236,-1.457 14.144,22.728 14.144,22.728c-10.786,-41.911 -30.949,-59.441 -54.021,-69.409c0,0 37.196,28.442 34.038,47.733c-0.738,4.508 -9.09,-2.988 -12.066,-2.292c-2.976,0.696 -3.035,7.282 -6.372,6.411c-4.195,-1.095 -17.39,-13.388 -17.39,-13.388Z" style="fill:#fff;"/></g><path d="M491.425,188.661c0,0 7.892,21.273 7.673,24.408c-0.219,3.135 -8.988,-5.598 -8.988,-5.598c0.046,7.355 1.098,14.491 3.22,21.394c0,0 7.104,-9.412 9.796,-9.079c2.692,0.332 6.353,11.073 6.353,11.073c1.512,-19.586 -5.299,-33.07 -18.054,-42.197Z" style="fill:#fff;"/></svg>