<?xml version="1.0" encoding="UTF-8" standalone="no"?><!DOCTYPE svg PUBLIC "-//W3C//DTD SVG 1.1//EN" "http://www.w3.org/Graphics/SVG/1.1/DTD/svg11.dtd"><svg width="100%" height="100%" viewBox="0 0 836 836" version="1.1" xmlns="http://www.w3.org/2000/svg" xmlns:xlink="http://www.w3.org/1999/xlink" xml:space="preserve" xmlns:serif="http://www.serif.com/" style="fill-rule:evenodd;clip-rule:evenodd;stroke-linejoin:round;stroke-miterlimit:2;"><g id="Male-eyes"><rect x="0" y="0" width="835.946" height="835.946" style="fill:none;"/><clipPath id="_clip1"><rect x="0" y="0" width="835.946" height="835.946"/></clipPath><g clip-path="url(#_clip1)"><path d="M429.015,609.625c21.734,67.875 -39.041,156.6 -110.544,194.32c-64.848,34.21 -318.472,32 -318.472,32l0,-835.946l835.946,-0l0,121.43c54.775,-47.727 122.428,-58.54 184.882,2.419c-48.068,41.669 -168.553,69.601 -183.944,434.431c-7.358,174.428 57.175,378.844 266.305,559.457c-196.552,13.401 -446.8,-553.771 -361.653,-839.582c13.622,-45.724 35.183,-88.302 61.728,-122.039c-219.269,72.14 -264.922,186.581 -285.562,263.456c5.598,9.971 31.62,60.414 6.261,95.211c-15.532,21.313 17.153,58.6 33.429,77.281c-69.513,-11.467 -96.943,-60.373 -89.42,-92.178c-3.838,-0.46 -8.08,-1.422 -12.787,-2.921c-11.227,-19.578 -32.946,-34.184 -56.203,-30.063c-29.472,3.81 -49.873,36.35 -40.547,64.522c2.173,7.823 6.595,23.544 8.764,31.363c6.483,32.464 31.932,42.818 61.817,46.838Z" style="fill:#e7316b;"/></g></g></svg>