<?xml version="1.0" encoding="UTF-8" standalone="no"?><!DOCTYPE svg PUBLIC "-//W3C//DTD SVG 1.1//EN" "http://www.w3.org/Graphics/SVG/1.1/DTD/svg11.dtd"><svg width="100%" height="100%" viewBox="0 0 836 836" version="1.1" xmlns="http://www.w3.org/2000/svg" xmlns:xlink="http://www.w3.org/1999/xlink" xml:space="preserve" xmlns:serif="http://www.serif.com/" style="fill-rule:evenodd;clip-rule:evenodd;stroke-linejoin:round;stroke-miterlimit:2;"><g id="Mystery-torso-back"><rect x="0" y="-0" width="835.946" height="835.946" style="fill:none;"/><rect x="241.998" y="374.119" width="351.95" height="62.345" style="fill:#91c9fa;"/><clipPath id="_clip1"><rect x="241.998" y="374.119" width="351.95" height="62.345"/></clipPath><g clip-path="url(#_clip1)"><path d="M289.02,394.824l-47.023,0l-0,41.641c29.666,-1.592 44.685,-16.047 47.023,-41.641Z" style="fill:#7bb2e7;"/><path d="M291.47,395.047c-1.233,13.498 -5.883,24.025 -14.063,31.422c-8.111,7.334 -19.763,11.619 -35.277,12.451c-0.674,0.036 -1.334,-0.206 -1.824,-0.671c-0.49,-0.464 -0.768,-1.11 -0.768,-1.785l0,-41.641c-0,-1.358 1.101,-2.459 2.459,-2.459l47.023,0c0.691,-0 1.35,0.291 1.816,0.801c0.466,0.51 0.696,1.193 0.633,1.882Zm-2.449,-0.224l-47.023,0l-0,41.641c29.666,-1.592 44.685,-16.047 47.023,-41.641Z" style="fill:#d5d7d6;"/><path d="M546.925,394.824l47.023,0l0,41.641c-29.666,-1.592 -44.685,-16.047 -47.023,-41.641Z" style="fill:#7bb2e7;"/><path d="M546.925,392.364l47.023,0c1.358,-0 2.459,1.101 2.459,2.459l0,41.641c-0,0.675 -0.278,1.321 -0.768,1.785c-0.49,0.464 -1.149,0.707 -1.824,0.671c-15.513,-0.832 -27.166,-5.118 -35.277,-12.451c-8.18,-7.396 -12.83,-17.924 -14.063,-31.422c-0.063,-0.688 0.167,-1.371 0.633,-1.882c0.466,-0.51 1.125,-0.801 1.816,-0.801Zm0,2.459c2.338,25.593 17.357,40.049 47.023,41.641l-0,-41.641l-47.023,0Z" style="fill:#d5d7d6;"/><rect x="416.435" y="394.824" width="3.075" height="41.641" style="fill:#d5d7d6;"/></g><rect x="241.998" y="327.296" width="351.95" height="46.824" style="fill:#faef33;"/><rect x="241.998" y="374.119" width="351.95" height="20.704" style="fill:#91c9fa;"/><g><path d="M337.547,374.171l0,20.601c0,2.42 -1.965,4.385 -4.385,4.385l-8.771,0c-2.42,0 -4.385,-1.965 -4.385,-4.385l0,-20.601c0,-2.42 1.965,-4.385 4.385,-4.385l8.771,0c2.42,0 4.385,1.965 4.385,4.385Z" style="fill:#9fd1fa;"/><path d="M515.94,374.171l0,20.601c0,2.42 -1.965,4.385 -4.385,4.385l-8.771,0c-2.42,0 -4.385,-1.965 -4.385,-4.385l0,-20.601c0,-2.42 1.965,-4.385 4.385,-4.385l8.771,0c2.42,0 4.385,1.965 4.385,4.385Z" style="fill:#9fd1fa;"/></g></g></svg>