<?xml version="1.0" encoding="UTF-8" standalone="no"?><!DOCTYPE svg PUBLIC "-//W3C//DTD SVG 1.1//EN" "http://www.w3.org/Graphics/SVG/1.1/DTD/svg11.dtd"><svg width="100%" height="100%" viewBox="0 0 836 836" version="1.1" xmlns="http://www.w3.org/2000/svg" xmlns:xlink="http://www.w3.org/1999/xlink" xml:space="preserve" xmlns:serif="http://www.serif.com/" style="fill-rule:evenodd;clip-rule:evenodd;stroke-linejoin:round;stroke-miterlimit:2;"><g id="Female-eyesbrown"><rect x="0" y="0" width="835.946" height="835.946" style="fill:none;"/><path d="M497.925,310.426c5.967,-5.567 167.797,-28.774 210.665,-15.959c17.455,5.219 62.403,43.263 62.403,43.263c0,0 -62.992,-16.174 -82.142,-17.772c-39.872,-3.324 -182.424,18.904 -189.118,14.325c-5.583,-3.816 -6.75,-19.242 -1.808,-23.857" style="fill:#080706;"/><path d="M338.02,310.426c-5.967,-5.567 -167.797,-28.774 -210.665,-15.959c-17.455,5.219 -62.403,43.263 -62.403,43.263c0,0 62.997,-16.174 82.142,-17.772c39.872,-3.324 182.424,18.904 189.118,14.325c5.583,-3.816 6.75,-19.242 1.808,-23.857" style="fill:#080706;"/></g></svg>