<?xml version="1.0" encoding="UTF-8" standalone="no"?><!DOCTYPE svg PUBLIC "-//W3C//DTD SVG 1.1//EN" "http://www.w3.org/Graphics/SVG/1.1/DTD/svg11.dtd"><svg width="100%" height="100%" viewBox="0 0 836 836" version="1.1" xmlns="http://www.w3.org/2000/svg" xmlns:xlink="http://www.w3.org/1999/xlink" xml:space="preserve" xmlns:serif="http://www.serif.com/" style="fill-rule:evenodd;clip-rule:evenodd;stroke-linejoin:round;stroke-miterlimit:2;"><g id="Male-eyesbrown"><rect x="0" y="0" width="835.946" height="835.946" style="fill:none;"/><g><path d="M312.697,302.029c-6.272,-6.272 -166.936,-19.683 -208.082,0c-16.753,8.016 -58.067,58.805 -58.067,58.805c0,0 60.665,-25.667 79.35,-29.402c38.909,-7.775 180.567,6.232 186.799,0c5.198,-5.198 5.198,-24.204 0,-29.402"/><path d="M523.248,302.029c6.272,-6.272 166.936,-19.683 208.082,0c16.753,8.016 58.067,58.805 58.067,58.805c0,0 -60.665,-25.667 -79.35,-29.402c-38.909,-7.775 -180.567,6.232 -186.799,0c-5.198,-5.198 -5.198,-24.204 0,-29.402"/></g></g></svg>