<?xml version="1.0" encoding="UTF-8" standalone="no"?><!DOCTYPE svg PUBLIC "-//W3C//DTD SVG 1.1//EN" "http://www.w3.org/Graphics/SVG/1.1/DTD/svg11.dtd"><svg width="100%" height="100%" viewBox="0 0 836 836" version="1.1" xmlns="http://www.w3.org/2000/svg" xmlns:xlink="http://www.w3.org/1999/xlink" xml:space="preserve" xmlns:serif="http://www.serif.com/" style="fill-rule:evenodd;clip-rule:evenodd;stroke-linejoin:round;stroke-miterlimit:2;"><g id="Mira-eyesbrown"><rect x="0" y="0" width="835.946" height="835.946" style="fill:none;"/><g><g><path d="M38.818,325.169c38.986,-19.669 90.557,-37.975 132.993,-20.342c48.502,20.153 104.715,59.24 129.944,58.625c15.236,-0.371 20.486,-26.219 6.975,-33.271c-29.667,-15.487 -139.005,-65.131 -184.274,-64.672c-40.953,0.416 -85.638,59.66 -85.638,59.66Z" style="fill:#e00067;"/><path d="M797.127,325.169c-38.986,-19.669 -90.557,-37.975 -132.993,-20.342c-48.502,20.153 -104.715,59.24 -129.944,58.625c-15.236,-0.371 -20.486,-26.219 -6.975,-33.271c29.667,-15.487 139.005,-65.131 184.274,-64.672c40.953,0.416 85.638,59.66 85.638,59.66Z" style="fill:#e00067;"/></g></g></g></svg>