<?xml version="1.0" encoding="UTF-8" standalone="no"?><!DOCTYPE svg PUBLIC "-//W3C//DTD SVG 1.1//EN" "http://www.w3.org/Graphics/SVG/1.1/DTD/svg11.dtd"><svg width="100%" height="100%" viewBox="0 0 836 836" version="1.1" xmlns="http://www.w3.org/2000/svg" xmlns:xlink="http://www.w3.org/1999/xlink" xml:space="preserve" xmlns:serif="http://www.serif.com/" style="fill-rule:evenodd;clip-rule:evenodd;stroke-linejoin:round;stroke-miterlimit:2;"><g id="Rumi-eyesbrown"><rect x="0" y="0" width="835.946" height="835.946" style="fill:none;"/><g><path d="M314.62,317.641c-5.484,-6.976 -163.459,-39.4 -206.665,-24.744c-17.592,5.969 -64.665,51.5 -64.665,51.5c0,0 63.304,-18.278 82.306,-19.766c39.569,-3.096 178.596,27.662 185.527,22.213c5.781,-4.545 8.041,-23.421 3.496,-29.202" style="fill:#9100ad;"/><path d="M521.521,314.988c5.622,-6.865 164.212,-36.132 207.117,-20.617c17.47,6.319 63.625,52.779 63.625,52.779c0,0 -62.927,-19.537 -81.895,-21.404c-39.499,-3.884 -179.113,24.095 -185.934,18.509c-5.689,-4.659 -7.572,-23.577 -2.913,-29.266" style="fill:#9100ad;"/></g></g></svg>