<?xml version="1.0" encoding="UTF-8" standalone="no"?><!DOCTYPE svg PUBLIC "-//W3C//DTD SVG 1.1//EN" "http://www.w3.org/Graphics/SVG/1.1/DTD/svg11.dtd"><svg width="100%" height="100%" viewBox="0 0 836 836" version="1.1" xmlns="http://www.w3.org/2000/svg" xmlns:xlink="http://www.w3.org/1999/xlink" xml:space="preserve" xmlns:serif="http://www.serif.com/" style="fill-rule:evenodd;clip-rule:evenodd;stroke-linecap:round;stroke-linejoin:round;stroke-miterlimit:1.5;"><g id="Zoey-eyesbrown"><rect x="0" y="0" width="835.946" height="835.946" style="fill:none;"/><g><path d="M63.368,338.878c81.051,-56.273 221.042,8.708 265.706,1.317c15.036,-2.488 16.637,-28.814 2.277,-33.918c-31.534,-11.208 -146.717,-28.336 -191.481,-21.58c-40.496,6.111 -76.502,54.182 -76.502,54.182Z"/><path d="M772.72,338.878c-81.051,-56.273 -221.042,8.708 -265.706,1.317c-15.036,-2.488 -16.637,-28.814 -2.277,-33.918c31.534,-11.208 146.717,-28.336 191.481,-21.58c40.496,6.111 76.502,54.182 76.502,54.182Z"/><path d="M323.189,835.946l189.569,0l-189.569,0Z" style="fill:#fcd0ae;"/><clipPath id="_clip1"><path d="M323.189,835.946l189.569,0l-189.569,0Z"/></clipPath><g clip-path="url(#_clip1)"><path d="M323.189,835.946c27.94,19.926 58.861,39.757 94.784,51.447c34.822,-10.957 66.408,-30.106 94.784,-51.447" style="fill:none;stroke:#ffda9f;stroke-width:4.87px;"/></g></g></g></svg>