<?xml version="1.0" encoding="UTF-8" standalone="no"?><!DOCTYPE svg PUBLIC "-//W3C//DTD SVG 1.1//EN" "http://www.w3.org/Graphics/SVG/1.1/DTD/svg11.dtd"><svg width="100%" height="100%" viewBox="0 0 836 836" version="1.1" xmlns="http://www.w3.org/2000/svg" xmlns:xlink="http://www.w3.org/1999/xlink" xml:space="preserve" xmlns:serif="http://www.serif.com/" style="fill-rule:evenodd;clip-rule:evenodd;stroke-linejoin:round;stroke-miterlimit:2;"><rect id="Romance-hair-back" x="0" y="0" width="835.946" height="835.946" style="fill:none;"/><path d="M206.202,471.205c-11.365,-8.013 -21.858,-17.769 -28.999,-29.389c-25.231,-41.057 -35.968,-108.952 -24.547,-168.412c0.849,-51.944 44.435,-106.973 83.382,-144.69c41.578,-40.264 106.913,-78.522 181.934,-23.271c75.021,-55.252 140.357,-16.993 181.934,23.271c38.947,37.716 82.533,92.746 83.382,144.69c11.421,59.46 0.685,127.355 -24.547,168.412c-9.052,14.73 -23.49,26.464 -38.263,35.45c-25.822,38.355 -18.949,68.718 30.3,86.782c-15.66,4.028 -37.476,-6.8 -55.615,-5.117c19.779,24.449 26.087,47.847 21.271,70.377c-17.054,-11.401 -30.404,-24.318 -38.92,-39.214c-6.11,20.678 -7.425,43.402 -0.918,63.475c-7.884,-3.762 -14.72,-10.254 -20.442,-19.65c-8.213,16.221 -17.663,30.297 -30.391,38.687c-10.188,-11.354 15.774,-40.215 5.537,-69.542c-7.316,18.695 -16.446,35.847 -30.298,48.977c-3.702,-14.921 -6.121,-30.143 -4.676,-46.269c-18.149,17.812 -40.601,28.723 -65.398,35.871c0.565,-11.092 -3.131,-20.856 -12.013,-29.005c-8.756,4.216 -14.365,9.808 -19.569,15.046c-11.801,-5.264 -20.283,-12.415 -27.124,-20.5c-6.577,21.551 -18.176,40.396 -34.044,53.866c-1.386,-8.504 -3.487,-16.699 -6.961,-24.304c-22.123,11.232 -36.303,27.935 -46.86,47.132c-1.487,-15.404 1.159,-30.965 8.855,-46.718c-16.184,15.084 -29.124,30.342 -39.73,45.726c-4.699,-26.896 2.346,-51.874 19.712,-75.165c-10.212,8.316 -20.508,11.099 -30.94,4.717c10.177,-14.727 13.834,-31.073 10.964,-49.039c-14.052,6.383 -25.911,7.399 -34.712,0.926c23.091,-16.367 29.665,-34.181 20.096,-53.411c-3.552,6.436 -8.65,11.026 -15.941,13c5.497,-12.241 6.309,-23.488 2.793,-33.818c-6.801,-6.022 -13.187,-12.34 -19.253,-18.888Z" style="fill:#b34d7f;"/></svg>