<?xml version="1.0" encoding="UTF-8" standalone="no"?><!DOCTYPE svg PUBLIC "-//W3C//DTD SVG 1.1//EN" "http://www.w3.org/Graphics/SVG/1.1/DTD/svg11.dtd"><svg width="100%" height="100%" viewBox="0 0 836 836" version="1.1" xmlns="http://www.w3.org/2000/svg" xmlns:xlink="http://www.w3.org/1999/xlink" xml:space="preserve" xmlns:serif="http://www.serif.com/" style="fill-rule:evenodd;clip-rule:evenodd;stroke-linejoin:round;stroke-miterlimit:2;"><rect id="Romance-hair-front" x="0" y="0" width="835.946" height="835.946" style="fill:none;"/><g><path d="M437.05,211.714c104.985,-6.646 148.538,38.224 140.877,126.04c0,0 55.106,-146.657 -13.798,-210.6c-95.395,-88.527 -127.079,84.559 -127.079,84.559Z" style="fill:#bd5286;"/><clipPath id="_clip1"><path d="M437.05,211.714c104.985,-6.646 148.538,38.224 140.877,126.04c0,0 55.106,-146.657 -13.798,-210.6c-95.395,-88.527 -127.079,84.559 -127.079,84.559Z"/></clipPath><g clip-path="url(#_clip1)"><path d="M450.898,212.983c1.452,-20.603 30.586,-61.331 48.517,-72.16c-20.33,21.233 -41.478,82.624 -26.82,94.889l-21.697,-22.729Z" style="fill:#a04471;fill-opacity:0.51;"/><path d="M488.845,234.212c3.205,-20.403 35.71,-58.496 54.5,-67.755c-22.068,19.42 -48.38,78.782 -34.823,92.253l-19.677,-24.498Z" style="fill:#a04471;fill-opacity:0.51;"/><path d="M494.741,276.773c5.1,-20.014 41.027,-54.898 60.601,-62.358c-23.788,17.27 -55.539,73.909 -43.302,88.59l-17.299,-26.232Z" style="fill:#a04471;fill-opacity:0.51;"/><path d="M495.35,255.177c14.61,-14.598 63.317,-26.229 83.954,-22.64c-29.273,2.691 -85.506,35.157 -82.487,54.029l-1.467,-31.388Z" style="fill:#a04471;fill-opacity:0.51;"/></g><path d="M398.895,211.714c-104.985,-6.646 -148.538,38.224 -140.877,126.04c0,0 -55.106,-146.657 13.798,-210.6c95.395,-88.527 127.079,84.559 127.079,84.559Z" style="fill:#bd5286;"/><clipPath id="_clip2"><path d="M398.895,211.714c-104.985,-6.646 -148.538,38.224 -140.877,126.04c0,0 -55.106,-146.657 13.798,-210.6c95.395,-88.527 127.079,84.559 127.079,84.559Z"/></clipPath><g clip-path="url(#_clip2)"><path d="M385.048,212.983c-1.452,-20.603 -30.586,-61.331 -48.517,-72.16c20.33,21.233 41.478,82.624 26.82,94.889l21.697,-22.729Z" style="fill:#a04471;fill-opacity:0.51;"/><path d="M347.1,234.212c-3.205,-20.403 -35.71,-58.496 -54.5,-67.755c22.068,19.42 48.38,78.782 34.823,92.253l19.677,-24.498Z" style="fill:#a04471;fill-opacity:0.51;"/><path d="M341.205,276.773c-5.1,-20.014 -41.027,-54.898 -60.601,-62.358c23.788,17.27 55.539,73.909 43.302,88.59l17.299,-26.232Z" style="fill:#a04471;fill-opacity:0.51;"/><path d="M340.595,255.177c-14.61,-14.598 -63.317,-26.229 -83.954,-22.64c29.273,2.691 85.506,35.157 82.487,54.029l1.467,-31.388Z" style="fill:#a04471;fill-opacity:0.51;"/></g><path d="M417.973,234.488c-1.88,0.227 -18.195,-11.794 -19.078,-22.774c0,0 -65.96,-219.592 -147.308,-5.477c-20.627,54.292 12.032,182.532 45.029,212.798c-5.497,1.552 -10.843,1.167 -15.989,-1.779c13.716,28.28 20.522,53.746 20.283,76.343c0,0 -26.755,-57.416 -55.321,-70.907c-25.906,-12.235 -41.146,-37.203 -47.16,-50.538c1.959,48.958 47.661,100.655 70.615,128.378c0,0 -66.699,-17.802 -91.842,-58.715c-25.231,-41.057 -35.968,-108.952 -24.547,-168.412c0.849,-51.944 44.435,-106.973 83.382,-144.69c41.578,-40.264 106.913,-78.522 181.934,-23.271c75.021,-55.252 140.357,-16.993 181.934,23.271c38.947,37.716 82.533,92.746 83.382,144.69c11.421,59.46 0.685,127.355 -24.547,168.412c-25.143,40.914 -91.842,58.715 -91.842,58.715c22.954,-27.723 68.656,-79.42 70.615,-128.378c-6.014,13.335 -21.255,38.303 -47.16,50.538c-28.566,13.492 -55.321,70.907 -55.321,70.907c-0.239,-22.596 6.567,-48.062 20.283,-76.343c-5.146,2.946 -10.492,3.331 -15.989,1.779c32.997,-30.266 65.656,-158.506 45.029,-212.798c-81.347,-214.115 -147.308,5.477 -147.308,5.477c-0.882,10.979 -17.198,23.001 -19.078,22.774Z" style="fill:#f06ba8;"/><clipPath id="_clip3"><path d="M417.973,234.488c-1.88,0.227 -18.195,-11.794 -19.078,-22.774c0,0 -65.96,-219.592 -147.308,-5.477c-20.627,54.292 12.032,182.532 45.029,212.798c-5.497,1.552 -10.843,1.167 -15.989,-1.779c13.716,28.28 20.522,53.746 20.283,76.343c0,0 -26.755,-57.416 -55.321,-70.907c-25.906,-12.235 -41.146,-37.203 -47.16,-50.538c1.959,48.958 47.661,100.655 70.615,128.378c0,0 -66.699,-17.802 -91.842,-58.715c-25.231,-41.057 -35.968,-108.952 -24.547,-168.412c0.849,-51.944 44.435,-106.973 83.382,-144.69c41.578,-40.264 106.913,-78.522 181.934,-23.271c75.021,-55.252 140.357,-16.993 181.934,23.271c38.947,37.716 82.533,92.746 83.382,144.69c11.421,59.46 0.685,127.355 -24.547,168.412c-25.143,40.914 -91.842,58.715 -91.842,58.715c22.954,-27.723 68.656,-79.42 70.615,-128.378c-6.014,13.335 -21.255,38.303 -47.16,50.538c-28.566,13.492 -55.321,70.907 -55.321,70.907c-0.239,-22.596 6.567,-48.062 20.283,-76.343c-5.146,2.946 -10.492,3.331 -15.989,1.779c32.997,-30.266 65.656,-158.506 45.029,-212.798c-81.347,-214.115 -147.308,5.477 -147.308,5.477c-0.882,10.979 -17.198,23.001 -19.078,22.774Z"/></clipPath><g clip-path="url(#_clip3)"><g><path d="M469.746,65.505c-18.392,9.398 -44.472,52.146 -47.421,72.885c11.585,-27.017 59.805,-70.502 76.828,-61.812l-29.407,-11.073Z" style="fill:#e566a1;fill-opacity:0.51;"/><path d="M366.2,65.505c18.392,9.398 44.472,52.146 47.421,72.885c-11.585,-27.017 -59.805,-70.502 -76.828,-61.812l29.407,-11.073Z" style="fill:#e566a1;fill-opacity:0.51;"/></g></g></g><g><path d="M610.523,188.106c18.208,51.119 12.994,107.552 -12.625,168.614c15.806,-58.759 19.839,-114.925 12.625,-168.614Z" style="fill:#f394be;"/><path d="M225.422,188.106c-18.208,51.119 -12.994,107.552 12.625,168.614c-15.806,-58.759 -19.839,-114.925 -12.625,-168.614Z" style="fill:#f394be;"/><path d="M667.436,311.949c6.131,42.481 -6.123,87.41 -34.392,134.469c20.555,-45.972 31.882,-90.778 34.392,-134.469Z" style="fill:#f394be;"/><path d="M168.51,311.949c-6.131,42.481 6.123,87.41 34.392,134.469c-20.555,-45.972 -31.882,-90.778 -34.392,-134.469Z" style="fill:#f394be;"/></g></svg>