<?xml version="1.0" encoding="UTF-8" standalone="no"?><!DOCTYPE svg PUBLIC "-//W3C//DTD SVG 1.1//EN" "http://www.w3.org/Graphics/SVG/1.1/DTD/svg11.dtd"><svg width="100%" height="100%" viewBox="0 0 836 836" version="1.1" xmlns="http://www.w3.org/2000/svg" xmlns:xlink="http://www.w3.org/1999/xlink" xml:space="preserve" xmlns:serif="http://www.serif.com/" style="fill-rule:evenodd;clip-rule:evenodd;stroke-linejoin:round;stroke-miterlimit:2;"><rect id="Mystery-hair-front" x="0" y="0" width="835.946" height="835.946" style="fill:none;"/><path d="M470.005,143.017c0,0 -45.424,-64.534 -140.858,-19.129c-46.942,22.334 -138.535,83.559 -140.792,153.131c-1.16,35.757 16.994,66.861 21.944,97.093c6.765,41.308 0.971,65.522 -16.604,79.899c3.207,3.663 7.162,5.087 12.995,4.436c0.686,1.322 0.797,2.644 0.255,3.967c7.584,3.863 18.003,3.866 27.107,1.268c1.176,2.684 -1.193,5.528 -5.127,8.443c29.77,1.468 47.432,-4.196 73.412,-22.155c1.047,3.44 -0.667,9.573 -6.252,13.337c36.378,4.173 76.837,-10.909 103.667,-42.666c-0.65,3.885 -4.14,9.477 -6.322,11.565c12.998,-4.675 24.111,-20.617 27.145,-33.997c2.93,33.139 18.196,57.106 59.073,64.345c-6.104,-6.03 -10.524,-13.469 -12.745,-22.746c26.102,16.143 52.402,24.288 78.952,22.441c-18.834,-14.061 -33.998,-29.548 -39.656,-48.732c7.096,8.2 15.096,14.775 25.025,17.879c26.367,20.528 53.598,35.938 84.31,30.702c-1.793,-1.633 -3.049,-3.597 -3.939,-5.787c9.785,-5.52 45.377,-172.886 33.735,-205.935c-16.314,-46.315 -91.539,-111.9 -129.463,-119.097c-11.422,-2.167 -45.863,11.735 -45.863,11.735Z" style="fill:#979fd0;"/><g><path d="M301.936,195.413c-31.909,14.88 -58.254,52.57 -72.694,96.598c0,0 18.82,-34.958 24.178,-32.758c2.535,1.04 -9.944,41.623 -9.944,41.623c0,0 20.818,-27.945 27.633,-27.175c7.841,0.886 4.81,23.44 4.81,23.44l22.805,-47.997c0,0 -20.045,15.934 -23.203,7.492c-4.514,-12.069 13.359,-28.861 13.359,-28.861c0,0 -22.207,11.346 -21.951,5.529c0.483,-10.969 35.007,-37.891 35.007,-37.891Z" style="fill:#d9dcef;"/><path d="M306.365,259.249c-8.531,7.085 -13.528,16.073 -15.55,26.665c6.853,-7.629 12.008,-16.538 15.55,-26.665Z" style="fill:#d9dcef;"/><path d="M330.31,224.906c-7.665,10.065 -10.952,20.226 -10.957,30.461c0,0 8.671,-8.537 12.591,-8.095c3.92,0.442 7.217,10.602 10.927,10.747c3.711,0.144 9.398,-9.872 11.925,-9.438c2.527,0.434 3.237,12.041 3.237,12.041c3.655,-10.168 6.135,-20.935 6.117,-32.974c0,0 -12.436,15.214 -21.861,15.939c-8.684,0.668 -11.977,-18.68 -11.977,-18.68Z" style="fill:#d9dcef;"/><path d="M390.203,232.582c-12.78,10.019 -15.259,24.422 -11.624,41.426c0,0 12.093,-16.036 16.941,-17.214c4.848,-1.178 12.147,10.146 12.147,10.146c6.541,-8.53 8.969,-17.81 3.906,-28.456c0,0 -10.895,9.808 -14.457,8.825c-3.562,-0.984 -6.914,-14.727 -6.914,-14.727Z" style="fill:#d9dcef;"/><path d="M448.566,241.505c-1.754,12.642 -0.897,24.589 3.042,35.715c3.671,-12.491 2.749,-24.408 -3.042,-35.715Z" style="fill:#d9dcef;"/><path d="M465.829,241.505c-1.573,9.552 0.582,17.292 6.201,23.348c3.156,-10.25 0.892,-17.939 -6.201,-23.348Z" style="fill:#d9dcef;"/><path d="M498.928,234.357c-0.559,12.048 3.519,20.82 11.741,26.665c-0.116,-11.064 -3.655,-20.167 -11.741,-26.665Z" style="fill:#d9dcef;"/><path d="M523.221,249.713c14.852,26.263 26.187,52.777 34.878,79.481c0,0 -11.139,-41.863 -1.613,-47.602c16.091,-9.695 41.873,25.773 41.873,25.773c0,0 -16.465,-48.209 -14.919,-50.858c1.546,-2.648 23.263,35.715 23.263,35.715c-21.22,-68.417 -52.279,-94.416 -86.389,-107.257c0,0 56.744,41.431 54.999,74.283c-0.408,7.677 -13.306,-3.485 -17.425,-1.821c-4.119,1.664 -3.271,12.709 -8.124,11.808c-6.101,-1.132 -26.542,-19.522 -26.542,-19.522Z" style="fill:#d9dcef;"/></g><path d="M387.295,404.662c-16.537,24.916 -41.119,38.405 -72.71,41.941c28.189,-8.3 52.366,-22.366 72.71,-41.941Z" style="fill:#b0b8dd;"/><path d="M251.481,411.805c-9.477,23.213 -22.993,34.291 -40.028,34.798c15.325,-5.571 28.637,-17.262 40.028,-34.798Z" style="fill:#b0b8dd;"/><path d="M530.857,404.662c16.537,24.916 41.119,38.405 72.71,41.941c-28.189,-8.3 -52.366,-22.366 -72.71,-41.941Z" style="fill:#b0b8dd;"/><path d="M467.517,390.976c7.443,23.406 21.812,36.865 42.214,41.658c-17.483,-8.939 -31.503,-22.9 -42.214,-41.658Z" style="fill:#b0b8dd;"/></svg>