<?xml version="1.0" encoding="UTF-8" standalone="no"?><!DOCTYPE svg PUBLIC "-//W3C//DTD SVG 1.1//EN" "http://www.w3.org/Graphics/SVG/1.1/DTD/svg11.dtd"><svg width="100%" height="100%" viewBox="0 0 836 836" version="1.1" xmlns="http://www.w3.org/2000/svg" xmlns:xlink="http://www.w3.org/1999/xlink" xml:space="preserve" xmlns:serif="http://www.serif.com/" style="fill-rule:evenodd;clip-rule:evenodd;stroke-linejoin:round;stroke-miterlimit:2;"><g id="Mystery-hair-left"><rect x="-0" y="0" width="835.946" height="835.946" style="fill:none;"/><clipPath id="_clip1"><rect x="-0" y="0" width="835.946" height="835.946"/></clipPath><g clip-path="url(#_clip1)"><g><path d="M835.946,-0l0,573.194c-8.125,51.937 -23.63,94.781 -51.544,109.559c-5.696,-50.506 -29.141,-108.948 -59.551,-126.64c-7.21,81.56 -46.419,107.205 -143.379,114.864c15.023,-14.841 25.9,-33.149 31.366,-55.981c-64.24,39.729 -107.043,16.156 -172.386,11.611c19.6,-39.915 -6.537,-67.018 7.389,-114.232c-17.464,20.181 -34.96,31.421 -99.057,44.884c35.112,64.216 60.578,135.179 -3.532,204.78c2.954,-20.91 0.509,-42.065 -8.982,-63.538c-21.53,56.216 -50.886,102.677 -89.623,137.444l-25.115,-0c10.965,-46.722 13.566,-91.036 -1.405,-130.291c-1.659,26.637 -18.334,81.57 -29.641,103.285c-7.202,13.832 -38.202,27.005 -38.202,27.005l-152.285,0l-0,-835.946l835.946,0Z" style="fill:#979fd0;"/></g></g></g></svg>