<?xml version="1.0" encoding="UTF-8" standalone="no"?><!DOCTYPE svg PUBLIC "-//W3C//DTD SVG 1.1//EN" "http://www.w3.org/Graphics/SVG/1.1/DTD/svg11.dtd"><svg width="100%" height="100%" viewBox="0 0 836 836" version="1.1" xmlns="http://www.w3.org/2000/svg" xmlns:xlink="http://www.w3.org/1999/xlink" xml:space="preserve" xmlns:serif="http://www.serif.com/" style="fill-rule:evenodd;clip-rule:evenodd;stroke-linejoin:round;stroke-miterlimit:2;"><rect id="Mystery-hair-back" x="0" y="0" width="835.946" height="835.946" style="fill:none;"/><path d="M605.613,463.096c-21.167,30.277 -28.586,59.163 3.485,84.051c-14.495,3.294 -26.584,-2.45 -36.582,-16.05c-2.779,11.042 -7.04,18.292 -13.051,21.062c-16.311,-9.735 -29.887,-22.761 -41.429,-38.232c1.951,19.416 11.029,37.478 29.599,53.736c-3.748,2.871 -7.9,4.824 -12.646,5.423c-0.241,1.701 0.172,3.337 1.345,4.898c-9.149,-0.243 -17.953,-2.434 -26.305,-7.184c1.707,5.311 4.348,10.225 8.778,14.379c-5.625,-0.755 -11.092,-1.829 -14.672,-6.734c-1.431,0.632 -1.797,1.19 -1.706,3.414c-12.166,-7.552 -23.578,-19.294 -31.273,-32.468c-5.749,7.331 -12.69,13.841 -21.293,19.208c-2.236,-6.841 -3.689,-14.291 -4.906,-22.007c-8.297,7.18 -17.223,13.48 -27.731,17.574c-10.985,-5.471 -19.974,-13.059 -26.887,-22.85c1.439,11.204 0.877,22.464 -1.226,33.768c-11.858,-8.949 -21.2,-19.587 -27.36,-32.359c-4.208,8.543 -6.457,17.133 -6.493,25.776c-13.804,-8.04 -21.773,-21.179 -26.907,-36.794c-14.402,27.993 -31.121,47.612 -51.858,52.703c12.872,-17.103 17.204,-37.507 15.545,-60.227c-14.79,19.353 -30.067,33.924 -46.26,39.498c-0.093,-1.61 -1.031,-2.995 -2.992,-4.109c-4.774,4.527 -9.32,6.151 -13.651,5.059c3.16,-5.604 4.898,-11.309 5.302,-17.108c-2.959,1.489 -5.99,1.593 -9.093,0.293c12.077,-10.427 17.463,-27.759 18.252,-45.281c-4.869,9.266 -11.053,15.69 -18.854,18.612c3.003,-8.749 4.735,-17.422 4.394,-25.969c-3.422,4.978 -7.612,7.834 -12.699,8.215c1.987,-12.123 2.383,-24.757 0.405,-38.151c-3.565,-0.408 -6.946,-1.327 -9.898,-2.831c0.542,-1.323 0.432,-2.645 -0.255,-3.967c-5.833,0.651 -9.788,-0.772 -12.995,-4.436c17.574,-14.377 23.368,-38.591 16.604,-79.899c-4.951,-30.232 -23.104,-61.336 -21.944,-97.093c2.257,-69.572 93.85,-130.798 140.792,-153.131c95.434,-45.405 140.858,19.129 140.858,19.129c0,0 34.441,-13.903 45.863,-11.735c37.925,7.196 113.149,72.782 129.463,119.097c11.641,33.049 -23.95,200.414 -33.735,205.935c0.89,2.189 2.146,4.153 3.939,5.787c-3.348,0.571 -6.654,0.896 -9.922,0.996Z" style="fill:#697093;"/></svg>