<?xml version="1.0" encoding="UTF-8" standalone="no"?><!DOCTYPE svg PUBLIC "-//W3C//DTD SVG 1.1//EN" "http://www.w3.org/Graphics/SVG/1.1/DTD/svg11.dtd"><svg width="100%" height="100%" viewBox="0 0 836 836" version="1.1" xmlns="http://www.w3.org/2000/svg" xmlns:xlink="http://www.w3.org/1999/xlink" xml:space="preserve" xmlns:serif="http://www.serif.com/" style="fill-rule:evenodd;clip-rule:evenodd;stroke-linejoin:round;stroke-miterlimit:2;"><g id="Mesa-de-trabajo3" serif:id="Mesa de trabajo3"><rect x="0" y="-0" width="835.946" height="835.946" style="fill:none;"/><path d="M593.949,436.467l9.547,81.642l-180.382,26.072l-5.142,-107.715l175.976,0Z" style="fill:#f7d5cf;"/><g><g><path d="M423.114,544.182l13.927,291.764l306.093,0l-31.502,-77.394l-86.493,-55.363l-21.643,-185.079l-180.382,26.072Z" style="fill:#390626;fill-opacity:0;"/><clipPath id="_clip1"><path d="M423.114,544.182l13.927,291.764l306.093,0l-31.502,-77.394l-86.493,-55.363l-21.643,-185.079l-180.382,26.072Z"/></clipPath><g clip-path="url(#_clip1)"><path d="M603.255,701.218l-6.204,-56.354l-39.198,-2.607l9.587,61.69l35.815,-2.728Z" style="fill:#ed1a35;"/><clipPath id="_clip2"><path d="M603.255,701.218l-6.204,-56.354l-39.198,-2.607l9.587,61.69l35.815,-2.728Z"/></clipPath><g clip-path="url(#_clip2)"><path d="M557.853,655.923l0.466,3.852l45.748,-5.536l-0.466,-3.852l-45.748,5.536Z" style="fill:#bb1027;"/><path d="M559.277,667.811l0.466,3.852l45.748,-5.536l-0.466,-3.852l-45.748,5.536Z" style="fill:#bb1027;"/><path d="M562.025,679.572l0.466,3.852l45.748,-5.536l-0.466,-3.852l-45.748,5.536Z" style="fill:#bb1027;"/><path d="M564.024,691.966l0.466,3.852l45.748,-5.536l-0.466,-3.852l-45.748,5.536Z" style="fill:#bb1027;"/></g><path d="M603.255,701.218l-35.815,2.728l-9.587,-61.69l39.198,2.607l6.204,56.354Zm-1.513,-1.255l-5.924,-53.812l-36.353,-2.418l9.13,58.755l33.147,-2.525Z" style="fill:#bb1027;"/><path d="M743.134,821.159l-234.107,5.792c-13.538,-0.346 -33.238,-11.862 -40.861,-20.639c-3.705,15.777 -7.899,34.412 -7.899,34.412l290.167,2.551l-7.3,-22.116Z"/><path d="M603.255,508.996l19.325,114.173c-19.915,8.093 -48.067,10.579 -75.45,4.466c0,0 36.347,-15.268 42.224,-31.25c4.726,-12.852 -6.229,-83.052 -6.229,-83.052c0,0 11.307,-2.432 20.13,-4.337Z" style="fill:#e0d6dd;"/></g><clipPath id="_clip3"><rect x="417.973" y="436.467" width="182.172" height="63.235"/></clipPath><g clip-path="url(#_clip3)"><path d="M241.997,436.467l-6.196,52.986c0,0 89.071,10.249 182.172,10.249c96.388,0 182.172,-10.249 182.172,-10.249l-6.196,-52.986l-351.952,0Z" style="fill:#fdc53f;"/></g></g></g></g></svg>