<?xml version="1.0" encoding="UTF-8" standalone="no"?><!DOCTYPE svg PUBLIC "-//W3C//DTD SVG 1.1//EN" "http://www.w3.org/Graphics/SVG/1.1/DTD/svg11.dtd"><svg width="100%" height="100%" viewBox="0 0 836 836" version="1.1" xmlns="http://www.w3.org/2000/svg" xmlns:xlink="http://www.w3.org/1999/xlink" xml:space="preserve" xmlns:serif="http://www.serif.com/" style="fill-rule:evenodd;clip-rule:evenodd;stroke-linecap:round;stroke-miterlimit:1.5;"><g id="Mystery-arm-left"><rect x="0" y="-0" width="835.946" height="835.946" style="fill:none;"/><path d="M211.17,159.104l168.816,127.192l1.081,236.647c0,0 -57.599,-30.699 -85.858,-34.051c-28.085,-3.331 -83.693,13.941 -83.693,13.941c0,0 6.951,-49.539 1.945,-73.546c-5.063,-24.284 -32.325,-72.159 -32.325,-72.159l-69.033,-36.339l99.068,-161.686Z" style="fill:#faef33;"/><clipPath id="_clip1"><path d="M211.17,159.104l168.816,127.192l1.081,236.647c0,0 -57.599,-30.699 -85.858,-34.051c-28.085,-3.331 -83.693,13.941 -83.693,13.941c0,0 6.951,-49.539 1.945,-73.546c-5.063,-24.284 -32.325,-72.159 -32.325,-72.159l-69.033,-36.339l99.068,-161.686Z"/></clipPath><g clip-path="url(#_clip1)"><path d="M193.165,183.076l153.02,114.679" style="fill:none;stroke:#fee043;stroke-width:3.33px;"/><path d="M148.894,226.014l153.02,114.679" style="fill:none;stroke:#fee043;stroke-width:3.33px;"/><path d="M95.967,268.287l153.02,114.679" style="fill:none;stroke:#fee043;stroke-width:3.33px;"/><path d="M248.987,382.966l27.886,189.179" style="fill:none;stroke:#fee043;stroke-width:3.33px;"/><path d="M301.914,340.693l27.886,189.51" style="fill:none;stroke:#fee043;stroke-width:3.33px;"/><path d="M346.185,297.755l34.888,238.477" style="fill:none;stroke:#fee043;stroke-width:3.33px;"/></g></g></svg>