<?xml version="1.0" encoding="UTF-8" standalone="no"?><!DOCTYPE svg PUBLIC "-//W3C//DTD SVG 1.1//EN" "http://www.w3.org/Graphics/SVG/1.1/DTD/svg11.dtd"><svg width="100%" height="100%" viewBox="0 0 836 836" version="1.1" xmlns="http://www.w3.org/2000/svg" xmlns:xlink="http://www.w3.org/1999/xlink" xml:space="preserve" xmlns:serif="http://www.serif.com/" style="fill-rule:evenodd;clip-rule:evenodd;stroke-linejoin:round;stroke-miterlimit:2;"><g id="Female-eyes"><rect x="0" y="0" width="835.946" height="835.946" style="fill:none;"/><g><g><path d="M203.048,388.381c-8.968,0 -17.639,1.183 -25.993,3.201l0.128,-0.143c-1.639,0.481 -3.175,0.891 -4.779,1.342c-0.953,0.277 -1.921,0.507 -2.863,0.804c-57.634,15.903 -88.918,11.462 -88.918,11.462c-9.024,50.249 12.512,81.634 12.512,81.634l0.015,-0.02c-0.451,4.056 -0.732,8.169 -0.732,12.343c0,61.056 49.573,110.623 110.628,110.623c61.056,0 110.623,-49.568 110.623,-110.623c0,-61.056 -49.568,-110.623 -110.623,-110.623"/><path d="M742.809,486.681c0,0 21.537,-31.381 12.512,-81.634c0,0 -31.278,4.44 -88.912,-11.457c-0.953,-0.302 -1.931,-0.538 -2.894,-0.814c-1.593,-0.451 -3.124,-0.855 -4.758,-1.337l0.128,0.143c-8.348,-2.013 -17.019,-3.201 -25.987,-3.201c-61.056,0 -110.628,49.568 -110.628,110.623c0,61.056 49.573,110.623 110.628,110.623c61.056,0 110.623,-49.568 110.623,-110.623c0,-4.179 -0.277,-8.282 -0.727,-12.343l0.015,0.02Z"/></g></g></g></svg>