<?xml version="1.0" encoding="UTF-8" standalone="no"?><!DOCTYPE svg PUBLIC "-//W3C//DTD SVG 1.1//EN" "http://www.w3.org/Graphics/SVG/1.1/DTD/svg11.dtd"><svg width="100%" height="100%" viewBox="0 0 836 836" version="1.1" xmlns="http://www.w3.org/2000/svg" xmlns:xlink="http://www.w3.org/1999/xlink" xml:space="preserve" xmlns:serif="http://www.serif.com/" style="fill-rule:evenodd;clip-rule:evenodd;stroke-linejoin:round;stroke-miterlimit:2;"><g id="MIra-eyes"><rect x="0" y="0" width="835.946" height="835.946" style="fill:none;"/><g><g><g><path d="M51.935,388.481c6.421,27.315 13.073,67.324 41.217,98.181l137.506,-20.102l57.873,-37.743c-98.657,-57.366 -134.761,-16.131 -236.595,-40.336Z" style="fill:url(#_Linear1);"/><path d="M80.138,407.915c75.871,-7.304 145.77,-0.949 208.392,20.902c15.706,19.102 25.14,43.551 25.14,70.188c0,61.056 -49.568,110.623 -110.623,110.623c-61.056,0 -110.628,-49.568 -110.628,-110.623c0,-4.174 0.282,-8.287 0.732,-12.343l-0.015,0.02c0,0 -20.719,-30.194 -12.998,-78.767Z"/></g><g><circle cx="102.586" cy="381.424" r="7.057" style="fill:#f8f0ef;"/><circle cx="147.315" cy="379.027" r="7.057" style="fill:#f8f0ef;"/><circle cx="194.162" cy="381.424" r="7.057" style="fill:#f8f0ef;"/><circle cx="105.495" cy="377.415" r="1.612" style="fill:#fff;"/><circle cx="149.929" cy="375.596" r="1.612" style="fill:#fff;"/><circle cx="197.067" cy="377.566" r="1.612" style="fill:#fff;"/></g></g><g><g><path d="M784.005,388.481c-6.421,27.315 -13.073,67.324 -41.217,98.181l-137.506,-20.102l-57.873,-37.743c98.657,-57.366 134.761,-16.131 236.595,-40.336Z" style="fill:url(#_Linear2);"/><path d="M755.802,407.915c-75.871,-7.304 -145.77,-0.949 -208.392,20.902c-15.706,19.102 -25.14,43.551 -25.14,70.188c0,61.056 49.568,110.623 110.623,110.623c61.056,0 110.628,-49.568 110.628,-110.623c0,-4.174 -0.282,-8.287 -0.732,-12.343l0.015,0.02c0,0 20.719,-30.194 12.998,-78.767Z"/></g><g><circle cx="733.354" cy="381.424" r="7.057" style="fill:#f8f0ef;"/><circle cx="688.626" cy="379.027" r="7.057" style="fill:#f8f0ef;"/><circle cx="641.779" cy="381.424" r="7.057" style="fill:#f8f0ef;"/><circle cx="730.446" cy="377.415" r="1.612" style="fill:#fff;"/><circle cx="686.011" cy="375.596" r="1.612" style="fill:#fff;"/><circle cx="638.873" cy="377.566" r="1.612" style="fill:#fff;"/></g></g><g><g><circle cx="326.979" cy="511.354" r="7.057" style="fill:#f8f0ef;"/><circle cx="324.074" cy="507.496" r="1.612" style="fill:#fff;"/></g><g><circle cx="510.131" cy="511.354" r="7.057" style="fill:#f8f0ef;"/><circle cx="507.225" cy="507.496" r="1.612" style="fill:#fff;"/></g></g></g></g><defs><linearGradient id="_Linear1" x1="0" y1="0" x2="1" y2="0" gradientUnits="userSpaceOnUse" gradientTransform="matrix(-184.628548,-22.567457,-22.567457,184.628548,281.515562,427.5875)"><stop offset="0" style="stop-color:#ff67c5;stop-opacity:1"/><stop offset="0.26" style="stop-color:#7a71f0;stop-opacity:1"/><stop offset="0.51" style="stop-color:#4a75ff;stop-opacity:1"/><stop offset="0.84" style="stop-color:#586af5;stop-opacity:1"/><stop offset="0.93" style="stop-color:#7f49d7;stop-opacity:1"/><stop offset="1" style="stop-color:#b020b2;stop-opacity:1"/></linearGradient><linearGradient id="_Linear2" x1="0" y1="0" x2="1" y2="0" gradientUnits="userSpaceOnUse" gradientTransform="matrix(184.628548,-22.567457,22.567457,184.628548,554.424884,427.5875)"><stop offset="0" style="stop-color:#ff67c5;stop-opacity:1"/><stop offset="0.27" style="stop-color:#7a71f0;stop-opacity:1"/><stop offset="0.51" style="stop-color:#4a75ff;stop-opacity:1"/><stop offset="0.84" style="stop-color:#586af5;stop-opacity:1"/><stop offset="0.93" style="stop-color:#7f49d7;stop-opacity:1"/><stop offset="1" style="stop-color:#b020b2;stop-opacity:1"/></linearGradient></defs></svg>