<?xml version="1.0" encoding="UTF-8" standalone="no"?><!DOCTYPE svg PUBLIC "-//W3C//DTD SVG 1.1//EN" "http://www.w3.org/Graphics/SVG/1.1/DTD/svg11.dtd"><svg width="100%" height="100%" viewBox="0 0 836 836" version="1.1" xmlns="http://www.w3.org/2000/svg" xmlns:xlink="http://www.w3.org/1999/xlink" xml:space="preserve" xmlns:serif="http://www.serif.com/" style="fill-rule:evenodd;clip-rule:evenodd;stroke-linejoin:round;stroke-miterlimit:2;"><g id="Rumi-eyes"><rect x="0" y="0" width="835.946" height="835.946" style="fill:none;"/><g><g><g><circle cx="326.979" cy="511.354" r="7.057" style="fill:#f8f0ef;"/><circle cx="324.074" cy="507.496" r="1.612" style="fill:#fff;"/></g><g><circle cx="510.131" cy="511.354" r="7.057" style="fill:#f8f0ef;"/><circle cx="507.225" cy="507.496" r="1.612" style="fill:#fff;"/></g></g><g><path d="M51.935,388.481c6.421,27.315 10.677,53.169 43.584,81.644l204.272,-5.39c-107.297,-87.981 -142.61,-36.478 -247.856,-76.255Z" style="fill:#ec008c;"/><path d="M65.381,398.91c2.341,25.685 7.224,49.378 35.883,81.637l187.266,-51.73c-55.871,-30.183 -103.567,-34.746 -141.772,-33.348c-5.113,0.187 -10.057,0.481 -14.827,0.834c-28.663,2.124 -51.074,6.401 -66.55,2.607Z" style="fill:url(#_Linear1);"/><path d="M80.138,407.915c75.871,-7.304 145.77,-0.949 208.392,20.902c15.706,19.102 25.14,43.551 25.14,70.188c0,61.056 -49.568,110.623 -110.623,110.623c-61.056,0 -110.628,-49.568 -110.628,-110.623c0,-4.174 0.282,-8.287 0.732,-12.343l-0.015,0.02c0,0 -20.719,-30.194 -12.998,-78.767Z"/></g><g><path d="M784.005,388.481c-6.421,27.315 -10.677,53.169 -43.584,81.644l-204.272,-5.39c107.297,-87.981 142.61,-36.478 247.856,-76.255Z" style="fill:#ec008c;"/><path d="M770.559,398.91c-2.341,25.685 -7.224,49.378 -35.883,81.637l-187.266,-51.73c108.28,-58.496 185.853,-20.763 223.149,-29.906Z" style="fill:url(#_Linear2);"/><path d="M755.802,407.915c-75.871,-7.304 -145.77,-0.949 -208.392,20.902c-15.706,19.102 -25.14,43.551 -25.14,70.188c0,61.056 49.568,110.623 110.623,110.623c61.056,0 110.628,-49.568 110.628,-110.623c0,-4.174 -0.282,-8.287 -0.732,-12.343l0.015,0.02c0,0 20.719,-30.194 12.998,-78.767Z"/></g></g></g><defs><linearGradient id="_Linear1" x1="0" y1="0" x2="1" y2="0" gradientUnits="userSpaceOnUse" gradientTransform="matrix(102.041137,1.743393,-1.743393,102.041137,86.413237,387.407513)"><stop offset="0" style="stop-color:#00aeef;stop-opacity:1"/><stop offset="0.67" style="stop-color:#21b3db;stop-opacity:1"/><stop offset="0.85" style="stop-color:#81c0a0;stop-opacity:1"/><stop offset="1" style="stop-color:#f9d057;stop-opacity:1"/></linearGradient><linearGradient id="_Linear2" x1="0" y1="0" x2="1" y2="0" gradientUnits="userSpaceOnUse" gradientTransform="matrix(-102.041137,1.743393,1.743393,102.041137,749.527209,387.407513)"><stop offset="0" style="stop-color:#00aeef;stop-opacity:1"/><stop offset="0.67" style="stop-color:#21b3db;stop-opacity:1"/><stop offset="0.85" style="stop-color:#81c0a0;stop-opacity:1"/><stop offset="1" style="stop-color:#f9d057;stop-opacity:1"/></linearGradient></defs></svg>