<?xml version="1.0" encoding="UTF-8" standalone="no"?><!DOCTYPE svg PUBLIC "-//W3C//DTD SVG 1.1//EN" "http://www.w3.org/Graphics/SVG/1.1/DTD/svg11.dtd"><svg width="100%" height="100%" viewBox="0 0 836 836" version="1.1" xmlns="http://www.w3.org/2000/svg" xmlns:xlink="http://www.w3.org/1999/xlink" xml:space="preserve" xmlns:serif="http://www.serif.com/" style="fill-rule:evenodd;clip-rule:evenodd;stroke-linejoin:round;stroke-miterlimit:2;"><g id="Zoey-eyes"><rect x="0" y="0" width="835.946" height="835.946" style="fill:none;"/><g><path d="M101.97,485.543l-25.307,14.749l25.308,8.767l-0.001,-23.516Z"/><path d="M102.349,507.52l-19.059,22.243l26.784,-0.032l-7.725,-22.211Z"/><path d="M50.364,396.51c6.609,28.115 10.99,54.727 44.861,84.037l212.075,-18.611c-77.099,-163.831 -189.048,-35.042 -256.936,-65.426Z" style="fill:url(#_Linear1);"/><path d="M139.796,403.211c16.653,-10.037 42.333,-14.993 63.177,-14.993c50.421,0 93.013,33.797 106.339,79.952c2.839,9.789 4.361,20.135 4.361,30.834c0,61.056 -49.568,110.623 -110.623,110.623c-28.789,0 -55.025,-11.021 -74.715,-29.07c-22.134,-20.24 -36.026,-49.348 -36.026,-81.676c0,-11.782 1.845,-23.136 5.263,-33.79c-8.168,-9.464 -17.059,-28.299 -16.357,-44.375c33.643,-0.3 40.053,-8.005 58.582,-17.506Z"/><g><circle cx="197.861" cy="623.124" r="7.057" style="fill:#f8f0ef;"/><circle cx="194.955" cy="619.266" r="1.612" style="fill:#fff;"/><g><circle cx="638.085" cy="623.124" r="7.057" style="fill:#f8f0ef;"/><circle cx="640.991" cy="619.266" r="1.612" style="fill:#fff;"/></g></g><g><circle cx="66.162" cy="376.854" r="7.057" style="fill:#f8f0ef;"/><circle cx="63.256" cy="372.996" r="1.612" style="fill:#fff;"/></g><g><circle cx="106.884" cy="367.306" r="7.057" style="fill:#f8f0ef;"/><circle cx="103.979" cy="363.449" r="1.612" style="fill:#fff;"/></g><path d="M733.975,485.543l25.307,14.749l-25.308,8.767l0.001,-23.516Z"/><path d="M733.596,507.52l19.059,22.243l-26.784,-0.032l7.725,-22.211Z"/><path d="M785.582,396.51c-6.609,28.115 -10.99,54.727 -44.861,84.037l-212.075,-18.611c77.099,-163.831 189.048,-35.042 256.936,-65.426Z" style="fill:url(#_Linear2);"/><path d="M696.149,403.211c-16.653,-10.037 -42.333,-14.993 -63.177,-14.993c-50.421,0 -93.013,33.797 -106.339,79.952c-2.839,9.789 -4.361,20.135 -4.361,30.834c0,61.056 49.568,110.623 110.623,110.623c28.789,0 55.025,-11.021 74.715,-29.07c22.134,-20.24 36.026,-49.348 36.026,-81.676c-0,-11.782 -1.845,-23.136 -5.263,-33.79c8.168,-9.464 17.059,-28.299 16.357,-44.375c-33.643,-0.3 -40.053,-8.005 -58.582,-17.506Z"/><g><circle cx="769.784" cy="376.854" r="7.057" style="fill:#f8f0ef;"/><circle cx="772.69" cy="372.996" r="1.612" style="fill:#fff;"/></g><g><circle cx="729.061" cy="367.306" r="7.057" style="fill:#f8f0ef;"/><circle cx="731.967" cy="363.449" r="1.612" style="fill:#fff;"/></g></g></g><defs><linearGradient id="_Linear1" x1="0" y1="0" x2="1" y2="0" gradientUnits="userSpaceOnUse" gradientTransform="matrix(222.046354,8.611822,-8.611822,222.046354,55.603378,363.634048)"><stop offset="0" style="stop-color:#da6d93;stop-opacity:1"/><stop offset="1" style="stop-color:#f69679;stop-opacity:1"/></linearGradient><linearGradient id="_Linear2" x1="0" y1="0" x2="1" y2="0" gradientUnits="userSpaceOnUse" gradientTransform="matrix(-222.046354,8.611822,8.611822,222.046354,780.34219,363.634048)"><stop offset="0" style="stop-color:#da6d93;stop-opacity:1"/><stop offset="1" style="stop-color:#f69679;stop-opacity:1"/></linearGradient></defs></svg>