<?xml version="1.0" encoding="UTF-8" standalone="no"?><!DOCTYPE svg PUBLIC "-//W3C//DTD SVG 1.1//EN" "http://www.w3.org/Graphics/SVG/1.1/DTD/svg11.dtd"><svg width="100%" height="100%" viewBox="0 0 836 836" version="1.1" xmlns="http://www.w3.org/2000/svg" xmlns:xlink="http://www.w3.org/1999/xlink" xml:space="preserve" xmlns:serif="http://www.serif.com/" style="fill-rule:evenodd;clip-rule:evenodd;stroke-linejoin:round;stroke-miterlimit:2;"><g id="Mesa-de-trabajo3" serif:id="Mesa de trabajo3"><rect x="0" y="0" width="835.946" height="835.946" style="fill:none;"/><g><g><path d="M412.831,544.182l-13.927,291.764l-306.093,0l31.502,-77.394l86.493,-55.363l21.643,-185.079l180.382,26.072Z" style="fill:#390626;"/><clipPath id="_clip1"><path d="M412.831,544.182l-13.927,291.764l-306.093,0l31.502,-77.394l86.493,-55.363l21.643,-185.079l180.382,26.072Z"/></clipPath><g clip-path="url(#_clip1)"><path d="M232.691,701.218l6.204,-56.354l39.198,-2.607l-9.587,61.69l-35.815,-2.728Z" style="fill:#ed1a35;"/><clipPath id="_clip2"><path d="M232.691,701.218l6.204,-56.354l39.198,-2.607l-9.587,61.69l-35.815,-2.728Z"/></clipPath><g clip-path="url(#_clip2)"><path d="M278.093,655.923l-0.466,3.852l-45.748,-5.536l0.466,-3.852l45.748,5.536Z" style="fill:#bb1027;"/><path d="M276.669,667.811l-0.466,3.852l-45.748,-5.536l0.466,-3.852l45.748,5.536Z" style="fill:#bb1027;"/><path d="M273.921,679.572l-0.466,3.852l-45.748,-5.536l0.466,-3.852l45.748,5.536Z" style="fill:#bb1027;"/><path d="M271.921,691.966l-0.466,3.852l-45.748,-5.536l0.466,-3.852l45.748,5.536Z" style="fill:#bb1027;"/></g><path d="M232.691,701.218l6.204,-56.354l39.198,-2.607l-9.587,61.69l-35.815,-2.728Zm1.513,-1.255l33.147,2.525l9.13,-58.755l-36.353,2.418l-5.924,53.812Z" style="fill:#bb1027;"/><path d="M92.811,821.159l234.107,5.792c13.538,-0.346 33.238,-11.862 40.861,-20.639c3.705,15.777 7.899,34.412 7.899,34.412l-290.167,2.551l7.3,-22.116Z"/><path d="M232.691,508.996l-19.325,114.173c19.915,8.093 48.067,10.579 75.45,4.466c0,0 -36.347,-15.268 -42.224,-31.25c-4.726,-12.852 6.229,-83.052 6.229,-83.052c0,0 -11.307,-2.432 -20.13,-4.337Z" style="fill:#e0d6dd;"/></g><clipPath id="_clip3"><rect x="235.8" y="436.467" width="182.172" height="63.235"/></clipPath><g clip-path="url(#_clip3)"><path d="M593.949,436.467l6.196,52.986c0,0 -89.071,10.249 -182.172,10.249c-96.388,0 -182.172,-10.249 -182.172,-10.249l6.196,-52.986l351.952,0Z" style="fill:#fdc53f;"/></g></g></g></g></svg>