<?xml version="1.0" encoding="UTF-8" standalone="no"?><!DOCTYPE svg PUBLIC "-//W3C//DTD SVG 1.1//EN" "http://www.w3.org/Graphics/SVG/1.1/DTD/svg11.dtd"><svg width="100%" height="100%" viewBox="0 0 836 836" version="1.1" xmlns="http://www.w3.org/2000/svg" xmlns:xlink="http://www.w3.org/1999/xlink" xml:space="preserve" xmlns:serif="http://www.serif.com/" style="fill-rule:evenodd;clip-rule:evenodd;stroke-linecap:round;stroke-linejoin:round;stroke-miterlimit:1.5;"><g id="Mesa-de-trabajo3" serif:id="Mesa de trabajo3"><rect x="0" y="0" width="835.946" height="835.946" style="fill:none;"/><g><path d="M410.118,601.021l-11.214,234.924l-306.093,0l31.502,-77.394l86.493,-55.363l11.894,-101.711l187.418,-0.457Z" style="fill:#292827;"/><clipPath id="_clip1"><path d="M410.118,601.021l-11.214,234.924l-306.093,0l31.502,-77.394l86.493,-55.363l11.894,-101.711l187.418,-0.457Z"/></clipPath><g clip-path="url(#_clip1)"><path d="M-9.615,835.946l226.462,-246.477l44.843,-1.553l-14.82,148.16l-82.644,36.731l-40.556,70.468l-133.285,-7.33Z" style="fill:#ed1a35;stroke:#006e33;stroke-width:2.73px;"/><path d="M92.811,821.159l234.107,5.792c13.538,-0.346 33.238,-11.862 40.861,-20.639c3.705,15.777 7.899,34.412 7.899,34.412l-290.167,2.551l7.3,-22.116Z"/></g><path d="M241.997,436.467l-6.196,52.986l179.154,10.249l3.018,-63.235l-175.976,0Z" style="fill:#27266b;"/></g></g></svg>