<?xml version="1.0" encoding="UTF-8" standalone="no"?><!DOCTYPE svg PUBLIC "-//W3C//DTD SVG 1.1//EN" "http://www.w3.org/Graphics/SVG/1.1/DTD/svg11.dtd"><svg width="100%" height="100%" viewBox="0 0 836 836" version="1.1" xmlns="http://www.w3.org/2000/svg" xmlns:xlink="http://www.w3.org/1999/xlink" xml:space="preserve" xmlns:serif="http://www.serif.com/" style="fill-rule:evenodd;clip-rule:evenodd;stroke-linecap:square;stroke-linejoin:round;stroke-miterlimit:1.5;"><g id="Mesa-de-trabajo3" serif:id="Mesa de trabajo3"><rect x="0" y="0" width="835.946" height="835.946" style="fill:none;"/><g><g><path d="M241.997,436.467l-31.19,266.721l-86.493,55.363l-31.502,77.394l306.093,0l19.068,-399.478l-175.976,0Z" style="fill:#14275c;fill-opacity:0;"/><clipPath id="_clip1"><path d="M241.997,436.467l-31.19,266.721l-86.493,55.363l-31.502,77.394l306.093,0l19.068,-399.478l-175.976,0Z"/></clipPath><g clip-path="url(#_clip1)"><path d="M217.888,436.467c60.023,151.402 207.76,143.391 212.979,279.786l-103.116,9.589c2.45,-137.235 -101.57,-114.453 -122.356,-154.262l12.493,-135.112Z" style="fill:#fdc53f;"/><path d="M217.888,436.467c60.023,151.402 207.76,143.391 212.979,279.786l-103.116,9.589c2.45,-137.235 -101.57,-114.453 -122.356,-154.262l12.493,-135.112Zm3.502,21.485l-10.397,112.438c3.789,6.27 10.172,10.577 17.824,14.474c9.221,4.696 20.243,8.666 31.553,13.695c17.914,7.965 36.452,18.514 50.388,37.759c13.156,18.169 22.302,44.186 22.498,83.522l91.878,-8.544c-4.241,-62.668 -40.879,-92.838 -83.493,-124.944c-41.729,-31.44 -89.115,-64.571 -120.25,-128.4Z"/><path d="M211.091,636.206c48.767,16.87 207.983,-6.925 219.776,-68.735" style="fill:none;stroke:#31519b;stroke-width:36.97px;"/><rect x="188.322" y="682.382" width="229.651" height="43.459" style="fill:#fdc53f;"/><rect x="188.322" y="682.382" width="229.651" height="43.459"/><path d="M303.657,374.122c5.45,72.271 44.762,125.331 114.316,149.3l0.785,-16.437c0,0 -79.398,-64.659 -86.133,-132.863l-28.968,0Z"/><path d="M303.657,374.122l28.968,0c6.735,68.204 86.133,132.863 86.133,132.863l-0.785,16.437c-69.554,-23.969 -108.866,-77.029 -114.316,-149.3Zm3.265,3.006c6.151,68.039 43.295,118.33 108.241,142.106l0.521,-10.899c-5.649,-4.77 -30.626,-26.542 -52.26,-56.211c-15.984,-21.921 -30.099,-48.141 -33.486,-74.997l-23.016,0Z" style="fill:#fdc53f;"/></g><path d="M405.18,704.481l-6.275,131.465l-306.093,0l31.502,-77.394l86.493,-55.363l194.373,1.292Z" style="fill:#0e66b1;"/><clipPath id="_clip2"><path d="M405.18,704.481l-6.275,131.465l-306.093,0l31.502,-77.394l86.493,-55.363l194.373,1.292Z"/></clipPath><g clip-path="url(#_clip2)"><rect x="83.969" y="816.14" width="321.211" height="30.744" style="fill:#fdc53f;"/></g><path d="M152.723,740.367c0,0 45.292,15.067 46.659,29.2c1.367,14.133 -38.456,55.596 -38.456,55.596l44.992,0c0,0 27.471,-43.051 22.577,-59.726c-4.893,-16.675 -51.938,-40.326 -51.938,-40.326l-23.835,15.256Z" style="fill:#fdc53f;"/><path d="M117.562,775.137l85.584,3.341l-4.898,18.254l-90.407,2.288l9.721,-23.883Z" style="fill:#fdc53f;"/><clipPath id="_clip3"><rect x="289.825" y="436.467" width="103.739" height="12.305"/></clipPath><g clip-path="url(#_clip3)"><path d="M303.657,374.122c5.45,72.271 44.762,125.331 114.316,149.3l0.785,-16.437c0,0 -79.398,-64.659 -86.133,-132.863l-28.968,0Z" style="fill:#080605;"/><path d="M303.657,374.122l28.968,0c6.735,68.204 86.133,132.863 86.133,132.863l-0.785,16.437c-69.554,-23.969 -108.866,-77.029 -114.316,-149.3Zm3.265,3.006c6.151,68.039 43.295,118.33 108.241,142.106l0.521,-10.899c-5.649,-4.77 -30.626,-26.542 -52.26,-56.211c-15.984,-21.921 -30.099,-48.141 -33.486,-74.997l-23.016,0Z" style="fill:#fdc53f;"/></g><clipPath id="_clip4"><rect x="246.658" y="436.467" width="171.314" height="148.686"/></clipPath><g clip-path="url(#_clip4)"><path d="M264.033,382.715c-8.617,117.008 83.486,175.591 138.244,185.024" style="fill:none;stroke:#fdc53f;stroke-width:21.86px;"/></g><clipPath id="_clip5"><rect x="221.997" y="436.467" width="132.622" height="131.271"/></clipPath><g clip-path="url(#_clip5)"><path d="M342.485,377.022c8.617,117.008 -55.189,170.17 -109.947,179.603" style="fill:none;stroke:#00b5c7;stroke-width:13.66px;"/></g><path d="M329.58,459.231l8.877,3.55c2.45,0.98 3.653,3.739 2.685,6.158l-4.563,11.409c-0.967,2.419 -3.742,3.588 -6.191,2.609l-8.877,-3.55c-2.45,-0.98 -3.653,-3.739 -2.685,-6.158l4.563,-11.409c0.967,-2.419 3.742,-3.588 6.191,-2.609Zm-8.106,16.798l11.396,4.557l5.734,-14.338l-11.396,-4.557l-5.734,14.338Z"/><path d="M206.867,705.71c0,0 74.859,26.354 107.865,27.124c30.969,0.723 90.168,-22.501 90.168,-22.501l-0.935,19.598c0,0 -57.377,13.359 -74.691,29.231c-17.313,15.872 -29.19,66 -29.19,66l-34.523,-2.903c0,0 39.212,-44.865 26.691,-62.537c-12.521,-17.672 -101.816,-43.496 -101.816,-43.496l16.431,-10.517Z" style="fill:#fdc53f;"/></g></g></g></svg>