<?xml version="1.0" encoding="UTF-8" standalone="no"?><!DOCTYPE svg PUBLIC "-//W3C//DTD SVG 1.1//EN" "http://www.w3.org/Graphics/SVG/1.1/DTD/svg11.dtd"><svg width="100%" height="100%" viewBox="0 0 836 836" version="1.1" xmlns="http://www.w3.org/2000/svg" xmlns:xlink="http://www.w3.org/1999/xlink" xml:space="preserve" xmlns:serif="http://www.serif.com/" style="fill-rule:evenodd;clip-rule:evenodd;stroke-linejoin:round;stroke-miterlimit:2;"><g id="Mesa-de-trabajo3" serif:id="Mesa de trabajo3"><rect x="0" y="0" width="835.946" height="835.946" style="fill:none;"/><g><g><path d="M0,0l116.28,87.61l-83.608,191.37l-32.672,-17.199l-0,-261.781Z" style="fill:#243266;"/><path d="M291.8,219.854l88.188,66.445l1.081,236.649c0,0 -57.6,-30.7 -85.858,-34.051c-28.086,-3.331 -83.694,13.941 -83.694,13.941c0,0 6.951,-49.539 1.946,-73.547c-5.063,-24.284 -32.326,-72.159 -32.326,-72.159l110.664,-137.278Z"/><clipPath id="_clip1"><path d="M291.8,219.854l88.188,66.445l1.081,236.649c0,0 -57.6,-30.7 -85.858,-34.051c-28.086,-3.331 -83.694,13.941 -83.694,13.941c0,0 6.951,-49.539 1.946,-73.547c-5.063,-24.284 -32.326,-72.159 -32.326,-72.159l110.664,-137.278Z"/></clipPath><g clip-path="url(#_clip1)"><path d="M417.082,299.383c-12.516,-45.288 -45.25,-75.818 -73.054,-68.134c-27.803,7.684 -40.215,50.69 -27.699,95.978c12.516,45.288 45.25,75.818 73.054,68.134c27.803,-7.684 40.215,-50.69 27.699,-95.978Z" style="fill:#eb174e;"/><path d="M417.082,299.383c12.516,45.288 0.104,88.294 -27.699,95.978c-27.803,7.684 -60.538,-22.846 -73.054,-68.134c-12.516,-45.288 -0.104,-88.294 27.699,-95.978c27.803,-7.684 60.538,22.846 73.054,68.134Zm-15.943,4.406c-6.332,-22.912 -18.358,-41.625 -32.384,-51.306c-6.66,-4.597 -13.641,-7.137 -20.32,-5.291c-6.679,1.846 -11.364,7.61 -14.719,14.974c-7.065,15.509 -7.775,37.743 -1.443,60.654c6.332,22.912 18.358,41.625 32.384,51.306c6.66,4.597 13.641,7.137 20.32,5.291c6.679,-1.846 11.364,-7.61 14.719,-14.974c7.065,-15.509 7.775,-37.743 1.443,-60.654Z" style="fill:#f8f0ef;"/><path d="M299.31,292.158l6.741,-0.302l0.311,6.923l0.311,6.923l-6.745,0.303c-0.452,-4.692 -0.654,-9.317 -0.617,-13.847Zm1.52,21.179l6.632,-1.326l1.358,6.796l1.358,6.796l-6.634,1.326c-1.138,-4.559 -2.04,-9.098 -2.715,-13.592Zm4.683,20.713l6.374,-2.269l2.324,6.529l2.324,6.529l-6.371,2.268c-1.729,-4.202 -3.286,-8.56 -4.65,-13.057Zm7.64,19.812l5.943,-3.204l3.289,6.1l3.289,6.1l-5.939,3.202c-2.358,-3.867 -4.559,-7.94 -6.581,-12.198Zm10.609,18.389l5.293,-4.15l4.276,5.453l4.276,5.454l-5.286,4.145c-2.997,-3.369 -5.86,-7.012 -8.559,-10.902Zm13.655,16.243l4.305,-5.103l5.297,4.469l5.297,4.469l-4.295,5.091c-3.649,-2.615 -7.196,-5.601 -10.604,-8.925Zm16.786,12.944l2.758,-5.982l6.293,2.902l6.293,2.902l-2.747,5.958c-4.263,-1.43 -8.479,-3.371 -12.598,-5.78Zm19.704,7.676l0.406,-6.45l6.916,0.435l6.916,0.435l-0.405,6.428c-4.593,0.366 -9.225,0.065 -13.834,-0.849Zm21.082,-0.299l-2.394,-5.955l6.43,-2.585l6.43,-2.585l2.396,5.958c-3.518,2.051 -7.281,3.655 -11.271,4.757c-0.529,0.146 -1.059,0.283 -1.59,0.41Zm18.915,-9.325l-4.663,-4.524l4.825,-4.974l4.825,-4.974l4.684,4.543c-2.897,3.767 -6.128,7.1 -9.671,9.929Zm13.829,-16.008l-5.945,-2.906l3.044,-6.226l3.044,-6.226l5.963,2.915c-1.733,4.445 -3.775,8.61 -6.106,12.443Zm8.504,-19.421l-6.529,-1.477l1.529,-6.759l1.529,-6.759l6.54,1.479c-0.748,4.688 -1.776,9.208 -3.069,13.516Zm3.996,-20.842l-6.73,-0.252l0.259,-6.925l0.259,-6.925l6.736,0.252c0.079,4.723 -0.099,9.35 -0.524,13.85Zm0.194,-21.23l-6.706,0.827l-0.848,-6.878l-0.848,-6.878l6.709,-0.827c0.804,4.636 1.365,9.231 1.693,13.756Zm-3.14,-21.001l-6.523,1.803l-1.846,-6.68l-1.846,-6.68l6.523,-1.803c0.714,2.178 1.382,4.391 2.003,6.637c0.621,2.245 1.183,4.487 1.69,6.723Zm-6.17,-20.319l-6.181,2.735l-2.804,-6.337l-2.804,-6.337l6.179,-2.734c2.043,4.052 3.921,8.282 5.612,12.673Zm-9.117,-19.175l-5.651,3.675l-3.778,-5.809l-3.779,-5.809l5.646,-3.672c2.676,3.643 5.205,7.522 7.562,11.616Zm-12.119,-17.426l-4.852,4.628l-4.783,-5.015l-4.783,-5.015l4.844,-4.62c3.322,3.033 6.525,6.383 9.574,10.022Zm-15.215,-14.778l-3.62,5.564l-5.809,-3.779l-5.809,-3.779l3.609,-5.547c3.969,2.091 7.86,4.617 11.629,7.541Zm-18.319,-10.622l-1.686,6.304l-6.695,-1.791l-6.695,-1.791l1.679,-6.276c4.492,0.608 8.977,1.809 13.397,3.554Zm-20.727,-4.012l1.004,6.343l-6.845,1.083l-6.845,1.083l-1.003,-6.339c0.521,-0.164 1.046,-0.319 1.575,-0.465c3.991,-1.103 8.043,-1.659 12.115,-1.706Zm-20.498,4.908l3.648,5.308l-5.711,3.925l-5.711,3.925l-3.66,-5.326c3.486,-3.151 7.307,-5.788 11.435,-7.832Zm-16.559,13.109l5.417,3.702l-3.91,5.721l-3.91,5.722l-5.438,-3.717c2.297,-4.182 4.918,-8.012 7.842,-11.428Zm-11.083,18.051l6.3,2.163l-2.251,6.554l-2.251,6.555l-6.315,-2.168c1.217,-4.602 2.728,-8.986 4.516,-13.104Zm-6.146,20.304l6.664,0.842l-0.869,6.875l-0.869,6.875l-6.673,-0.843c0.318,-4.724 0.905,-9.32 1.746,-13.75Z" style="fill:#f8f0ef;"/><path d="M374.519,289.426l-1.082,56.908l-24.237,-61.208l25.319,4.3Z" style="fill:#fff;"/></g></g></g></g></svg>