<?xml version="1.0" encoding="UTF-8" standalone="no"?><!DOCTYPE svg PUBLIC "-//W3C//DTD SVG 1.1//EN" "http://www.w3.org/Graphics/SVG/1.1/DTD/svg11.dtd"><svg width="100%" height="100%" viewBox="0 0 836 836" version="1.1" xmlns="http://www.w3.org/2000/svg" xmlns:xlink="http://www.w3.org/1999/xlink" xml:space="preserve" xmlns:serif="http://www.serif.com/" style="fill-rule:evenodd;clip-rule:evenodd;stroke-linejoin:round;stroke-miterlimit:2;"><g id="Mesa-de-trabajo3" serif:id="Mesa de trabajo3"><rect x="0" y="0" width="835.946" height="835.946" style="fill:none;"/><g><g><path d="M329.886,261.763l-134.91,110.282c-13.769,11.255 -34.085,9.215 -45.341,-4.554c-11.255,-13.769 -9.215,-34.085 4.554,-45.341l134.91,-110.282c13.769,-11.255 34.085,-9.215 45.341,4.554c11.255,13.769 9.215,34.085 -4.554,45.341Z" style="fill:#fed187;"/><path d="M274.068,207.619l-137.663,130.065c-4.837,4.57 -12.473,4.353 -17.043,-0.484c-4.57,-4.837 -4.353,-12.473 0.484,-17.043l137.663,-130.065c4.837,-4.57 12.473,-4.353 17.043,0.484c4.57,4.837 4.353,12.473 -0.484,17.043Z" style="fill:#fed187;"/></g></g></g></svg>