<?xml version="1.0" encoding="UTF-8" standalone="no"?><!DOCTYPE svg PUBLIC "-//W3C//DTD SVG 1.1//EN" "http://www.w3.org/Graphics/SVG/1.1/DTD/svg11.dtd"><svg width="100%" height="100%" viewBox="0 0 836 836" version="1.1" xmlns="http://www.w3.org/2000/svg" xmlns:xlink="http://www.w3.org/1999/xlink" xml:space="preserve" xmlns:serif="http://www.serif.com/" style="fill-rule:evenodd;clip-rule:evenodd;stroke-linecap:round;stroke-linejoin:round;stroke-miterlimit:1.5;"><g id="Jinu-leg-right"><rect x="-0" y="-0" width="835.946" height="835.946" style="fill:none;"/><clipPath id="_clip1"><rect x="-0" y="-0" width="835.946" height="835.946"/></clipPath><g clip-path="url(#_clip1)"><path d="M210.81,703.19l-86.493,55.357l-31.502,77.399l306.091,0l6.203,-129.949l-194.3,-2.807Z" style="fill:#f5f4f4;"/><clipPath id="_clip2"><path d="M210.81,703.19l-86.493,55.357l-31.502,77.399l306.091,0l6.203,-129.949l-194.3,-2.807Z"/></clipPath><g clip-path="url(#_clip2)"><circle cx="156.94" cy="777.698" r="8.131"/><circle cx="179.991" cy="765.042" r="8.131"/><circle cx="200.424" cy="752.453" r="8.131"/><circle cx="222.72" cy="738.71" r="8.131"/><path d="M133.357,743.343l23.583,33.73" style="fill:none;stroke:#d5d7d6;stroke-width:8.33px;"/><path d="M155.758,730.669l23.583,33.73" style="fill:none;stroke:#d5d7d6;stroke-width:8.33px;"/><path d="M176.538,718.125l23.583,33.73" style="fill:none;stroke:#d5d7d6;stroke-width:8.33px;"/><path d="M198.786,704.38l23.583,33.73" style="fill:none;stroke:#d5d7d6;stroke-width:8.33px;"/><path d="M85.311,821.392l319.798,0" style="fill:none;stroke:#d5d7d6;stroke-width:3.33px;"/></g><path d="M348.36,744.2c5.542,-10.094 16.627,-10.094 22.17,-5.047c5.543,5.047 5.543,15.141 0,25.236c-3.88,7.571 -13.856,15.141 -22.17,20.188c-8.314,-5.047 -18.29,-12.618 -22.17,-20.188c-5.542,-10.094 -5.542,-20.188 0,-25.236c5.543,-5.047 16.627,-5.047 22.17,5.047Z" style="fill:#ff8179;"/><circle cx="263.526" cy="807.659" r="8.131"/><circle cx="300.916" cy="807.659" r="8.131"/><path d="M248.963,564.322c20.825,24.941 69.4,23.875 96.283,-0.897c-34.307,-25.959 -69.578,-29.595 -96.283,0.897Z" style="fill:#fcd5c6;stroke:#d5d7d6;stroke-width:3.33px;"/></g></g></svg>