<?xml version="1.0" encoding="UTF-8" standalone="no"?><!DOCTYPE svg PUBLIC "-//W3C//DTD SVG 1.1//EN" "http://www.w3.org/Graphics/SVG/1.1/DTD/svg11.dtd"><svg width="100%" height="100%" viewBox="0 0 836 836" version="1.1" xmlns="http://www.w3.org/2000/svg" xmlns:xlink="http://www.w3.org/1999/xlink" xml:space="preserve" xmlns:serif="http://www.serif.com/" style="fill-rule:evenodd;clip-rule:evenodd;stroke-linecap:round;stroke-linejoin:round;stroke-miterlimit:1.5;"><g id="Jinu-leg-left"><rect x="-0" y="-0" width="835.946" height="835.946" style="fill:none;"/><clipPath id="_clip1"><rect x="-0" y="-0" width="835.946" height="835.946"/></clipPath><g clip-path="url(#_clip1)"><path d="M625.14,703.19l86.493,55.357l31.502,77.399l-306.091,0l-6.203,-129.949l194.3,-2.807Z" style="fill:#f5f4f4;"/><clipPath id="_clip2"><path d="M625.14,703.19l86.493,55.357l31.502,77.399l-306.091,0l-6.203,-129.949l194.3,-2.807Z"/></clipPath><g clip-path="url(#_clip2)"><circle cx="679.01" cy="777.698" r="8.131"/><circle cx="655.96" cy="765.042" r="8.131"/><circle cx="635.526" cy="752.453" r="8.131"/><circle cx="613.231" cy="738.71" r="8.131"/><path d="M702.593,743.343l-23.583,33.73" style="fill:none;stroke:#d5d7d6;stroke-width:8.33px;"/><path d="M680.192,730.669l-23.583,33.73" style="fill:none;stroke:#d5d7d6;stroke-width:8.33px;"/><path d="M659.413,718.125l-23.583,33.73" style="fill:none;stroke:#d5d7d6;stroke-width:8.33px;"/><path d="M637.164,704.38l-23.583,33.73" style="fill:none;stroke:#d5d7d6;stroke-width:8.33px;"/><path d="M750.639,821.392l-319.798,0" style="fill:none;stroke:#d5d7d6;stroke-width:3.33px;"/></g><path d="M487.59,744.2c-5.542,-10.094 -16.627,-10.094 -22.17,-5.047c-5.543,5.047 -5.543,15.141 0,25.236c3.88,7.571 13.856,15.141 22.17,20.188c8.314,-5.047 18.29,-12.618 22.17,-20.188c5.542,-10.094 5.542,-20.188 0,-25.236c-5.543,-5.047 -16.627,-5.047 -22.17,5.047Z" style="fill:#ff8179;"/><circle cx="572.424" cy="807.659" r="8.131"/><circle cx="535.035" cy="807.659" r="8.131"/></g></g></svg>