<?xml version="1.0" encoding="UTF-8" standalone="no"?><!DOCTYPE svg PUBLIC "-//W3C//DTD SVG 1.1//EN" "http://www.w3.org/Graphics/SVG/1.1/DTD/svg11.dtd"><svg width="100%" height="100%" viewBox="0 0 836 836" version="1.1" xmlns="http://www.w3.org/2000/svg" xmlns:xlink="http://www.w3.org/1999/xlink" xml:space="preserve" xmlns:serif="http://www.serif.com/" style="fill-rule:evenodd;clip-rule:evenodd;stroke-linecap:round;stroke-linejoin:round;stroke-miterlimit:1.5;"><g id="Abby-leg-right"><rect x="-0" y="-0" width="835.946" height="835.946" style="fill:none;"/><clipPath id="_clip1"><rect x="-0" y="-0" width="835.946" height="835.946"/></clipPath><g clip-path="url(#_clip1)"><g><path d="M124.315,758.547l86.493,-55.357l31.19,-266.725l175.975,0l-19.068,399.481l-306.091,0l31.502,-77.399Z" style="fill:#91c9fa;fill-opacity:0;"/></g><path d="M210.808,703.19l-86.493,55.357l-31.502,77.399l306.091,0l6.203,-129.949l-194.3,-2.807Z" style="fill:#ffb9ff;"/><clipPath id="_clip2"><path d="M210.808,703.19l-86.493,55.357l-31.502,77.399l306.091,0l6.203,-129.949l-194.3,-2.807Z"/></clipPath><g clip-path="url(#_clip2)"><path d="M175.078,703.19l23.583,33.73" style="fill:none;stroke:#fff;stroke-width:8.33px;"/><path d="M217.534,723.755l0,41.156" style="fill:none;stroke:#fff;stroke-width:8.33px;"/><path d="M193.951,690.025l23.583,33.73" style="fill:none;stroke:#fff;stroke-width:8.33px;"/><path d="M81.424,835.946l319.798,0" style="fill:none;stroke:#efeff0;stroke-width:33.33px;"/></g><path d="M210.808,703.19c0,0 -13.461,-22.898 -7.102,-27.737c6.359,-4.839 37.014,-6.138 51.688,-1.373c14.673,4.765 30.132,30.19 30.132,30.19c0,0 30.036,-23.033 46.216,-25.977c22.075,-4.017 68.117,-2.607 80.843,1.645c8.365,2.795 -7.476,26.06 -7.476,26.06l-194.3,-2.807Z" style="fill:#ffb9ff;"/><path d="M178.675,723.755c6.652,10.599 16.655,24.395 12.296,35.969c-1.94,5.151 -18.006,13.414 -18.006,13.414l-19.733,-33.099l25.443,-16.284Z" style="fill:#9ce7db;"/><path d="M124.315,758.547c10.859,17.207 42.112,16.466 42.112,16.466l-18.003,-31.897l-24.109,15.43Z" style="fill:#f4e600;"/><path d="M248.96,564.322c20.825,24.941 69.4,23.875 96.283,-0.897c-34.307,-25.959 -69.578,-29.595 -96.283,0.897Z" style="fill:#fcd5c6;stroke:#d5d7d6;stroke-width:3.33px;"/><path d="M381.079,714.856l-5.867,87.062l-126.251,-2.838l34.846,-86.565l97.272,2.341Z" style="fill:#ffa3ff;"/><rect x="254.229" y="743.117" width="146.047" height="26.451" style="fill:#ffb9ff;"/></g></g></svg>