<?xml version="1.0" encoding="UTF-8" standalone="no"?><!DOCTYPE svg PUBLIC "-//W3C//DTD SVG 1.1//EN" "http://www.w3.org/Graphics/SVG/1.1/DTD/svg11.dtd"><svg width="100%" height="100%" viewBox="0 0 836 836" version="1.1" xmlns="http://www.w3.org/2000/svg" xmlns:xlink="http://www.w3.org/1999/xlink" xml:space="preserve" xmlns:serif="http://www.serif.com/" style="fill-rule:evenodd;clip-rule:evenodd;stroke-linejoin:round;stroke-miterlimit:2;"><g id="Romance-eyes"><rect x="-0" y="0" width="835.946" height="835.946" style="fill:none;"/><g><g><path d="M90.255,404.3c-0.164,77.787 42.389,38.984 50.061,46.285l166.15,11.457c-34.3,-96.352 -185.294,-50.769 -216.211,-57.742Z" style="fill:url(#_Linear1);"/><path d="M745.69,404.3c0.164,77.787 -42.389,38.984 -50.061,46.285l-166.15,11.457c34.3,-96.352 185.294,-50.769 216.211,-57.742Z" style="fill:url(#_Linear2);"/></g><path d="M715.079,424.981c17.677,19.61 28.443,45.569 28.443,74.022c0,61.057 -49.571,110.624 -110.624,110.624c-61.057,0 -110.624,-49.567 -110.624,-110.624c0,-20.453 5.563,-39.617 15.257,-56.061c50.643,-19.008 115.027,-26.059 177.548,-17.961Zm-416.665,17.961c9.694,16.444 15.257,35.608 15.257,56.061c0,61.057 -49.567,110.624 -110.624,110.624c-61.053,0 -110.624,-49.567 -110.624,-110.624c0,-28.453 10.766,-54.412 28.443,-74.022c62.521,-8.098 126.905,-1.047 177.548,17.961Z"/></g></g><defs><linearGradient id="_Linear1" x1="0" y1="0" x2="1" y2="0" gradientUnits="userSpaceOnUse" gradientTransform="matrix(221.983133,8.60937,-8.60937,221.983133,54.841539,363.768524)"><stop offset="0" style="stop-color:#f69679;stop-opacity:1"/><stop offset="1" style="stop-color:#f7d5cf;stop-opacity:1"/></linearGradient><linearGradient id="_Linear2" x1="0" y1="0" x2="1" y2="0" gradientUnits="userSpaceOnUse" gradientTransform="matrix(-221.983133,8.60937,8.60937,221.983133,781.103931,363.768524)"><stop offset="0" style="stop-color:#f69679;stop-opacity:1"/><stop offset="1" style="stop-color:#f7d5cf;stop-opacity:1"/></linearGradient></defs></svg>