<?xml version="1.0" encoding="UTF-8" standalone="no"?><!DOCTYPE svg PUBLIC "-//W3C//DTD SVG 1.1//EN" "http://www.w3.org/Graphics/SVG/1.1/DTD/svg11.dtd"><svg width="100%" height="100%" viewBox="0 0 836 836" version="1.1" xmlns="http://www.w3.org/2000/svg" xmlns:xlink="http://www.w3.org/1999/xlink" xml:space="preserve" xmlns:serif="http://www.serif.com/" style="fill-rule:evenodd;clip-rule:evenodd;stroke-linejoin:round;stroke-miterlimit:2;"><g id="Abby-hair-left"><rect x="-0" y="0" width="835.946" height="835.946" style="fill:none;"/><clipPath id="_clip1"><rect x="-0" y="0" width="835.946" height="835.946"/></clipPath><g clip-path="url(#_clip1)"><g><path d="M835.946,345.986c-70.858,75.892 -211.3,17.537 -280.163,77.36c-77.138,67.012 -47.756,156.305 -63.007,170.323c-15.377,14.134 -11.053,-145.176 -94.655,-132.328c-57.115,8.778 -58.242,73.933 -32.559,116.555c17.496,29.036 31.163,72.804 12.251,100.203c-60.938,88.285 -252.916,157.847 -252.916,157.847l-124.896,0l0,-835.946l835.946,0l0,345.986Z" style="fill:#dc6182;"/></g><path d="M0,0l0,835.946c211.227,-48.894 247.305,-230.532 378.152,-352.228c139.324,-129.58 401.768,-225.413 457.793,-423.658l-0,-60.06l-835.946,0Z" style="fill:#faef33;"/></g></g></svg>