<?xml version="1.0" encoding="UTF-8" standalone="no"?><!DOCTYPE svg PUBLIC "-//W3C//DTD SVG 1.1//EN" "http://www.w3.org/Graphics/SVG/1.1/DTD/svg11.dtd"><svg width="100%" height="100%" viewBox="0 0 836 836" version="1.1" xmlns="http://www.w3.org/2000/svg" xmlns:xlink="http://www.w3.org/1999/xlink" xml:space="preserve" xmlns:serif="http://www.serif.com/" style="fill-rule:evenodd;clip-rule:evenodd;stroke-linecap:round;stroke-miterlimit:1.5;"><rect id="Abby-hair-front" x="0" y="0" width="835.946" height="835.946" style="fill:none;"/><g><path d="M417.973,85.898c72.354,-0.36 135.449,25.549 159.711,70.973c25.621,47.968 51.574,109.767 49.541,149.816c-1.295,25.512 -15.364,56.689 -39.424,79.551l-0,-147.944l-169.829,-60.221l-169.829,60.221l0,147.944c-24.06,-22.861 -38.129,-54.038 -39.424,-79.551c-2.033,-40.049 23.921,-101.848 49.541,-149.816c24.261,-45.424 87.357,-71.333 159.711,-70.973Z" style="fill:url(#_Radial1);"/><clipPath id="_clip2"><path d="M417.973,85.898c72.354,-0.36 135.449,25.549 159.711,70.973c25.621,47.968 51.574,109.767 49.541,149.816c-1.295,25.512 -15.364,56.689 -39.424,79.551l-0,-147.944l-169.829,-60.221l-169.829,60.221l0,147.944c-24.06,-22.861 -38.129,-54.038 -39.424,-79.551c-2.033,-40.049 23.921,-101.848 49.541,-149.816c24.261,-45.424 87.357,-71.333 159.711,-70.973Z"/></clipPath><g clip-path="url(#_clip2)"><g><g><path d="M199.901,299.461l66.021,38.494" style="fill:none;stroke:#eee000;stroke-width:8.32px;"/><path d="M205.398,249.114l63.604,42.368" style="fill:none;stroke:#eee000;stroke-width:8.32px;"/><path d="M219.494,199.942l58.858,48.747" style="fill:none;stroke:#eee000;stroke-width:8.32px;"/><path d="M242.816,140.054l51.739,56.246" style="fill:none;stroke:#eee000;stroke-width:8.32px;"/><path d="M291.504,101.546l37.429,66.63" style="fill:none;stroke:#eee000;stroke-width:8.32px;"/><path d="M338.895,78.542l19.78,73.819" style="fill:none;stroke:#eee000;stroke-width:8.32px;"/><path d="M388.179,67.911l6.408,76.154" style="fill:none;stroke:#eee000;stroke-width:8.32px;"/></g><g><path d="M636.044,299.461l-66.021,38.494" style="fill:none;stroke:#eee000;stroke-width:8.32px;"/><path d="M630.547,249.114l-63.604,42.368" style="fill:none;stroke:#eee000;stroke-width:8.32px;"/><path d="M616.452,199.942l-58.858,48.747" style="fill:none;stroke:#eee000;stroke-width:8.32px;"/><path d="M593.13,140.054l-51.739,56.246" style="fill:none;stroke:#eee000;stroke-width:8.32px;"/><path d="M544.442,101.546l-37.429,66.63" style="fill:none;stroke:#eee000;stroke-width:8.32px;"/><path d="M497.051,78.542l-19.78,73.819" style="fill:none;stroke:#eee000;stroke-width:8.32px;"/><path d="M447.767,67.911l-6.408,76.154" style="fill:none;stroke:#eee000;stroke-width:8.32px;"/></g></g></g><path d="M248.144,211.747l0,140.195c5.562,-28.308 16.048,-48.472 25.81,-65.027c6.799,-11.53 12.154,-30.766 4.061,-60.638l139.958,-31.255l-0,-16.95l-169.829,33.674Z" style="fill:#dc6182;"/><path d="M587.801,211.747l0,140.195c-5.562,-28.308 -16.048,-48.472 -25.81,-65.027c-6.799,-11.53 -12.154,-30.766 -4.061,-60.638l-139.958,-31.109l0,-17.096l169.829,33.674Z" style="fill:#dc6182;"/><path d="M336.377,122.479l-39.963,21.116c-48.39,7.205 -40.845,85.094 -85.147,111.922c14.905,21.974 34.121,23.104 57.776,2.766c13.918,2.301 24.647,-4.149 31.994,-19.88c4.033,22.758 3.278,44.608 -6.516,64.746c20.013,-1.056 30.405,-17.713 33.67,-45.925c4.192,20.904 12.021,39.003 23.625,54.189c-0.016,-40.714 7.028,-73.703 18.939,-101.363l106.599,0.904c13.852,23.238 20.864,53.087 11.95,98.336c23.358,-5.743 41.333,-23.734 55.027,-51.467c9.166,5.504 16.037,13.84 21.252,24.22c6.276,-2.342 10.817,-7.871 12.068,-19.436c6.109,-7.513 8.46,-15.278 8.011,-23.231c16.359,5.699 29.997,4.389 39.016,-8.824c-19.699,4.014 -32.238,-71.444 -128.329,-119.802c-2.089,-1.801 -0.699,-8.1 2.001,-16.094c-15.126,11.222 -28.989,10.01 -64.301,11.383c-29.48,1.146 -56.749,13.868 -56.749,13.868c-16.414,-3.921 -30.03,-3.023 -40.922,2.57Z" style="fill:#f16a8d;"/><clipPath id="_clip3"><path d="M336.377,122.479l-39.963,21.116c-48.39,7.205 -40.845,85.094 -85.147,111.922c14.905,21.974 34.121,23.104 57.776,2.766c13.918,2.301 24.647,-4.149 31.994,-19.88c4.033,22.758 3.278,44.608 -6.516,64.746c20.013,-1.056 30.405,-17.713 33.67,-45.925c4.192,20.904 12.021,39.003 23.625,54.189c-0.016,-40.714 7.028,-73.703 18.939,-101.363l106.599,0.904c13.852,23.238 20.864,53.087 11.95,98.336c23.358,-5.743 41.333,-23.734 55.027,-51.467c9.166,5.504 16.037,13.84 21.252,24.22c6.276,-2.342 10.817,-7.871 12.068,-19.436c6.109,-7.513 8.46,-15.278 8.011,-23.231c16.359,5.699 29.997,4.389 39.016,-8.824c-19.699,4.014 -32.238,-71.444 -128.329,-119.802c-2.089,-1.801 -0.699,-8.1 2.001,-16.094c-15.126,11.222 -28.989,10.01 -64.301,11.383c-29.48,1.146 -56.749,13.868 -56.749,13.868c-16.414,-3.921 -30.03,-3.023 -40.922,2.57Z"/></clipPath><g clip-path="url(#_clip3)"><path d="M370.815,209.975c2.394,-10.872 20.713,-28.63 30.852,-31.902c-12.21,8.526 -14.553,38.531 -7.949,47.211l-22.903,-15.309Z" style="fill:#dc6182;fill-opacity:0.51;"/><path d="M479.737,216.26c-2.474,-9.747 -19.524,-25.253 -28.772,-27.916c11.269,7.347 12.685,33.981 6.972,42.008l21.8,-14.092Z" style="fill:#dc6182;fill-opacity:0.51;"/></g></g><path d="M397.228,133.943c20.166,-22.37 55.712,-26.064 82.509,-7.307c-27.543,-3.043 -58.843,0.249 -82.509,7.307Z" style="fill:#f38599;"/><path d="M365.647,180.349c-25.656,15.777 -35.732,50.064 -22.145,79.817c2.001,-27.639 10.913,-57.823 22.145,-79.817Z" style="fill:#f38599;"/><path d="M341.245,174.726c-21.619,8.012 -34.307,32.25 -28.55,56.619c5.631,-20.452 16.831,-41.783 28.55,-56.619Z" style="fill:#f38599;"/><path d="M511.917,188.288c17.125,15.438 19.952,42.649 5.594,63.162c2.329,-21.085 -0.191,-45.046 -5.594,-63.162Z" style="fill:#f38599;"/><path d="M528.763,182.498c22.297,5.868 37.285,28.754 33.93,53.568c-7.597,-19.806 -20.822,-39.945 -33.93,-53.568Z" style="fill:#f38599;"/><path d="M256.694,209.601c4.942,15.24 -2.811,32.598 -18.579,39.955c8.728,-11.88 15.536,-27.175 18.579,-39.955Z" style="fill:#f38599;"/><defs><radialGradient id="_Radial1" cx="0" cy="0" r="1" gradientUnits="userSpaceOnUse" gradientTransform="matrix(377.805175,-0.000028,0.00002,270.990241,417.972804,264.08628)"><stop offset="0" style="stop-color:#faee00;stop-opacity:1"/><stop offset="0.59" style="stop-color:#edde00;stop-opacity:1"/><stop offset="0.81" style="stop-color:#d0ba00;stop-opacity:1"/><stop offset="1" style="stop-color:#b29500;stop-opacity:1"/></radialGradient></defs></svg>