<?xml version="1.0" encoding="UTF-8" standalone="no"?><!DOCTYPE svg PUBLIC "-//W3C//DTD SVG 1.1//EN" "http://www.w3.org/Graphics/SVG/1.1/DTD/svg11.dtd"><svg width="100%" height="100%" viewBox="0 0 836 836" version="1.1" xmlns="http://www.w3.org/2000/svg" xmlns:xlink="http://www.w3.org/1999/xlink" xml:space="preserve" xmlns:serif="http://www.serif.com/" style="fill-rule:evenodd;clip-rule:evenodd;stroke-linejoin:round;stroke-miterlimit:2;"><g id="Abby-eyebrown"><rect x="-0" y="-0" width="835.946" height="835.946" style="fill:none;"/><g><g><path d="M313.961,355.26c-3.217,-4.595 -64.208,-28.885 -121.585,-38.498c-14.46,-2.423 8.172,-20.01 8.172,-20.01c0,0 -43.438,3.08 -77.626,12.603c-31.637,8.813 -81.279,57.599 -81.279,57.599c0,0 64.2,-14.743 83.25,-15.177c39.668,-0.901 176.741,37.493 183.961,32.437c6.022,-4.217 9.322,-22.934 5.106,-28.956" style="fill:#792e32;"/><path d="M521.984,355.26c3.217,-4.595 64.208,-28.885 121.585,-38.498c14.46,-2.423 -8.172,-20.01 -8.172,-20.01c0,0 43.438,3.08 77.626,12.603c31.637,8.813 81.279,57.599 81.279,57.599c0,0 -64.2,-14.743 -83.25,-15.177c-39.668,-0.901 -176.741,37.493 -183.961,32.437c-6.022,-4.217 -9.322,-22.934 -5.106,-28.956" style="fill:#792e32;"/></g></g></g></svg>