<?xml version="1.0" encoding="UTF-8" standalone="no"?><!DOCTYPE svg PUBLIC "-//W3C//DTD SVG 1.1//EN" "http://www.w3.org/Graphics/SVG/1.1/DTD/svg11.dtd"><svg width="100%" height="100%" viewBox="0 0 2481 2481" version="1.1" xmlns="http://www.w3.org/2000/svg" xmlns:xlink="http://www.w3.org/1999/xlink" xml:space="preserve" xmlns:serif="http://www.serif.com/" style="fill-rule:evenodd;clip-rule:evenodd;stroke-linejoin:round;stroke-miterlimit:2;"><g id="Jinu-icon"><rect x="0" y="0" width="2480.315" height="2480.315" style="fill:none;"/><g><path d="M1016.274,1839.844l65.942,-42.204l23.779,-203.35l134.162,0l-14.537,304.562l-233.362,0l24.017,-59.008Z"/></g><g><path d="M1464.041,1839.844l-65.942,-42.204l-23.779,-203.35l-134.162,0l14.537,304.562l233.362,0l-24.017,-59.008Z"/></g><path d="M1598.47,1430.415l-224.15,-168.883l0,154.421l106.85,56.246l-16.896,63.013l34.817,22.938l30.817,56.787l69.2,-44.925l-0.638,-139.596Z" style="fill:#fcd5c6;"/><path d="M1105.995,1261.532l-224.15,168.883l-0.642,139.6l69.204,44.921l30.817,-56.788l34.817,-22.933l-16.9,-63.017l106.854,-56.242l0,-154.425Z" style="fill:#fcd5c6;"/><path d="M1105.995,1261.532l-91.346,68.824l72.713,95.409l18.633,-9.807l0,-154.425Z" style="fill:#faef33;"/><path d="M1374.32,1261.532l91.346,68.824l-72.713,95.409l-18.633,-9.807l-0,-154.425Z" style="fill:#faef33;"/><rect x="1105.995" y="1261.532" width="268.325" height="332.758" style="fill:#faef33;"/><g><path d="M1240.157,1304.938c40.012,0 72.449,-19.434 72.449,-43.407l-144.898,0c0,23.973 32.437,43.407 72.449,43.407" style="fill:#fcd5c6;"/></g><rect x="900.025" y="581.267" width="680.265" height="680.265" style="fill:#fcd5c6;"/><path d="M1481.933,927.102c14.385,15.958 23.146,37.083 23.146,60.237c0,49.686 -40.339,90.022 -90.022,90.022c-49.686,0 -90.022,-40.336 -90.022,-90.022c0,-16.644 4.527,-32.239 12.415,-45.621c41.211,-15.468 93.605,-21.206 144.483,-14.616Zm-339.068,14.616c7.889,13.381 12.415,28.977 12.415,45.621c0,49.686 -40.336,90.022 -90.022,90.022c-49.683,0 -90.022,-40.336 -90.022,-90.022c0,-23.154 8.761,-44.279 23.146,-60.237c50.877,-6.59 103.271,-0.852 144.483,14.616Z"/><path d="M1213.967,1099.962c0,14.455 11.735,26.19 26.19,26.19c14.455,0 26.19,-11.735 26.19,-26.19l-52.38,0Z" style="fill:#d1ab93;fill-rule:nonzero;"/><g><path d="M1155.966,861.865c-0.471,-0.606 -2.278,-1.423 -5.178,-2.388c-0.684,-0.227 -1.114,6.451 -1.916,6.208c-0.694,-0.21 -1.746,-7.34 -2.525,-7.561c-0.768,-0.218 -6.865,-1.42 -7.711,-1.646c-0.809,-0.217 -0.698,5.92 -1.575,5.696c-0.933,-0.239 -2.857,-6.839 -3.863,-7.085c-37.343,-9.127 -118.052,-21.878 -145.635,-11.665c-14.24,5.274 -51.997,44.436 -51.997,44.436c0,0 51.28,-16.265 66.719,-17.759c32.151,-3.108 145.604,21.256 151.178,16.554c4.649,-3.922 6.266,-19.947 2.501,-24.791" style="fill:#1a0804;"/><path d="M1324.349,861.865c0.471,-0.606 2.278,-1.423 5.178,-2.388c0.684,-0.227 1.114,6.451 1.916,6.208c0.694,-0.21 1.746,-7.34 2.525,-7.561c0.768,-0.218 6.865,-1.42 7.711,-1.646c0.809,-0.217 0.698,5.92 1.575,5.696c0.933,-0.239 2.857,-6.839 3.863,-7.085c37.343,-9.127 118.052,-21.878 145.635,-11.665c14.24,5.274 51.997,44.436 51.997,44.436c0,0 -51.28,-16.265 -66.719,-17.759c-32.151,-3.108 -145.604,21.256 -151.178,16.554c-4.649,-3.922 -6.266,-19.947 -2.501,-24.791" style="fill:#1a0804;"/></g><path d="M1240.158,581.267l340.132,67.443l0,280.783c-11.14,-56.694 -32.14,-97.079 -51.692,-130.237c-13.617,-23.093 -24.341,-61.617 -8.134,-121.445l-280.307,-62.305l-0,-0.292l-280.307,62.597c16.208,59.827 5.484,98.351 -8.134,121.445c-19.552,33.157 -40.552,73.542 -51.692,130.237l0,-280.783l340.132,-67.443Z" style="fill:#080605;"/><path d="M1124.452,490.101c-23.33,3.486 -44.51,-19.065 -67.925,-21.736c-110.902,-12.652 -223.784,166.386 -197.151,345.413c2.07,13.914 12.344,22.957 27.571,29.267c-1.205,13.746 -0.355,25.942 3.774,35.665c6.769,0.943 13.239,1.263 19.37,0.879c-3.486,38.847 -3.835,85.862 11.535,102.793c76,-60.949 161.317,-248.948 166.161,-288.18c1.1,-8.91 14.635,-24.093 27.028,-26.142c26.335,-4.353 131.61,-2.005 131.61,-2.005c28.401,43.691 39.012,109.172 41.601,192.894l9.222,-4.107c2.129,19.23 8.195,33.349 19.825,37.998c4.206,-58.771 20.81,-104.597 33.731,-134.809c23.868,45.576 50.284,87.423 99.151,96.405c1.102,-4.223 3.697,-8.445 6.958,-12.668c4.286,11.428 12.338,18.857 25.927,20.402c-1.734,-7.862 -0.442,-12.553 1.163,-20.415c-4.053,5.579 71.123,68.37 96.285,65.239c8.964,-1.115 24.024,-42.976 28.003,-52.112c69.415,-159.362 -60.498,-356.75 -127.811,-398.07c-20.67,-12.688 -216.728,-22.855 -275.282,-10.664c-43.7,9.098 -55.969,40.249 -80.748,43.952Z"/><path d="M1068.685,587.205c-10.654,11.834 -15.223,23.782 -15.231,35.816c0,0 12.053,-10.038 17.501,-9.518c5.448,0.52 10.031,12.466 15.189,12.636c5.158,0.17 13.063,-11.608 16.575,-11.097c3.512,0.51 4.499,14.158 4.499,14.158c5.08,-11.956 8.528,-24.615 8.502,-38.771c0,0 -17.286,17.888 -30.387,18.741c-12.071,0.785 -16.648,-21.964 -16.648,-21.964Z" style="fill:#fff;"/><g><path d="M1012.394,542.71c-44.582,26.091 -76.432,79.613 -89.331,138.367c0,0 21.186,-48.346 29.589,-46.814c3.975,0.725 -6.677,54.69 -6.677,54.69c0,0 25.528,-39.98 35.82,-40.583c11.841,-0.694 11.731,28.397 11.731,28.397l24.572,-65.679c0,0 -26.721,24.682 -33.067,14.782c-9.072,-14.152 14.248,-39.412 14.248,-39.412c0,0 -30.834,19.405 -31.588,12.023c-1.421,-13.92 44.703,-55.772 44.703,-55.772Z" style="fill:#fff;"/><path d="M1449.207,594.996c17.675,33.158 30.401,66.122 39.404,98.941c0,0 -10.636,-51.102 3.37,-56.564c23.659,-9.226 55.54,36.354 55.54,36.354c0,0 -17.338,-59.357 -14.862,-62.276c2.476,-2.918 28.327,45.52 28.327,45.52c-21.603,-83.938 -61.985,-119.048 -108.193,-139.012c0,0 74.496,56.963 68.171,95.6c-1.478,9.029 -18.205,-5.984 -24.165,-4.59c-5.96,1.394 -6.078,14.584 -12.763,12.84c-8.403,-2.193 -34.829,-26.814 -34.829,-26.814Z" style="fill:#fff;"/></g><path d="M1387.267,602.473c0,0 15.806,42.605 15.368,48.884c-0.439,6.279 -18,-11.211 -18,-11.211c0.093,14.73 2.199,29.022 6.448,42.847c0,0 14.228,-18.85 19.619,-18.184c5.391,0.665 12.725,22.177 12.725,22.177c3.029,-39.226 -10.612,-66.233 -36.159,-84.512Z" style="fill:#fff;"/></g></svg>