<?xml version="1.0" encoding="UTF-8" standalone="no"?><!DOCTYPE svg PUBLIC "-//W3C//DTD SVG 1.1//EN" "http://www.w3.org/Graphics/SVG/1.1/DTD/svg11.dtd"><svg width="100%" height="100%" viewBox="0 0 836 836" version="1.1" xmlns="http://www.w3.org/2000/svg" xmlns:xlink="http://www.w3.org/1999/xlink" xml:space="preserve" xmlns:serif="http://www.serif.com/" style="fill-rule:evenodd;clip-rule:evenodd;stroke-linejoin:round;stroke-miterlimit:2;"><g id="Jinu-eyebrown"><rect x="0" y="0" width="835.946" height="835.946" style="fill:none;"/><g><g><path d="M314.513,344.813c-0.579,-0.744 -2.799,-1.749 -6.363,-2.934c-0.841,-0.28 -1.369,7.928 -2.355,7.629c-0.853,-0.258 -2.146,-9.02 -3.102,-9.291c-0.944,-0.267 -8.436,-1.745 -9.475,-2.023c-0.994,-0.266 -0.858,7.275 -1.935,7c-1.146,-0.293 -3.511,-8.404 -4.747,-8.706c-45.889,-11.215 -145.069,-26.885 -178.965,-14.335c-17.499,6.481 -63.896,54.605 -63.896,54.605c0,0 63.015,-19.988 81.988,-21.823c39.509,-3.819 178.926,26.121 185.776,20.342c5.713,-4.82 7.7,-24.512 3.073,-30.464" style="fill:#1a0804;"/><path d="M521.432,344.813c0.579,-0.744 2.799,-1.749 6.363,-2.934c0.841,-0.28 1.369,7.928 2.355,7.629c0.853,-0.258 2.146,-9.02 3.102,-9.291c0.944,-0.267 8.436,-1.745 9.475,-2.023c0.994,-0.266 0.858,7.275 1.935,7c1.146,-0.293 3.511,-8.404 4.747,-8.706c45.889,-11.215 145.069,-26.885 178.965,-14.335c17.499,6.481 63.896,54.605 63.896,54.605c0,0 -63.015,-19.988 -81.988,-21.823c-39.509,-3.819 -178.926,26.121 -185.776,20.342c-5.713,-4.82 -7.7,-24.512 -3.073,-30.464" style="fill:#1a0804;"/></g></g></g></svg>