<?xml version="1.0" encoding="UTF-8" standalone="no"?><!DOCTYPE svg PUBLIC "-//W3C//DTD SVG 1.1//EN" "http://www.w3.org/Graphics/SVG/1.1/DTD/svg11.dtd"><svg width="100%" height="100%" viewBox="0 0 836 836" version="1.1" xmlns="http://www.w3.org/2000/svg" xmlns:xlink="http://www.w3.org/1999/xlink" xml:space="preserve" xmlns:serif="http://www.serif.com/" style="fill-rule:evenodd;clip-rule:evenodd;stroke-linecap:round;stroke-linejoin:round;stroke-miterlimit:1.5;"><g id="Romance-leg-right"><rect x="-0" y="-0" width="835.946" height="835.946" style="fill:none;"/><clipPath id="_clip1"><rect x="-0" y="-0" width="835.946" height="835.946"/></clipPath><g clip-path="url(#_clip1)"><g><path d="M308.497,552.653c9.369,-17.064 28.108,-17.064 37.478,-8.532c9.37,8.532 9.37,25.596 0,42.66c-6.559,12.798 -23.423,25.596 -37.478,34.128c-14.054,-8.532 -30.919,-21.33 -37.478,-34.128c-9.369,-17.064 -9.369,-34.128 0,-42.66c9.369,-8.532 28.108,-8.532 37.478,8.532Z" style="fill:#ffb9ff;"/></g><path d="M210.81,703.19l-86.493,55.357l-31.502,77.399l306.091,0l6.203,-129.949l-194.3,-2.807Z" style="fill:#faef33;"/><clipPath id="_clip2"><path d="M210.81,703.19l-86.493,55.357l-31.502,77.399l306.091,0l6.203,-129.949l-194.3,-2.807Z"/></clipPath><g clip-path="url(#_clip2)"><path d="M179.747,699.112l23.583,33.73" style="fill:none;stroke:#fff;stroke-width:8.33px;"/><path d="M164.395,709.253l23.583,33.73" style="fill:none;stroke:#fff;stroke-width:8.33px;"/><path d="M149.814,718.912l23.583,33.73" style="fill:none;stroke:#fff;stroke-width:8.33px;"/><path d="M133.344,729.02l23.583,33.73" style="fill:none;stroke:#fff;stroke-width:8.33px;"/><path d="M193.954,690.025l23.583,33.73" style="fill:none;stroke:#fff;stroke-width:8.33px;"/><path d="M81.427,835.946l323.683,-18.469" style="fill:none;stroke:#efeff0;stroke-width:33.33px;"/><path d="M218.425,820.862l188.63,-6.771" style="fill:none;stroke:#202121;stroke-width:8.33px;"/></g><path d="M92.816,835.946l79.821,0c-2.216,-32.509 -16.238,-59.316 -48.319,-77.399l-31.502,77.399Z" style="fill:#efeff0;"/><g><path d="M398.933,681.187c8.169,0.288 14.567,7.154 14.279,15.322c-0.288,8.169 -7.154,14.567 -15.322,14.279l-179.943,-6.342c-8.169,-0.288 -14.567,-7.154 -14.279,-15.322c0.288,-8.169 7.154,-14.567 15.322,-14.279c-8.169,-0.288 -14.567,-7.154 -14.279,-15.322c0.288,-8.169 7.154,-14.567 15.322,-14.279l179.943,6.342c8.169,0.288 14.567,7.154 14.279,15.322c-0.288,8.169 -7.154,14.567 -15.322,14.279Z" style="fill:#ffb9ff;"/></g></g></g></svg>