<?xml version="1.0" encoding="UTF-8" standalone="no"?><!DOCTYPE svg PUBLIC "-//W3C//DTD SVG 1.1//EN" "http://www.w3.org/Graphics/SVG/1.1/DTD/svg11.dtd"><svg width="100%" height="100%" viewBox="0 0 836 836" version="1.1" xmlns="http://www.w3.org/2000/svg" xmlns:xlink="http://www.w3.org/1999/xlink" xml:space="preserve" xmlns:serif="http://www.serif.com/" style="fill-rule:evenodd;clip-rule:evenodd;stroke-linecap:round;stroke-linejoin:round;stroke-miterlimit:1.5;"><g id="Romance-leg-left"><rect x="-0" y="-0" width="835.946" height="835.946" style="fill:none;"/><clipPath id="_clip1"><rect x="-0" y="-0" width="835.946" height="835.946"/></clipPath><g clip-path="url(#_clip1)"><g><path d="M527.454,552.653c-9.369,-17.064 -28.108,-17.064 -37.478,-8.532c-9.37,8.532 -9.37,25.596 0,42.66c6.559,12.798 23.423,25.596 37.478,34.128c14.054,-8.532 30.919,-21.33 37.478,-34.128c9.369,-17.064 9.369,-34.128 0,-42.66c-9.369,-8.532 -28.108,-8.532 -37.478,8.532Z" style="fill:#ffb9ff;"/></g><path d="M625.14,703.19l86.493,55.357l31.502,77.399l-306.091,0l-6.203,-129.949l194.3,-2.807Z" style="fill:#faef33;"/><clipPath id="_clip2"><path d="M625.14,703.19l86.493,55.357l31.502,77.399l-306.091,0l-6.203,-129.949l194.3,-2.807Z"/></clipPath><g clip-path="url(#_clip2)"><path d="M656.204,699.112l-23.583,33.73" style="fill:none;stroke:#fff;stroke-width:8.33px;"/><path d="M671.555,709.253l-23.583,33.73" style="fill:none;stroke:#fff;stroke-width:8.33px;"/><path d="M686.136,718.912l-23.583,33.73" style="fill:none;stroke:#fff;stroke-width:8.33px;"/><path d="M702.606,729.02l-23.583,33.73" style="fill:none;stroke:#fff;stroke-width:8.33px;"/><path d="M641.997,690.025l-23.583,33.73" style="fill:none;stroke:#fff;stroke-width:8.33px;"/><path d="M754.524,835.946l-323.683,-18.469" style="fill:none;stroke:#efeff0;stroke-width:33.33px;"/><path d="M617.525,820.862l-188.63,-6.771" style="fill:none;stroke:#202121;stroke-width:8.33px;"/></g><path d="M743.135,835.946l-79.821,0c2.216,-32.509 16.238,-59.316 48.319,-77.399l31.502,77.399Z" style="fill:#efeff0;"/><g><path d="M616.961,674.846c8.169,-0.288 15.034,6.11 15.322,14.279c0.288,8.169 -6.11,15.034 -14.279,15.322l-179.943,6.342c-8.169,0.288 -15.034,-6.11 -15.322,-14.279c-0.288,-8.169 6.11,-15.034 14.279,-15.322c-8.169,0.288 -15.034,-6.11 -15.322,-14.279c-0.288,-8.169 6.11,-15.034 14.279,-15.322l179.943,-6.342c8.169,-0.288 15.034,6.11 15.322,14.279c0.288,8.169 -6.11,15.034 -14.279,15.322Z" style="fill:#ffb9ff;"/></g></g></g></svg>