<?xml version="1.0" encoding="UTF-8" standalone="no"?><!DOCTYPE svg PUBLIC "-//W3C//DTD SVG 1.1//EN" "http://www.w3.org/Graphics/SVG/1.1/DTD/svg11.dtd"><svg width="100%" height="100%" viewBox="0 0 836 836" version="1.1" xmlns="http://www.w3.org/2000/svg" xmlns:xlink="http://www.w3.org/1999/xlink" xml:space="preserve" xmlns:serif="http://www.serif.com/" style="fill-rule:evenodd;clip-rule:evenodd;stroke-linejoin:round;stroke-miterlimit:2;"><rect id="Baby-hair-back" x="0" y="0" width="835.946" height="835.946" style="fill:none;"/><path d="M235.552,401.185c-11.986,-9.046 -16.358,-26.488 -20.468,-53.985c-29.482,-43.964 -35.938,-84.28 -24.704,-121.794c0.038,-25.645 10.024,-46.625 32.438,-61.777c8.197,-24.854 25.79,-39.607 54.321,-42.602c17.846,-18.489 41.946,-26.568 73.227,-22.694c15.075,-6.977 30.826,-10.216 47.562,-8.017c0,0 13.364,-5.183 20.046,-5.183c6.682,0 20.046,5.183 20.046,5.183c16.735,-2.199 32.487,1.04 47.562,8.017c31.282,-3.875 55.382,4.205 73.227,22.694c28.53,2.995 46.123,17.748 54.321,42.602c22.413,15.152 32.4,36.132 32.438,61.777c11.233,37.514 4.778,77.83 -24.704,121.794c-4.111,27.498 -8.483,44.939 -20.468,53.985c1.33,6.71 11.553,65.51 -29.48,107.306c-33.644,34.27 -101.961,27.89 -152.941,27.89c-50.98,0 -119.298,6.38 -152.941,-27.89c-41.032,-41.796 -30.81,-100.597 -29.48,-107.306Z" style="fill:#cfc52e;"/></svg>