<?xml version="1.0" encoding="UTF-8" standalone="no"?><!DOCTYPE svg PUBLIC "-//W3C//DTD SVG 1.1//EN" "http://www.w3.org/Graphics/SVG/1.1/DTD/svg11.dtd"><svg width="100%" height="100%" viewBox="0 0 836 836" version="1.1" xmlns="http://www.w3.org/2000/svg" xmlns:xlink="http://www.w3.org/1999/xlink" xml:space="preserve" xmlns:serif="http://www.serif.com/" style="fill-rule:evenodd;clip-rule:evenodd;stroke-linejoin:round;stroke-miterlimit:2;"><rect id="Baby-hair-front" x="0" y="0" width="835.946" height="835.946" style="fill:none;"/><g><path d="M417.973,85.132c6.682,0 20.046,5.183 20.046,5.183c16.735,-2.199 32.487,1.04 47.562,8.017c31.282,-3.875 55.382,4.205 73.227,22.694c28.53,2.995 46.123,17.748 54.321,42.602c22.413,15.152 32.4,36.132 32.438,61.777c11.233,37.514 4.778,77.83 -24.704,121.794c-5.308,35.507 -11.052,54.247 -33.061,59.794l0,-205.503l-171.967,-61.982l-167.69,61.982l0,205.503c-22.009,-5.547 -27.753,-24.287 -33.061,-59.794c-29.482,-43.964 -35.938,-84.28 -24.704,-121.794c0.038,-25.645 10.024,-46.625 32.438,-61.777c8.197,-24.854 25.79,-39.607 54.321,-42.602c17.846,-18.489 41.946,-26.568 73.227,-22.694c15.075,-6.977 30.826,-10.216 47.562,-8.017c0,0 13.364,-5.183 20.046,-5.183Z" style="fill:url(#_Radial1);"/><path d="M367.734,125.829c-40.432,6.092 -67.66,17.516 -82.611,33.898c-53.937,30.461 -79.119,65.264 -66.416,105.79c-5.262,19.156 -6.287,36.762 1.099,51.294c-1.19,6.427 -3.241,11.32 -5.854,15.215c5.17,1.619 10.005,0.39 14.46,-4.066c0.797,10.774 -0.783,20.76 -4.062,30.184c7.946,-1.524 14.173,-8.346 18.67,-20.503c0.724,16.703 0.769,34.558 5.125,48.73c2.205,-15.01 6.587,-33.121 8.67,-49.819c32.316,-6.796 51.158,-33.715 64.861,-68.311c31.465,84.838 67.63,115.583 106.507,115.116c-7.806,-17.409 -12.949,-35.633 -14.52,-54.95c5.128,6.363 10.28,10.738 15.501,9.67c14.139,17.312 25.942,23.952 35.923,22.264l-3.133,-12.272c10.767,7.688 21.209,8.005 31.3,0.422l-7.717,-8.068c2.352,0.128 4.372,-0.578 6.064,-2.11c-1.927,-7.262 -5.711,-13.121 -11.706,-17.31l7.729,-10.411c16.015,17.741 30.296,27.252 42.882,28.714l-9.963,-24.713c16.316,15.748 27.976,24.642 32.134,22.491l-5.307,-33.918c12.888,-0.988 26.265,-1.397 29.753,6.66c5.744,13.27 10.679,70.479 10.679,70.479c3.126,-8.3 6.401,-27.171 7.214,-47.209c1.793,3.455 4.855,3.258 4.855,3.258c0,0 15.76,-40.198 17.502,-70.537c2.1,-36.582 -11.726,-67.91 -35.584,-86.181c-23.654,-25.722 -47.337,-41.968 -71.078,-39.726c-49.84,-28.389 -97.705,-35.315 -142.977,-14.083Z" style="fill:#00b1ba;"/></g><g><path d="M313.12,181.956c-28.834,11.111 -52.639,39.256 -65.688,72.133c0,0 17.006,-26.104 21.848,-24.462c2.29,0.777 -8.986,31.081 -8.986,31.081c0,0 18.812,-20.868 24.97,-20.293c7.085,0.661 4.346,17.503 4.346,17.503l20.607,-35.841c0,0 -18.113,11.899 -20.966,5.594c-4.079,-9.012 12.071,-21.551 12.071,-21.551c0,0 -20.067,8.473 -19.836,4.129c0.437,-8.191 31.633,-28.294 31.633,-28.294Z" style="fill:#d1eceb;"/><path d="M317.122,229.624c-7.709,5.29 -12.224,12.002 -14.051,19.911c6.193,-5.696 10.851,-12.349 14.051,-19.911Z" style="fill:#d1eceb;"/><path d="M338.759,227.577c-6.926,7.516 -9.896,15.104 -9.901,22.746c0,0 7.835,-6.375 11.377,-6.045c3.542,0.33 6.521,7.917 9.874,8.025c3.353,0.108 8.492,-7.372 10.775,-7.048c2.283,0.324 2.925,8.992 2.925,8.992c3.303,-7.593 5.544,-15.633 5.527,-24.623c0,0 -11.237,11.361 -19.754,11.902c-7.847,0.499 -10.823,-13.949 -10.823,-13.949Z" style="fill:#d1eceb;"/><path d="M392.88,227.577c-11.548,7.482 -13.788,18.236 -10.504,30.934c0,0 10.927,-11.974 15.308,-12.854c4.381,-0.88 10.976,7.576 10.976,7.576c5.911,-6.369 8.105,-13.299 3.53,-21.249c0,0 -9.845,7.324 -13.063,6.59c-3.218,-0.735 -6.247,-10.997 -6.247,-10.997Z" style="fill:#d1eceb;"/><path d="M445.618,227.577c-1.585,9.44 -0.811,18.361 2.749,26.67c3.318,-9.328 2.484,-18.226 -2.749,-26.67Z" style="fill:#d1eceb;"/><path d="M461.216,233.313c-1.422,7.133 0.526,12.912 5.603,17.435c2.852,-7.654 0.806,-13.396 -5.603,-17.435Z" style="fill:#d1eceb;"/><path d="M491.125,229.624c-0.505,8.996 3.18,15.547 10.609,19.911c-0.104,-8.262 -3.303,-15.059 -10.609,-19.911Z" style="fill:#d1eceb;"/><path d="M513.077,222.504c13.42,19.611 23.663,39.41 31.516,59.351c0,0 -10.065,-31.26 -1.457,-35.546c14.54,-7.239 37.837,19.246 37.837,19.246c0,0 -14.878,-35.999 -13.481,-37.977c1.397,-1.978 21.021,26.67 21.021,26.67c-19.175,-51.089 -47.24,-70.503 -78.063,-80.092c0,0 51.275,30.937 49.698,55.469c-0.369,5.732 -12.024,-2.603 -15.746,-1.36c-3.722,1.243 -2.956,9.49 -7.341,8.817c-5.513,-0.846 -23.984,-14.578 -23.984,-14.578Z" style="fill:#d1eceb;"/></g><defs><radialGradient id="_Radial1" cx="0" cy="0" r="1" gradientUnits="userSpaceOnUse" gradientTransform="matrix(267.441445,-3.841305,2.655608,184.89023,417.972804,249.904037)"><stop offset="0" style="stop-color:#fdef33;stop-opacity:1"/><stop offset="0.63" style="stop-color:#f6e932;stop-opacity:1"/><stop offset="0.83" style="stop-color:#e6da31;stop-opacity:1"/><stop offset="1" style="stop-color:#d4ca2f;stop-opacity:1"/></radialGradient></defs></svg>