<?xml version="1.0" encoding="UTF-8" standalone="no"?><!DOCTYPE svg PUBLIC "-//W3C//DTD SVG 1.1//EN" "http://www.w3.org/Graphics/SVG/1.1/DTD/svg11.dtd"><svg width="100%" height="100%" viewBox="0 0 836 836" version="1.1" xmlns="http://www.w3.org/2000/svg" xmlns:xlink="http://www.w3.org/1999/xlink" xml:space="preserve" xmlns:serif="http://www.serif.com/" style="fill-rule:evenodd;clip-rule:evenodd;stroke-linejoin:round;stroke-miterlimit:2;"><g id="Baby-hair-right"><rect x="0" y="0" width="835.946" height="835.946" style="fill:none;"/><clipPath id="_clip1"><rect x="0" y="0" width="835.946" height="835.946"/></clipPath><g clip-path="url(#_clip1)"><g><path d="M0,339.544c62.676,12.347 56.495,42.782 112.648,74.197c3.828,-13.308 27.222,-22.599 34.605,-34.149c0,0 8.274,33.371 31.738,56.616c23.457,-45.921 43.043,-22.142 137.314,10.244c27.227,45.062 12.493,122.779 26.865,118.216c19.501,-6.191 18.259,-115.451 101.655,-101.328c34.115,5.778 58.234,59.518 29.559,105.555c-18.875,30.303 -35.163,52.804 -16.251,80.203c103.043,149.285 294.916,186.847 294.916,186.847l82.896,0l0,-835.946l-835.946,0l0,339.544Z" style="fill:#00b1ba;"/><path d="M835.946,0l0,835.946c-211.227,-48.894 -69.571,-107.082 -182.357,-245.831c-120.016,-147.643 -597.564,-374.415 -653.589,-572.659l-0,-17.456l835.946,0Z" style="fill:#faef33;"/></g></g></g></svg>