<?xml version="1.0" encoding="UTF-8" standalone="no"?><!DOCTYPE svg PUBLIC "-//W3C//DTD SVG 1.1//EN" "http://www.w3.org/Graphics/SVG/1.1/DTD/svg11.dtd"><svg width="100%" height="100%" viewBox="0 0 836 836" version="1.1" xmlns="http://www.w3.org/2000/svg" xmlns:xlink="http://www.w3.org/1999/xlink" xml:space="preserve" xmlns:serif="http://www.serif.com/" style="fill-rule:evenodd;clip-rule:evenodd;stroke-linejoin:round;stroke-miterlimit:2;"><g id="Mesa-de-trabajo3" serif:id="Mesa de trabajo3"><rect x="0" y="0" width="835.946" height="835.946" style="fill:none;"/><path d="M241.997,273.945l0,-273.945l351.952,0l0,273.945l-351.952,0Zm351.952,100.177l0,62.345l-351.952,0l-0,-62.345l351.952,0Z" style="fill:#243266;"/><rect x="241.997" y="331.986" width="351.952" height="42.136" style="fill:#fbb822;"/><rect x="241.997" y="374.122" width="351.952" height="62.345" style="fill:#fdc53f;"/><rect x="316.124" y="331.986" width="17.597" height="45.944" style="fill:#fdc53f;"/><rect x="502.225" y="331.986" width="17.597" height="45.944" style="fill:#fdc53f;"/><path d="M593.949,436.467l6.196,52.986c0,0 -89.071,10.249 -182.172,10.249c-96.388,0 -182.172,-10.249 -182.172,-10.249l6.196,-52.986l351.952,0Z" style="fill:#fdc53f;"/></g></svg>