<?xml version="1.0" encoding="UTF-8" standalone="no"?><!DOCTYPE svg PUBLIC "-//W3C//DTD SVG 1.1//EN" "http://www.w3.org/Graphics/SVG/1.1/DTD/svg11.dtd"><svg width="100%" height="100%" viewBox="0 0 836 836" version="1.1" xmlns="http://www.w3.org/2000/svg" xmlns:xlink="http://www.w3.org/1999/xlink" xml:space="preserve" xmlns:serif="http://www.serif.com/" style="fill-rule:evenodd;clip-rule:evenodd;stroke-linejoin:round;stroke-miterlimit:2;"><g id="Mesa-de-trabajo3" serif:id="Mesa de trabajo3"><rect x="0" y="0" width="835.946" height="835.946" style="fill:none;"/><clipPath id="_clip1"><rect x="0" y="0" width="835.946" height="835.946"/></clipPath><g clip-path="url(#_clip1)"><g><path d="M241.997,273.945l0,-273.945l351.952,0l0,273.945l-351.952,0Zm351.952,100.177l0,62.345l-351.952,0l0,-62.345l351.952,0Z" style="fill:#fff;"/><rect x="241.997" y="0" width="351.952" height="286.098" style="fill:#fbb822;"/><rect x="241.997" y="269.714" width="351.952" height="32.768"/><path d="M358.647,23.174c-29.333,-6.86 -78.266,-45.187 -78.266,-45.187l17.474,-30.265l60.792,35.099l-0,-0.583l118.651,-0l0,1.449l60.792,-35.099l17.474,30.265c0,0 -48.877,38.572 -78.266,45.187c-32.82,7.387 -85.832,6.81 -118.651,-0.866Z"/><rect x="241.997" y="331.986" width="351.952" height="42.136" style="fill:#d72038;"/><rect x="241.997" y="374.122" width="351.952" height="62.345" style="fill:#27266b;"/><g><rect x="304.401" y="331.986" width="37.296" height="52.436" style="fill:#ed1a35;"/><rect x="494.249" y="331.986" width="37.296" height="52.436" style="fill:#ed1a35;"/></g></g></g></g></svg>