<?xml version="1.0" encoding="UTF-8" standalone="no"?><!DOCTYPE svg PUBLIC "-//W3C//DTD SVG 1.1//EN" "http://www.w3.org/Graphics/SVG/1.1/DTD/svg11.dtd"><svg width="100%" height="100%" viewBox="0 0 836 836" version="1.1" xmlns="http://www.w3.org/2000/svg" xmlns:xlink="http://www.w3.org/1999/xlink" xml:space="preserve" xmlns:serif="http://www.serif.com/" style="fill-rule:evenodd;clip-rule:evenodd;stroke-linecap:round;stroke-linejoin:round;stroke-miterlimit:1.5;"><g id="Mesa-de-trabajo3" serif:id="Mesa de trabajo3"><rect x="0" y="0" width="835.946" height="835.946" style="fill:none;"/><clipPath id="_clip1"><rect x="0" y="0" width="835.946" height="835.946"/></clipPath><g clip-path="url(#_clip1)"><g><path d="M316.83,0l202.286,0l-202.286,0Z" style="fill:#fcd0ae;"/><clipPath id="_clip2"><path d="M316.83,0l202.286,0l-202.286,0Z"/></clipPath><g clip-path="url(#_clip2)"><path d="M316.83,0c29.814,21.263 62.81,42.424 101.143,54.898c37.158,-11.692 70.863,-32.126 101.143,-54.898" style="fill:none;stroke:#ffda9f;stroke-width:5.19px;"/></g><path d="M593.949,112.272l0,161.674l-351.952,0l0,-161.674l351.952,0Zm0,261.85l0,62.345l-351.952,0l0,-62.345l351.952,0Z" style="fill:#00b5c7;"/><clipPath id="_clip3"><path d="M593.949,112.272l0,161.674l-351.952,0l0,-161.674l351.952,0Zm0,261.85l0,62.345l-351.952,0l0,-62.345l351.952,0Z"/></clipPath><g clip-path="url(#_clip3)"><g><path d="M593.949,273.945l-351.952,0l0,-30.586l351.952,0l0,30.586Z" style="fill:#00a3b3;"/><rect x="312.271" y="243.359" width="13.717" height="30.586" style="fill:#00b5c7;"/><rect x="509.958" y="243.359" width="13.717" height="30.586" style="fill:#00b5c7;"/></g><g><path d="M477.362,114.216l120.559,120.559l9.7,-9.7l-120.559,-120.559l-9.7,9.7Z" style="fill:#46c4d5;"/><path d="M358.584,114.216l-120.559,120.559l-9.7,-9.7l120.559,-120.559l9.7,9.7Z" style="fill:#46c4d5;"/></g></g><ellipse cx="417.973" cy="-0" rx="95.554" ry="30.46"/><path d="M593.949,105.042l0,28.918c0,0 -58.228,-13.692 -175.976,-14.459c-117.748,-0.767 -175.976,14.459 -175.976,14.459l0,-28.918c0,0 57.799,-14.459 175.976,-14.459c118.178,-0 175.976,14.459 175.976,14.459Z"/><rect x="241.997" y="331.986" width="351.952" height="42.136" style="fill:#744842;"/><clipPath id="_clip4"><rect x="241.997" y="331.986" width="351.952" height="42.136"/></clipPath><g clip-path="url(#_clip4)"><g><g><g><rect x="269.507" y="331.986" width="6.125" height="42.136" style="fill:#58342e;"/><rect x="299.086" y="331.986" width="6.125" height="42.136" style="fill:#58342e;"/><rect x="334.545" y="331.986" width="6.125" height="42.136" style="fill:#58342e;"/><rect x="369.808" y="331.986" width="6.125" height="42.136" style="fill:#58342e;"/><rect x="401.164" y="331.986" width="6.125" height="42.136" style="fill:#58342e;"/><rect x="433.401" y="331.986" width="6.125" height="42.136" style="fill:#58342e;"/><rect x="464.848" y="331.986" width="6.125" height="42.136" style="fill:#58342e;"/><rect x="493.79" y="331.986" width="6.125" height="42.136" style="fill:#58342e;"/><rect x="528.051" y="331.986" width="6.125" height="42.136" style="fill:#58342e;"/><rect x="560.314" y="331.986" width="6.125" height="42.136" style="fill:#58342e;"/></g></g></g></g><rect x="241.997" y="369.013" width="351.952" height="10.218" style="fill:#fdc53f;"/><rect x="241.997" y="326.877" width="351.952" height="10.218" style="fill:#fdc53f;"/></g></g></g></svg>