<?xml version="1.0" encoding="UTF-8" standalone="no"?><!DOCTYPE svg PUBLIC "-//W3C//DTD SVG 1.1//EN" "http://www.w3.org/Graphics/SVG/1.1/DTD/svg11.dtd"><svg width="100%" height="100%" viewBox="0 0 836 836" version="1.1" xmlns="http://www.w3.org/2000/svg" xmlns:xlink="http://www.w3.org/1999/xlink" xml:space="preserve" xmlns:serif="http://www.serif.com/" style="fill-rule:evenodd;clip-rule:evenodd;stroke-linecap:round;stroke-linejoin:round;stroke-miterlimit:1.5;"><g id="Mesa-de-trabajo3" serif:id="Mesa de trabajo3"><rect x="0" y="-0" width="835.946" height="835.946" style="fill:none;"/><clipPath id="_clip1"><rect x="0" y="-0" width="835.946" height="835.946"/></clipPath><g clip-path="url(#_clip1)"><rect x="241.997" y="273.945" width="351.952" height="100.177" style="fill:#f7d5cf;"/><g><g><clipPath id="_clip2"><rect x="411.812" y="-27.181" width="182.137" height="193.819"/></clipPath><g clip-path="url(#_clip2)"><path d="M560.979,75.102c0.035,2.323 0.07,4.645 0.104,6.968c-0.627,4.964 -0.664,5.274 0.977,6.24c1.598,0.94 10.072,5.927 10.285,20.77c0.316,22.06 -15.503,24.838 -16.901,25.481c-3.203,1.472 -1.775,9.715 -17.432,17.133c-14.749,6.988 -7.579,-5.527 -6.143,-12.662c1.892,-9.397 -4.279,0.21 -10.783,3.917c-10.048,5.727 -4.277,19.32 -29.924,23.685c-14.857,0.212 -9.195,-6.602 -8.609,-7.288c9.176,-10.745 9.87,-13.919 0.035,-26.625c-0.555,-0.717 -1.232,-1.591 -11.314,0.743c-4.271,0.989 -3.94,4.775 -4.44,6.515c-4.147,14.443 -30.038,8.912 -16.918,-0.273c7.491,-5.244 1.303,-16.198 17.107,-22.055c10.264,-3.804 8.726,-5.997 11.506,-16.487c1.718,-6.484 -4.908,-3.299 -9.982,-11.342c-2.25,-3.566 -3.36,-1.485 -5.855,1.913c-6.283,8.557 1.031,8.992 1.725,16.322c1.028,10.86 -16.21,3.359 -17.963,4.477c-10.337,6.592 -14.465,-2.562 -19.569,-6.042c-7.203,-4.913 -6.111,-5.899 -8.185,-10.085c-0.526,-1.062 -5.531,-3.425 -6.564,-10.315c-2.846,-18.976 13.832,-22.173 14.615,-23.287c2.561,-3.643 3.952,-2.53 5.68,-6.638c2.06,-4.897 3.354,-4.554 2.921,-7.112c-0.877,-5.172 1.282,-5.165 0.429,-8.896c-6.902,-30.193 16.608,-33.711 20.524,-39.979c1.643,-2.629 8.458,-13.538 31.926,-21.959c11.706,-4.2 15.771,-10.045 24.101,0.755c2.555,3.313 14.227,-0.413 29.764,3.494c11.228,2.824 25.776,11.975 28.138,16.582c4.336,8.455 -8.837,4.901 -15.912,7.454c-18.877,6.813 6.641,15.675 13.651,30.678c2.244,4.802 3.83,-0.149 16.243,-1.722c15.914,-2.016 15.771,8.777 30.941,3.563c8.638,-2.969 6.041,6.159 4.474,9.264c-9.582,18.991 -25.08,9.596 -21.627,15.867c6.28,11.405 -5.139,27.74 -8.383,18.737c-5.192,-14.413 -12.968,-3.294 -26.344,-10.09c-2.123,-1.079 -2.442,-0.034 -2.302,2.301Z" style="fill:#1d2446;fill-opacity:0.99;"/><path d="M584.701,58.072c-6.929,-6.406 -18.247,5.715 -19.37,6.918c-1.792,-1.205 -8.896,-6.892 -12.757,-3.472c-2.998,2.656 5.432,14.602 0.19,26.561c-1.739,-1.442 -1.718,-1.446 -1.878,-1.558c-11.352,-7.96 -5.529,-11.344 -3.072,-14.707c2.833,-3.877 2.269,-9.019 -1.98,-12.305c-6.554,-5.069 -7.783,-5.138 -7.277,-13.407c0.292,-4.773 -3.525,-18.182 -15.536,-11.31c-8.019,4.588 -4.953,-10.467 -21.787,-14.896c-10.049,-2.644 -10.916,7.658 -18.673,1.727c-5.158,-3.944 -4.829,0.974 -3.958,2.177c7.422,10.256 14.972,-1.819 21.617,0.14c9.729,2.868 11.438,8.776 13.294,11.939c5.782,9.856 14.663,-2.005 18.231,2.632c4.071,5.291 2.128,5.924 1.924,12.548c-0.219,7.112 11.441,11.596 11.774,14.997c0.549,5.603 -16.105,12.108 5.795,25.134c-0.576,1.923 -0.558,1.865 -2.009,3.925c-7.81,11.089 5.213,20.049 11.819,9.973c0.232,1.371 2.519,14.878 -3.884,16.947c-2.758,0.891 -1.742,-6.509 -7.296,-10.559c-4.265,-3.11 -4.124,-3.312 -6.075,-8.244c-2.191,-5.54 -8.872,-12.199 -11.487,-10.088c3.291,-10.055 6.583,-21.115 -0.466,-30.78c-5.294,-7.258 -13.953,-0.171 -16.744,-11.259c-1.883,-7.481 -2.959,-17.27 -16.903,-19.104c-12.05,-1.585 -10.551,7.346 -27.995,8.239c-7.138,0.365 -13.323,0.593 -11.83,-2.072c6.053,-10.799 19.068,-10.396 15.946,-14.203c-0.752,-0.917 -7.676,-2.165 -12.761,1.598c-13.095,9.691 -10.02,19.75 -9.469,21.551c0.069,0.225 3.702,5.75 -4.816,4.518c-2.987,-0.432 -7.303,-4.285 -4.917,-7.42c3.408,-4.479 -8.52,-12.875 5.286,-28.706c6.085,-6.977 9.18,-3.71 16.629,-14.367c1.72,-2.46 3.125,-7.327 35.868,-20.17c6.852,-2.688 7.54,4.025 5.113,5.22c-0.462,0.227 -9.761,2.721 -10.353,9.88c-0.244,2.954 7.266,3.576 16.385,-5.899c6.675,-6.935 38.139,-0.402 47.43,7.264c2.343,1.933 -13.158,1.244 -17.614,11.607c-6.508,15.136 20.122,16.604 23.872,41.085c1.226,8.005 3.093,-3.386 13.15,-6.246c17.94,-5.102 19.431,5.187 30.035,3.851c9.974,-1.257 -3.556,6.521 -7.029,6.856c-6.082,0.586 -7.177,-1.706 -9.937,-1.72c-3.347,-0.017 -6.142,4.634 -6.484,5.204Z" style="fill:#9f2083;fill-opacity:1;"/><path d="M464.327,60.447c21.428,-3.15 14.014,-13.409 21.249,-18.929c1.303,-0.994 12.073,-9.211 20.49,-0.324c7.773,8.206 -1.598,18.404 15.038,21.318c21.747,3.809 -0.039,38.419 -0.495,44.62c-0.907,12.341 8.988,13.077 3.786,23.068c-4.049,7.775 -9.011,3.876 -16.549,18.716c-4.64,9.136 -16.049,11.767 -14.839,8.12c0.131,-0.394 2.267,-3.946 2.869,-7.993c0,-0.001 0.059,-5.14 0.599,-5.721c1.178,-1.265 15.569,-1.187 20.054,-18.143c1.081,-4.086 -0.44,-13.76 3.135,-26.982c8.576,-31.721 -4.345,-28.893 -8.198,-32.437c-5.832,-5.365 -1.365,-18.846 -20.316,-13.784c-15.559,4.155 -16.544,23.656 -21.141,25.695c-7.566,3.357 -8.318,2.764 -14.343,11.736c-8.626,12.846 -17.14,5.515 -23.488,8.671c-6.973,3.467 -5.267,-1.644 -4.925,-1.891c4.227,-3.051 4.452,-3.08 5.841,-8.131c1.31,-4.766 9.28,4.706 10.306,-3.969c2.984,-4.871 4.501,-3.295 10.484,-9.28c4.937,-4.938 8.656,-11.627 10.441,-14.358Z" style="fill:#55bbe3;fill-opacity:1;"/><path d="M484.781,81.088c-0.012,1.697 1.711,17.158 -8.201,8.577c-6.377,-5.52 -0.129,-6.678 1.725,-10.518c2.235,-4.629 4.612,-20.847 19.879,-21.068c7.871,-0.114 1.829,8.169 12.902,14.176c10.638,5.771 0.628,20.563 -0.164,44.82c-0.154,4.704 0.973,9.817 -8.044,16.584c-7.644,5.737 -10.721,1.806 -11.28,1.092c-3.923,-5.012 -6.201,-5.484 -2.63,-10.801c4.794,-7.137 2.72,-22.113 8.101,-15.775c5.042,5.94 5.24,0.296 5.087,-0.081c-0.166,-0.409 -0.41,-0.783 -0.59,-1.186c-2.887,-6.461 8.061,-4.332 9.652,-16.821c0.271,-2.127 1.402,-11.004 -10.357,-24.725c-6.125,-7.147 -13.435,-2.653 -14.861,4.675c-1.28,6.579 -1.078,7.71 -1.218,11.05Z" style="fill:#a02084;fill-opacity:1;"/><path d="M464.327,60.447c-1.785,2.73 -5.505,9.42 -10.441,14.358c-5.984,5.985 -7.5,4.409 -10.484,9.28c-2.674,-1.407 -12.006,-7.845 -15.246,1.99c-1.617,4.909 -2.724,6.975 -6.583,3.556c-6.36,-5.634 -0.812,-20.835 6.609,-18.543c1.004,0.31 8.689,3.991 8.224,-0.034c-0.096,-0.832 -6.26,-6.029 -0.205,-6.605c1.314,-0.125 8.262,3.183 7.315,-1.455c-0.29,-1.422 -6.063,-3.443 -3.01,-6.613c2.713,-2.817 3.999,3.476 13.597,-0.454c2.886,-1.182 2.433,1.081 10.224,4.52Z" style="fill:#9f2083;fill-opacity:1;"/><path d="M552.763,88.078c-0.452,1.778 -0.309,1.817 -1.528,3.113c-21.9,-13.027 -5.245,-19.532 -5.795,-25.134c-0.333,-3.401 -11.994,-7.886 -11.774,-14.997c0.204,-6.624 2.147,-7.258 -1.924,-12.548c-3.568,-4.636 -12.449,7.224 -18.231,-2.632c-1.855,-3.163 -3.564,-9.071 -13.294,-11.939c-6.645,-1.958 -14.194,10.116 -21.617,-0.14c-0.871,-1.203 -1.2,-6.121 3.958,-2.177c7.757,5.931 8.624,-4.371 18.673,-1.727c16.834,4.429 13.768,19.484 21.787,14.896c12.011,-6.872 15.828,6.537 15.536,11.31c-0.506,8.269 0.723,8.338 7.277,13.407c4.249,3.286 4.813,8.428 1.98,12.305c-2.457,3.362 -8.279,6.747 3.072,14.707c0.16,0.112 0.139,0.115 1.878,1.558Z" style="fill:#51bde3;fill-opacity:1;"/><path d="M532.303,93.144c2.615,-2.11 9.296,4.548 11.487,10.088c1.951,4.932 1.81,5.134 6.075,8.244c5.554,4.05 4.538,11.451 7.296,10.559c6.403,-2.069 4.116,-15.576 3.884,-16.947c-1.479,-9.315 -2.95,-9.131 -2.575,-9.854c2.68,-5.174 11.526,16.903 4.43,26.652c-3.691,5.072 -10.342,5.932 -10.763,6.061c-4.684,1.441 -1.319,5.019 -11.297,13.683c-3.908,3.393 -1.737,-2.417 -3.116,-13.495c-2.373,-19.06 -14.709,-16.417 -10.625,-22.258c0.314,0.146 8.529,2.699 12.052,12.217c1.911,5.162 2.325,17.369 4.168,15.264c3.616,-4.13 2.405,-5.038 6.6,-8.598c6.374,-5.408 -8.453,-13.137 -9.349,-16.765c-1.918,-7.768 -3.721,-6.74 -8.788,-12.916c0.173,-0.645 0.347,-1.29 0.52,-1.935Z" style="fill:#55bde3;fill-opacity:1;"/><path d="M531.782,95.079c5.067,6.176 6.87,5.148 8.788,12.916c0.896,3.628 15.722,11.357 9.349,16.765c-4.195,3.56 -2.984,4.469 -6.6,8.598c-1.843,2.105 -2.257,-10.103 -4.168,-15.264c-3.523,-9.517 -11.738,-12.071 -12.052,-12.217c0.185,-0.923 0.844,-4.216 4.683,-10.798Z" style="fill:#9e2081;fill-opacity:1;"/><path d="M487.617,111.149c-4.756,21.84 -15.318,12.057 -22.363,19.009c-2.775,2.739 -5.996,16.265 -8.034,10.922c-0.148,-0.388 3.744,-10.069 4.093,-10.935c3.523,-8.763 17.87,-4.314 21.038,-17.019c2.15,-8.622 3.286,-23.748 19.776,-27.356c3.412,-0.746 4.206,2.936 2.023,3.044c-12.841,0.636 -13.963,10.912 -16.534,22.334Z" style="fill:#58bce2;fill-opacity:1;"/><path d="M584.204,60.094c3.168,4.513 9.539,7.845 8.279,12.209c-0.791,2.74 -2.883,-4.019 -12.301,-4.156c-1.999,-0.029 -3.999,0.017 -5.999,0.019c-4.286,0.004 -4.534,-1.355 -5.088,-1.565c3.871,-3.543 4.149,-5.037 15.109,-6.508Z" style="fill:#9e2184;fill-opacity:1;"/><path d="M467.194,54.54c-11.843,-0.821 -10.557,-13.023 -6.145,-9.296c0.696,0.588 0.872,6.382 6.094,5.621c4.518,-0.658 4.461,-8.329 8.767,-6.293c0.881,0.416 0.901,8.802 -8.716,9.969Z" style="fill:#57bce3;fill-opacity:1;"/><path d="M584.701,58.072c-0.166,0.674 -0.331,1.348 -0.497,2.023c-10.96,1.471 -11.237,2.965 -15.109,6.508c-0.287,-0.001 -1.135,0.912 -3.764,-1.613c1.123,-1.203 12.441,-13.323 19.37,-6.918Z" style="fill:#52bce1;fill-opacity:1;"/><path d="M455.661,103.815c4.851,7.276 -10.656,0.883 -6.824,-1.115c5.536,-2.886 6.744,1.009 6.824,1.115Z" style="fill:#07070d;fill-opacity:0;"/><path d="M437.16,103.645c1.905,0.833 2.591,0.369 2.833,2.461c0.357,3.088 -7.933,-1.613 -2.833,-2.461Z" style="fill:#2a2f57;fill-opacity:0.15;"/><path d="M560.979,75.102c4.426,2.37 4.453,4.45 0.104,6.968c-0.035,-2.323 -0.07,-4.645 -0.104,-6.968Z" style="fill:#3f4d75;fill-opacity:0.15;"/></g></g><path d="M508.676,273.945l-181.406,0c7.929,-175.064 20.576,-247.035 20.648,-273.945l140.109,0c0.072,26.91 12.72,98.881 20.648,273.945Zm85.273,100.177l0,62.345l-351.952,0l0,-62.345l351.952,0Z" style="fill:#fff;"/><path d="M325.708,-0c16.202,27.704 54.336,40.216 92.265,39.797c38.978,-0.43 77.741,-14.514 92.265,-39.797" style="fill:none;stroke:#bbbdc0;stroke-width:9.51px;"/><path d="M417.973,41.956c1.412,-2.593 4.237,-2.593 5.649,-1.297c1.412,1.297 1.412,3.89 0,6.483c-0.989,1.945 -3.531,3.89 -5.649,5.187c-2.118,-1.297 -4.661,-3.242 -5.649,-5.187c-1.412,-2.593 -1.412,-5.187 0,-6.483c1.412,-1.297 4.237,-1.297 5.649,1.297Z" style="fill:#d3d1cd;"/><path d="M325.708,-0c61.51,25.771 123.02,25.9 184.529,0" style="fill:none;stroke:#bbbdc0;stroke-width:5px;"/><path d="M473.087,39.807l18.055,-13.974c0,0 27.06,52.525 31.094,81.238c5.865,41.748 4.096,195.41 4.096,195.41l-25.391,0c0,0 0.477,-155.847 -4.94,-195.41c-3.323,-24.272 -22.913,-67.264 -22.913,-67.264Z"/><rect x="524.571" y="269.714" width="69.378" height="32.768"/><g><path d="M294.115,81.379c-6.299,-0.269 -13.583,-1.961 -15.61,-0.982c-0.416,0.201 -2.795,9.073 -3.247,11.704c-0.534,3.112 -3.122,1.632 -6.053,1.496c-4.175,-0.193 -2.218,-4.797 0.497,-13.679c2.705,-8.848 1.651,-11.884 7.495,-10.931c9.123,1.489 9.165,1.057 9.949,1.225c7.973,1.717 8.077,0.288 16.046,1.803c8.098,1.539 12.015,-0.836 10.591,4.885c-2.475,9.941 -6.353,5.497 -16.605,5.26c-1.021,-0.26 -2.042,-0.521 -3.063,-0.781Z" style="fill:#f33f31;fill-opacity:0.98;"/><path d="M255.187,91.816c-2.764,-0.201 -2.747,-0.199 -2.985,-0.217c-4.655,-0.358 -2.914,-2.989 -0.349,-12.621c1.221,-4.583 1.548,-4.37 2.856,-9.031c1.624,-5.787 3.942,-2.6 12.501,-2.08c3.365,0.204 2.164,2.057 -1.132,13.179c-1.98,6.682 -1.881,8.144 -2.078,8.969c-0.866,3.626 -2.166,2.342 -5.892,2.355c-0.52,-4.409 3.632,-14.174 0.155,-11.188c-1.202,1.032 -2.907,9.765 -3.077,10.634Z" style="fill:#f34031;fill-opacity:0.98;"/><path d="M284.782,39.944c-2.277,9.16 -1.447,13.288 -10.568,11.057c-4.222,-1.033 -0.465,-3.271 1.831,-14.958c0.412,-2.098 1.117,-1.459 2.141,-1.387c5.936,0.418 6.742,-0.512 7.186,1.36c0.333,1.407 -0.008,1.338 -0.591,3.929Z" style="fill:#f33f30;fill-opacity:0.96;"/><path d="M308.783,47.903c-2.296,5.707 -2.213,5.791 -2.665,6.067c-0.327,0.2 -8.665,1.522 -8.008,-2.896c0.011,-0.071 3.048,-11.869 3.445,-12.778c0.674,-1.543 10.176,-1.114 9.513,1.764c-0.928,4.027 -1.298,3.831 -2.284,7.843Z" style="fill:#f34031;fill-opacity:0.95;"/><path d="M261.559,40.229c1.89,-5.481 1.843,-5.478 2.01,-5.952c0.799,-2.261 9.262,-1.823 8.966,1.821c-0.496,6.106 -3.072,11.917 -3.505,12.894c-0.255,0.575 -0.436,0.983 -7.855,0.122c-1.568,-0.182 -1.673,-0.961 0.385,-8.885Z" style="fill:#f24031;fill-opacity:0.97;"/><path d="M288.583,38.241c1.215,-1.736 0.824,-2.351 2.593,-2.354c7.89,-0.012 7.091,2.588 6.913,3.169c-2.706,8.804 -2.661,11.749 -3.71,13.188c-0.389,0.533 -0.533,0.731 -8.247,-0.021c-1.991,-0.194 0.023,-2.756 2.452,-13.983Z" style="fill:#f34030;fill-opacity:0.98;"/><path d="M258.765,62.803c-5.57,3.105 -0.633,-10.822 2.393,-10.986c5.35,-0.29 8.315,-0.609 6.358,4.375c-1.567,3.991 -2.26,9.734 -4.327,7.886c-0.41,-0.366 -0.503,-8.382 -4.423,-1.275Z" style="fill:#151617;fill-opacity:0.97;"/><path d="M294.301,59.328c5.858,-1.702 0.931,3.738 1.677,5.881c1.069,3.072 4.27,-5.594 4.399,-5.685c3.095,-2.197 0.731,6.468 0.809,6.556c1.812,2.026 3.828,-6.048 4.991,-6.164c2.522,-0.252 -1.027,7.727 -1.118,7.998c-0.617,0.307 -0.487,1.207 -3.859,0.9c-0.731,-0.066 -8.628,-0.785 -9.005,-1.747c-0.156,-0.397 0.553,-0.82 0.397,-1.217c1.164,-3.205 1.307,-3.101 1.708,-6.523Z" style="fill:#151617;fill-opacity:0.98;"/><path d="M285.212,58.133c0.386,-0.058 2.753,-1.664 7.137,0.765c-0.577,3.482 -0.532,3.418 -1.309,6.886c-1.229,0.972 -1.189,2.105 -7.664,0.817c-1.791,-0.356 0.218,-5.21 0.391,-5.627l1.445,-2.84Z" style="fill:#151617;fill-opacity:0.98;"/><path d="M307.125,69.151c2.121,-7.198 1.91,-10.615 9.001,-7.938c3.076,1.162 -0.933,8.363 -1.186,8.546c-4.081,2.96 0.15,-7.489 -2.705,-6.422c-1.459,0.545 -1.006,0.996 -2.4,4.596c-0.988,2.551 -2.487,1.214 -2.71,1.218Z" style="fill:#141618;fill-opacity:0.97;"/><path d="M277.171,57.043c4.086,-0.72 3.931,0.718 8.041,1.09l-1.445,2.84c-6.198,-4.805 -4.353,5.912 -8.424,4.661c-1.23,-0.378 0.388,-5.182 0.532,-5.609c0.432,-0.994 0.865,-1.988 1.297,-2.982Z" style="fill:#161717;fill-opacity:0.94;"/><path d="M277.171,57.043c-0.432,0.994 -0.865,1.988 -1.297,2.982c-2.36,-1.068 -2.601,-2.583 -4.393,-0.683c-0.097,0.103 -1.722,4.777 -2.53,5.277c-3.341,2.066 -1.087,-1.478 0.424,-7.405c0.787,-3.085 6.214,-0.544 7.796,-0.171Z" style="fill:#161616;fill-opacity:0.92;"/><path d="M255.187,91.816c0.17,-0.869 1.875,-9.602 3.077,-10.634c3.476,-2.986 -0.676,6.778 -0.155,11.188l-2.922,-0.553Z" style="fill:#f33e2c;fill-opacity:0.27;"/><path d="M292.349,58.898c0.651,0.143 1.302,0.287 1.953,0.43c-0.402,3.422 -0.544,3.317 -1.708,6.523l-1.554,-0.067c0.777,-3.468 0.732,-3.404 1.309,-6.886Z" style="fill:#211a18;fill-opacity:0.36;"/><path d="M263.16,54.529c5.129,2.513 -1.604,4.296 -2.111,2.603c-0.576,-1.925 0.267,-1.769 2.111,-2.603Z" style="fill:#110b09;fill-opacity:0.01;"/><path d="M287.205,64.586c-0.552,-0.685 -1.866,-0.511 -0.608,-3.241c0.072,-0.157 0.702,-0.768 0.812,-0.805c0.307,-0.103 3.967,0.133 -0.204,4.046Z" style="fill:#20100e;fill-opacity:0.03;"/><path d="M294.115,81.379c1.021,0.26 2.042,0.521 3.063,0.781c-1.605,-0.129 -1.536,-0.21 -3.063,-0.781Z" style="fill:#c2382a;fill-opacity:0.3;"/></g><path d="M455.614,9.542l17.474,30.265l82.477,-47.618l-17.474,-30.265l-82.477,47.618Z"/><circle cx="476.994" cy="16.729" r="8.817" style="fill:#c0b5b9;"/><path d="M380.332,8.677l-17.474,30.265l-82.477,-47.618l17.474,-30.265l82.477,47.618Z"/><circle cx="360.01" cy="16.729" r="8.817" style="fill:#c0b5b9;"/><rect x="241.997" y="331.986" width="351.952" height="42.136" style="fill:#d72038;"/><rect x="241.997" y="374.122" width="351.952" height="62.345" style="fill:#27266b;"/><path d="M362.858,38.942l-18.055,-13.108c0,0 -27.06,52.525 -31.094,81.238c-5.865,41.748 -4.096,195.41 -4.096,195.41l25.391,0c0,0 -0.477,-155.847 4.94,-195.41c3.323,-24.272 22.913,-68.13 22.913,-68.13Z"/><rect x="241.997" y="269.714" width="69.378" height="32.768"/><g><rect x="304.401" y="331.986" width="37.296" height="52.436" style="fill:#ed1a35;"/><rect x="494.249" y="331.986" width="37.296" height="52.436" style="fill:#ed1a35;"/></g><rect x="415.809" y="331.986" width="4.328" height="91.328" style="fill:#808285;"/><g><path d="M344.245,398.389l-85.676,18.263l-1.499,-4.451l85.676,-18.263l1.499,4.451Z" style="fill:#808285;"/><path d="M491.7,398.389l85.676,18.263l1.499,-4.451l-85.676,-18.263l-1.499,4.451Z" style="fill:#808285;"/><path d="M335.878,409.38l10.915,0l-2.729,-15.442l-5.458,0l-2.729,15.442Z" style="fill:#bbbdc0;"/><path d="M487.659,409.38l10.915,0l-2.729,-15.442l-5.458,0l-2.729,15.442Z" style="fill:#bbbdc0;"/></g><path d="M406.829,374.122l22.288,0l-5.572,-36.654l-11.144,0l-5.572,36.654Z" style="fill:#bbbdc0;"/><g><path d="M253.854,480.928c2.043,0.568 2.134,0.904 1.752,3.004c-0.482,2.646 1.487,2.831 1.867,1.305c0.067,-0.27 1.813,-7.292 3.469,-0.132c0.061,9.014 -0.326,8.967 0.378,17.995c-2.057,5.773 -0.648,6.909 -0.618,8.902c-1.955,2.169 -1.144,2.472 -1.333,5.354c-0.644,0.235 -11.829,1.02 -14.047,-2.303c0.466,-1.978 0.526,-1.929 0.357,-3.903c2.495,-2.844 0.787,-3.426 1.445,-5.077c1.732,-4.346 1.527,-4.313 2.253,-8.946c0.586,-1.992 0.62,-1.917 1.006,-3.99c0.312,-0.966 3.406,-10.554 3.472,-12.209Z" style="fill:#d37a8d;fill-opacity:0.99;"/><path d="M260.251,427.975c0.799,1.235 0.739,1.215 1.921,2.141c0.197,0.154 1.828,1.73 -2.186,2.228c-16.076,-10.865 2.712,-27.87 12.958,-18.002c3.418,3.292 6.908,13.984 -3.598,18.204c-0.24,0.096 -0.037,0.319 -2.698,1.778c-0.2,-1.071 -0.4,-2.142 -0.6,-3.212c1.003,-0.756 2.007,-1.512 3.01,-2.268c0.42,-0.355 3.894,-3.289 3.7,-5.8c-1.189,-15.421 -22.55,-5.479 -12.509,4.931Z" style="fill:#715b16;fill-opacity:0.99;"/><path d="M262.463,445.494c3.126,3.092 2.727,3.328 5.609,6.71l-0.311,1.037l1.35,0.903c-2.651,0.299 -2.532,1.255 -3.048,1.789c-1.063,1.003 -1.005,0.947 -2.043,1.949l-0.838,0.198c-0.893,0.683 -2.999,1.517 -1.034,4.027c2.99,3.819 -0.132,4.513 -1.799,6.174c-0.613,0.226 -0.505,-0.461 -1.162,-0.218c-1.385,0.511 -0.875,1.002 -0.987,1.012c-0.307,0.026 -0.035,-0.619 -0.109,-0.918c-0.477,-1.928 -4.798,-2.848 0.307,-6.875c0.654,-1.59 0.496,-1.583 -0.139,-3.249c-1.717,-1.995 -1.712,-1.938 -1.851,-2.115c-1.314,-1.672 -1.018,-1.774 -1.129,-1.914l-0.389,-0.717c0.149,-2.251 -0.06,-2.34 1.448,-4.003c1.564,-1.026 1.51,-0.935 2.927,-2.1c0.371,-0.298 0.742,-0.596 1.114,-0.895l0.662,-0.388c0.475,-0.136 0.949,-0.272 1.424,-0.407Z" style="fill:#f68ba1;fill-opacity:0.99;"/><path d="M260.251,427.975c-10.041,-10.411 11.319,-20.352 12.509,-4.931c0.194,2.511 -3.28,5.445 -3.7,5.8c-1.478,-0.187 -1.418,-0.183 -2.84,-0.815c-2.147,-0.476 -2.082,-0.703 -4.136,-0.211c-0.611,0.053 -1.221,0.105 -1.832,0.158Z" style="fill:#010101;fill-opacity:0.01;"/><path d="M257.391,461.286l1.006,-0.005c-5.105,4.027 -0.784,4.948 -0.307,6.875c0.074,0.299 -0.198,0.944 0.109,0.918c0.113,-0.01 -0.397,-0.501 0.987,-1.012c0.657,-0.242 0.549,0.445 1.162,0.218c0.252,0.25 0.505,0.5 0.757,0.749c-0.55,1.669 -0.608,1.652 -0.593,1.803c0.01,0.109 0.386,-0.601 1.247,0.572c1.734,2.364 3.805,3.948 1.341,7.617c-1.521,1.79 -1.203,1.906 -1.988,4.075l-0.17,2.008c-1.656,-7.16 -3.402,-0.137 -3.469,0.132c-0.379,1.525 -2.349,1.341 -1.867,-1.305c0.383,-2.1 0.291,-2.436 -1.752,-3.004c-0.244,-0.807 -3.273,-6.072 0.685,-9.394c0.917,-0.769 1.349,-0.197 1.82,-1.311c1.86,-4.403 -4.67,-5.062 -1.698,-7.681c0.693,-0.611 0.945,0.284 1.666,-0.292c0.426,-0.34 -0.288,-0.54 0.105,-0.896c0.408,-0.369 0.549,0.304 0.959,-0.068Z" style="fill:#1f1a19;fill-opacity:0.98;"/><path d="M260.212,438.117c1.635,-1.218 2.149,-2.557 6.839,1.056c0.057,1.842 0.861,2.464 -0.862,2.915c-0.109,0.028 0,0 -1.07,0.914c-1.452,1.13 -1.362,1.126 -2.654,2.492c-0.475,0.136 -0.949,0.272 -1.424,0.407c0.202,-1.662 0.346,-1.687 -0.584,-3.003c-2.629,-2.471 -0.519,-4.515 -0.244,-4.782Z" style="fill:#f38aa0;fill-opacity:0.99;"/><path d="M270.239,452.16c2.701,-2.525 3.563,-2.89 5.827,0.01c2.3,2.945 -2.18,8.486 -5.712,3.775c-0.335,-0.356 -0.67,-0.713 -1.006,-1.069l-0.239,-0.732l-1.35,-0.903c1.982,-0.324 1.832,-0.625 2.479,-1.081Z" style="fill:#f58aa1;fill-opacity:0.99;"/><path d="M251.213,448.057c2.748,3.701 1.441,4.129 1.014,5.085c-0.351,0.309 -0.703,0.619 -1.054,0.928c-2.282,2.17 -3.437,0.564 -3.992,0.016c-3.981,-4.758 -0.116,-5.027 0.929,-6.107c1.29,-1.332 1.591,-1.089 3.103,0.078Z" style="fill:#f68ba2;fill-opacity:0.99;"/><path d="M265.118,443.002c0.252,3.346 -0.268,3.589 1.936,6.181c1.832,2.153 4.112,1.249 5.109,-0.13c0.236,-0.006 0.196,0.024 2.948,0.098c0.684,0.911 0.158,1.095 0.936,2.036c0.172,0.207 0.595,-0.027 0.792,0.156c1.989,1.85 1.563,3.484 1.481,3.799c-0.119,0.457 -4.177,3.78 -4.23,3.803c-3.065,1.329 -2.605,-0.53 -3.737,-1.998l0,-1.001c3.532,4.71 8.012,-0.831 5.712,-3.775c-2.264,-2.899 -3.126,-2.535 -5.827,-0.01c-0.722,0.015 -1.445,0.029 -2.167,0.044c-2.881,-3.381 -2.483,-3.617 -5.609,-6.71c1.292,-1.367 1.203,-1.362 2.654,-2.492Z" style="fill:#332427;fill-opacity:0.91;"/><path d="M260.251,427.975c0.611,-0.053 1.221,-0.105 1.832,-0.158c2.269,2.615 2.163,2.737 2.252,6.163c0.771,0.115 1.542,0.229 2.314,0.344c0.18,2.023 -0.629,2.084 0.372,3.863l0.03,0.984c-4.69,-3.612 -5.204,-2.274 -6.839,-1.056c0.095,-2.924 0.293,-2.844 -0.226,-5.772c4.013,-0.498 2.382,-2.074 2.186,-2.228c-1.182,-0.927 -1.122,-0.906 -1.921,-2.141Z" style="fill:#1f1a16;fill-opacity:0.98;"/><path d="M254.97,472.924c0.243,-0.106 0.046,-0.635 0.289,-0.741c2.291,-1.002 9.202,0.797 6.707,2.829c-0.874,0.712 -5.855,-0.162 -6.357,-0.25c-0.213,-0.613 -0.427,-1.225 -0.64,-1.838Z" style="fill:#fabe21;fill-opacity:0.99;"/><path d="M253.75,477.01c2.216,0.133 2.1,0.185 4.415,0.324c4.098,0.246 4.106,-0.568 4.398,-0.369c0,0 -0.245,2.036 -0.267,2.213c-0.655,0.138 -6.403,1.347 -8.304,-1.008c-0.248,-0.307 0.007,-0.853 -0.241,-1.16Z" style="fill:#f8be22;fill-opacity:0.99;"/><path d="M261.112,483.098c2.29,9.868 1.047,9.892 0.208,20.003c-0.704,-9.029 -0.317,-8.982 -0.378,-17.995l0.17,-2.008Z" style="fill:#312326;fill-opacity:0.84;"/><path d="M262.083,427.818c2.054,-0.492 1.99,-0.265 4.136,0.211c-0.122,2.77 -0.098,2.753 -0.17,3.084c0.2,1.071 0.4,2.142 0.6,3.212c-0.771,-0.115 -1.542,-0.229 -2.314,-0.344c-0.089,-3.425 0.017,-3.548 -2.252,-6.163Z" style="fill:#927219;fill-opacity:0.98;"/><path d="M251.213,448.057c-1.512,-1.168 -1.813,-1.411 -3.103,-0.078c-1.045,1.079 -4.91,1.349 -0.929,6.107l-0.821,-0.138c-0.382,-0.33 -0.469,0.279 -0.887,-0.082c-0.363,-0.313 0.157,-0.441 -0.194,-0.851c-0.37,-0.433 -0.949,0.056 -1.71,-1.995c-0.316,-0.851 5.884,-6.965 7.528,-4.828c0.38,0.494 -0.263,1.371 0.116,1.865Z" style="fill:#362529;fill-opacity:0.92;"/><path d="M249.605,514.706c-0.284,-0.329 -0.998,0.095 -1.282,-0.234c-0.364,-0.421 1.191,-9.223 1.728,-9.178c1.666,0.141 -0.279,8.677 -0.447,9.411Z" style="fill:#462f35;fill-opacity:0.99;"/><path d="M263.182,458.08c-0.05,2.677 -0.377,2.771 0.994,5.008c0.374,0.669 0.748,1.338 1.123,2.008c-3.701,3.822 -3.881,3.596 -4.192,3.934c-0.252,-0.25 -0.505,-0.5 -0.757,-0.749c1.668,-1.661 4.79,-2.355 1.799,-6.174c-1.965,-2.51 0.14,-3.344 1.034,-4.027Z" style="fill:#2d2023;fill-opacity:0.9;"/><path d="M249.329,495.119l0.047,2.007c-0.726,4.633 -0.521,4.6 -2.253,8.946c-0.658,1.651 1.05,2.233 -1.445,5.077c2.533,-12.867 3.213,-14.791 3.651,-16.031Z" style="fill:#352428;fill-opacity:0.8;"/><path d="M251.213,448.057c1.745,0.308 1.383,0.831 1.79,1.245c1.173,0.013 1.14,0.336 2.315,0.026c0.531,-0.14 0.491,0.095 1.02,-0.045c-1.507,1.662 -1.299,1.752 -1.448,4.003c-0.888,-0.048 -1.775,-0.097 -2.663,-0.145c0.427,-0.956 1.734,-1.383 -1.014,-5.085Z" style="fill:#4f343a;fill-opacity:0.95;"/><path d="M253.854,480.928c-0.066,1.655 -3.16,11.242 -3.472,12.209l-0.062,-2.014c0.479,-4.433 3.13,-9.432 3.535,-10.195Z" style="fill:#342427;fill-opacity:0.83;"/><path d="M258.256,438.158c0.652,-0.014 1.304,-0.028 1.956,-0.041c-0.275,0.267 -2.385,2.311 0.244,4.782c-0.026,1.13 -0.052,2.26 -0.078,3.39c-0.371,0.298 -0.742,0.596 -1.114,0.895c0.085,-3.188 0.646,-3.31 -1.104,-6.088c0.013,-0.619 0.404,-0.467 0.415,-1.038c0.003,-0.154 -0.024,-0.141 -0.319,-1.9Z" style="fill:#39272b;fill-opacity:0.88;"/><path d="M251.173,454.069c2.02,0.137 3.779,-0.034 4.106,-0.065c0.11,0.139 -0.185,0.241 1.129,1.914c0.139,0.177 0.134,0.119 1.851,2.115l-0.872,-0.092c-2.076,-1.714 -2.046,-1.613 -2.712,-2.344c-1.616,-1.773 -1.947,-0.697 -3.626,-0.685l0.125,-0.841Z" style="fill:#251c1d;fill-opacity:0.83;"/><path d="M269.349,454.876c0.335,0.356 0.67,0.713 1.006,1.069l-0,1.001c-1.951,-2.005 -3.272,0.514 -6.335,0.936c1.038,-1.002 0.98,-0.947 2.043,-1.949c0.254,-0.108 0.297,0.061 3.287,-1.058Z" style="fill:#271d1f;fill-opacity:0.85;"/><path d="M267.021,438.188c0.024,0.035 4.451,4.714 -1.903,4.814c1.07,-0.914 0.961,-0.886 1.07,-0.914c1.723,-0.451 0.919,-1.073 0.862,-2.915l-0.03,-0.984Z" style="fill:#362629;fill-opacity:0.91;"/><path d="M259.264,447.184c-1.417,1.165 -1.363,1.074 -2.927,2.1c-0.529,0.139 -0.489,-0.095 -1.02,0.045c-1.175,0.31 -1.141,-0.013 -2.315,-0.026c4.187,-2.064 5.733,-2.104 6.261,-2.118Z" style="fill:#2d2023;fill-opacity:0.82;"/><path d="M261.319,503.1c-0.206,2.967 -0.412,5.934 -0.618,8.902c-0.03,-1.993 -1.439,-3.128 0.618,-8.902Z" style="fill:#20191b;fill-opacity:0.74;"/><path d="M257.386,457.939l0.872,0.092c0.635,1.666 0.793,1.659 0.139,3.249l-1.006,0.005c0.061,-1.718 -0.047,-1.635 -0.005,-3.347Z" style="fill:#161314;fill-opacity:0.87;"/><path d="M247.181,454.085c0.554,0.548 1.71,2.154 3.992,-0.016l-0.125,0.841c-0.293,0.384 -0.586,0.767 -0.879,1.151c-0.988,0 -1.976,0 -2.964,0c-0.008,-0.659 -0.016,-1.318 -0.024,-1.976Z" style="fill:#4d3239;fill-opacity:0.95;"/><path d="M266.219,428.029c1.422,0.632 1.362,0.628 2.84,0.815c-1.003,0.756 -2.007,1.512 -3.01,2.268c0.072,-0.331 0.048,-0.314 0.17,-3.084Z" style="fill:#13120e;fill-opacity:0.78;"/><path d="M250.32,491.123l0.062,2.014c-0.385,2.073 -0.419,1.998 -1.006,3.99l-0.047,-2.007c0.203,-2.145 0.337,-2.028 0.991,-3.996Z" style="fill:#3d292d;fill-opacity:0.87;"/><path d="M260.701,512.002c-0.293,2.812 0.362,3.015 -1.333,5.354c0.189,-2.882 -0.622,-3.185 1.333,-5.354Z" style="fill:#1d1819;fill-opacity:0.72;"/><path d="M252.227,453.141c0.888,0.048 1.775,0.097 2.663,0.145l0.389,0.717c-0.327,0.032 -2.086,0.202 -4.106,0.065c0.351,-0.309 0.703,-0.619 1.054,-0.928Z" style="fill:#422c31;fill-opacity:0.91;"/><path d="M258.256,438.158c0.295,1.759 0.322,1.746 0.319,1.9c-0.012,0.571 -0.403,0.419 -0.415,1.038c-1.211,-1.337 -1.137,-1.636 0.096,-2.938Z" style="fill:#20191a;fill-opacity:0.87;"/><path d="M247.206,456.061c0.988,-0 1.976,-0 2.964,-0c-1.334,1.185 -1.612,1.191 -2.964,0Z" style="fill:#1f191a;fill-opacity:0.86;"/><path d="M269.11,454.144l0.239,0.732c-2.99,1.119 -3.033,0.949 -3.287,1.058c0.516,-0.534 0.396,-1.491 3.048,-1.789Z" style="fill:#432d31;fill-opacity:0.93;"/><path d="M260.456,442.899c0.93,1.316 0.786,1.341 0.584,3.003l-0.662,0.388c0.026,-1.13 0.052,-2.26 0.078,-3.39Z" style="fill:#302225;fill-opacity:0.95;"/><path d="M272.163,449.052c1.386,-1.117 1.652,-1.107 2.948,0.098c-2.752,-0.074 -2.712,-0.104 -2.948,-0.098Z" style="fill:#1d1818;fill-opacity:0.81;"/><path d="M268.072,452.204c0.722,-0.015 1.445,-0.029 2.167,-0.044c-0.646,0.456 -0.497,0.757 -2.479,1.081l0.311,-1.037Z" style="fill:#58383f;fill-opacity:0.99;"/><path d="M246.361,453.947l0.821,0.138c0.008,0.659 0.016,1.318 0.024,1.976c-0.691,-0.942 -0.633,-0.9 -0.845,-2.114Z" style="fill:#221a1b;fill-opacity:0.8;"/><path d="M264.175,463.088c0.864,0.906 0.792,0.876 1.123,2.008c-0.374,-0.669 -0.748,-1.338 -1.123,-2.008Z" style="fill:#151212;fill-opacity:0.79;"/><path d="M245.678,511.15c0.169,1.974 0.109,1.925 -0.357,3.903c0.038,-0.311 -0.002,-0.233 0.357,-3.903Z" style="fill:#251b1d;fill-opacity:0.67;"/><path d="M254.97,472.924c0.213,0.613 0.427,1.225 0.64,1.838c-0.53,-0.601 -0.774,-0.104 -1.269,-0.666c-0.059,-0.067 -0.534,-0.606 -0.276,-1.086c0.143,-0.267 0.762,0.181 0.905,-0.086Z" style="fill:#866918;fill-opacity:0.99;"/></g></g></g></g></svg>