<?xml version="1.0" encoding="UTF-8" standalone="no"?><!DOCTYPE svg PUBLIC "-//W3C//DTD SVG 1.1//EN" "http://www.w3.org/Graphics/SVG/1.1/DTD/svg11.dtd"><svg width="100%" height="100%" viewBox="0 0 836 836" version="1.1" xmlns="http://www.w3.org/2000/svg" xmlns:xlink="http://www.w3.org/1999/xlink" xml:space="preserve" xmlns:serif="http://www.serif.com/" style="fill-rule:evenodd;clip-rule:evenodd;stroke-linejoin:round;stroke-miterlimit:2;"><g id="Male-eyes"><rect x="-0" y="0" width="835.946" height="835.946" style="fill:none;"/><clipPath id="_clip1"><rect x="-0" y="0" width="835.946" height="835.946"/></clipPath><g clip-path="url(#_clip1)"><path d="M429.015,609.625c21.734,67.875 -92.112,84.023 -93.544,226.32l-335.472,0l0,-835.946l835.946,-0l0,216.622c-47.461,27.446 -90.862,66.05 -130.179,106.933c-47.441,95.665 20.396,157.506 -48.983,316.219c-33.869,77.479 -18.862,152.44 0,184.394c-106.348,-69.707 -108.455,-180.312 -70.886,-250.704c15.926,-29.839 8.56,-67.729 -2.344,-110.116c-59.293,67.764 -102.142,102.666 -128.369,33.617c-11.227,-19.578 -32.946,-34.184 -56.203,-30.063c-29.472,3.81 -49.873,36.35 -40.547,64.522c2.173,7.823 6.595,23.544 8.764,31.363c6.483,32.464 31.932,42.818 61.817,46.838Z"/></g></g></svg>