<?xml version="1.0" encoding="UTF-8" standalone="no"?><!DOCTYPE svg PUBLIC "-//W3C//DTD SVG 1.1//EN" "http://www.w3.org/Graphics/SVG/1.1/DTD/svg11.dtd"><svg width="100%" height="100%" viewBox="0 0 836 836" version="1.1" xmlns="http://www.w3.org/2000/svg" xmlns:xlink="http://www.w3.org/1999/xlink" xml:space="preserve" xmlns:serif="http://www.serif.com/" style="fill-rule:evenodd;clip-rule:evenodd;stroke-linejoin:round;stroke-miterlimit:2;"><g id="Baby-torso-front"><rect x="0" y="-0" width="835.946" height="835.946" style="fill:none;"/><g><rect x="241.998" y="0" width="351.95" height="436.464" style="fill:#fe50c6;fill-opacity:0;"/><g><path d="M375.599,106.628l-42.374,42.374l-42.374,-42.374l42.374,-42.374l42.374,42.374Z" style="fill:#fdb6f3;"/><path d="M375.599,191.376l-42.374,42.374l-42.374,-42.374l42.374,-42.374l42.374,42.374Z" style="fill:#b8b3f8;"/><path d="M375.599,276.125l-42.374,42.374l-42.374,-42.374l42.374,-42.374l42.374,42.374Z" style="fill:#fdb6f3;"/><path d="M375.599,360.873l-42.374,42.374l-42.374,-42.374l42.374,-42.374l42.374,42.374Z" style="fill:#b8b3f8;"/><path d="M460.347,106.628l-42.374,42.374l-42.374,-42.374l42.374,-42.374l42.374,42.374Z" style="fill:#b8b3f8;"/><path d="M460.347,191.376l-42.374,42.374l-42.374,-42.374l42.374,-42.374l42.374,42.374Z" style="fill:#fdb6f3;"/><path d="M460.347,276.125l-42.374,42.374l-42.374,-42.374l42.374,-42.374l42.374,42.374Z" style="fill:#b8b3f8;"/><path d="M460.347,360.873l-42.374,42.374l-42.374,-42.374l42.374,-42.374l42.374,42.374Z" style="fill:#fdb6f3;"/><path d="M545.096,106.628l-42.374,42.374l-42.374,-42.374l42.374,-42.374l42.374,42.374Z" style="fill:#fdb6f3;"/><path d="M545.096,191.376l-42.374,42.374l-42.374,-42.374l42.374,-42.374l42.374,42.374Z" style="fill:#b8b3f8;"/><path d="M545.096,276.125l-42.374,42.374l-42.374,-42.374l42.374,-42.374l42.374,42.374Z" style="fill:#fdb6f3;"/><path d="M545.096,360.873l-42.374,42.374l-42.374,-42.374l42.374,-42.374l42.374,42.374Z" style="fill:#b8b3f8;"/></g><g><clipPath id="_clip1"><rect x="300.922" y="0" width="234.102" height="65.93"/></clipPath><g clip-path="url(#_clip1)"><path d="M417.973,56.935c52.482,0 95.028,-25.491 95.028,-56.935l-190.056,0c0,31.444 42.546,56.935 95.028,56.935" style="fill:#00b1ba;"/><g><path d="M417.973,0l-76.438,65.93l-40.613,-65.93l117.051,0Z" style="fill:#00cfd2;"/><path d="M417.973,0l76.438,65.93l40.613,-65.93l-117.051,0Z" style="fill:#00cfd2;"/></g><path d="M417.973,28.467c52.482,0 95.028,-25.491 95.028,-56.935l-190.056,0c0,31.444 42.546,56.935 95.028,56.935" style="fill:#fcd5c6;"/></g></g><g><g><path d="M417.973,436.464l-114.917,59.428l-61.058,-59.428l175.975,0Z" style="fill:#00cfd2;"/><path d="M417.973,436.464l114.917,59.428l61.058,-59.428l-175.975,0Z" style="fill:#00cfd2;"/></g></g></g></g></svg>