<?xml version="1.0" encoding="UTF-8" standalone="no"?><!DOCTYPE svg PUBLIC "-//W3C//DTD SVG 1.1//EN" "http://www.w3.org/Graphics/SVG/1.1/DTD/svg11.dtd"><svg width="100%" height="100%" viewBox="0 0 836 836" version="1.1" xmlns="http://www.w3.org/2000/svg" xmlns:xlink="http://www.w3.org/1999/xlink" xml:space="preserve" xmlns:serif="http://www.serif.com/" style="fill-rule:evenodd;clip-rule:evenodd;stroke-linejoin:round;stroke-miterlimit:2;"><g id="Male-eyes"><rect x="0" y="0" width="835.946" height="835.946" style="fill:none;"/><clipPath id="_clip1"><rect x="0" y="0" width="835.946" height="835.946"/></clipPath><g clip-path="url(#_clip1)"><g><g><path d="M380.761,496.965c11.227,-19.578 32.946,-34.184 56.203,-30.063c29.472,3.81 49.873,36.35 40.547,64.522c-2.173,7.823 -6.595,23.544 -8.764,31.363c-6.483,32.464 -31.932,42.818 -61.817,46.838c-21.734,67.875 72.041,150.6 143.544,188.32c71.503,37.72 285.472,38 285.472,38l-0,-835.946l-835.946,-0l0,146.06c357.911,-13.202 325.934,495.245 380.761,350.904Z" style="fill:#9a499c;"/></g></g></g></g></svg>