<?xml version="1.0" encoding="UTF-8" standalone="no"?><!DOCTYPE svg PUBLIC "-//W3C//DTD SVG 1.1//EN" "http://www.w3.org/Graphics/SVG/1.1/DTD/svg11.dtd"><svg width="100%" height="100%" viewBox="0 0 836 836" version="1.1" xmlns="http://www.w3.org/2000/svg" xmlns:xlink="http://www.w3.org/1999/xlink" xml:space="preserve" xmlns:serif="http://www.serif.com/" style="fill-rule:evenodd;clip-rule:evenodd;stroke-linejoin:round;stroke-miterlimit:2;"><rect id="Rumi-hair-back" x="0" y="0" width="835.946" height="835.946" style="fill:none;"/><g><path d="M221.607,577.583c-11.625,12.356 -26.792,40.264 -31.48,104.382c13.949,22.454 30.648,42.333 50.038,59.695c20.333,-12.03 43.575,-35.138 59.243,-57.497c4.199,-37.73 -6.395,-71.935 -21.723,-104.979l-56.078,-1.602Z" style="fill:#fdca42;"/><g><g><path d="M239.3,558.871c-42.393,37.49 -52.431,87.258 -6.76,120.909c11.42,8.415 11.605,24.152 1.786,39.243c47.309,3.169 78.862,-50.184 34.301,-156.476l-29.327,-3.676Z" style="fill:#a42add;"/><clipPath id="_clip1"><path d="M239.3,558.871c-42.393,37.49 -52.431,87.258 -6.76,120.909c11.42,8.415 11.605,24.152 1.786,39.243c47.309,3.169 78.862,-50.184 34.301,-156.476l-29.327,-3.676Z"/></clipPath><g clip-path="url(#_clip1)"><path d="M222.616,569.484c-0.571,1.761 17.593,8.938 17.103,10.678c-5.31,18.856 -5.69,36.415 1.695,51.931c-1.531,-17.1 2.368,-34.112 11.124,-51.043c0.987,-1.908 25.125,-3.764 26.235,-5.67l-56.156,-5.896Z" style="fill:#9920ce;"/></g><path d="M224.261,566.371l-4.533,11.211c18.745,5.015 38.404,5.907 59.044,2.371l-4.858,-13.107l-49.653,-0.475Z" style="fill:#fdca42;"/><ellipse cx="249.714" cy="525.88" rx="45.652" ry="51.703" style="fill:#a42add;"/><clipPath id="_clip2"><ellipse cx="249.714" cy="525.88" rx="45.652" ry="51.703"/></clipPath><g clip-path="url(#_clip2)"><path d="M206.04,498.982c12.295,22.764 32.436,23.758 32.335,25.067c-1.297,16.794 3.277,45.702 15.655,58.756l8.478,-0.67c-11.191,-12.763 -16.456,-38.557 -14.685,-57.809c0.107,-1.168 38.462,-2.17 48.87,-6.785l-90.653,-18.558Z" style="fill:#9920ce;"/></g><path d="M262.309,390.034c28.279,5.991 45.19,39.397 37.742,74.554c-7.448,35.156 -36.454,58.835 -64.732,52.844c-28.279,-5.991 -45.19,-39.397 -37.742,-74.554c7.448,-35.156 36.454,-58.835 64.732,-52.844Z" style="fill:#a42add;"/><clipPath id="_clip3"><path d="M262.309,390.034c28.279,5.991 45.19,39.397 37.742,74.554c-7.448,35.156 -36.454,58.835 -64.732,52.844c-28.279,-5.991 -45.19,-39.397 -37.742,-74.554c7.448,-35.156 36.454,-58.835 64.732,-52.844Z"/></clipPath><g clip-path="url(#_clip3)"><path d="M247.429,437.959c9.458,14.366 16.211,57.698 2.33,82.044l-10.79,1.76c9.847,-18.948 9.325,-47.351 1.873,-69.154c-1.673,-4.895 -25.822,-2.333 -43.726,-34.737l50.312,20.087Z" style="fill:#9920ce;"/></g><path d="M261.468,304.306c30.272,6.413 48.376,42.175 40.403,79.81c-7.973,37.635 -39.024,62.983 -69.296,56.569c-30.272,-6.413 -48.376,-42.175 -40.403,-79.81c7.973,-37.635 39.024,-62.983 69.296,-56.569Z" style="fill:#a42add;"/><clipPath id="_clip4"><path d="M261.468,304.306c30.272,6.413 48.376,42.175 40.403,79.81c-7.973,37.635 -39.024,62.983 -69.296,56.569c-30.272,-6.413 -48.376,-42.175 -40.403,-79.81c7.973,-37.635 39.024,-62.983 69.296,-56.569Z"/></clipPath><g clip-path="url(#_clip4)"><path d="M197.117,332.58c-0.661,31.184 33.596,32.291 32.138,39.036c-4.639,21.465 -4.467,53.986 7.979,72.972l11.58,1.158c-14.342,-23.857 -12.575,-65.644 -0.514,-89.943l-51.183,-23.224Z" style="fill:#9920ce;"/></g><path d="M239.18,219.45c30.944,-0.053 56.121,31.137 56.187,69.607c0.066,38.47 -25.003,69.746 -55.947,69.799c-30.944,0.053 -56.121,-31.137 -56.187,-69.607c-0.066,-38.47 25.003,-69.746 55.947,-69.799Z" style="fill:#a42add;"/><clipPath id="_clip5"><path d="M239.18,219.45c30.944,-0.053 56.121,31.137 56.187,69.607c0.066,38.47 -25.003,69.746 -55.947,69.799c-30.944,0.053 -56.121,-31.137 -56.187,-69.607c-0.066,-38.47 25.003,-69.746 55.947,-69.799Z"/></clipPath><g clip-path="url(#_clip5)"><path d="M249.078,254.629c8.749,19.583 6.56,77.125 -11.441,107.235l-12.042,1.171c12.857,-23.346 18.641,-60.265 14.283,-89.345c-0.54,-3.603 -26.713,-4.591 -24.437,-54.24l33.638,35.178Z" style="fill:#9920ce;"/></g><path d="M284.141,129.217c30.272,6.413 48.376,42.175 40.403,79.81c-7.973,37.635 -39.024,62.983 -69.296,56.569c-30.272,-6.413 -48.376,-42.175 -40.403,-79.81c7.973,-37.635 39.024,-62.983 69.296,-56.569Z" style="fill:#a42add;"/><clipPath id="_clip6"><path d="M284.141,129.217c30.272,6.413 48.376,42.175 40.403,79.81c-7.973,37.635 -39.024,62.983 -69.296,56.569c-30.272,-6.413 -48.376,-42.175 -40.403,-79.81c7.973,-37.635 39.024,-62.983 69.296,-56.569Z"/></clipPath><g clip-path="url(#_clip6)"><path d="M261.335,125.437c-9.05,21.466 -8.513,38.482 2.96,52.922l25.47,-20.095l-20.071,-39.939l-8.359,7.113Z" style="fill:#9920ce;"/></g><ellipse cx="320.362" cy="146.517" rx="56.067" ry="66.832" style="fill:#a42add;"/></g><g><path d="M232.177,256.405c1.763,-29.348 17.217,-62.542 42.123,-76.494l8.972,4.054c-22.877,13.903 -38.617,43.735 -41.158,77.971l-9.937,-5.531Z" style="fill:#9920ce;"/></g></g><path d="M487.651,178.17l100.102,0l0,339.56l-339.56,0l0,-339.56l100.102,-0c-12.583,-21.218 -28.857,-61.97 -2.921,-95.869c21.442,-28.024 48.406,-32.034 72.599,-13.816c24.193,-18.218 51.157,-14.208 72.599,13.816c25.937,33.898 9.662,74.651 -2.921,95.869Z" style="fill:#a42add;"/><path d="M210.112,622.343c-3.412,13.797 0.801,24.915 11.797,33.648c-0.465,-12.749 -4.183,-24.06 -11.797,-33.648Z" style="fill:#c287ff;"/><path d="M211.586,520.285c-3.412,13.797 3.867,31.763 14.863,40.497c-0.465,-12.749 -7.249,-30.908 -14.863,-40.497Z" style="fill:#c287ff;"/><path d="M208.118,451.754c-5.51,12.22 -3.798,23.264 4.337,33.263c1.895,-11.914 0.656,-23.052 -4.337,-33.263Z" style="fill:#c287ff;"/><path d="M201.864,372.678c-4.04,14.704 -0.825,26.929 8.842,36.95c0.372,-13.783 -2.371,-26.19 -8.842,-36.95Z" style="fill:#c287ff;"/><path d="M200.048,281.924c-7.158,15.724 -5.093,29.971 5.174,42.902c2.545,-15.348 1.084,-29.714 -5.174,-42.902Z" style="fill:#c287ff;"/><path d="M231.849,173.478c-10.887,14.055 -12.748,28.687 -6.582,43.831c6.469,-14.705 8.927,-29.322 6.582,-43.831Z" style="fill:#c287ff;"/><path d="M306.333,93.032c-16.716,5.824 -25.449,17.781 -27.083,35.192c12.985,-9.155 22.258,-20.727 27.083,-35.192Z" style="fill:#c287ff;"/></g></svg>