<?xml version="1.0" encoding="UTF-8" standalone="no"?><!DOCTYPE svg PUBLIC "-//W3C//DTD SVG 1.1//EN" "http://www.w3.org/Graphics/SVG/1.1/DTD/svg11.dtd"><svg width="100%" height="100%" viewBox="0 0 836 836" version="1.1" xmlns="http://www.w3.org/2000/svg" xmlns:xlink="http://www.w3.org/1999/xlink" xml:space="preserve" xmlns:serif="http://www.serif.com/" style="fill-rule:evenodd;clip-rule:evenodd;stroke-linejoin:round;stroke-miterlimit:2;"><rect id="Mesa-de-trabajo4" serif:id="Mesa de trabajo4" x="0" y="0" width="835.946" height="835.946" style="fill:none;"/><g><path d="M365.989,211.343c-48.884,10.599 -114.995,16.492 -117.797,99.978l-0,75.48c0,0 -21.61,-44.32 -21.74,-86.272c-0.463,-149.362 41.745,-189.369 191.52,-176.19c149.776,-13.179 191.984,26.828 191.52,176.19c-0.13,41.952 -21.74,86.272 -21.74,86.272l0,-75.48c-6.281,-83.401 -70.252,-89.808 -117.832,-99.978c-34.65,9.13 -69.294,9.052 -103.932,0Z" style="fill:#a42add;"/><clipPath id="_clip1"><path d="M365.989,211.343c-48.884,10.599 -114.995,16.492 -117.797,99.978l-0,75.48c0,0 -21.61,-44.32 -21.74,-86.272c-0.463,-149.362 41.745,-189.369 191.52,-176.19c149.776,-13.179 191.984,26.828 191.52,176.19c-0.13,41.952 -21.74,86.272 -21.74,86.272l0,-75.48c-6.281,-83.401 -70.252,-89.808 -117.832,-99.978c-34.65,9.13 -69.294,9.052 -103.932,0Z"/></clipPath><g clip-path="url(#_clip1)"><path d="M289.195,238.621c-10.149,-15.369 -13.853,-31.734 -13.681,-48.698c4.944,15.916 15.476,28.63 32.941,37.372l-19.26,11.326Z" style="fill:#9920ce;"/><path d="M553.97,260.732c12.093,-13.891 17.93,-29.622 20.004,-46.459c-7.007,15.122 -19.129,26.33 -37.596,32.684l17.592,13.775Z" style="fill:#9920ce;"/><path d="M587.753,393.187c40.581,-51.323 24.082,-141.983 19.494,-158.418c3.363,11.431 -4.245,36.116 -14.094,45.631c0.834,-2.69 0.558,-5.783 -0.674,-9.224c-2.944,6.838 -12.469,12.122 -19.14,12.742l14.414,109.269Z" style="fill:#9920ce;"/><path d="M246.907,393.187c-40.581,-51.323 -24.082,-141.983 -19.494,-158.418c-3.363,11.431 4.245,36.116 14.094,45.631c-0.834,-2.69 -0.558,-5.783 0.674,-9.224c2.944,6.838 12.469,12.122 19.14,12.742l-14.414,109.269Z" style="fill:#9920ce;"/><path d="M514.698,231.858c14.156,-14.726 17.759,-50.571 11.84,-68.6c-0.627,18.556 -12.297,51.354 -32.074,59.123l20.234,9.477Z" style="fill:#9920ce;"/><g><g><path d="M335.427,128.508c-28.999,0.899 -71.77,22.015 -79.975,56.522c19.377,-30.308 67.993,-41.079 91.007,-20.84l-11.032,-35.683Z" style="fill:#c287ff;"/><path d="M500.519,128.508c28.999,0.899 71.77,22.015 79.975,56.522c-19.377,-30.308 -67.993,-41.079 -91.007,-20.84l11.032,-35.683Z" style="fill:#c287ff;"/></g></g></g><g><path d="M385.501,182.352c-5.459,-16.933 -11.565,-62.116 15.819,-97.156c27.729,-35.48 62.718,-37.573 89.251,-2.896c30.529,39.9 2.577,89.296 -9.002,105.155c-13.16,18.025 -29.098,30.819 -54.445,30.819l-14.509,0c-25.346,-0 -20.267,-14.681 -27.115,-35.922Z" style="fill:#a42add;"/><clipPath id="_clip2"><path d="M385.501,182.352c-5.459,-16.933 -11.565,-62.116 15.819,-97.156c27.729,-35.48 62.718,-37.573 89.251,-2.896c30.529,39.9 2.577,89.296 -9.002,105.155c-13.16,18.025 -29.098,30.819 -54.445,30.819l-14.509,0c-25.346,-0 -20.267,-14.681 -27.115,-35.922Z"/></clipPath><g clip-path="url(#_clip2)"><path d="M463.518,218.115c7.313,-8.228 14.486,-35.646 11.96,-46.543c-0.717,10.977 -18.737,42.797 -28.672,46.702l16.712,-0.16Z" style="fill:#9920ce;"/><path d="M434.684,224.625c50.871,-30.673 32.813,-140.234 -21.451,-155.572c-0.717,10.977 14.674,151.826 4.739,155.731l16.712,-0.16Z" style="fill:#9920ce;"/></g><path d="M453.208,182.352c5.67,-21.525 8.801,-62.116 -18.583,-97.156c-27.729,-35.48 -62.718,-37.573 -89.251,-2.896c-30.529,39.9 -2.577,89.296 9.002,105.155c13.16,18.025 29.098,30.819 54.445,30.819l14.509,0c13.724,0 26.021,-21.274 29.879,-35.922Z" style="fill:#a42add;"/><clipPath id="_clip3"><path d="M453.208,182.352c5.67,-21.525 8.801,-62.116 -18.583,-97.156c-27.729,-35.48 -62.718,-37.573 -89.251,-2.896c-30.529,39.9 -2.577,89.296 9.002,105.155c13.16,18.025 29.098,30.819 54.445,30.819l14.509,0c13.724,0 26.021,-21.274 29.879,-35.922Z"/></clipPath><g clip-path="url(#_clip3)"><path d="M381.759,218.275c-9.408,-11.307 -14.556,-46.661 -10.708,-61.102c0.481,14.691 19.921,56.394 33.019,62.042l-22.311,-0.94Z" style="fill:#9920ce;"/><path d="M424.426,221.111c9.408,-11.307 16.261,-45.556 12.414,-59.998c-0.481,14.691 -21.627,55.29 -34.725,60.938l22.311,-0.94Z" style="fill:#9920ce;"/></g></g><path d="M385.982,69.589c-31.216,3.233 -44.899,26.893 -41.509,52.398c7.085,-27.737 21.92,-42.052 41.509,-52.398Z" style="fill:#c287ff;"/></g></svg>