<?xml version="1.0" encoding="UTF-8" standalone="no"?><!DOCTYPE svg PUBLIC "-//W3C//DTD SVG 1.1//EN" "http://www.w3.org/Graphics/SVG/1.1/DTD/svg11.dtd"><svg width="100%" height="100%" viewBox="0 0 836 836" version="1.1" xmlns="http://www.w3.org/2000/svg" xmlns:xlink="http://www.w3.org/1999/xlink" xml:space="preserve" xmlns:serif="http://www.serif.com/" style="fill-rule:evenodd;clip-rule:evenodd;stroke-linecap:round;stroke-linejoin:round;stroke-miterlimit:1.5;"><g id="Baby-leg-left"><rect x="0" y="-0" width="835.946" height="835.946" style="fill:none;"/><clipPath id="_clip1"><rect x="0" y="-0" width="835.946" height="835.946"/></clipPath><g clip-path="url(#_clip1)"><path d="M580.553,564.322c-20.825,24.941 -69.4,23.875 -96.283,-0.897c34.307,-25.959 69.578,-29.595 96.283,0.897Z" style="fill:#fcd5c6;stroke:#d5d7d6;stroke-width:3.33px;"/><path d="M625.138,703.19l86.493,55.357l31.502,77.399l-306.091,0l-6.203,-129.949l194.3,-2.807Z" style="fill:#f5f4f4;"/><clipPath id="_clip2"><path d="M625.138,703.19l86.493,55.357l31.502,77.399l-306.091,0l-6.203,-129.949l194.3,-2.807Z"/></clipPath><g clip-path="url(#_clip2)"><circle cx="679.008" cy="777.698" r="8.131"/><circle cx="655.957" cy="765.042" r="8.131"/><circle cx="635.524" cy="752.453" r="8.131"/><circle cx="613.228" cy="738.71" r="8.131"/><path d="M702.591,743.343l-23.583,33.73" style="fill:none;stroke:#d5d7d6;stroke-width:8.33px;"/><path d="M680.19,730.669l-23.583,33.73" style="fill:none;stroke:#d5d7d6;stroke-width:8.33px;"/><path d="M659.41,718.125l-23.583,33.73" style="fill:none;stroke:#d5d7d6;stroke-width:8.33px;"/><path d="M637.162,704.38l-23.583,33.73" style="fill:none;stroke:#d5d7d6;stroke-width:8.33px;"/><path d="M555.374,845.394l17.048,-35.539l25.327,7.428l16.246,-16.582l24.356,10.776l23.836,-16.817l67.353,-3.054l23.029,49.907c0,0 -197.195,3.881 -197.195,3.881Z" style="fill:#fe50c6;"/><path d="M543.163,781.334l-42.566,64.06l-69.759,0l-5.856,-90.444l64.223,-0.46l7.31,37.117l46.648,-10.272Z" style="fill:#00cfd2;"/></g><path d="M437.015,681.187c-8.169,0.288 -14.567,7.154 -14.279,15.322c0.288,8.169 7.154,14.567 15.322,14.279l179.943,-6.342c8.169,-0.288 14.567,-7.154 14.279,-15.322c-0.288,-8.169 -7.154,-14.567 -15.322,-14.279c8.169,-0.288 14.567,-7.154 14.279,-15.322c-0.288,-8.169 -7.154,-14.567 -15.322,-14.279l-179.943,6.342c-8.169,0.288 -14.567,7.154 -14.279,15.322c0.288,8.169 7.154,14.567 15.322,14.279Z" style="fill:#b1c2e9;"/></g></g></svg>