<?xml version="1.0" encoding="UTF-8" standalone="no"?><!DOCTYPE svg PUBLIC "-//W3C//DTD SVG 1.1//EN" "http://www.w3.org/Graphics/SVG/1.1/DTD/svg11.dtd"><svg width="100%" height="100%" viewBox="0 0 836 836" version="1.1" xmlns="http://www.w3.org/2000/svg" xmlns:xlink="http://www.w3.org/1999/xlink" xml:space="preserve" xmlns:serif="http://www.serif.com/" style="fill-rule:evenodd;clip-rule:evenodd;stroke-linecap:round;stroke-linejoin:round;stroke-miterlimit:1.5;"><g id="Baby-leg-right"><rect x="0" y="-0" width="835.946" height="835.946" style="fill:none;"/><clipPath id="_clip1"><rect x="0" y="-0" width="835.946" height="835.946"/></clipPath><g clip-path="url(#_clip1)"><path d="M210.808,703.19l-86.493,55.357l-31.502,77.399l306.091,0l6.203,-129.949l-194.3,-2.807Z" style="fill:#f5f4f4;"/><clipPath id="_clip2"><path d="M210.808,703.19l-86.493,55.357l-31.502,77.399l306.091,0l6.203,-129.949l-194.3,-2.807Z"/></clipPath><g clip-path="url(#_clip2)"><circle cx="156.938" cy="777.698" r="8.131"/><circle cx="179.988" cy="765.042" r="8.131"/><circle cx="200.422" cy="752.453" r="8.131"/><circle cx="222.717" cy="738.71" r="8.131"/><path d="M133.355,743.343l23.583,33.73" style="fill:none;stroke:#d5d7d6;stroke-width:8.33px;"/><path d="M155.756,730.669l23.583,33.73" style="fill:none;stroke:#d5d7d6;stroke-width:8.33px;"/><path d="M176.535,718.125l23.583,33.73" style="fill:none;stroke:#d5d7d6;stroke-width:8.33px;"/><path d="M198.784,704.38l23.583,33.73" style="fill:none;stroke:#d5d7d6;stroke-width:8.33px;"/><path d="M280.572,845.394l-17.048,-35.539l-25.327,7.428l-16.246,-16.582l-24.356,10.776l-23.836,-16.817l-67.353,-3.054l-23.029,49.907c0,0 197.195,3.881 197.195,3.881Z" style="fill:#fe50c6;"/><path d="M292.782,781.334l42.566,64.06l69.759,0l5.856,-90.444l-64.223,-0.46l-7.31,37.117l-46.648,-10.272Z" style="fill:#00cfd2;"/></g><path d="M398.93,681.187c8.169,0.288 14.567,7.154 14.279,15.322c-0.288,8.169 -7.154,14.567 -15.322,14.279l-179.943,-6.342c-8.169,-0.288 -14.567,-7.154 -14.279,-15.322c0.288,-8.169 7.154,-14.567 15.322,-14.279c-8.169,-0.288 -14.567,-7.154 -14.279,-15.322c0.288,-8.169 7.154,-14.567 15.322,-14.279l179.943,6.342c8.169,0.288 14.567,7.154 14.279,15.322c-0.288,8.169 -7.154,14.567 -15.322,14.279Z" style="fill:#b1c2e9;"/></g></g></svg>