<?xml version="1.0" encoding="UTF-8" standalone="no"?><!DOCTYPE svg PUBLIC "-//W3C//DTD SVG 1.1//EN" "http://www.w3.org/Graphics/SVG/1.1/DTD/svg11.dtd"><svg width="100%" height="100%" viewBox="0 0 836 836" version="1.1" xmlns="http://www.w3.org/2000/svg" xmlns:xlink="http://www.w3.org/1999/xlink" xml:space="preserve" xmlns:serif="http://www.serif.com/" style="fill-rule:evenodd;clip-rule:evenodd;stroke-linejoin:round;stroke-miterlimit:2;"><g id="Mesa-de-trabajo3" serif:id="Mesa de trabajo3"><rect x="0" y="0" width="835.946" height="835.946" style="fill:none;"/><path d="M455.185,496.965c-9.811,-4.828 -16.471,-14.008 -25.644,-19.213c-8.927,-5.059 -19.589,-6.906 -29.65,-5.182c-26.123,3.806 -43.792,32.196 -35.966,57.37c2.072,7.844 6.197,23.653 8.268,31.497c2.955,15.638 12.006,29.512 26.782,36.046c9.767,3.85 20.567,7.044 30.041,12.143c-29.885,-4.02 -55.334,-14.374 -61.817,-46.838c-2.169,-7.819 -6.591,-23.54 -8.764,-31.363c-9.326,-28.172 11.075,-60.712 40.547,-64.522c23.258,-4.121 44.976,10.484 56.203,30.063" style="fill-rule:nonzero;"/><path d="M402.873,585.322c-0,-1.342 1.09,-2.432 2.432,-2.432c1.342,-0 2.432,1.09 2.432,2.432l0,10.134c0,1.342 -1.09,2.432 -2.432,2.432c-1.342,0 -2.432,-1.09 -2.432,-2.432l0,-10.134Zm0,15.2c0,-1.342 1.09,-2.432 2.432,-2.432c1.342,0 2.432,1.09 2.432,2.432l0,20.267c0,1.342 -1.09,2.432 -2.432,2.432c-1.342,0 -2.432,-1.09 -2.432,-2.432l0,-20.267Zm0,25.334c0,-1.342 1.09,-2.432 2.432,-2.432c1.342,0 2.432,1.09 2.432,2.432l0,20.267c0,1.342 -1.09,2.432 -2.432,2.432c-1.342,0 -2.432,-1.09 -2.432,-2.432l0,-20.267Zm0,25.334c0,-1.342 1.09,-2.432 2.432,-2.432c1.342,0 2.432,1.09 2.432,2.432l0,20.267c0,1.342 -1.09,2.432 -2.432,2.432c-1.342,0 -2.432,-1.09 -2.432,-2.432l0,-20.267Zm0,25.334c0,-1.342 1.09,-2.432 2.432,-2.432c1.342,0 2.432,1.09 2.432,2.432l0,20.267c0,1.342 -1.09,2.432 -2.432,2.432c-1.342,0 -2.432,-1.09 -2.432,-2.432l0,-20.267Zm0,25.334c0,-1.342 1.09,-2.432 2.432,-2.432c1.342,0 2.432,1.09 2.432,2.432l0,10.134c-0,1.342 -1.09,2.432 -2.432,2.432c-1.342,-0 -2.432,-1.09 -2.432,-2.432l0,-10.134Z" style="fill:#e8e8e9;"/><path d="M405.305,764.888l-12.513,-52.896l25.025,0l-12.513,52.896Z" style="fill:#e8e8e9;"/><circle cx="405.305" cy="579.396" r="12.668" style="fill:#e8e8e9;"/></g></svg>