<?xml version="1.0" encoding="UTF-8" standalone="no"?><!DOCTYPE svg PUBLIC "-//W3C//DTD SVG 1.1//EN" "http://www.w3.org/Graphics/SVG/1.1/DTD/svg11.dtd"><svg width="100%" height="100%" viewBox="0 0 1675 1675" version="1.1" xmlns="http://www.w3.org/2000/svg" xmlns:xlink="http://www.w3.org/1999/xlink" xml:space="preserve" xmlns:serif="http://www.serif.com/" style="fill-rule:evenodd;clip-rule:evenodd;stroke-linejoin:round;stroke-miterlimit:2;"><rect id="Mesa-de-trabajo4" serif:id="Mesa de trabajo4" x="0" y="0" width="1674.23" height="1674.23" style="fill:none;"/><g><path d="M837.115,432.84c0,0 -105.044,-135.384 -313.194,193.712l-26.842,177.629c0,0 -17.149,-76.167 -31.475,-200.496c-34.302,-297.675 97.625,-370.424 371.511,-319.009c273.886,-51.415 405.813,21.334 371.511,319.009c-14.327,124.329 -31.475,200.496 -31.475,200.496l-26.842,-177.629c-208.149,-329.096 -313.194,-193.712 -313.194,-193.712Z" style="fill:#e7316b;"/><path d="M564.384,1197.27c-150.205,-56.075 -145.236,-560.563 13.87,-743.84c81.807,-94.235 213.487,-136.839 258.861,-20.59c-49.627,14.746 -148.323,-5.011 -282.256,260.269c-64.034,126.833 -84.846,300.039 9.525,504.161Z" style="fill:#ee4084;"/><path d="M1109.846,1197.27c150.205,-56.075 145.236,-560.563 -13.87,-743.84c-81.807,-94.235 -213.487,-136.839 -258.861,-20.59c49.627,14.746 148.323,-5.011 282.256,260.269c64.034,126.833 84.846,300.039 -9.525,504.161Z" style="fill:#ee4084;"/><g><g><path d="M878.023,305.395l-5.349,37.694c116.052,-37.194 213.885,-14.997 289.144,80.786c-36.644,-119.213 -133.586,-155.482 -283.795,-118.48Z" style="fill:#ef467e;"/><path d="M940.893,307.002c58.181,-18.106 127.035,-7.425 175.097,50.702c-64.4,-48.166 -125.67,-60.067 -175.097,-50.702Z" style="fill:#f06ba8;"/></g><g><path d="M796.207,305.395l5.349,37.694c-116.052,-37.194 -213.885,-14.997 -289.144,80.786c36.644,-119.213 133.586,-155.482 283.795,-118.48Z" style="fill:#ef467e;"/><path d="M733.337,307.002c-58.181,-18.106 -127.035,-7.425 -175.097,50.702c64.4,-48.166 125.67,-60.067 175.097,-50.702Z" style="fill:#f06ba8;"/></g></g><path d="M787.042,419.268c-48.242,-66.09 -172.717,35.518 -220.875,174.763c69.942,-111.401 143.107,-176.289 220.875,-174.763Z" style="fill:#f06ba8;"/><path d="M1092.055,536.101c72.966,80.545 106.699,188.922 106.254,321.545c-15.932,-120.819 -51.645,-227.795 -106.254,-321.545Z" style="fill:#f06ba8;"/></g></svg>