<?xml version="1.0" encoding="UTF-8" standalone="no"?><!DOCTYPE svg PUBLIC "-//W3C//DTD SVG 1.1//EN" "http://www.w3.org/Graphics/SVG/1.1/DTD/svg11.dtd"><svg width="100%" height="100%" viewBox="0 0 1675 1675" version="1.1" xmlns="http://www.w3.org/2000/svg" xmlns:xlink="http://www.w3.org/1999/xlink" xml:space="preserve" xmlns:serif="http://www.serif.com/" style="fill-rule:evenodd;clip-rule:evenodd;stroke-linejoin:round;stroke-miterlimit:2;"><rect id="Mesa-de-trabajo4" serif:id="Mesa de trabajo4" x="0" y="0" width="1674.23" height="1674.23" style="fill:none;"/><g><path d="M733.002,423.277c-97.904,21.228 -230.311,33.029 -235.923,200.235l-0,151.171c0,0 -43.28,-88.764 -43.541,-172.785c-0.928,-299.142 83.606,-379.267 383.576,-352.872c299.97,-26.395 384.504,53.73 383.576,352.872c-0.261,84.021 -43.541,172.785 -43.541,172.785l0,-151.171c-12.579,-167.035 -140.7,-179.868 -235.994,-200.235c-69.397,18.285 -138.781,18.129 -208.154,0Z" style="fill:#9a499c;"/><clipPath id="_clip1"><path d="M733.002,423.277c-97.904,21.228 -230.311,33.029 -235.923,200.235l-0,151.171c0,0 -43.28,-88.764 -43.541,-172.785c-0.928,-299.142 83.606,-379.267 383.576,-352.872c299.97,-26.395 384.504,53.73 383.576,352.872c-0.261,84.021 -43.541,172.785 -43.541,172.785l0,-151.171c-12.579,-167.035 -140.7,-179.868 -235.994,-200.235c-69.397,18.285 -138.781,18.129 -208.154,0Z"/></clipPath><g clip-path="url(#_clip1)"><path d="M579.199,477.91c-20.326,-30.782 -27.745,-63.557 -27.4,-97.532c9.902,31.877 30.996,57.34 65.974,74.848l-38.574,22.684Z" style="fill:#8f3993;fill-opacity:0.51;"/><path d="M1109.489,522.193c24.22,-27.822 35.911,-59.327 40.065,-93.049c-14.033,30.286 -38.311,52.734 -75.298,65.46l35.233,27.589Z" style="fill:#8f3993;fill-opacity:0.51;"/><path d="M1177.15,787.474c81.275,-102.79 48.231,-284.363 39.042,-317.28c6.735,22.894 -8.502,72.332 -28.227,91.389c1.67,-5.387 1.118,-11.583 -1.349,-18.474c-5.895,13.696 -24.973,24.278 -38.334,25.521l28.869,218.844Z" style="fill:#803184;fill-opacity:0.51;"/><path d="M494.505,787.474c-81.275,-102.79 -48.231,-284.363 -39.042,-317.28c-6.735,22.894 8.502,72.332 28.227,91.389c-1.67,-5.387 -1.118,-11.583 1.349,-18.474c5.895,13.696 24.973,24.278 38.334,25.521l-28.869,218.844Z" style="fill:#803184;fill-opacity:0.51;"/><path d="M1030.835,464.365c28.351,-29.493 35.567,-101.283 23.714,-137.392c-1.257,37.165 -24.629,102.852 -64.238,118.412l40.525,18.98Z" style="fill:#8f3993;fill-opacity:0.51;"/><g><g><path d="M671.792,257.376c-58.078,1.801 -143.74,44.092 -160.175,113.203c38.809,-60.7 136.176,-82.273 182.269,-41.738l-22.094,-71.465Z" style="fill:#b267a9;"/><path d="M1002.438,257.376c58.078,1.801 143.74,44.092 160.175,113.203c-38.809,-60.7 -136.176,-82.273 -182.269,-41.738l22.094,-71.465Z" style="fill:#b267a9;"/></g></g></g><g><path d="M772.081,365.215c-10.933,-33.913 -23.163,-124.406 31.682,-194.583c55.536,-71.06 125.612,-75.251 178.752,-5.8c61.142,79.911 5.161,178.841 -18.029,210.603c-26.357,36.101 -58.278,61.725 -109.042,61.725l-29.058,0c-50.764,-0 -40.591,-29.402 -54.306,-71.945Z" style="fill:#99509f;"/><clipPath id="_clip2"><path d="M772.081,365.215c-10.933,-33.913 -23.163,-124.406 31.682,-194.583c55.536,-71.06 125.612,-75.251 178.752,-5.8c61.142,79.911 5.161,178.841 -18.029,210.603c-26.357,36.101 -58.278,61.725 -109.042,61.725l-29.058,0c-50.764,-0 -40.591,-29.402 -54.306,-71.945Z"/></clipPath><g clip-path="url(#_clip2)"><path d="M928.333,436.84c14.646,-16.48 29.013,-71.392 23.954,-93.215c-1.437,21.985 -37.526,85.713 -57.424,93.535l33.47,-0.32Z" style="fill:#8f3993;fill-opacity:0.51;"/><path d="M870.585,449.877c101.885,-61.432 65.719,-280.86 -42.961,-311.578c-1.437,21.985 29.389,304.076 9.491,311.898l33.47,-0.32Z" style="fill:#832a8f;fill-opacity:0.51;"/></g><path d="M907.685,365.215c11.355,-43.111 17.627,-124.406 -37.218,-194.583c-55.536,-71.06 -125.612,-75.251 -178.752,-5.8c-61.142,79.911 -5.161,178.841 18.029,210.603c26.357,36.101 58.278,61.725 109.042,61.725l29.058,0c27.487,0 52.115,-42.608 59.842,-71.945Z" style="fill:#99509f;"/><clipPath id="_clip3"><path d="M907.685,365.215c11.355,-43.111 17.627,-124.406 -37.218,-194.583c-55.536,-71.06 -125.612,-75.251 -178.752,-5.8c-61.142,79.911 -5.161,178.841 18.029,210.603c26.357,36.101 58.278,61.725 109.042,61.725l29.058,0c27.487,0 52.115,-42.608 59.842,-71.945Z"/></clipPath><g clip-path="url(#_clip3)"><path d="M764.586,437.16c-18.842,-22.645 -29.152,-93.452 -21.446,-122.376c0.963,29.423 39.898,112.947 66.131,124.258l-44.685,-1.883Z" style="fill:#8f3993;fill-opacity:0.51;"/><path d="M850.039,442.84c18.842,-22.645 32.568,-91.239 24.863,-120.163c-0.963,29.423 -43.314,110.734 -69.547,122.046l44.685,-1.883Z" style="fill:#8f3993;fill-opacity:0.51;"/></g></g><path d="M773.044,139.372c-62.52,6.476 -89.924,53.861 -83.135,104.943c14.19,-55.551 43.901,-84.222 83.135,-104.943Z" style="fill:#b267a9;"/></g></svg>