<?xml version="1.0" encoding="UTF-8" standalone="no"?><!DOCTYPE svg PUBLIC "-//W3C//DTD SVG 1.1//EN" "http://www.w3.org/Graphics/SVG/1.1/DTD/svg11.dtd"><svg width="100%" height="100%" viewBox="0 0 1675 1675" version="1.1" xmlns="http://www.w3.org/2000/svg" xmlns:xlink="http://www.w3.org/1999/xlink" xml:space="preserve" xmlns:serif="http://www.serif.com/" style="fill-rule:evenodd;clip-rule:evenodd;stroke-linejoin:round;stroke-miterlimit:2;"><rect id="Mesa-de-trabajo4" serif:id="Mesa de trabajo4" x="0" y="0" width="1674.23" height="1674.23" style="fill:none;"/><g><path d="M528.307,519.452c-10.608,34.822 -22.65,76.758 -26.843,112.89c-9.95,85.739 31.438,128.913 -27.462,263.655c-27.563,63.055 -15.351,124.059 0,150.064c-86.549,-56.729 -58.108,-147.731 -27.533,-205.018c28.181,-52.801 -33.253,-136.578 -19.047,-221.594c2.026,-12.126 4.473,-25.672 7.506,-40.148c-44.768,-199.874 113.43,-352.254 402.187,-312c288.757,-40.253 446.955,112.126 402.187,312c3.033,14.476 5.48,28.022 7.506,40.148c14.205,85.017 -47.229,168.793 -19.047,221.594c30.575,57.287 59.016,148.289 -27.533,205.018c15.351,-26.005 27.563,-87.01 0,-150.064c-58.9,-134.742 -17.512,-177.915 -27.462,-263.655c-4.193,-36.132 -16.235,-78.068 -26.843,-112.89c-0.843,10.637 -2.261,16.969 -2.261,16.969l-34.798,-0.935l-28.414,-56.815l-6.784,52.907l-63.442,-1.463l-25.799,-50.038l-11.096,48.675l-34.981,-2.683l-21.993,-42.249l-6.194,44.718l-31.118,-2.805l-17.63,-48.414l-5.767,51.481l-47.969,0l-16.434,-54.219l-22.576,52.786l-0.084,0.231l-37.064,2.086l-1.022,-68.818l-34.025,70.342l-26.639,-0.898l1.361,-64.008l-28.705,66.226l-51.646,1.29l-13.085,-16.469l-12.396,18.14l-34.798,0.935c0,0 -1.419,-6.332 -2.261,-16.969Z"/><g><path d="M675.825,326.817c-44.354,17.496 -80.972,61.812 -101.044,113.58c0,0 26.159,-41.103 33.608,-38.517c3.523,1.223 -13.822,48.94 -13.822,48.94c0,0 28.937,-32.858 38.41,-31.953c10.899,1.041 6.685,27.56 6.685,27.56l31.699,-56.434c0,0 -27.863,18.735 -32.252,8.808c-6.274,-14.191 18.568,-33.934 18.568,-33.934c0,0 -30.868,13.341 -30.512,6.501c0.671,-12.898 48.66,-44.552 48.66,-44.552Z" style="fill:#fff;"/><path d="M681.98,401.874c-11.859,8.33 -18.804,18.899 -21.615,31.352c9.526,-8.97 16.691,-19.445 21.615,-31.352Z" style="fill:#fff;"/><path d="M715.265,398.651c-10.654,11.834 -15.223,23.782 -15.231,35.816c0,0 12.053,-10.038 17.501,-9.518c5.448,0.52 10.031,12.466 15.189,12.636c5.158,0.17 13.063,-11.608 16.575,-11.097c3.512,0.51 4.499,14.158 4.499,14.158c5.08,-11.956 8.528,-24.615 8.502,-38.771c0,0 -17.286,17.888 -30.387,18.741c-12.071,0.785 -16.648,-21.964 -16.648,-21.964Z" style="fill:#fff;"/><path d="M798.516,398.651c-17.764,11.78 -21.209,28.715 -16.157,48.708c0,0 16.809,-18.855 23.547,-20.24c6.739,-1.385 16.884,11.93 16.884,11.93c9.093,-10.029 12.467,-20.941 5.43,-33.458c0,0 -15.144,11.533 -20.095,10.376c-4.951,-1.157 -9.61,-17.316 -9.61,-17.316Z" style="fill:#fff;"/><path d="M879.64,398.651c-2.438,14.864 -1.247,28.911 4.229,41.994c5.103,-14.687 3.821,-28.699 -4.229,-41.994Z" style="fill:#fff;"/><path d="M903.634,407.682c-2.187,11.231 0.809,20.331 8.619,27.452c4.387,-12.052 1.24,-21.093 -8.619,-27.452Z" style="fill:#fff;"/><path d="M949.641,401.874c-0.777,14.166 4.892,24.48 16.32,31.352c-0.161,-13.009 -5.08,-23.712 -16.32,-31.352Z" style="fill:#fff;"/><path d="M983.409,390.662c20.644,30.88 36.4,62.055 48.48,93.453c0,0 -15.483,-49.222 -2.242,-55.97c22.366,-11.399 58.203,30.304 58.203,30.304c0,0 -22.886,-56.684 -20.737,-59.798c2.149,-3.114 32.336,41.994 32.336,41.994c-29.495,-80.444 -72.667,-111.014 -120.081,-126.112c0,0 78.874,48.714 76.448,87.341c-0.567,9.026 -18.495,-4.098 -24.221,-2.141c-5.726,1.957 -4.546,14.943 -11.293,13.883c-8.481,-1.331 -36.894,-22.954 -36.894,-22.954Z" style="fill:#fff;"/></g></g></svg>