<?xml version="1.0" encoding="UTF-8" standalone="no"?><!DOCTYPE svg PUBLIC "-//W3C//DTD SVG 1.1//EN" "http://www.w3.org/Graphics/SVG/1.1/DTD/svg11.dtd"><svg width="100%" height="100%" viewBox="0 0 836 836" version="1.1" xmlns="http://www.w3.org/2000/svg" xmlns:xlink="http://www.w3.org/1999/xlink" xml:space="preserve" xmlns:serif="http://www.serif.com/" style="fill-rule:evenodd;clip-rule:evenodd;stroke-linejoin:round;stroke-miterlimit:1.5;"><g id="Mesa-de-trabajo3" serif:id="Mesa de trabajo3"><rect x="0" y="0" width="835.946" height="835.946" style="fill:none;"/><clipPath id="_clip1"><rect x="0" y="0" width="835.946" height="835.946"/></clipPath><g clip-path="url(#_clip1)"><path d="M241.997,273.945l0,-273.945l77.16,0c0,17.617 44.278,31.92 98.816,31.92c54.538,0 98.816,-14.303 98.816,-31.92l77.16,0l0,273.945l-351.952,0Zm351.952,100.177l0,62.345l-351.952,0l-0,-62.345l351.952,0Z" style="fill:#243266;"/><clipPath id="_clip2"><path d="M241.997,273.945l0,-273.945l77.16,0c0,17.617 44.278,31.92 98.816,31.92c54.538,0 98.816,-14.303 98.816,-31.92l77.16,0l0,273.945l-351.952,0Zm351.952,100.177l0,62.345l-351.952,0l-0,-62.345l351.952,0Z"/></clipPath><g clip-path="url(#_clip2)"><g><path d="M424.364,158.773c1.297,1.247 1.35,1.035 2.368,2.595c0.954,1.463 11.189,17.157 11.734,18.404c3.073,7.089 3.485,6.749 7.27,13.446c1.315,2.747 1.135,2.767 2.947,5.113c7.324,13.112 6.396,13.469 6.691,15.74c0.022,0.17 0.059,0.148 0.791,1.997c2.221,6.807 0.83,7.054 3.389,13.871c0.825,2.198 3.458,9.212 -1.191,29.316c-1.651,3.966 -2.165,3.771 -2.781,8.827c-5.925,4.766 -2.043,5.997 -1.516,8.989c0.723,4.104 6.022,2.19 4.203,5.995c-1.407,2.943 -0.276,3.261 -1.8,6.201c-0.635,1.224 -0.031,1.164 1.663,3.881l-1.994,0.013c-1.005,0.113 -2.01,0.226 -3.015,0.339l-1.02,0.03l0.332,-1.448c0.18,-1.18 1.512,-9.92 -2.762,-14.666c-5.384,-5.979 -7.107,-9.121 -9.367,-4.249c-1.653,1.511 -2.871,2.815 -3.109,3.071c-0.814,-0.627 -1.628,-1.254 -2.442,-1.881c0.746,-0.812 1.492,-1.625 2.238,-2.437c2.894,-4.848 7.104,-6.601 4.247,-6.905c-0.261,-0.028 -0.23,0.079 -3.106,1.07c-0.553,-1.129 -1.336,-1.118 -0.472,-2.369c4.249,-6.149 3.479,-33.893 0.261,-39.492c-14.141,-24.597 -15.825,-24.466 -17.891,-23.34c-10.141,5.529 -19.127,14.702 -20.593,16.199c-3.037,-2.679 -2.738,0.964 -6.511,2.566c-0.756,0.321 -7.932,2.601 -14.373,9.725c-7.366,-6.273 0.104,-8.096 -0.345,-10.245c-0.11,-0.527 -0.991,-0.565 -1.229,-1.047c-0.335,-0.68 2.567,-2.969 3.307,-3.704c0.602,-0.599 7.11,-7.074 7.478,-7.537c1.662,-2.089 11.841,-14.881 22.246,-24.88c1.33,1.311 1.381,2.823 3.152,1.287c1.472,-1.277 1.4,-1.227 2.808,-2.46c0.099,-0.237 0.329,0.093 0.461,-0.223c0.102,-0.245 0.073,-0.235 0.986,-3.171c5.961,-3.488 6.818,-8.376 6.979,-9.292c1.655,-1.584 0.612,-2.015 -1.479,-2.871c-1.616,-2.359 -3.521,-3.162 -0.825,-4.161c0.242,-0.09 0.168,-0.17 2.269,-2.297Z" style="fill:#19b8db;fill-opacity:1;"/><path d="M375.362,158.092c-0.755,0.184 -1.308,0.903 -2.063,1.087c-1.233,0.301 -1.986,-0.008 -1.485,0.974c1.017,1.993 1.233,2.082 0.263,4.054c-3.749,-1.687 -3.763,-1.516 -7.019,-4.031c-1.073,-0.829 -4.362,-3.369 -13.54,10.204c-6.407,9.473 -13.407,11.32 -16.232,15.753c-0.923,6.47 -1.058,6.402 -1.129,6.962c-8.547,17.133 -7.916,18.928 -6.442,25.892c-0.143,0.862 -1.354,8.153 -2.054,10.729c-0.278,0.74 -0.556,1.479 -0.834,2.219c-1.414,1.088 -1.243,1.219 -3.971,4.868c-7.351,7.632 -9.4,6.14 -12.769,15.26c0.124,0.272 -0.407,0.58 -0.282,0.852c0.24,0.526 0.901,0.746 1.229,1.222c0.718,1.041 -0.713,1.406 0.23,2.364c1.441,1.464 -0.375,-3.714 5.8,-9.689l1.467,0.409c1.85,-2.094 0.773,-2.434 -0.793,-3.394l2.238,-1.869c0.017,0.01 0.386,1.695 2.254,1.357c3.359,-0.607 4.573,-7.529 4.704,-8.28c0.094,0.473 0.888,0.589 0.981,1.062c2.689,13.547 -11.788,11.683 -11.181,28.988c0.254,7.248 -0.26,7.313 2.27,14.038c1.319,3.507 2.446,3.821 0.159,6.838c-12.759,-3.966 -12.903,-4.289 -19.523,-12.601c0.232,-0.784 1.489,-0.43 0.969,-3.278c-0.275,-1.508 -1.872,-10.257 3.76,-18.792c4.189,-7.674 3.873,-18.3 7.068,-21.931c7.867,-8.94 8.959,-13.091 9.333,-27.311c0.122,-4.642 4.922,-6.883 5.986,-8.277c6.315,-8.268 4.392,-12.051 3.899,-13.02c8.133,-15.271 5.7,-20.219 15.43,-29.705c8.698,-8.48 10.285,-28.474 21.002,-19.905c7.313,5.847 5.378,7.423 11.441,14.592c6.295,7.444 6.795,6.939 11.798,15.231c3.479,5.767 5.566,3.624 8.813,7.109c-5.579,5.557 -6.948,14.845 -8.105,7.063c-0.464,-3.125 -1.576,-2.848 -1.315,-6.079c0.092,-1.131 -7.864,-10.081 -8.671,-10.903c-1.098,-1.117 -0.947,-3.479 -2.866,-1.864c-0.739,0.622 -1.129,-0.121 -1.47,0.703c-0.163,0.393 0.81,0.706 0.647,1.099Z" style="fill:#31bcd7;fill-opacity:1;"/><path d="M448.552,191.55c-0.469,0.199 -0.151,1.197 -0.62,1.396c-0.082,0.035 0.842,-1.001 -0.784,-0.8c-0.97,0.12 -0.454,0.953 -1.413,1.072c-3.784,-6.697 -4.197,-6.357 -7.27,-13.446c0.607,-0.223 1.619,0.795 6.849,-7.572c0.892,-1.047 1.68,-1.934 1.828,-2.101c3.939,-3.691 3.581,-3.918 7.31,-7.695c5.358,-5.428 9.62,3.072 19.149,-6.963c8.234,-8.67 9.264,-13.372 15.454,-7.281c3.151,3.102 5.436,1.472 7.649,6.197c4.394,9.381 4.125,9.484 10.085,17.981c3.949,5.63 3,6.019 4.721,12.656c1.718,4.659 1.289,4.731 3.932,8.848c-1.022,1.475 -1.628,1.269 -1.189,3.189c0.572,9.719 2.995,9.287 3.118,19.043c0.178,14.06 8.988,23.038 9.974,30.981c2.877,23.2 1.791,23.201 -0.503,36.982c-0.96,5.765 -0.909,6.076 -0.824,6.602c-3.295,0.357 -6.591,0.713 -9.886,1.07c-0.88,-3.31 5.653,-8.742 5.706,-12.63c0.146,-10.836 0.932,-11.366 -5.406,-20.233c-1.492,-2.087 -1.01,-2.22 -2.534,-7.743l-0.064,-1.01c-0.738,-4.024 -1.84,-3.422 -3.958,-6.91c-0.53,-3.143 -0.185,-3.036 0.356,-6.059c-1.476,-6.128 -2.418,-5.883 -2.419,-12.079c-0.001,-20.765 -0.72,-21.037 -5.27,-26.335c-8.123,-9.458 -9.261,-15.066 -10.672,-19.537c-4.549,-10.496 -7.01,-12.066 -16.998,-6.486c-6.512,3.638 -16.537,4.453 -20.657,11.454c-2.237,3.801 -2.409,3.53 -5.034,6.968l-0.63,0.443Z" style="fill:#30c3d7;fill-opacity:1;"/><path d="M410.827,214.621c-6.643,6.667 -3.059,8.793 -6.921,13.282c-11.295,13.129 -6.419,19.658 -11.102,28.966c-0.318,0.632 -0.824,1.157 -1.142,1.789c-8.387,7.651 -10.376,0.911 -13.486,2.625c-2.247,1.238 -1.759,1.594 -3.117,3.764c-6.337,0.784 -6.088,4.774 -6.127,4.959c-0.866,-0.154 -3.849,-0.683 -1.547,-10.889c0.052,-0.232 0.069,-0.209 0.927,-2.824l2.975,-2.904c18.625,-14.517 10.994,-20.024 16.855,-26.294c0.902,-0.965 4.244,-1.597 5.779,-2.43c3.863,-2.096 3.904,-4.002 5.518,-7.582c1.467,-1.497 10.452,-10.67 20.593,-16.199c2.066,-1.126 3.75,-1.257 17.891,23.34c3.219,5.599 3.988,33.343 -0.261,39.492c-0.864,1.251 -0.081,1.24 0.472,2.369c-2.399,3.176 -4.692,4.226 -1.141,5.835c-0.746,0.812 -1.492,1.625 -2.238,2.437c-2.724,-3.931 -2.662,-6.129 -2,-17.32c0.073,-1.239 8.476,-15.599 1.179,-22.76c-12.459,-12.226 -9.814,-28.435 -23.106,-19.657Z" style="fill:#34c8d9;fill-opacity:1;"/><path d="M473.585,192.533l0.403,-0.545c0.314,-0.45 4.453,-6.386 5.807,-3.648c2.564,5.186 2.81,4.921 6.999,9.081c3.79,3.765 3.627,8.925 5.67,15.517c4.775,10.752 9.316,13.507 12.507,29.196c0.588,3.974 0.811,3.898 0.52,7.969c-0.193,4.669 0.214,4.639 -1.268,9.024c-6.375,15.941 -3.873,16.412 -2.97,19.94c0.94,3.673 -3.127,4.233 -3.508,6.942c-0.233,1.661 0.934,3.216 -2.621,5.691c-1.671,0.049 -3.341,0.097 -5.012,0.146c0.024,-2.881 -1.914,-7.317 -1.539,-9.546c1.284,-2.25 1.128,-2.376 -0.099,-5.408c-3.349,-8.279 2.861,-9.368 -2.055,-20.982c-1.144,-9.905 -1.086,-9.824 0.053,-19.665c0.791,-3.125 0.713,-3.038 1.299,-6.181c0.261,-11.737 -3.094,-10.72 -8.332,-21.114c-2.511,-5.582 -2.643,-5.412 -5.149,-10.906c-0.694,-5.088 -0.645,-5.071 -0.705,-5.511Z" style="fill:#32c5d8;fill-opacity:1;"/><path d="M410.827,214.621c13.292,-8.778 10.647,7.431 23.106,19.657c7.298,7.161 -1.105,21.521 -1.179,22.76c-0.662,11.191 -0.723,13.389 2,17.32c0.814,0.627 1.628,1.254 2.442,1.881c-1.09,-0.111 -1.07,0.157 -2.063,-0.209c-0.15,-0.056 0.242,0.089 -0.278,1.986c-0.182,0.664 -0.111,1.373 -0.195,2.056c-0.973,7.98 -4.042,8.966 1.465,14.88c-4.076,-0.125 -3.966,-0.22 -8.022,-0.712c-0.078,-0.175 -0.975,-2.183 -0.975,-2.183c1.402,-8.433 -0.711,-8.584 1.109,-16.978c0.765,-4.505 -0.305,-4.473 -0.032,-8.979c0.114,-1.88 -0.181,-1.746 -1.42,-3.141c0.457,-2.782 0.284,-2.918 -1.915,-4.639c-3.506,-2.745 0.629,-5.347 -5.627,-11.375c-4.136,-3.986 -5.292,-4.067 -9.381,-0.054c-10.633,11.228 -6.801,14.51 -10.853,15.948c-0,0 -1.949,-0.671 -2.119,-0.729c4.042,-14.739 4.35,-14.7 4.22,-17.03c-0.548,-9.823 2.945,-11.879 8.96,-24.036c0.07,-0.307 0.809,-3.57 1.119,-3.775c1.993,-1.32 -0.188,-2.32 -0.364,-2.649Z" style="fill:#0b81d6;fill-opacity:1;"/><path d="M473.585,192.533c0.061,0.44 0.011,0.424 0.705,5.511c-1.889,3.771 1.428,6.384 2.982,9.964c0.518,1.193 0.66,1.014 1.349,2.075c0.248,0.839 0.568,0.684 4.823,9.814c2.704,5.801 3.267,5.891 1.651,12.18c-0.595,2.317 -0.005,2.213 1.377,4.17c-1.139,9.841 -1.196,9.76 -0.053,19.665c-0.282,0.515 -1.033,0.657 -1.315,1.172c-0.424,0.775 1.267,0.75 1.093,10.988c-0.004,0.253 -0.019,1.126 -1.638,2.712c0.307,4.723 1.016,4.553 1.387,9.256c0.163,2.065 0.596,1.933 2.626,2.261c-0.375,2.229 1.563,6.665 1.539,9.546c-5.031,0.313 -4.925,0.348 -9.976,0.532c2.014,-11.51 -1.826,-25.741 -5.782,-22.08c-1.825,1.689 1.986,10.946 -6.196,22.448c-1.348,0.032 -2.696,0.064 -4.045,0.096c0.976,-1.511 3.348,-3.69 3.637,-4.913c2.833,-11.983 3.322,-11.792 3.483,-12.844c0.32,-2.084 1.183,-1.815 0.969,-3.997c-0.393,-4.028 2.289,-5.15 2.314,-5.177c0.553,0.63 1.106,1.259 1.66,1.889c0.184,-0.341 0.368,-0.682 0.552,-1.022c-0.228,-14.409 -2.002,-14.43 0.231,-28.718c3.839,-24.563 -9,-21.05 -11.428,-26.173c-1.308,-2.759 -1.493,-2.688 -1.498,-5.794c1.763,0.066 1.999,-0.244 3.374,1.722c2.073,2.961 6.17,-2.425 -0.274,-7.275c1.157,-0.557 0.988,-0.62 2.132,-1.026c5.036,-1.791 2.664,-5.452 3.169,-6.61c0.161,-0.369 0.989,-0.002 1.15,-0.372Z" style="fill:#0a8ed9;fill-opacity:0.99;"/><path d="M424.364,158.773c-2.101,2.127 -2.026,2.207 -2.269,2.297c-2.696,1 -0.791,1.802 0.825,4.161c0.147,0.593 0.294,1.186 0.441,1.78c-0.789,-0.173 -1.443,-0.769 -2.232,-0.942c-0.334,-0.073 -0.723,0.033 -1,0.234c-0.374,0.27 -0.41,0.939 -0.843,1.099c-0.458,0.168 -1.087,-0.653 -1.139,0.683c-0.009,0.235 -1.602,4.662 -1.747,5.066c-0.816,2.269 -0.479,2.338 1.02,4.245c-0.913,2.936 -0.884,2.926 -0.986,3.171c-0.132,0.316 -0.362,-0.014 -0.461,0.223c-4.228,-2.716 -4.474,-0.421 -5.96,1.173c-10.406,9.999 -20.584,22.791 -22.246,24.88c-0.368,0.463 -6.876,6.937 -7.478,7.537c-0.739,0.736 -3.642,3.024 -3.307,3.704c0.238,0.483 1.119,0.521 1.229,1.047c0.449,2.148 -7.021,3.972 0.345,10.245c-1.504,4.272 -1.027,4.278 -2.061,8.786c-0.806,3.51 -1.942,2.594 -5.111,4.343c-4.286,2.366 -2.685,3.538 -4.094,8.555c-0.155,0.697 -0.311,1.394 -0.466,2.091c-2.52,3.213 -4.479,6.143 -4.846,6.692l-0.677,0.551c-0.409,-0.066 -3.342,0.611 -1.641,-2.383c1.188,-2.091 -2.865,-3.628 -0.436,-3.688c4.308,-0.107 2.925,-5.699 3.277,-8.265c0.742,-3.051 0.333,-3.121 1.864,-5.846l1.029,-3.041l0.293,-0.376c10.756,2.275 8.7,-3.021 8.158,-3.48c-1.147,-0.971 -0.417,-2.555 -1.713,-1.742c-5.26,3.3 -1.338,-2.299 1.138,-10.398c0.169,-0.563 1.795,-5.965 1.989,-7.076c3.012,-17.234 9.326,-18.456 17.568,-27.306c10.016,-10.755 7.548,-13.142 17.998,-20.189c9.189,-6.198 8.406,-10.881 13.541,-7.831Z" style="fill:#40cad9;fill-opacity:1;"/><path d="M362.963,222.947c3.811,1.58 6.68,-0.928 6.003,3.098c-0.356,2.117 -2.668,0.82 -3.455,5.079c-0.279,1.508 -0.208,1.41 -0.714,2.859c-0.032,0.141 -0.309,0.128 -0.34,0.269c-0.531,2.348 0.817,2.548 0.936,2.918l-1.029,3.041c-0.415,0.177 -0.818,-0.736 -1.233,-0.56c-0.228,0.097 -0.04,0.249 -2.178,2.207c-1.611,1.476 -1.392,5.4 -1.192,5.333c0.936,-0.316 1.803,-0.818 2.74,-1.134c-0.352,2.566 1.031,8.158 -3.277,8.265c-2.429,0.06 1.624,1.598 0.436,3.688c-1.701,2.994 1.233,2.317 1.641,2.383c-0.886,2.143 -8.243,13.077 -2.171,12.483c2.93,-0.287 1.802,-6.963 2.981,-7.81c1.332,-0.958 0.217,-1.492 1.231,-2.876c0.6,-0.82 0.009,-0.803 -1.364,-2.347c0.367,-0.549 2.327,-3.48 4.846,-6.692c0.632,1.632 0.417,1.661 1.49,3.144c-0.859,2.615 -0.875,2.592 -0.927,2.824c-2.302,10.206 0.681,10.735 1.547,10.889c0.881,4.028 -1.116,5.848 3.017,6.506c0.748,0.119 4.24,2.102 4.6,2.252c0.838,2.353 0.916,2.183 2.116,4.462c1.124,3.854 1.17,3.749 2.451,7.594c-2.996,0.018 -5.992,0.035 -8.988,0.053c-3.767,-4.786 -8.048,-23.109 -11.119,-11.83c-0.823,3.024 0.575,2.922 0.821,8.158c0.069,1.46 1.238,1.858 1.239,1.883c0.043,0.86 -0.98,1.547 -0.937,2.407l-1.001,0.437c-2.008,-0.035 -4.016,-0.071 -6.024,-0.106c-0.557,0.054 -0.535,-0.001 -6.972,0.601c0.917,-2.627 0.84,-2.65 0.991,-2.837c1.571,-1.941 -0.306,-2.057 -0.514,-4.552c-0.047,-0.564 -1.829,-4.995 1.454,-4.413c2.938,0.521 2.148,-3.563 2.445,-5.518c1.051,-6.92 5.009,-8.178 1.621,-9.036c-2.151,-0.545 -2.208,-0.651 -4.005,0.678c-0,0 -2.248,0.071 -2.444,0.077c2.011,-2.604 2.045,-2.449 4.43,-4.754c6.159,-5.95 1.751,-26.084 10.848,-39.12Z" style="fill:#12b3d6;fill-opacity:0.99;"/><path d="M458.508,211.696c3.078,3.467 2.399,4.217 6.702,6.146c-0.153,0.449 -0.546,0.791 -0.7,1.24c-0.259,0.76 2.946,0.579 0.74,10.008c-1.532,6.545 0.732,8.246 1.292,8.667c0.187,0.141 0.216,-0.097 2.911,0.32c-0.009,9.904 -3.077,10.397 1.426,19.139c0.345,0.67 0.269,0.644 3.637,8.695c-0.026,0.028 -2.708,1.149 -2.314,5.177c0.213,2.181 -0.65,1.913 -0.969,3.997c-0.162,1.052 -0.65,0.861 -3.483,12.844c-0.289,1.223 -2.662,3.402 -3.637,4.913c-1.994,0.102 -3.988,0.204 -5.982,0.306c-1.694,-2.717 -2.298,-2.657 -1.663,-3.881c1.524,-2.94 0.393,-3.258 1.8,-6.201c1.819,-3.805 -3.48,-1.892 -4.203,-5.995c-0.527,-2.992 -4.409,-4.223 1.516,-8.989c3.286,8.968 4.811,8.355 5.339,7.813c3.039,-3.126 1.485,-7.229 1.26,-7.822c-2.02,-5.332 1.117,-9.233 -3.818,-8.818c4.649,-20.103 2.016,-27.118 1.191,-29.316c-2.559,-6.817 -1.167,-7.064 -3.389,-13.871c0.692,-1.511 0.499,-1.439 0.535,-3.059l1.809,-1.312Z" style="fill:#0db4d9;fill-opacity:1;"/><path d="M491.87,179.171c1.411,4.471 2.549,10.08 10.672,19.537c4.55,5.298 5.269,5.569 5.27,26.335c0,6.196 0.943,5.951 2.419,12.079c-0.542,3.023 -0.887,2.916 -0.356,6.059c-2.981,2.217 2.355,5.358 3.958,6.91l0.064,1.01c-7.158,5.281 8.379,9.559 4.366,28.034c-0.454,2.089 -2.636,4.753 -2.935,5.118c-2.614,3.191 -0.957,3.978 -3.208,7.448l-1.962,0.003c-1.441,-3.926 6.452,-16.965 1.705,-20.202c-9.193,-6.269 0.608,-15.573 -6.373,-21.399c0.291,-4.071 0.067,-3.995 -0.52,-7.969c1.852,-5.151 0.257,-10.401 -0.968,-11.99c0.265,-0.43 2.008,-0.143 0.746,-3.951c-0.084,-0.763 -0.169,-1.526 -0.253,-2.288c-0.391,-1.425 -0.691,-1.334 -0.459,-2.827c0.493,-3.175 1.066,-3.224 -1.187,-9.953c2.035,-3.626 1.762,-5.881 -1.587,-10.155c-15.322,-19.147 -10.221,-33.516 -24.947,-25.51c-9.753,5.302 -18.875,7.904 -19.921,9.787c-2.847,5.127 -2.38,9.286 -5.285,6.856c-0.133,-0.111 -0.143,-0.074 -1.93,-0.997c2.625,-3.438 2.797,-3.167 5.034,-6.968c4.12,-7.001 14.145,-7.816 20.657,-11.454c9.988,-5.58 12.449,-4.01 16.998,6.486Z" style="fill:#0f80bc;fill-opacity:1;"/><path d="M448.552,191.55l0.63,-0.443c1.787,0.923 1.796,0.886 1.93,0.997c2.904,2.43 2.437,-1.728 5.285,-6.856c1.046,-1.883 10.168,-4.485 19.921,-9.787c14.726,-8.006 9.625,6.363 24.947,25.51c-4.068,4.287 -0.929,4.836 1.587,10.155c2.253,6.729 1.679,6.779 1.187,9.953c-0.232,1.493 0.069,1.402 0.459,2.827c0.084,0.763 0.169,1.526 0.253,2.288c1.262,3.809 -0.481,3.522 -0.746,3.951c-7.625,-12.82 -5.006,-20.172 -12.463,-35.252c-5.669,-11.465 -6.678,-21.061 -12.242,-16.609c-4.754,3.804 -5.032,3.252 -5.311,3.687c-3.027,4.715 -18.563,8.892 -18.435,16.106c0.01,0.569 0.124,6.952 0.192,7.114c0.267,0.633 1.372,0.615 1.639,1.247c0.275,0.508 0.55,1.017 0.825,1.525l0.923,1.11l-0.787,0.421c-0.282,0.42 -0.564,0.84 -0.846,1.259c0.337,0.314 0.674,0.628 1.012,0.943l-1.809,1.312c-0.036,1.62 0.157,1.548 -0.535,3.059c-0.732,-1.849 -0.768,-1.826 -0.791,-1.997c-0.295,-2.271 0.633,-2.628 -6.691,-15.74c-1.812,-2.346 -1.632,-2.366 -2.947,-5.113c0.958,-0.119 0.443,-0.952 1.413,-1.072c1.626,-0.201 0.702,0.835 0.784,0.8c0.469,-0.199 0.151,-1.197 0.62,-1.396Z" style="fill:#0c87db;fill-opacity:1;"/><path d="M410.827,214.621c0.175,0.329 2.357,1.329 0.364,2.649c-0.31,0.205 -1.05,3.468 -1.119,3.775c-6.015,12.157 -9.507,14.214 -8.96,24.036c0.13,2.33 -0.178,2.291 -4.22,17.03c-1.974,6.037 -6.165,6.205 -2.282,11.19c-1.644,6.269 -1.64,6.157 -1.773,6.695l-0.401,0.298l-2.323,-0.164c-0.163,-0.098 -2.04,-1.228 -2.04,-1.228c-0.453,0.272 -0.27,1.213 -0.77,1.385c-0.471,0.163 -0.459,0.05 -6.196,0.673c-2.815,-4.025 -3.836,-9.844 -4.208,-4.859c-0.105,1.404 -0.046,1.309 -0.35,2.662c-0.36,-0.15 -3.852,-2.133 -4.6,-2.252c-4.133,-0.657 -2.136,-2.477 -3.017,-6.506c0.039,-0.186 -0.21,-4.176 6.127,-4.959c0.362,0.622 -0.3,1.845 4.086,2.223c8,0.69 7.395,-2.054 8.988,-2.157c0.583,-0.038 6.126,-0.399 6.055,-4.079c-0.004,-0.231 -0.141,-0.518 -0.36,-0.593c-1.41,-0.483 -1.013,-0.834 -2.165,-1.783c0.318,-0.632 0.824,-1.157 1.142,-1.789c4.683,-9.308 -0.193,-15.837 11.102,-28.966c3.862,-4.489 0.278,-6.615 6.921,-13.282Z" style="fill:#0a80d8;fill-opacity:1;"/><path d="M514.253,197.031c2.335,2.4 1.42,2.784 1.855,5.127c0.359,1.929 9.563,-0.145 9.49,11.928c-0.02,3.325 -0.149,24.524 6.352,41.07c4.623,11.766 4.617,12.124 1.24,26.929c-0.621,2.723 1.097,3.099 1.143,3.176c-3.446,3.45 -3.26,3.699 -8.316,5.377c-0.085,-0.525 -0.135,-0.836 0.824,-6.602c2.294,-13.781 3.38,-13.782 0.503,-36.982c-0.985,-7.944 -9.796,-16.921 -9.974,-30.981c-0.124,-9.755 -2.546,-9.324 -3.118,-19.043Z" style="fill:#174f84;fill-opacity:1;"/><path d="M473.987,191.988c-0.649,-0.567 -4.877,-4.259 -10.5,2.431c-4.207,5.005 -3.687,5.285 -5.565,11.568l-0.54,0.452c-0.267,-0.633 -1.372,-0.615 -1.639,-1.247c-0.068,-0.162 -0.182,-6.544 -0.192,-7.114c-0.129,-7.213 15.407,-11.391 18.435,-16.106c0.279,-0.435 0.558,0.117 5.311,-3.687c5.564,-4.452 6.573,5.144 12.242,16.609c7.457,15.08 4.838,22.432 12.463,35.252c1.225,1.589 2.82,6.839 0.968,11.99c-3.191,-15.689 -7.732,-18.444 -12.507,-29.196c-2.043,-6.592 -1.88,-11.752 -5.67,-15.517c-4.189,-4.161 -4.435,-3.895 -6.999,-9.081c-1.354,-2.739 -5.493,3.198 -5.807,3.648Z" style="fill:#175188;fill-opacity:1;"/><path d="M328.658,180.752c0.493,0.969 2.417,4.752 -3.899,13.02c-1.064,1.393 -5.864,3.635 -5.986,8.277c-0.374,14.22 -1.466,18.372 -9.333,27.311c-3.195,3.631 -2.88,14.257 -7.068,21.931c-0.158,-0.58 -1.18,-0.629 -1.338,-1.208c-0.441,-1.615 1.406,-1.221 1.733,-5.028c1.292,-15.06 12.968,-42.211 7.87,-50.228c5.755,-10.225 8.944,-6.694 18.022,-14.075Z" style="fill:#164c80;fill-opacity:0.99;"/><path d="M515.442,193.842c9.495,9.201 13.661,8.033 14.688,24.241c1.17,18.458 0.259,18.681 6.837,36.066c1.599,4.227 6.441,17.863 -2.634,31.113c-0.046,-0.078 -1.764,-0.453 -1.143,-3.176c3.377,-14.805 3.383,-15.163 -1.24,-26.929c-6.501,-16.547 -6.372,-37.746 -6.352,-41.07c0.073,-12.073 -9.131,-9.999 -9.49,-11.928c-0.436,-2.344 0.479,-2.728 -1.855,-5.127c-0.439,-1.92 0.167,-1.714 1.189,-3.189Z" style="fill:#0e86d5;fill-opacity:0.99;"/><path d="M462.9,203.911c0.378,0.727 0.755,1.454 1.133,2.182c0.005,3.106 0.19,3.035 1.498,5.794c2.429,5.123 15.267,1.61 11.428,26.173c-2.233,14.288 -0.459,14.309 -0.231,28.718l-0.552,1.022c-0.553,-0.63 -1.106,-1.259 -1.66,-1.889c-3.368,-8.051 -3.292,-8.025 -3.637,-8.695c-4.503,-8.742 -1.436,-9.235 -1.426,-19.139c0.141,-8.18 -0.191,-8.127 0.535,-11.042c1.479,-5.94 0.666,-6.549 -4.778,-9.193c-4.303,-1.929 -3.625,-2.679 -6.702,-6.146c-0.337,-0.314 -0.674,-0.628 -1.012,-0.943c0.282,-0.42 0.564,-0.84 0.846,-1.259l0.787,-0.421c3.713,0.115 2.329,-1.79 3.771,-5.162Z" style="fill:#195289;fill-opacity:1;"/><path d="M371.517,192.699c-9.754,17.625 -17.792,14.716 -19.615,28.341c-0.991,7.403 0.61,8.021 -3.869,13.939c-7.343,3.731 -5.817,7.702 -10.222,14.833c-1.93,3.124 -2.251,8.596 -1.92,9.258c0.259,0.518 1.111,0.551 1.37,1.069c-3.637,3.377 -2.461,3.957 -2.326,8.919c-0.661,1.563 -0.625,1.441 -0.86,2.987c-2.151,-2.451 -1.767,-2.673 -1.565,-5.962c0.056,-0.912 0.033,-0.939 -0.019,-1c-0.698,-0.815 -1.025,-0.22 -1.781,-1.103c1.006,-3.722 0.95,-3.716 1.086,-4.02c5.353,-12.001 7.367,-21.848 12.342,-25.868c10.49,-8.474 0.626,-16.939 7.847,-29.106c2.675,-4.507 4.908,-2.836 9.483,-12.748c2.092,-4.531 7.724,-0.564 10.049,0.461Z" style="fill:#15528d;fill-opacity:1;"/><path d="M505.491,250.104c6.981,5.826 -2.82,15.13 6.373,21.399c4.747,3.237 -3.147,16.276 -1.705,20.202c-7.591,0.051 -7.513,0.047 -15.036,-0.004c3.555,-2.474 2.388,-4.029 2.621,-5.691c0.381,-2.709 4.448,-3.269 3.508,-6.942c-0.903,-3.528 -3.405,-3.999 2.97,-19.94c1.482,-4.385 1.076,-4.355 1.268,-9.024Z" style="fill:#174f83;fill-opacity:0.99;"/><path d="M415.236,254.633c6.982,3.554 1.723,8.379 6.615,14.883c0.273,0.614 0.545,1.229 0.818,1.843c1.744,8.934 2.075,9.064 -0.91,17.593c-0.803,2.295 -0.513,2.337 -1.661,4.408l-2.935,-0.475c-0.108,-0.696 -0.996,-1.106 -1.104,-1.802c-0.354,-2.273 6.296,-5.268 1.465,-17.2c-3.904,-7.709 -1.974,-14.67 -4.191,-11.609c-13.131,18.133 -8.04,21.302 -5.64,27.565c0.053,0.139 -0.174,0.251 -0.209,0.396c-0.032,0.135 -0.026,0.126 -0.357,1.7c-1.66,-0.079 -3.32,-0.158 -4.98,-0.237c-8.385,-10.16 4.7,-22.525 9.443,-35.434c0.789,-2.148 1.439,-1.354 3.647,-1.63Z" style="fill:#25c0d6;fill-opacity:0.99;"/><path d="M310.636,194.826c5.098,8.017 -6.577,35.168 -7.87,50.228c-0.327,3.807 -2.174,3.413 -1.733,5.028c0.158,0.58 1.18,0.629 1.338,1.208c-5.631,8.535 -4.035,17.284 -3.76,18.792c0.52,2.849 -0.737,2.494 -0.969,3.278c-8.785,-16.083 2.209,-19.506 3.099,-39.29c0.704,-15.639 1.621,-15.46 6.904,-30.158c1.647,-4.583 1.181,-4.627 2.99,-9.087Z" style="fill:#0b82d6;fill-opacity:0.99;"/><path d="M325.662,229.717c0.371,0.607 1.261,0.768 1.632,1.375c0.17,0.279 -0.865,0.333 0.582,4.04c0.242,20.29 -6.361,23.551 -5.649,29.945c0.191,1.714 2.185,19.626 3.43,21.282c0.196,0.26 0.757,0.413 0.657,0.723c-0.195,0.604 -1.135,0.758 -1.329,1.362c-2.606,-0.828 -5.212,-1.656 -7.819,-2.483c2.286,-3.017 1.16,-3.331 -0.159,-6.838c-2.53,-6.725 -2.016,-6.79 -2.27,-14.038c-0.607,-17.305 13.87,-15.442 11.181,-28.988c-0.094,-0.473 -0.888,-0.589 -0.981,-1.062l-0.109,-3.099c0.278,-0.74 0.556,-1.479 0.834,-2.219Z" style="fill:#14497e;fill-opacity:1;"/><path d="M374.241,178.391c-13.772,1.309 -13.623,2.471 -19.912,8.892c-6.251,6.382 -7.634,5.048 -12.283,12.734c-7.277,12.031 -6.104,14.202 -10.986,20.026c-3.584,4.275 1.275,5.769 -3.183,15.089c-1.447,-3.708 -0.412,-3.762 -0.582,-4.04c-0.371,-0.607 -1.261,-0.768 -1.632,-1.375c0.699,-2.576 1.91,-9.867 2.054,-10.729c8.9,-4.27 6.27,-15.317 18.511,-28.84c14.212,-13.524 11.554,-23.301 20.69,-18.7c6.348,3.198 11.865,2.461 7.325,6.943Z" style="fill:#145c96;fill-opacity:1;"/><path d="M348.143,178.099c2.727,1.479 3.681,2.254 1.392,4.428c-3.38,3.211 -4.757,3.147 -3.309,7.621c-12.241,13.524 -9.61,24.57 -18.511,28.84c-1.473,-6.964 -2.104,-8.759 6.442,-25.892c0.07,-0.56 0.206,-0.492 1.129,-6.962c0.306,0.343 0.537,0.748 0.843,1.09c0.746,0.835 0.583,-0.097 1.195,-0.93c1.561,-2.125 3.688,-1.551 10.82,-8.195Z" style="fill:#0a8bd8;fill-opacity:1;"/><path d="M399.439,217.084c-1.614,3.579 -1.654,5.486 -5.518,7.582c-1.535,0.833 -4.876,1.464 -5.779,2.43c-5.861,6.27 1.77,11.777 -16.855,26.294c-0.303,-0.213 -2.087,-1.464 -3.999,-2.33c1.409,-5.017 -0.192,-6.19 4.094,-8.555c3.169,-1.749 4.306,-0.832 5.111,-4.343c1.035,-4.508 0.557,-4.514 2.061,-8.786c6.441,-7.124 13.617,-9.404 14.373,-9.725c3.773,-1.602 3.474,-5.245 6.511,-2.566Z" style="fill:#185188;fill-opacity:1;"/><path d="M417.523,273.883c4.831,11.932 -1.818,14.927 -1.465,17.2c0.108,0.696 0.996,1.106 1.104,1.802c-3.346,-0.317 -6.691,-0.633 -10.037,-0.95c0.331,-1.574 0.325,-1.565 0.357,-1.7c0.035,-0.145 0.262,-0.257 0.209,-0.396c-2.399,-6.263 -7.491,-9.432 5.64,-27.565c2.217,-3.061 0.287,3.9 4.191,11.609Z" style="fill:#175ba8;fill-opacity:0.99;"/><path d="M413.617,249.807c0.2,0.355 1.549,2.742 1.619,4.826c-2.208,0.276 -2.857,-0.518 -3.647,1.63c-4.743,12.909 -17.828,25.274 -9.443,35.434c-1.075,-0.056 -0.983,0.095 -2,0.042c-0.482,-0.025 -0.446,-0.027 -6.023,-0.367c-0,-0.841 0.904,-1.515 0.903,-2.356c-0,-0.082 -1.538,-3.778 -1.675,-4.105c0.1,-2.534 0.046,-2.456 -0.514,-4.916c0.133,-0.538 0.128,-0.426 1.773,-6.695c4.147,-8.884 8.611,-7.434 11.421,-14.237c2.34,-5.667 3.497,-4.761 7.587,-9.256Z" style="fill:#175aac;fill-opacity:0.99;"/><path d="M375.035,200.591c0.412,2.321 0.195,2.241 0.043,4.501c-0.678,10.118 -5.229,11.429 -1.811,16.083c-2.476,8.099 -6.397,13.698 -1.138,10.398c1.297,-0.814 0.566,0.771 1.713,1.742c0.542,0.458 2.598,5.755 -8.158,3.48c0.181,-1.549 -0.119,-1.419 -0.888,-2.811c0.506,-1.449 0.435,-1.351 0.714,-2.859c0.787,-4.259 3.099,-2.962 3.455,-5.079c0.677,-4.026 -2.192,-1.518 -6.003,-3.098c3.606,-4.532 4.656,-4.13 5.22,-9.858c0.304,-3.086 -0.329,-3.038 0.284,-6.016c0.588,-0.535 5.885,-5.763 6.568,-6.481Z" style="fill:#14bbd9;fill-opacity:1;"/><path d="M448.068,234.241c2.669,3.126 0.207,4.136 2.482,7.526c4.865,7.25 4.067,7.697 3.097,16.282c-1.887,16.701 -7.076,0.504 -7.253,-0.049c-2.772,-8.653 1.402,-23.446 1.675,-23.759Z" style="fill:#19538b;fill-opacity:1;"/><path d="M409.864,246.891c4.089,-4.013 5.245,-3.933 9.381,0.054c6.255,6.028 2.121,8.63 5.627,11.375c2.199,1.722 2.372,1.857 1.915,4.639c-2.901,3.152 -0.911,4.997 -4.935,6.557c-4.892,-6.504 0.367,-11.329 -6.615,-14.883c-0.07,-2.084 -1.418,-4.472 -1.619,-4.826c-2.062,-1.328 -1.935,-1.353 -3.754,-2.916Z" style="fill:#18579e;fill-opacity:1;"/><path d="M480.135,292.378c-4.028,0.477 -11.019,0.381 -11.978,0.368c8.182,-11.502 4.371,-20.759 6.196,-22.448c3.956,-3.661 7.796,10.57 5.782,22.08Z" style="fill:#36c3d3;fill-opacity:0.98;"/><path d="M372.077,164.208c6.073,2.651 6.437,2.142 10.834,7.048c0.986,2.913 0.969,2.847 1.404,5.845c-0.426,0.596 -0.851,1.193 -1.277,1.789c-4.914,-8.701 -4.204,-10.363 -13.95,-12.693c-3.55,-0.849 -4.963,-6.13 -8.594,-2.623c-0.971,0.938 -0.825,1.056 -10.948,12.833c-0.326,0.379 -0.166,0.348 -0.444,0.654c-0.076,0.084 0,-0 -0.96,1.038c-7.131,6.644 -9.259,6.071 -10.82,8.195c-0.612,0.833 -0.449,1.765 -1.195,0.93c-0.306,-0.343 -0.537,-0.748 -0.843,-1.09c2.825,-4.433 9.825,-6.28 16.232,-15.753c9.179,-13.572 12.467,-11.033 13.54,-10.204c3.255,2.514 3.27,2.344 7.019,4.031Z" style="fill:#165191;fill-opacity:1;"/><path d="M375.362,158.092c0.163,-0.393 -0.81,-0.706 -0.647,-1.099c0.341,-0.824 0.731,-0.08 1.47,-0.703c1.919,-1.615 1.769,0.747 2.866,1.864c0.807,0.822 8.763,9.772 8.671,10.903c-0.262,3.23 0.85,2.954 1.315,6.079c1.157,7.783 2.526,-1.506 8.105,-7.063c4.137,8.507 0.438,9.753 -0.487,11.578c-1.317,-1.573 -1.252,-3.276 -2.624,-1.708c-0.774,0.884 -0.638,0.826 -1.436,1.859l-0.23,0.907c-0.841,-0.141 -0.435,0.861 -1.253,0.724c-0.789,-0.132 -0.021,-0.811 -0.7,-1.051c-0.254,-0.09 0.066,0.396 -2.281,2.485c-2.923,-2.018 -1.774,-2.804 -3.814,-5.766c-0.435,-2.999 -0.419,-2.933 -1.404,-5.845c0.98,-3.175 1.355,-3.483 -0.842,-6.04c-3.22,-3.748 -3.578,-3.27 -6.708,-7.123Z" style="fill:#2ebfd4;fill-opacity:1;"/><path d="M347.686,266.821c0.195,-0.006 2.444,-0.077 2.444,-0.077c1.798,-1.33 1.854,-1.223 4.005,-0.678c3.388,0.858 -0.57,2.116 -1.621,9.036c-0.297,1.955 0.493,6.039 -2.445,5.518c-3.283,-0.582 -1.501,3.849 -1.454,4.413c0.208,2.495 2.084,2.61 0.514,4.552c-0.151,0.187 -0.073,0.21 -0.991,2.837l-2.038,-0.1c-2.937,-5.825 -3.491,-5.875 -2.216,-12.276c1.959,-9.834 3.276,-12.258 3.801,-13.225Z" style="fill:#1cbed7;fill-opacity:1;"/><path d="M440.306,273.168l0.821,1.915c0.334,0.333 0.668,0.666 1.002,0.999c0.334,0.543 0.669,1.086 1.003,1.629c-0.319,0.448 -0.637,0.897 -0.956,1.345c-0.595,0.22 -1.213,-0.815 -1.809,-0.595c-2.506,0.925 0.246,3.909 0.473,4.155l-0.72,0.446c-0.232,0.482 -0.464,0.965 -0.695,1.447l-0.262,0.604l-0.968,0.853c-0.177,4.73 -0.383,4.744 -0.191,5.104c2.117,3.964 1.942,-3.581 1.934,-3.931c2.422,-2.28 2.615,-1.985 2.759,-1.766c2.116,3.227 3.384,2.763 3.125,6.709c-0.01,0.158 0.022,0.145 0.3,1.962c-3.332,0.303 -6.665,0.605 -9.997,0.908c-5.507,-5.915 -2.438,-6.9 -1.465,-14.88c0.083,-0.683 0.013,-1.392 0.195,-2.056c0.52,-1.896 0.127,-2.041 0.278,-1.986c0.992,0.366 0.973,0.099 2.063,0.209c0.239,-0.256 1.456,-1.561 3.109,-3.071Z" style="fill:#0d6eca;fill-opacity:0.99;"/><path d="M513.897,251.102c1.524,5.524 1.042,5.656 2.534,7.743c6.338,8.868 5.551,9.398 5.406,20.233c-0.052,3.888 -6.585,9.32 -5.706,12.63l-4.011,-0.007c2.251,-3.47 0.594,-4.257 3.208,-7.448c0.299,-0.365 2.481,-3.029 2.935,-5.118c4.013,-18.475 -11.524,-22.752 -4.366,-28.034Z" style="fill:#0e73c8;fill-opacity:0.99;"/><path d="M473.585,192.533c-0.161,0.369 -0.989,0.002 -1.15,0.372c-0.505,1.158 1.867,4.819 -3.169,6.61c-1.143,0.406 -0.975,0.469 -2.132,1.026c-2.808,0.628 -2.501,1.054 -4.234,3.371c-1.442,3.372 -0.057,5.277 -3.771,5.162l-0.923,-1.11c-0.095,-0.659 -0.189,-1.318 -0.284,-1.977c1.877,-6.283 1.358,-6.563 5.565,-11.568c5.623,-6.69 9.851,-2.998 10.5,-2.431l-0.403,0.545Z" style="fill:#0faadc;fill-opacity:1;"/><path d="M390.113,280.13c-0.345,-0.022 -0.584,-0.44 -0.929,-0.462c-0.369,-0.023 -1.356,-0.057 -0.176,4.431c0.233,0.886 0.31,0.969 1.18,0.704c1.612,-0.493 1.014,-2.839 2.247,-4.509l0.401,-0.298c0.56,2.46 0.615,2.382 0.514,4.916c-0.815,0.998 -1.3,0.593 -1.528,1.869c-0.461,2.586 -0.951,2.304 -2.692,4.205c-2.672,-0.055 -5.344,-0.111 -8.015,-0.166c-1.281,-3.845 -1.327,-3.739 -2.451,-7.594c0.814,-0.755 1.628,-1.51 2.443,-2.266c5.737,-0.624 5.725,-0.511 6.196,-0.673c0.499,-0.172 0.317,-1.113 0.77,-1.385c0,0 1.876,1.13 2.04,1.228Z" style="fill:#0f6bce;fill-opacity:0.99;"/><path d="M409.864,246.891c1.819,1.563 1.692,1.587 3.754,2.916c-4.09,4.495 -5.246,3.589 -7.587,9.256c-2.81,6.803 -7.274,5.353 -11.421,14.237c-3.883,-4.985 0.308,-5.153 2.282,-11.19c0.169,0.058 2.119,0.729 2.119,0.729c4.052,-1.438 0.219,-4.72 10.853,-15.948Z" style="fill:#0f73d1;fill-opacity:1;"/><path d="M443.133,277.712c4.606,1.68 6.35,0.47 6.937,5.4c0.574,4.82 -1.112,5.52 2.365,8.971l-0.332,1.448c-1.993,0.171 -3.986,0.342 -5.979,0.514c-0.278,-1.816 -0.311,-1.803 -0.3,-1.962c0.259,-3.946 -1.009,-3.482 -3.125,-6.709c-0.144,-0.219 -0.337,-0.514 -2.759,1.766c-0.259,-0.675 -0.517,-1.351 -0.776,-2.026l0.262,-0.604c0.232,-0.482 0.464,-0.965 0.695,-1.447l0.72,-0.446c3.283,-2.201 1.616,-2.884 1.336,-3.559c0.319,-0.448 0.637,-0.897 0.956,-1.345Z" style="fill:#0b7fd5;fill-opacity:0.99;"/><path d="M362.134,291.49c-0.043,-0.86 0.98,-1.547 0.937,-2.407c-0.001,-0.025 -1.171,-0.423 -1.239,-1.883c-0.246,-5.236 -1.644,-5.134 -0.821,-8.158c3.071,-11.278 7.351,7.044 11.119,11.83c-3.951,0.107 -3.883,-0.034 -6.968,0.343c-1.009,0.091 -2.018,0.183 -3.027,0.274Z" style="fill:#31c5d6;fill-opacity:0.99;"/><path d="M422.669,271.359c3.187,1.301 2.168,3.091 5.569,3.719c-1.819,8.394 0.293,8.545 -1.109,16.978c0,-0 0.897,2.009 0.975,2.183c-4.051,-0.398 -3.935,-0.467 -8.006,-0.881c1.148,-2.071 0.858,-2.113 1.661,-4.408c2.985,-8.529 2.654,-8.658 0.91,-17.593Z" style="fill:#125bad;fill-opacity:0.98;"/><path d="M348.033,234.979c0.203,0.547 1.155,0.557 1.358,1.104c0.181,0.488 -1.132,0.088 -2.519,6.003c-0.807,3.443 -1.162,3.435 -4.585,4.381c-0.373,0.103 -2.985,9.423 -5.027,13.671c-0.259,-0.518 -1.111,-0.551 -1.37,-1.069c-0.331,-0.662 -0.01,-6.134 1.92,-9.258c4.405,-7.131 2.878,-11.102 10.222,-14.833Z" style="fill:#0e7dd7;fill-opacity:1;"/><path d="M391.663,258.658c1.152,0.949 0.755,1.299 2.165,1.783c0.219,0.075 0.356,0.362 0.36,0.593c0.071,3.68 -5.472,4.041 -6.055,4.079c-1.592,0.104 -0.987,2.848 -8.988,2.157c-4.385,-0.378 -3.724,-1.601 -4.086,-2.223c1.358,-2.17 0.87,-2.526 3.117,-3.764c3.11,-1.714 5.099,5.026 13.486,-2.625Z" style="fill:#1060c3;fill-opacity:1;"/><path d="M465.21,217.842c5.445,2.644 6.258,3.253 4.778,9.193c-0.726,2.915 -0.394,2.861 -0.535,11.042c-2.695,-0.416 -2.724,-0.179 -2.911,-0.32c-0.56,-0.421 -2.824,-2.122 -1.292,-8.667c2.207,-9.429 -0.999,-9.248 -0.74,-10.008c0.153,-0.449 0.546,-0.791 0.7,-1.24Z" style="fill:#30c7d9;fill-opacity:1;"/><path d="M458.362,259.255c4.935,-0.415 1.798,3.486 3.818,8.818c0.225,0.593 1.779,4.695 -1.26,7.822c-0.528,0.543 -2.053,1.155 -5.339,-7.813c0.616,-5.056 1.129,-4.861 2.781,-8.827Z" style="fill:#175089;fill-opacity:1;"/><path d="M440.306,273.168c2.26,-4.872 3.983,-1.73 9.367,4.249c4.274,4.746 2.941,13.485 2.762,14.666c-3.477,-3.451 -1.792,-4.151 -2.365,-8.971c-0.587,-4.93 -2.331,-3.72 -6.937,-5.4c-0.334,-0.543 -0.669,-1.086 -1.003,-1.629c-0.334,-0.333 -0.668,-0.666 -1.002,-0.999l-0.821,-1.915Z" style="fill:#1456a2;fill-opacity:1;"/><path d="M330.71,263.98c0.755,0.882 1.083,0.287 1.781,1.103c0.052,0.061 0.075,0.088 0.019,1c-0.202,3.289 -0.586,3.511 1.565,5.962c0.147,1.218 0.295,2.436 0.442,3.653c-1.319,2.064 -1.232,2.167 -0.318,4.366c1.456,3.504 1.539,3.405 1.884,7.271c-0.416,0.155 -0.765,1.911 -2.124,-0.122c-1.927,-2.881 -1.563,-2.952 -2.507,-6.184c-2.384,-8.168 -0.99,-15.707 -0.742,-17.05Z" style="fill:#0688d7;fill-opacity:1;"/><path d="M486.419,255.911c4.916,11.614 -1.295,12.702 2.055,20.982c1.226,3.032 1.382,3.157 0.099,5.408c-2.03,-0.328 -2.464,-0.196 -2.626,-2.261c-0.37,-4.703 -1.08,-4.533 -1.387,-9.256c1.619,-1.585 1.634,-2.458 1.638,-2.712c0.174,-10.239 -1.517,-10.214 -1.093,-10.988c0.282,-0.515 1.033,-0.657 1.315,-1.172Z" style="fill:#0d70bf;fill-opacity:1;"/><path d="M375.362,158.092c3.13,3.854 3.488,3.375 6.708,7.123c2.197,2.557 1.822,2.865 0.842,6.04c-4.398,-4.905 -4.761,-4.397 -10.834,-7.048c0.97,-1.972 0.754,-2.061 -0.263,-4.054c-0.501,-0.982 0.252,-0.674 1.485,-0.974c0.755,-0.184 1.308,-0.903 2.063,-1.087Z" style="fill:#38c7d8;fill-opacity:1;"/><path d="M479.439,208.95c5.237,10.394 8.593,9.377 8.332,21.114c-0.586,3.143 -0.507,3.057 -1.299,6.181c-1.382,-1.956 -1.972,-1.852 -1.377,-4.17c1.616,-6.289 1.053,-6.379 -1.651,-12.18c-4.256,-9.129 -4.575,-8.975 -4.823,-9.814l0.818,-1.133Z" style="fill:#1458a4;fill-opacity:1;"/><path d="M423.361,167.011l1.038,1.091c-0.161,0.916 -1.019,5.805 -6.979,9.292c-1.499,-1.907 -1.836,-1.976 -1.02,-4.245c0.145,-0.403 1.738,-4.83 1.747,-5.066c0.052,-1.336 0.681,-0.514 1.139,-0.683c0.433,-0.159 0.469,-0.828 0.843,-1.099c0.277,-0.201 0.666,-0.307 1,-0.234c0.789,0.173 1.443,0.769 2.232,0.942Z" style="fill:#67d7dc;fill-opacity:1;"/><path d="M320.858,236.804c-0.017,1.043 1.272,1.156 -0.049,2.941c-0.245,0.33 -0.332,0.09 -0.63,0.403c-1.033,1.085 -1.066,0.92 -2.2,1.81l-2.238,1.869c-0.078,0.424 -0.91,0.412 -0.987,0.836c0,0 0.288,1.977 0.313,2.149c-6.175,5.976 -4.359,11.153 -5.8,9.689c-0.943,-0.958 0.488,-1.323 -0.23,-2.364c-0.328,-0.476 -0.989,-0.696 -1.229,-1.222c-0.124,-0.272 0.407,-0.58 0.282,-0.852c3.368,-9.119 5.418,-7.627 12.769,-15.26Z" style="fill:#0c6bc8;fill-opacity:1;"/><path d="M479.482,154.907c-0.165,-1.689 -0.241,-1.691 -0.178,-1.824c1.488,-3.151 2.722,2.914 5.813,0.952c1.544,-0.98 3.523,-0.642 4.148,1.015c2.496,6.612 -4.973,5.868 -5.382,4.293c-0.827,-3.184 -2.339,-1.947 -4.401,-4.435Z" style="fill:#3ec9d9;fill-opacity:1;"/><path d="M426.786,262.959c1.239,1.395 1.534,1.261 1.42,3.141c-0.273,4.506 0.797,4.474 0.032,8.979c-3.401,-0.628 -2.382,-2.419 -5.569,-3.719c-0.273,-0.614 -0.545,-1.229 -0.818,-1.843c4.024,-1.56 2.035,-3.405 4.935,-6.557Z" style="fill:#0b77d2;fill-opacity:1;"/><path d="M361.299,260.392l0.677,-0.551c1.373,1.543 1.964,1.527 1.364,2.347c-1.014,1.385 0.101,1.918 -1.231,2.876c-1.178,0.848 -0.051,7.523 -2.981,7.81c-6.072,0.594 1.285,-10.34 2.171,-12.483Z" style="fill:#03a0d6;fill-opacity:1;"/><path d="M467.134,200.54c6.443,4.85 2.346,10.235 0.274,7.275c-1.376,-1.965 -1.611,-1.655 -3.374,-1.722c-0.378,-0.727 -0.755,-1.454 -1.133,-2.182c1.732,-2.317 1.426,-2.743 4.234,-3.371Z" style="fill:#1173d1;fill-opacity:1;"/><path d="M480.986,243.099c0.008,-9.373 0.507,-9.45 -0.537,-12.051c-0.525,-1.309 -0.641,-5.363 -0.654,-5.833c-0.564,-19.835 2.326,3.503 2.349,3.864c0.614,9.657 2.525,10.394 -1.158,14.019Z" style="fill:#0b69c6;fill-opacity:1;"/><path d="M324.828,231.936l0.109,3.099c-0.132,0.75 -1.346,7.673 -4.704,8.28c-1.868,0.337 -2.236,-1.347 -2.254,-1.357c1.135,-0.89 1.168,-0.725 2.2,-1.81c0.298,-0.313 0.385,-0.073 0.63,-0.403c1.321,-1.785 0.032,-1.898 0.049,-2.941c2.727,-3.648 2.556,-3.78 3.971,-4.868Z" style="fill:#0989dc;fill-opacity:1;"/><path d="M304.795,263.97c0.12,0.806 1.141,1.288 1.261,2.093c0.064,0.427 -0.649,0.615 -0.797,1.02c-1.455,3.997 -0.432,4.006 0.896,7.994c1.325,3.982 2.064,3.733 1.883,4.04c-1.025,1.732 -1.614,0.74 -2.61,-1.077c-3.566,-6.506 -2.645,-6.879 -0.633,-14.071Z" style="fill:#0b4690;fill-opacity:1;"/><path d="M501.263,200.971c3.349,4.274 3.621,6.529 1.587,10.155c-2.516,-5.319 -5.655,-5.868 -1.587,-10.155Z" style="fill:#1275d0;fill-opacity:1;"/><path d="M309.826,260.64c0.288,0.934 0.815,0.495 1.085,1.369c0.029,0.093 0.055,0.178 -0.301,1.174c-1.46,4.082 0.083,4.161 -0.325,8.557l-1.483,0.257c-0.518,-1.771 -0.732,-1.728 -0.635,-5.913c0.045,-1.94 -3.381,-4.062 1.66,-5.443Z" style="fill:#1066bf;fill-opacity:1;"/><path d="M334.518,275.698c0.243,0.44 0.485,0.879 0.728,1.319c2.847,6.372 2.62,8.812 2.667,9.042c-0.61,0.425 -1.22,0.851 -1.83,1.276c-0.345,-3.866 -0.427,-3.768 -1.884,-7.271c-0.914,-2.198 -1.001,-2.301 0.318,-4.366Z" style="fill:#0972cb;fill-opacity:1;"/><path d="M346.141,162.056c0.091,0.063 0.121,2.137 3.019,1.109c1.353,-0.48 1.354,-0.621 2.559,0.162c1.618,1.051 -4.074,5.551 -8.798,0.819c1.073,-0.697 2.147,-1.393 3.22,-2.09Z" style="fill:#54d0da;fill-opacity:1;"/><path d="M308.801,271.996l1.483,-0.257c3.127,6.856 3.398,6.723 3.587,7.349c5.022,16.662 -3.759,-3.38 -3.934,-3.78c-0.714,-1.629 -0.548,-1.597 -1.136,-3.313Z" style="fill:#0d4d9e;fill-opacity:1;"/><path d="M438.134,266.086c2.876,-0.991 2.845,-1.098 3.106,-1.07c2.857,0.304 -1.353,2.058 -4.247,6.905c-3.551,-1.609 -1.258,-2.659 1.141,-5.835Z" style="fill:#0ba9d5;fill-opacity:1;"/><path d="M474.29,198.044c2.506,5.494 2.638,5.324 5.149,10.906l-0.818,1.133c-0.69,-1.061 -0.832,-0.882 -1.349,-2.075c-1.554,-3.58 -4.871,-6.193 -2.982,-9.964Z" style="fill:#1161b9;fill-opacity:1;"/><path d="M393.352,284.912c0.136,0.327 1.675,4.023 1.675,4.105c0,0.841 -0.904,1.515 -0.903,2.356c-1.664,-0.129 -3.327,-0.258 -4.991,-0.387c1.741,-1.902 2.231,-1.62 2.692,-4.205c0.227,-1.276 0.712,-0.871 1.528,-1.869Z" style="fill:#116fc5;fill-opacity:0.94;"/><path d="M376.55,278.764c0.304,-1.353 0.245,-1.258 0.35,-2.662c0.372,-4.984 1.393,0.834 4.208,4.859c-0.814,0.755 -1.628,1.51 -2.443,2.266c-1.199,-2.28 -1.277,-2.109 -2.116,-4.462Z" style="fill:#0979d5;fill-opacity:1;"/><path d="M364.362,240.211c-1.531,2.724 -1.122,2.795 -1.864,5.846c-0.936,0.316 -1.803,0.818 -2.74,1.134c-0.199,0.067 -0.419,-3.857 1.192,-5.333c2.138,-1.958 1.95,-2.11 2.178,-2.207c0.415,-0.177 0.818,0.736 1.233,0.56Z" style="fill:#19bcd7;fill-opacity:1;"/><path d="M334.935,269.058c1.179,1.272 4.491,3.042 0.31,7.959c-0.243,-0.44 -0.485,-0.879 -0.728,-1.319c-0.147,-1.218 -0.295,-2.436 -0.442,-3.653c0.235,-1.546 0.2,-1.423 0.86,-2.987Z" style="fill:#058fd9;fill-opacity:1;"/><path d="M488.84,123.801c4.292,-3.509 4.239,-0.127 4.048,0.135c-0.233,0.321 -1.841,2.531 -3.695,3.301c-0.255,0.106 -3.513,0.402 -0.353,-3.436Z" style="fill:#c7338c;fill-opacity:0.01;"/><path d="M415.973,180.788c-1.408,1.233 -1.335,1.183 -2.808,2.46c-1.771,1.536 -1.822,0.025 -3.152,-1.287c1.486,-1.595 1.732,-3.889 5.96,-1.173Z" style="fill:#1fc0d8;fill-opacity:1;"/><path d="M390.113,280.13l2.323,0.164c-1.233,1.671 -0.635,4.016 -2.247,4.509c-0.87,0.266 -0.947,0.182 -1.18,-0.704c-1.181,-4.488 -0.193,-4.454 0.176,-4.431c0.345,0.022 0.584,0.44 0.929,0.462Z" style="fill:#0f56ba;fill-opacity:1;"/><path d="M367.288,251.059c1.913,0.866 3.696,2.118 3.999,2.33l-2.975,2.904c-1.073,-1.483 -0.859,-1.512 -1.49,-3.144c0.155,-0.697 0.311,-1.394 0.466,-2.091Z" style="fill:#137fcb;fill-opacity:1;"/><path d="M477.18,215.094c1.678,0.255 1.59,0.152 1.678,0.255c0.296,0.344 2.225,2.58 1.8,5.379c-0.225,1.48 -2.301,1.112 -3.479,-5.634Z" style="fill:#0c74ce;fill-opacity:1;"/><path d="M422.064,239.166c0.358,-0.674 1.242,-0.213 1.097,-2.067c-0.583,-7.47 2.973,1.682 3.079,1.954c-2.121,1.014 -2.25,1.409 -4.176,0.113Z" style="fill:#0785db;fill-opacity:1;"/><path d="M483.161,283.08c1.106,1.656 1.81,0.79 2.834,2.398c1.207,1.894 -1.066,4.777 -1.921,2.626c-0.977,-2.46 -1.569,-2.387 -0.913,-5.023Z" style="fill:#0a9cdc;fill-opacity:1;"/><path d="M509.875,243.181c2.118,3.488 3.22,2.887 3.958,6.91c-1.603,-1.553 -6.939,-4.693 -3.958,-6.91Z" style="fill:#1a7ac4;fill-opacity:1;"/><path d="M439.163,285.114c0.259,0.675 0.517,1.351 0.776,2.026c0.008,0.35 0.183,7.895 -1.934,3.931c-0.193,-0.36 0.014,-0.374 0.191,-5.104l0.968,-0.853Z" style="fill:#0c63c5;fill-opacity:1;"/><path d="M442.177,279.057c0.28,0.675 1.948,1.358 -1.336,3.559c-0.227,-0.246 -2.979,-3.23 -0.473,-4.155c0.595,-0.22 1.213,0.815 1.809,0.595Z" style="fill:#1457aa;fill-opacity:1;"/><path d="M357.608,138.677c-0.362,-0.876 -1.108,0.214 -1.442,-0.595c-0.039,-0.094 -0.216,-0.522 0.783,-1c0.239,-0.114 2.769,-1.327 3.128,-1.088c0.243,0.161 4.409,5.372 -2.469,2.682Z" style="fill:#4fd0dc;fill-opacity:1;"/><path d="M392.593,179.803c0.798,-1.033 0.662,-0.974 1.436,-1.859c1.373,-1.568 1.308,0.135 2.624,1.708c-1.637,1.207 -1.581,1.218 -3.571,1.54l-0.49,-1.389Z" style="fill:#4ed1db;fill-opacity:1;"/><path d="M315.74,243.827c1.566,0.96 2.643,1.3 0.793,3.394l-1.467,-0.409c-0.025,-0.172 -0.313,-2.149 -0.313,-2.149c0.078,-0.424 0.91,-0.412 0.987,-0.836Z" style="fill:#0d6ecb;fill-opacity:1;"/><path d="M447.142,170.099c-0.148,0.167 -0.936,1.053 -1.828,2.101c-0.849,-1.992 -0.233,-2.807 1.828,-2.101Z" style="fill:#1d86a8;fill-opacity:0.18;"/><path d="M422.92,165.231c2.091,0.856 3.134,1.287 1.479,2.871l-1.038,-1.091c-0.147,-0.593 -0.294,-1.186 -0.441,-1.78Z" style="fill:#48cdd9;fill-opacity:1;"/><path d="M341.173,124.13c-3.597,-0.345 -1.135,-1.768 -0.985,-1.842c1.368,-0.671 0.873,0.402 0.985,1.842Z" style="fill:none;"/><path d="M364.796,233.983c0.77,1.392 1.069,1.262 0.888,2.811l-0.293,0.376c-0.119,-0.37 -1.466,-0.571 -0.936,-2.918c0.032,-0.141 0.309,-0.128 0.34,-0.269Z" style="fill:#23c1d8;fill-opacity:1;"/><path d="M411.036,281.015c-0.045,0.217 -1.423,6.888 -2.363,1.442c0,0 2.174,-1.327 2.363,-1.442Z" style="fill:#195aa4;fill-opacity:1;"/><path d="M504.496,223.906c0.084,0.763 0.169,1.526 0.253,2.288c-0.084,-0.763 -0.169,-1.526 -0.253,-2.288Z" style="fill:#137cd3;fill-opacity:0.99;"/><path d="M362.134,291.49c1.009,-0.091 2.018,-0.183 3.027,-0.274l-1.095,0.675c-0.978,0.012 -1.955,0.024 -2.933,0.036l1.001,-0.437Z" style="fill:#056593;fill-opacity:0.38;"/><path d="M441.98,256c0.785,0.659 1.993,0.288 1.135,0.952c-0.083,0.064 -0.72,0.558 -1.308,0.064c-0.263,-0.221 0.436,-0.795 0.173,-1.016Z" style="fill:#19bed9;fill-opacity:1;"/><path d="M357.709,288.306c0.124,0.601 1.296,0.571 1.42,1.172c0.018,0.088 -1.144,1.092 -1.449,-0.395c-0.052,-0.254 0.082,-0.523 0.029,-0.777Z" style="fill:#15aed8;fill-opacity:1;"/><path d="M361.134,291.927c0.978,-0.012 1.955,-0.024 2.933,-0.036c-1.438,0.551 -1.412,0.59 -2.933,0.036Z" style="fill:#025c84;fill-opacity:0.14;"/><path d="M453.122,293.501c1.005,-0.113 2.01,-0.226 3.015,-0.339c-1.481,0.441 -1.422,0.509 -3.015,0.339Z" style="fill:#0d7097;fill-opacity:0.36;"/><path d="M457.382,206.438l0.54,-0.452c0.095,0.659 0.189,1.318 0.284,1.977c-0.275,-0.508 -0.55,-1.017 -0.825,-1.525Z" style="fill:#117dd4;fill-opacity:1;"/><path d="M331.177,205.181c-0.272,1.224 -0.251,1.094 -0.78,2.133c0.26,-0.711 0.52,-1.422 0.78,-2.133Z" style="fill:#0c88d8;fill-opacity:1;"/><path d="M392.593,179.803l0.49,1.389l-0.719,-0.482l0.23,-0.907Z" style="fill:#3ccbdb;fill-opacity:1;"/></g><g><path d="M444.251,52.55c-0.428,0.357 -0.519,-0.384 -0.948,-0.025c-0.669,0.559 0.246,0.169 0.881,0.607c0.422,2.893 5.32,6.973 5.909,10.959c2.077,14.058 3.458,13.805 3.812,28.103c0.168,6.804 2.54,-2.571 2.616,-2.872c0.628,-2.48 12.569,-27.998 14.09,-29.788c3.394,-3.995 17.681,-3.445 16.371,-1.553c-0.061,0.088 -0,0 -1.02,0.866c-8.258,4.453 -7.958,18.156 -13.011,40.188c-2.742,11.955 0.623,11.55 2.722,13.43c4.183,3.745 -26.005,0.045 -13.762,4.003c1.92,0.621 3.002,0.97 25.211,0.56c22.009,1.169 41.416,-0.628 45.001,-0.96c0.33,-0.024 3.91,-0.279 4.015,-0.983c0.23,-1.533 -3.372,-1.309 -3.749,-1.34c-8.341,-4.977 -5.554,-7.018 -5.728,-16.787c-0.107,-6.004 3.06,-6.337 3.615,-3.924c0.503,2.186 -1.947,14.661 4.847,16.095c1.552,0.372 1.483,0.361 3.023,0.029c1.17,-0.303 1.127,-0.261 2.046,-0.996c11.605,-13.622 -27.688,-32.682 -2.25,-48.426c6.259,-3.874 16.007,-0.996 13.851,5.307c-0.18,0.527 -3.502,10.236 -4.768,5.079c-0.058,-0.235 1.993,-10.71 -5.081,-7.438c-14.192,6.566 9.513,23.74 8.322,39.406c-2.278,29.954 -60.695,13.962 -68.272,20.847c-14.39,13.076 -26.568,1.033 -28.17,-0.552c-2.139,-2.115 -34.085,-2.335 -19.638,2.599c5.474,1.87 -3.621,3.162 -4.029,3.22c-2.128,0.302 -3.214,12.537 -5.572,4.704c-1.176,-3.908 -1.449,-4.226 -5.463,-4.786c-5.706,-0.797 2.297,-3.816 0.707,-5.822c-1.807,-2.28 -12.421,-0.567 -79.701,-0.919c-8.502,-0.044 -8.389,0.795 -15.894,4.911c-15.228,8.352 -27.486,-5.599 -29.222,-14.19c-3.145,-15.557 -8.433,-59.06 -24.763,-51.729c-3.252,1.46 -6.714,8.546 1.034,14.548c9.293,7.2 -10.463,1.921 -8.845,-8.785c3.135,-20.744 38.449,-14.651 39.633,-18.082c1.571,-4.557 2.943,-2.237 3.051,-1.967c3.289,8.215 6.134,3.772 15.01,3.885c7.995,0.102 95.974,1.224 99.936,-0.979c1.424,-0.792 2.466,-6.746 4.471,-1.11c1.448,4.073 127.986,1.001 138.533,4.376c24.553,7.855 1.129,32.112 0.93,24.838c-0.001,-0.053 9.298,-10.453 3.774,-14.525c-0.994,-0.733 -6.924,-2.373 -10.419,5.612c-3.902,8.915 -3.062,20.542 -5.817,14.682c-2.087,-4.44 2.022,-22.189 10.758,-24.45c2.355,-0.61 4.504,-0.504 2.569,-1.997c-6.787,-5.235 -80.233,-1.663 -120.614,-3.87l-135.155,6.656c0.282,0.337 0.564,0.674 0.846,1.011c0.6,0.978 0.902,0.991 0.187,1.866c-4.264,1.616 -3.574,2.522 -4.131,6.988c-0.552,4.427 -2.446,3.989 -2.821,3.902c-1.631,-0.377 -0.831,-1.128 -1.251,-8.863c-0.124,-2.289 -4.553,-2.119 -8.832,-3.204c-0.163,-0.041 -3.14,-0.796 -0.683,1.993c11.27,12.794 9,48.961 11.859,40.35c6.961,-20.964 9.111,-34.17 9.605,-37.204c0.904,-5.552 -2.57,-8.42 -2.642,-8.87c-0.156,-0.962 10.082,0.437 10.951,0.556c0.26,0.036 4.655,0.636 2.592,2.007c-0.742,0.493 -4.702,3.125 -4.126,10.348c1.827,22.916 1.107,22.976 1.629,24.903c0.312,1.151 0.836,0.125 0.852,0.127l0.801,-0.155c4.216,-21.159 12.617,-29.556 9.216,-35.889c-1.802,-3.354 9.097,-2.466 9.262,-1.077c0.352,2.981 -3.409,1.784 -13.675,34.94c-4.469,14.433 -4.498,15.725 -4.53,17.143c-0.058,2.564 1.355,1.635 3.83,4.034c-0.849,0.78 -0.699,1.032 -1.88,1.043c-3.569,0.035 -14.755,-0.021 -16.038,-0.027c-6.195,-0.031 0.67,-3.139 0.916,-3.251c5.049,-2.286 3.891,-9.227 3.905,-9.773c-0.673,-1.991 -0.701,-1.971 -0.118,-4.046c0.14,-7.606 0.176,-7.501 0.164,-8.925c-0.085,-10.369 -1.402,6.987 -9.166,23.877c-3.295,7.168 9.287,3.532 83.319,4.17c2.507,0.085 54.259,-0.264 58.977,-0.296c1.675,-0.011 2.465,-1.072 -1.741,-20.865c-2.87,-13.505 -3.135,-30.948 -4.995,-16.879c-0.014,0.338 -0.028,0.675 -0.042,1.013c-5.692,28.76 -5.184,29.409 -3.237,30.961c0.197,0.157 3.685,2.938 1.032,2.974c-12.385,0.169 -12.886,0.043 -12.861,-0.988c0.05,-2.082 3.544,-0.562 4.72,-6.044c8.747,-40.763 13.166,-51.749 -4.85,-53.316c-2.835,-0.247 -1.908,5.115 -1.803,5.158c0.761,0.308 15.19,1.167 8.936,4.442c-2.555,1.338 -7.153,-0.145 -4.275,2.816c2.095,2.156 1.102,5.592 -1.839,2.872c-4.921,-4.552 -1.171,11.682 -4.025,10.024c-0.975,-0.566 -2.34,-12.01 -2.885,-5.923c-2.938,32.824 -7.827,34.832 -1.346,39.196c0.043,0.258 0.087,0.516 0.13,0.774c-0.2,0.27 0.918,0.436 0.718,0.706c-0.293,0.395 -4.252,0.363 -4.623,0.36c-2.076,-0.017 -17.664,1.123 -11.19,-2.331c1.751,-0.934 2.697,-1.439 6.812,-23.856c4.417,-24.064 7.011,-24.524 5.246,-25.652c-5.215,-3.335 -9.141,5.136 -9.519,5.951c-2.214,4.777 -3.63,0.178 -3.173,-2.178c2.754,-14.209 14.385,-7.281 15.522,-9.187c3.375,-5.658 -10.708,-3.856 -16.697,-3.793c-6.961,0.074 -83.235,0.88 -87.013,0.09c-0.678,-0.142 -7.591,-1.588 -8.664,0.087c-2.24,3.496 -1.062,4.147 2.644,5.91l135.155,-6.656l-82.064,34.578c0.32,-1.985 -2.199,9.587 -0.941,3.949c-0.738,-1.315 -0.702,-1.964 -2.172,-1.243c-2.397,1.176 -4.274,-0.829 -5.802,4.271c-1.666,5.564 -2.688,5.086 -3.074,4.838c-1.631,-1.05 -0.833,-5.828 -2.232,-6.649c-0.259,-0.152 -10.294,-3.265 -0.965,-5.659c5.7,-1.463 3.737,-14.962 7.009,-8.49c0,0 -0.103,7.183 1.267,7.577c2.516,0.724 6.353,1.318 6.91,1.404l82.064,-34.578Z" style="fill:#d23796;fill-opacity:0.97;"/><path d="M373.378,81.129l-0.034,2.013c-4.886,26.865 -3.955,27.464 -2.018,28.709c0.15,0.096 0.139,0.088 1.881,1.191l-0.168,0.981c-2.923,0.661 -2.851,0.275 -5.909,0.29c-5.99,0.029 -12.305,1.808 -7.542,-1.813c2.645,-2.011 2.722,-4.739 3.516,-7.416c0.096,-0.377 3.151,-12.378 -0.702,-4.815c-0.146,0.287 -0.094,0.283 -1.267,3.819c-8.263,17.873 -27.491,13.33 -28.316,-2.982c-0.497,-9.833 3.332,-44.629 23.346,-42.371c20.248,2.284 6.336,29.431 9.987,29.464c1.161,0.011 7.155,-21.715 2.914,-26.066c-5.014,-5.144 1.832,-2.95 9.048,-3.321c0.59,-0.03 6.54,-1.541 3.937,2.227c-2.103,3.044 3.588,17.109 4.698,28.167c0.043,0.429 1.391,13.866 2.341,4.859c2.888,-27.409 8.696,-28.839 2.524,-34.383c-2.712,-2.436 13.278,-3.231 12.585,-1.642c-1.301,2.984 -2.599,2.129 -3.69,5.19c-0.038,0.106 -11.29,42.722 -8.946,46.641c1.099,1.838 5.861,2.72 1.816,4.67c-0.795,0.383 -2.93,-0.212 -3.27,-0.223c-6.109,0.004 -15.98,1.163 -11.035,-2.298c3.854,-2.697 0.511,-8.957 0.166,-10.954c-1.609,-9.306 -1.561,-9.187 -3.633,-18.384c0.073,-0.512 0.146,-1.023 0.219,-1.535c-0.063,-0.425 -0.941,-6.321 -2.316,-4.84c-0.262,0.283 -0.01,0.35 -0.133,4.819l-11.191,5.999c0.32,-1.985 3.471,-21.515 -5.918,-24.425c-13.669,-4.237 -19.625,40.119 -12.925,45.199c10.267,7.784 16.645,-11.188 17.902,-16.825c-0.738,-1.315 -0.702,-1.964 -2.172,-1.243c-2.397,1.176 -4.274,-0.829 -5.802,4.271c-1.666,5.564 -2.688,5.086 -3.074,4.838c-1.631,-1.05 -0.833,-5.828 -2.232,-6.649c-0.259,-0.152 -10.294,-3.265 -0.965,-5.659c5.7,-1.463 3.737,-14.962 7.009,-8.49c0,0 -0.103,7.183 1.267,7.577c2.516,0.724 6.353,1.318 6.91,1.404l11.191,-5.999Z" style="fill:#d33797;fill-opacity:0.98;"/><path d="M524.418,98.006l-0.005,1.026c-0.132,3.622 1.549,9.402 -6.082,14.373c-2.497,1.627 -13.248,3.283 -16.962,-2.479c-6.417,-9.956 1.765,-27.399 1.876,-13.843c0.142,17.401 16.029,14.146 13.496,4.097c-4.066,-16.131 -21.089,-26.341 -5.631,-41.117c3.679,-3.516 20.113,-8.074 15.003,11.014c-0.434,1.623 -2.732,1.846 -3.031,0.023c-2.942,-17.946 -10.504,-5.4 -10.597,-2.996c-0.343,8.9 9.874,12.318 11.934,29.904Z" style="fill:#d23696;fill-opacity:0.98;"/><path d="M489.291,58.996c0.747,-1.868 0.631,-2.001 0.804,-2.011c0.721,-0.041 0.663,0.241 9.032,-0.01c0.479,-0.014 9.649,-0.29 5.703,1.825c-0.689,0.369 -1.55,0.344 -2.228,0.733c-4.274,2.459 -9.979,45.799 -8.374,50.506c0.253,0.742 3.015,1.909 3.401,2.934c1.021,2.711 -1.203,1.243 -6.466,1.392l-2.037,-0.1l-2.026,0.035c-7.346,0.428 -7.944,0.096 -7.788,-1.16c0.205,-1.65 4.204,0.289 5.536,-10.1c4.492,-35.026 9.079,-39.619 4.442,-44.044Z" style="fill:#d23796;fill-opacity:0.97;"/><path d="M458.642,96.888c2.242,-5.107 2.158,-5.09 10.834,-26.596c0.97,-2.405 2.708,-1.567 2.362,-0.246c-0.53,2.022 -2.606,3.45 -8.784,38.02c-0.438,2.449 -3.747,5.256 -5.135,1.101c-1.73,-5.182 -1.855,-6.305 0.722,-12.279Z" style="fill:#090206;fill-opacity:0.01;"/><path d="M362.187,87.128c0.256,2.099 0.198,2.074 -0.941,3.949c-0.738,-1.315 -0.702,-1.964 -2.172,-1.243c-2.397,1.176 -4.274,-0.829 -5.802,4.271c-1.666,5.564 -2.688,5.086 -3.074,4.838c-1.631,-1.05 -0.833,-5.828 -2.232,-6.649c-0.259,-0.152 -10.294,-3.265 -0.965,-5.659c5.7,-1.463 3.737,-14.962 7.009,-8.49c0,0 -0.103,7.183 1.267,7.577c2.516,0.724 6.353,1.318 6.91,1.404Z" style="fill:#d13596;fill-opacity:0.95;"/><path d="M295.152,52.54c3.843,0.232 5.089,-1.21 6.145,2.503c1.622,5.702 -4.467,0.636 -21.242,1.397c-22.248,1.01 13.86,-3.738 15.097,-3.901Z" style="fill:#0e0309;fill-opacity:0.02;"/><path d="M471.133,121.403c5.564,-0.356 5.528,-0.363 6.009,-0.385c7.823,-0.357 -5.081,5.086 -16.86,1.779c-7.108,-1.995 9.976,-1.424 10.851,-1.394Z" style="fill:#a92771;fill-opacity:0.16;"/><path d="M308.211,121.275c8.704,0.315 11.442,0.104 16.926,-0.231c-0.039,1.769 -0.31,1.773 -1.999,2.065c-1.175,0.203 -9.444,1.632 -14.9,-0.174c-0.945,-0.313 -0.2,-0.626 -0.279,-0.871l0.251,-0.789Z" style="fill:#aa256f;fill-opacity:0.18;"/><path d="M361.135,104.087c1.173,-3.536 1.121,-3.532 1.267,-3.819c3.853,-7.563 0.798,4.437 0.702,4.815c-0.656,-0.332 -1.313,-0.664 -1.969,-0.995Z" style="fill:#b42b79;fill-opacity:0.31;"/><path d="M532.39,113.745c0.377,0.031 3.979,-0.193 3.749,1.34c-0.105,0.704 -3.685,0.959 -4.015,0.983c0.089,-0.774 0.177,-1.549 0.266,-2.323Z" style="fill:#bd2479;fill-opacity:0.21;"/><path d="M314.819,98.06l0.118,4.046c-0.673,-1.991 -0.701,-1.971 -0.118,-4.046Z" style="fill:#b72268;fill-opacity:0.29;"/><path d="M540.194,108.161c-0.92,0.735 -0.876,0.693 -2.046,0.996l-1.017,-0.052c1.021,-0.315 2.042,-0.63 3.063,-0.944Z" style="fill:#a11948;fill-opacity:0.22;"/><path d="M535.124,109.129l2.006,-0.023l1.017,0.052c-1.539,0.332 -1.471,0.344 -3.023,-0.029Z" style="fill:#a02a71;fill-opacity:0.2;"/><path d="M309.942,60.217c0.6,0.978 0.902,0.991 0.187,1.866c-0.062,-0.622 -0.125,-1.244 -0.187,-1.866Z" style="fill:#b61b91;fill-opacity:0.32;"/><path d="M489.126,114.265l2.037,0.1c-1.067,0.311 -1.003,0.164 -2.037,-0.1Z" style="fill:#cb156c;fill-opacity:0.38;"/><path d="M373.378,81.129c0.184,1.057 0.283,1.001 -0.034,2.013l0.034,-2.013Z" style="fill:#9c2269;fill-opacity:0.37;"/><path d="M444.251,52.55l-0.067,0.581c-0.635,-0.437 -1.551,-0.047 -0.881,-0.607c0.429,-0.358 0.52,0.383 0.948,0.025Z" style="fill:#a81c80;fill-opacity:0.41;"/></g></g><ellipse cx="417.973" cy="-11.161" rx="90.862" ry="29.351"/><circle cx="417.973" cy="9.068" r="12.872" style="fill:#e6d5dd;"/><rect x="241.997" y="331.986" width="351.952" height="42.136" style="fill:#fbb822;"/><circle cx="417.973" cy="353.054" r="11.682" style="fill:#e3d4da;"/><rect x="241.997" y="374.122" width="351.952" height="62.345" style="fill:#fdc53f;"/><rect x="316.124" y="331.986" width="17.597" height="45.944" style="fill:#fdc53f;"/><rect x="502.225" y="331.986" width="17.597" height="45.944" style="fill:#fdc53f;"/><path d="M546.926,374.122c2.338,25.594 17.357,40.049 47.023,41.641" style="fill:none;stroke:#eab73b;stroke-width:2.46px;"/><path d="M289.02,374.122c-2.338,25.594 -17.357,40.049 -47.023,41.641" style="fill:none;stroke:#eab73b;stroke-width:2.46px;"/><path d="M593.949,436.467l6.196,52.986c0,0 -89.071,10.249 -182.172,10.249c-96.388,0 -182.172,-10.249 -182.172,-10.249l6.196,-52.986l351.952,0Z" style="fill:#fdc53f;"/><rect x="400.349" y="331.986" width="3.075" height="167.554" style="fill:#eab73b;"/><path d="M401.887,442.761c22.157,-0.138 20.313,4.8 20.295,-68.64" style="fill:none;stroke:#eab73b;stroke-width:2.08px;"/><path d="M409.481,398.922c2.583,2.53 2.625,6.681 0.095,9.264l-7.122,7.27c-2.53,2.583 -6.681,2.625 -9.264,0.095c-2.583,-2.53 -2.625,-6.681 -0.095,-9.264l7.122,-7.27c2.53,-2.583 6.681,-2.625 9.264,-0.095Z" style="fill:none;stroke:#e6d5dd;stroke-width:4.48px;stroke-linecap:round;stroke-linejoin:miter;"/><path d="M397.381,413.237c1.91,3.07 0.969,7.113 -2.101,9.023l-8.641,5.377c-3.07,1.91 -7.113,0.969 -9.023,-2.101c-1.91,-3.07 -0.969,-7.113 2.101,-9.023l8.641,-5.377c3.07,-1.91 7.113,-0.969 9.023,2.101Z" style="fill:none;stroke:#e6d5dd;stroke-width:4.48px;stroke-linecap:round;stroke-linejoin:miter;"/><path d="M381.308,425.252c1.387,3.339 -0.198,7.176 -3.537,8.563l-9.399,3.904c-3.339,1.387 -7.176,-0.198 -8.563,-3.537c-1.387,-3.339 0.198,-7.176 3.537,-8.563l9.399,-3.904c3.339,-1.387 7.176,0.198 8.563,3.537Z" style="fill:none;stroke:#e6d5dd;stroke-width:4.48px;stroke-linecap:round;stroke-linejoin:miter;"/><path d="M363.361,432.764c1.29,3.377 -0.404,7.167 -3.782,8.457l-9.507,3.632c-3.377,1.29 -7.167,-0.404 -8.457,-3.782c-1.29,-3.377 0.404,-7.167 3.782,-8.457l9.507,-3.632c3.377,-1.29 7.167,0.404 8.457,3.782Z" style="fill:none;stroke:#e6d5dd;stroke-width:4.48px;stroke-linecap:round;stroke-linejoin:miter;"/><path d="M345.112,440.409c1.026,3.467 -0.955,7.114 -4.422,8.141l-9.759,2.889c-3.467,1.026 -7.114,-0.955 -8.141,-4.422c-1.026,-3.467 0.955,-7.114 4.422,-8.141l9.759,-2.889c3.467,-1.026 7.114,0.955 8.141,4.422Z" style="fill:none;stroke:#e6d5dd;stroke-width:4.48px;stroke-linecap:round;stroke-linejoin:miter;"/><path d="M325.476,446.639c0.492,3.582 -2.016,6.889 -5.598,7.381l-10.082,1.385c-3.582,0.492 -6.889,-2.016 -7.381,-5.598c-0.492,-3.582 2.016,-6.889 5.598,-7.381l10.082,-1.385c3.582,-0.492 6.889,2.016 7.381,5.598Z" style="fill:none;stroke:#e6d5dd;stroke-width:4.48px;stroke-linecap:round;stroke-linejoin:miter;"/><path d="M306.213,449.915c0.192,3.61 -2.583,6.698 -6.193,6.89l-10.163,0.541c-3.61,0.192 -6.698,-2.583 -6.89,-6.193c-0.192,-3.61 2.583,-6.698 6.193,-6.89l10.163,-0.541c3.61,-0.192 6.698,2.583 6.89,6.193Z" style="fill:none;stroke:#e6d5dd;stroke-width:4.48px;stroke-linecap:round;stroke-linejoin:miter;"/><path d="M285.736,450.487c-0.355,3.598 -3.564,6.231 -7.162,5.877l-10.128,-0.998c-3.598,-0.355 -6.231,-3.564 -5.877,-7.162c0.355,-3.598 3.564,-6.231 7.162,-5.877l10.128,0.998c3.598,0.355 6.231,3.564 5.877,7.162Z" style="fill:none;stroke:#e6d5dd;stroke-width:4.48px;stroke-linecap:round;stroke-linejoin:miter;"/><path d="M264.681,448.744c-1.14,3.431 -4.851,5.291 -8.282,4.151l-9.658,-3.209c-3.431,-1.14 -5.291,-4.851 -4.151,-8.282c1.14,-3.431 4.851,-5.291 8.282,-4.151l9.658,3.209c3.431,1.14 5.291,4.851 4.151,8.282Z" style="fill:none;stroke:#e6d5dd;stroke-width:4.48px;stroke-linecap:round;stroke-linejoin:miter;"/><path d="M413.921,379.468c3.462,0.753 5.661,4.176 4.908,7.638l-2.219,10.2c-0.753,3.462 -4.176,5.661 -7.638,4.908c-3.462,-0.753 -5.661,-4.176 -4.908,-7.638l2.219,-10.2c0.753,-3.462 4.176,-5.661 7.638,-4.908Z" style="fill:none;stroke:#e6d5dd;stroke-width:4.48px;stroke-linecap:round;stroke-linejoin:miter;"/><path d="M416.062,362.132c3.312,0.417 5.662,3.445 5.245,6.757l-1.11,8.812c-0.417,3.312 -3.445,5.662 -6.757,5.245c-3.312,-0.417 -5.662,-3.445 -5.245,-6.757l1.11,-8.812c0.417,-3.312 3.445,-5.662 6.757,-5.245Z" style="fill:none;stroke:#e6d5dd;stroke-width:4.48px;stroke-linecap:round;stroke-linejoin:miter;"/><g><path d="M532.109,411.07c-2.035,2.531 -0.334,6.942 1.018,7.023c3.594,0.215 1.464,-2.446 3.988,-5.102c0.534,0.431 1.069,0.863 1.603,1.294c2.263,9.994 -3.428,7.199 -7.217,8.938c-0.514,-1.117 -0.592,-1.019 -0.989,-2.149c-1.453,-4.136 -1.837,-4.061 -2.194,-3.991c-1.474,0.287 -0.77,7.849 1.811,8.752c0.118,0.041 0.112,0.032 1.509,0.429c1.985,2.935 1.245,3.161 0.703,6.623c-0.503,0.84 -0.84,0.424 -1.302,1.196c-0.04,0.067 -0.046,0.077 0.003,0.975c0.104,1.908 -0.229,1.75 -0.941,3.281l-0.987,-0.052c-0.189,-2.247 0.064,-3.505 -2.045,-2.66c-0.455,0.182 -0.603,0.838 -1.058,1.021c-7.572,5.214 -5.169,10.575 -4.902,12.439c0.12,0.836 -0.295,4.621 -0.339,5.022c0.296,1.02 0.593,2.039 0.889,3.059c0.688,2.435 0.622,2.413 0.452,4.917c-0.179,2.648 -0.471,2.655 0.568,5.061c1.292,11.934 1.321,11.907 1.341,12.948c0.059,3.088 0.605,2.908 1.112,5.99c-0.048,1.337 -0.096,2.674 -0.143,4.01l-0.016,0.993c-0.189,3.606 1.863,7.275 2.181,7.844c-0.339,0.789 -1.687,0.804 -2.025,1.594c-0.067,0.155 -0.345,0.803 1.986,0.718c3.002,-0.11 3.129,-0.153 4.968,-2.57c9.21,-0.896 9.186,-0.957 9.987,-1.022c2.856,1.515 2.883,1.824 6.059,1.01c0.767,-0.196 0.935,-0.077 1,-0.031c0.88,0.623 0.343,0.983 1.157,1.56c-3.207,3.929 -15.394,3.167 -23.127,4.242c-2.188,0.304 -7.517,-2.727 -4.717,-4.952c1.339,-1.064 1.381,-1.422 -0.737,-21.364c-0.256,-2.408 -3.029,-28.525 -3.363,-30.079c-1.281,-5.951 3.641,-12.394 6.943,-13.682c0.548,-0.213 1.354,0.022 1.705,-0.449c0.332,-0.445 -0.464,-1.215 -0.132,-1.66c-3.698,-3.945 2.69,-9.193 -2.745,-8.489c-11.541,1.496 -5.969,-11.98 -4.699,-8.037c1.946,6.04 4.76,3.113 4.613,1.374c-0.219,-2.589 0.224,-2.654 -1.123,-4.795c2.754,-5.125 4.928,-3.899 5.381,-3.644c1.881,1.06 4.032,1.013 4.332,1.487c0.189,0.299 -0.698,0.632 -0.509,0.931Z" style="fill:#db7a06;fill-opacity:0.95;"/><path d="M530.067,400.117c0.568,-0.111 1.136,-0.223 1.704,-0.334c0.25,-0.53 2.659,-5.642 3.612,-6.364c15.401,-11.671 21.947,14.529 5.731,18.877c-1.002,-0.819 -1.147,-0.628 -1.615,-1.939c0.617,-0.518 5.366,-4.503 5.775,-8.256c1.202,-11.04 -15.142,1.66 -13.306,6.076c0.587,1.412 0.706,1.396 0.142,2.895c-0.189,-0.299 0.698,-0.632 0.509,-0.931c-0.3,-0.474 -2.451,-0.426 -4.332,-1.487c-0.453,-0.255 -2.627,-1.481 -5.381,3.644c-1.322,-1.332 -1.19,-1.45 -0.838,-3.223c0.838,-4.222 -18.926,-14.421 -13.823,-2.048c1.542,3.739 10.369,7.327 5.923,8.188c-5.668,1.098 -18.574,-11.564 -9.268,-19.41c6.992,-5.895 14.365,3.414 15.148,4.404c1.137,1.435 1.055,1.406 2.095,2.865c0.444,0.588 0.325,0.595 0.849,1.124c2.041,2.058 2.114,-0.23 2.515,-0.274c0.565,0.004 1.148,2.068 2.839,-0.653c0.686,-1.103 1.591,-2.896 1.72,-3.153Z" style="fill:#e9760b;fill-opacity:0.96;"/><path d="M526.012,436.647c1.101,2.615 1.169,2.519 1.247,3.319c0.045,0.111 0.56,1.385 0.56,1.385c1.768,2.449 2.108,0.094 2.3,-0.009c0.568,-0.628 1.136,-1.256 1.705,-1.884c0.262,1.36 0.183,1.402 0.283,1.469c2.612,1.76 -0.329,-5.139 2.04,-5.02c2.805,0.141 2.417,0.926 4.396,2.855c-0.545,0.107 -0.742,0.952 -1.287,1.059c-0.405,0.08 -0.682,-0.665 -1.089,-0.592c-0.479,0.086 -0.786,0.842 -0.823,0.935c-0.885,2.186 0.914,3.02 0.94,3.108c-0.419,0.579 -0.838,1.157 -1.257,1.736c-1.875,-0.119 -3.587,-0.468 -3.895,-0.531c-0.631,2.157 -0.775,2.156 -0.68,2.325c0.238,0.424 0.594,0.2 0.548,1.318c-0.012,0.293 -0.184,4.476 2.135,2.978c1.533,-0.99 0.579,-1.721 1.985,-2.948c1.77,-1.545 1.422,4.43 1.399,4.831c-0.128,2.194 -2.194,3.21 0.629,4.508c1.882,8.72 1.777,8.709 2.398,10.506c-1.053,3.445 -0.741,3.403 -1.095,6.031c-1.085,4.065 -0.333,4.063 0.14,5.295c0.523,1.362 -0.818,1.437 -0.153,2.765c0.383,0.766 0.752,0.356 1.107,1.07c0.254,0.511 -0.343,0.468 -0.108,0.942l-0.307,0.988c-0.049,0.24 -0.614,3 -0.614,3c0.148,0.738 1.181,0.392 0.9,3c-0.037,0.343 -0.04,0.739 -0.265,1c-0.621,0.72 -0.914,0.24 -1.462,1.003c-0.326,0.454 0.371,0.516 0.047,0.968c-3.043,-24.596 -2.653,-30.393 -4.566,-33.097c-0.777,-0.586 -1.554,-1.171 -2.332,-1.757l-0.601,-1.22c-2.315,-2.543 -2.673,-1.983 -4.332,-2.871c-0.003,-0.426 0.734,-2.475 -1.963,-4.628c-1.387,2.066 -1.122,2.231 -3.172,3.624c0.044,-0.4 0.459,-4.186 0.339,-5.022c-0.267,-1.864 -2.671,-7.224 4.902,-12.439Z" style="fill:#9b0f1d;fill-opacity:0.99;"/><path d="M528.469,386.85c-1.596,2.411 -2.045,2.316 -1.669,5.286c0.608,4.789 1.044,4.865 1.377,4.664c1.88,-1.134 1.786,0.241 2.285,0.309c-0.132,1.003 -0.264,2.005 -0.396,3.008c-0.129,0.257 -1.034,2.05 -1.72,3.153c-1.691,2.72 -2.274,0.657 -2.839,0.653c-1.575,-2.683 -1.508,-2.65 -3.659,-4.78c-0.041,-0.087 -2.504,-2.097 -1.938,-8.073c0.271,-2.858 0.311,-2.809 1.811,-5.181c2.225,-3.517 -2.794,-3.07 -2.8,-9.815c-0.007,-8.094 10.837,-7.501 9.456,3.031c-0.437,3.335 -2.995,3.706 0.091,7.745l-3.187,-10.801c-1.444,-4.033 -3.82,-1.145 -3.184,2.044c0.059,0.297 3.494,4.68 3.184,-2.044l3.187,10.801Z" style="fill:#e87c0a;fill-opacity:0.96;"/><path d="M532.342,432.887c2.387,0.966 7.537,1.489 10.58,8.28c0.819,1.829 0.553,1.87 3.643,29.886c2.657,24.084 1.859,24.996 3.853,25.538c2.513,0.683 1.757,1.805 -0.131,3.598c-0.814,-0.577 -0.278,-0.937 -1.157,-1.56c-0.065,-0.046 -0.233,-0.166 -1,0.031c-3.177,0.814 -3.203,0.505 -6.059,-1.01c4.554,-0.719 4.638,-0.583 4.861,-0.91c0.36,-0.526 -0.308,-3.448 -0.375,-3.741c-0.121,-1.31 -0.241,-2.62 -0.362,-3.93l-0.006,-0.99c0.095,-4.578 -0.863,-4.441 -0.993,-9.006l-0.007,-1.99c-0.207,-0.943 -1.06,-4.83 -1.277,-12l-0.424,-1.052c-1.275,-15.652 -2.028,-18.338 -2.46,-19.881c-0.179,-3.072 -0.504,-2.989 -2.485,-5.389c-1.978,-1.929 -1.59,-2.714 -4.396,-2.855c-2.369,-0.119 0.571,6.78 -2.04,5.02c-0.099,-0.067 -0.021,-0.109 -0.283,-1.469c-0.721,-0.784 -0.738,-0.622 -1.721,-1.118c0.712,-1.531 1.045,-1.373 0.941,-3.281c-0.049,-0.898 -0.043,-0.908 -0.003,-0.975c0.462,-0.772 0.799,-0.356 1.302,-1.196Z" style="fill:#dd9108;fill-opacity:0.99;"/><path d="M533.3,480.049c0.06,1.12 0.465,8.651 1.277,13.964c0.255,1.669 2.771,1.248 3.108,0.993c0.253,-0.192 -0.201,-0.76 0.052,-0.952c0.325,-0.452 -0.373,-0.514 -0.047,-0.968c0.547,-0.763 0.841,-0.283 1.462,-1.003c0.225,-0.261 0.229,-0.657 0.265,-1c0.28,-2.608 -0.753,-2.262 -0.9,-3c0,0 0.564,-2.76 0.614,-3l1.263,0.614c0.371,0.787 0.742,1.573 1.113,2.36l-0.056,0.945c-0.151,0.664 -0.303,1.327 -0.454,1.991c-0.347,2.66 -0.421,4.085 2.157,3.111c0.51,0.101 0.455,-0.136 0.973,-0.034c2.367,0.468 1.838,-0.809 2.431,-1.07c0.067,0.293 0.735,3.215 0.375,3.741c-0.223,0.327 -0.308,0.191 -4.861,0.91c-0.8,0.065 -0.777,0.126 -9.987,1.022c-2.466,0.19 -2.368,0.24 -4.929,0.258c-0.318,-0.568 -2.369,-4.238 -2.181,-7.844c4.253,1.302 4.377,-0.059 4.683,-0.154c0.074,-1.485 -0.174,-1.39 -0.936,-2.657c0.689,-0.46 -0.38,-0.962 0.363,-1.457c0.671,-0.448 0.693,0.965 1.248,0.383c0,0 0.647,-2.865 0.704,-3.114c0.377,-1.495 0.554,-1.379 2.264,-4.038Z" style="fill:#911411;fill-opacity:0.99;"/><path d="M531.13,444.475c0.308,0.063 2.02,0.412 3.895,0.531c0.039,0.037 1.28,3.045 3.188,1.142c0.181,-0.18 0.163,-0.171 2.199,-2.307l0.614,0.309c0.433,1.543 1.185,4.229 2.46,19.881c-1.553,-2.875 -2.523,-2.077 -4.043,-5.026c0,-0 -1.314,-1.866 -1.428,-2.029l-0.868,0.51c-2.823,-1.298 -0.757,-2.314 -0.629,-4.508c0.023,-0.402 0.371,-6.376 -1.399,-4.831c-1.406,1.227 -0.453,1.958 -1.985,2.948c-2.319,1.498 -2.147,-2.685 -2.135,-2.978c0.046,-1.118 -0.31,-0.893 -0.548,-1.318c-0.095,-0.169 0.049,-0.168 0.68,-2.325Z" style="fill:#dc436a;fill-opacity:0.99;"/><path d="M533.171,460.957c1.913,2.704 1.523,8.501 4.566,33.097c-0.253,0.192 0.201,0.76 -0.052,0.952c-0.337,0.256 -2.853,0.676 -3.108,-0.993c-0.812,-5.313 -1.217,-12.844 -1.277,-13.964c-0.183,-1.5 -2.125,-17.411 -1.13,-18.861c0.194,-0.282 0.808,0.051 1.001,-0.231Z" style="fill:#c71f30;fill-opacity:0.99;"/><path d="M530.839,459.201c0.777,0.586 1.554,1.171 2.332,1.757c-0.194,0.282 -0.808,-0.051 -1.001,0.231c-0.994,1.45 0.947,17.36 1.13,18.861c-1.709,2.659 -1.887,2.542 -2.264,4.038c-0.64,-0.299 -1.28,-0.598 -1.921,-0.897c-0.127,-0.718 -0.253,-1.437 -0.38,-2.155c0.024,-0.988 0.047,-1.975 0.071,-2.963c1.542,-3.613 2.66,-6.32 0.2,-7.553c-1.25,-0.627 -0.834,-0.927 -1.355,-2.503c-0.014,-0.201 0.508,-2.014 -1.651,-4.833l1.198,-1.059c1.345,1.318 1.899,1.533 2.775,-0.168l0.865,-2.756Z" style="fill:#89120b;fill-opacity:0.99;"/><path d="M522.681,467.144c0.188,0.24 1.495,1.914 2.48,2.893l0.937,0.609c0.083,0.356 0.725,3.122 1.359,4.359c0.504,0.984 -0.471,0.633 -0.503,0.654c-0.255,0.167 -1.021,1.24 -0.978,1.273c0.194,0.148 0.21,0.084 2.83,1.139c-0.024,0.988 -0.047,1.975 -0.071,2.963c-0.25,0.429 -1.356,2.331 -3.603,5.048c-0.506,-3.082 -1.052,-2.902 -1.112,-5.99c-0.02,-1.041 -0.048,-1.014 -1.341,-12.948Z" style="fill:#a81c19;fill-opacity:0.99;"/><path d="M537.147,457.486l0.868,-0.51c0.114,0.162 1.428,2.029 1.428,2.029c1.52,2.949 2.49,2.15 4.043,5.026l0.424,1.052c-2.02,1.642 -1.119,2.473 -3.41,3.713c-0.318,-0.268 -0.636,-0.536 -0.954,-0.804c-0.621,-1.797 -0.517,-1.786 -2.398,-10.506Z" style="fill:#cf2718;fill-opacity:0.99;"/><path d="M528.469,386.85c2.712,4.915 2.949,5.044 1.993,10.258c-0.499,-0.067 -0.405,-1.442 -2.285,-0.309c-0.333,0.201 -0.769,0.125 -1.377,-4.664c-0.377,-2.97 0.072,-2.874 1.669,-5.286Z" style="fill:#f0a124;fill-opacity:0.96;"/><path d="M540.711,473.124c2.597,2.942 4.056,3.731 4.476,3.958l0.007,1.99c-2.051,1.85 -2.092,1.693 -3.871,3.793l-1.682,0.048c0.153,-0.533 1.539,-5.371 0.951,-6.869c-0.295,-0.75 -1.403,-0.971 -1.698,-1.721c0.525,-0.377 0.59,-0.056 1.124,-0.439c0.067,-0.048 0,0 0.692,-0.761Z" style="fill:#b7221b;fill-opacity:0.99;"/><path d="M540.5,468.796c2.291,-1.24 1.39,-2.071 3.41,-3.713c0.217,7.169 1.07,11.057 1.277,12c-0.421,-0.227 -1.879,-1.016 -4.476,-3.958c0.037,-2.132 -0.172,-3.984 -0.211,-4.328Z" style="fill:#a01a0f;fill-opacity:0.99;"/><path d="M521.66,457.165c0.573,-0.152 0.864,-0.894 1.437,-1.046c0,0 0.954,0.842 1.036,0.915c0.443,0.657 0.885,1.315 1.328,1.972c0.516,1.807 0.624,1.691 1.738,3.116l-1.198,1.059c-0.343,0.014 -0.472,-0.645 -0.816,-0.631c-0.699,0.028 -1.513,3.335 -1.537,3.375c-0.268,0.443 -0.699,0.774 -0.967,1.218c-1.039,-2.406 -0.747,-2.413 -0.568,-5.061c0.169,-2.504 0.236,-2.483 -0.452,-4.917Z" style="fill:#9f1a0e;fill-opacity:0.99;"/><path d="M545.195,479.072c0.13,4.565 1.088,4.428 0.993,9.006c-2.136,-2.294 -2.078,-2.333 -2.307,-2.477c-0.525,-0.33 -0.188,0.253 -0.66,0.698c-0.909,0.858 -0.83,0.85 -1.715,1.757c-0.371,-0.787 -0.742,-1.573 -1.113,-2.36c0.355,-0.376 1.058,-0.267 1.414,-0.643c0.77,-0.815 0.144,-0.838 -0.482,-2.189c1.778,-2.1 1.82,-1.943 3.871,-3.793Z" style="fill:#9e1a10;fill-opacity:0.99;"/><path d="M528.736,481.035c0.127,0.718 0.253,1.437 0.38,2.155c0.64,0.299 1.28,0.598 1.921,0.897c-0.056,0.249 -0.704,3.114 -0.704,3.114c-0.555,0.582 -0.576,-0.831 -1.248,-0.383c-0.743,0.495 0.326,0.997 -0.363,1.457c-2.164,0.093 -1.906,0.678 -3.732,1.818c0.048,-1.337 0.096,-2.674 0.143,-4.01c2.246,-2.717 3.353,-4.619 3.603,-5.048Z" style="fill:#a11a11;fill-opacity:0.99;"/><path d="M527.653,468.016c0.521,1.576 0.104,1.876 1.355,2.503c2.459,1.233 1.342,3.94 -0.2,7.553c-2.621,-1.055 -2.636,-0.991 -2.83,-1.139c-0.043,-0.033 0.722,-1.106 0.978,-1.273c0.032,-0.021 1.007,0.329 0.503,-0.654c-0.634,-1.237 -1.276,-4.004 -1.359,-4.359c0.372,-0.514 0.743,-1.028 1.115,-1.541l0.439,-1.089Z" style="fill:#ad1f15;fill-opacity:0.99;"/><path d="M526.001,463.183c2.159,2.819 1.637,4.632 1.651,4.833l-0.439,1.089c-0.964,0.979 -0.931,1.013 -1.041,1.058c-0.517,0.211 -0.462,-0.35 -1.011,-0.126c-0.985,-0.978 -2.292,-2.652 -2.48,-2.893c0.268,-0.443 0.699,-0.774 0.967,-1.218c0.024,-0.04 0.838,-3.346 1.537,-3.375c0.343,-0.014 0.472,0.645 0.816,0.631Z" style="fill:#dd2f1c;fill-opacity:0.99;"/><path d="M523.943,450.482c2.697,2.153 1.96,4.201 1.963,4.628c-0.591,0.642 -1.182,1.284 -1.773,1.925c-0.083,-0.073 -1.036,-0.915 -1.036,-0.915c-0.573,0.152 -0.864,0.894 -1.437,1.046c-0.296,-1.02 -0.593,-2.039 -0.889,-3.059c2.05,-1.393 1.786,-1.558 3.172,-3.624Z" style="fill:#d6281b;fill-opacity:0.99;"/><path d="M525.907,455.11c1.659,0.888 2.017,0.328 4.332,2.871c-0.344,0.805 -0.912,0.214 -1.259,1.025c-0.067,0.158 -0.457,1.07 -0.095,2.144c0.144,0.428 0.945,0.378 1.09,0.806c-0.876,1.7 -1.43,1.486 -2.775,0.168c0.033,-0.668 0.145,-1.331 0.178,-1.999c0.198,-3.996 -1.751,-1.205 -1.917,-1.118c-0.443,-0.657 -0.885,-1.315 -1.328,-1.972c0.591,-0.642 1.182,-1.284 1.773,-1.925Z" style="fill:#96170d;fill-opacity:0.99;"/><path d="M531.502,423.223c-0.09,0.935 0.111,2.799 0.137,3.041c-1.398,-0.397 -1.391,-0.387 -1.509,-0.429c-2.581,-0.904 -3.285,-8.465 -1.811,-8.752c0.358,-0.07 0.741,-0.144 2.194,3.991c0.397,1.13 0.475,1.032 0.989,2.149Z" style="fill:#f38110;fill-opacity:0.99;"/><path d="M541.45,489.002c2.231,1.245 2.306,0.765 4.744,0.067c0.121,1.31 0.241,2.62 0.362,3.93c-0.592,0.261 -0.064,1.538 -2.431,1.07c-0.517,-0.102 -0.463,0.135 -0.973,0.034c-0.719,-1.037 -1.438,-2.074 -2.157,-3.111c0.151,-0.664 0.303,-1.327 0.454,-1.991Z" style="fill:#96181a;fill-opacity:0.99;"/><path d="M538.542,438.76c1.981,2.401 2.306,2.318 2.485,5.389l-0.614,-0.309c-1.843,-1.372 -1.942,-1.228 -4.129,-0.571c-0.027,-0.089 -1.825,-0.922 -0.94,-3.108c0.037,-0.092 0.344,-0.849 0.823,-0.935c0.407,-0.073 0.683,0.672 1.089,0.592c0.545,-0.107 0.742,-0.952 1.287,-1.059Z" style="fill:#b62515;fill-opacity:0.99;"/><path d="M538.45,474.023l0.445,0.301c0.295,0.75 1.403,0.971 1.698,1.721c0.588,1.497 -0.798,6.335 -0.951,6.869l-0.205,1.181c-0.235,-0.474 0.361,-0.431 0.108,-0.942c-0.355,-0.714 -0.723,-0.304 -1.107,-1.07c-0.665,-1.328 0.676,-1.403 0.153,-2.765c-0.473,-1.232 -1.225,-1.23 -0.14,-5.295Z" style="fill:#86120c;fill-opacity:0.99;"/><path d="M536.283,443.27c2.187,-0.657 2.286,-0.802 4.129,0.571c-2.036,2.136 -2.018,2.127 -2.199,2.307c-1.908,1.903 -3.148,-1.105 -3.188,-1.142c0.419,-0.579 0.838,-1.157 1.257,-1.736Z" style="fill:#fa94c7;fill-opacity:0.99;"/><path d="M541.506,488.057c0.885,-0.907 0.806,-0.899 1.715,-1.757c0.472,-0.446 0.135,-1.029 0.66,-0.698c0.229,0.144 0.171,0.183 2.307,2.477l0.006,0.99c-2.439,0.698 -2.513,1.178 -4.744,-0.067l0.056,-0.945Z" style="fill:#c62418;fill-opacity:0.99;"/><path d="M527.154,498.929c2.561,-0.018 2.463,-0.068 4.929,-0.258c-1.839,2.416 -1.966,2.46 -4.968,2.57c-2.331,0.085 -2.053,-0.563 -1.986,-0.718c0.339,-0.789 1.687,-0.804 2.025,-1.594Z" style="fill:#e29508;fill-opacity:0.99;"/><path d="M528.722,488.275c0.762,1.267 1.01,1.172 0.936,2.657c-0.307,0.095 -0.431,1.456 -4.683,0.154l0.016,-0.993c1.826,-1.14 1.568,-1.725 3.732,-1.818Z" style="fill:#c42417;fill-opacity:0.99;"/><path d="M539.546,467.992c0.318,0.268 0.636,0.536 0.954,0.804c0.039,0.344 0.248,2.197 0.211,4.328c-0.692,0.761 -0.625,0.713 -0.692,0.761c-0.534,0.383 -0.599,0.062 -1.124,0.439l-0.445,-0.301c0.354,-2.628 0.042,-2.585 1.095,-6.031Z" style="fill:#c62617;fill-opacity:0.99;"/><path d="M521.848,399.143c2.15,2.129 2.084,2.096 3.659,4.78c-0.401,0.044 -0.474,2.332 -2.515,0.274c-0.525,-0.529 -0.405,-0.536 -0.849,-1.124c0.013,-0.747 1.017,-1.244 1.029,-1.991c0,0 -1.218,-1.783 -1.324,-1.938Z" style="fill:#d34800;fill-opacity:0.94;"/><path d="M526.012,436.647c0.455,-0.182 0.603,-0.838 1.058,-1.021c2.11,-0.845 1.857,0.413 2.045,2.66c-0.54,0.624 -0.52,0.536 -1.856,1.679c-0.078,-0.8 -0.146,-0.704 -1.247,-3.319Z" style="fill:#bc4209;fill-opacity:0.99;"/><path d="M531.635,494.014c-0.279,1.614 0.104,2.325 -1.498,2.122c-1.157,-0.146 -2.579,-5.431 1.498,-2.122Z" style="fill:#af2130;fill-opacity:0.99;"/><path d="M523.129,443.514c0.092,-0.474 -0.309,-0.957 -0.217,-1.431c0.52,-2.676 3.476,-1.629 2.947,0.031c-0.074,0.234 -0.261,0.819 -2.73,1.4Z" style="fill:#b62316;fill-opacity:1;"/><path d="M540.996,490.993c0.719,1.037 1.438,2.074 2.157,3.111c-2.578,0.974 -2.503,-0.451 -2.157,-3.111Z" style="fill:#b31c31;fill-opacity:0.99;"/><path d="M529.115,438.286l0.987,0.052c-0.127,0.222 -1.292,0.009 -1,1.746c0.021,0.127 0.075,0.093 1.016,1.256c-0.191,0.103 -0.531,2.458 -2.3,0.009c0,0 -0.515,-1.274 -0.56,-1.385c1.336,-1.143 1.316,-1.055 1.856,-1.679Z" style="fill:#ab270e;fill-opacity:0.99;"/><path d="M539.642,482.914l1.682,-0.048c0.627,1.351 1.252,1.373 0.482,2.189c-0.355,0.376 -1.058,0.267 -1.414,0.643l-1.263,-0.614l0.307,-0.988l0.205,-1.181Z" style="fill:#bd2215;fill-opacity:0.99;"/><path d="M525.461,459.007c0.165,-0.087 2.114,-2.879 1.917,1.118c-0.033,0.668 -0.145,1.331 -0.178,1.999c-1.114,-1.426 -1.223,-1.309 -1.738,-3.116Z" style="fill:#d32b1b;fill-opacity:0.99;"/><path d="M539.498,410.356c0.469,1.311 0.613,1.121 1.615,1.939c-3.141,1.046 -2.319,1.904 -2.395,1.989c-0.534,-0.431 -1.069,-0.863 -1.603,-1.294c0.184,-0.216 1.421,-1.67 2.383,-2.635Z" style="fill:#822300;fill-opacity:0.07;"/><path d="M530.102,438.338c0.983,0.496 1,0.335 1.721,1.118c-0.568,0.628 -1.136,1.256 -1.705,1.884c-0.94,-1.163 -0.994,-1.128 -1.016,-1.256c-0.292,-1.737 0.873,-1.524 1,-1.746Z" style="fill:#640a00;fill-opacity:0.99;"/><path d="M530.238,457.981l0.601,1.22l-0.865,2.756c-0.144,-0.428 -0.945,-0.378 -1.09,-0.806c-0.362,-1.074 0.028,-1.987 0.095,-2.144c0.346,-0.811 0.915,-0.22 1.259,-1.025Z" style="fill:#c72415;fill-opacity:0.99;"/><path d="M524.212,447.176c-0.558,-0.294 -0.457,0.672 -1.063,0.353c-0.123,-0.065 -0.993,-0.522 -0.98,-1.428c0.004,-0.275 4.587,-2.941 2.043,1.075Z" style="fill:#dc371e;fill-opacity:1;"/><path d="M529.063,430.719c-0.855,-1.51 -1.678,-2.391 0.085,-2.418c1.36,-0.021 1.266,1.529 1.038,1.842c-0.247,0.34 -0.875,0.236 -1.123,0.576Z" style="fill:#a22e00;fill-opacity:0.22;"/><path d="M573.129,360.083c0.113,0.113 2,2 0,2c-2,0 -0.113,-1.887 0,-2Z" style="fill:none;"/><path d="M540.285,452.125c0.013,-0.327 0.281,-7.218 1.228,-3.908c0.09,0.315 -0.09,0.286 -1.228,3.908Z" style="fill:#d72b53;fill-opacity:0.99;"/><path d="M527.213,469.105c-0.372,0.514 -0.743,1.028 -1.115,1.541l-0.937,-0.609c0.55,-0.224 0.494,0.337 1.011,0.126c0.11,-0.045 0.077,-0.078 1.041,-1.058Z" style="fill:#c92818;fill-opacity:0.99;"/></g></g></g></svg>