<?xml version="1.0" encoding="UTF-8" standalone="no"?><!DOCTYPE svg PUBLIC "-//W3C//DTD SVG 1.1//EN" "http://www.w3.org/Graphics/SVG/1.1/DTD/svg11.dtd"><svg width="100%" height="100%" viewBox="0 0 836 836" version="1.1" xmlns="http://www.w3.org/2000/svg" xmlns:xlink="http://www.w3.org/1999/xlink" xml:space="preserve" xmlns:serif="http://www.serif.com/" style="fill-rule:evenodd;clip-rule:evenodd;stroke-linejoin:round;stroke-miterlimit:2;"><g id="Abby-arm-left"><rect x="-0" y="-0" width="835.946" height="835.946" style="fill:none;"/><path d="M0,0l154.853,116.673l-123.266,161.741l-31.587,-16.626l-0,-261.788Z" style="fill:#a8f4e4;"/><clipPath id="_clip1"><path d="M0,0l154.853,116.673l-123.266,161.741l-31.587,-16.626l-0,-261.788Z"/></clipPath><g clip-path="url(#_clip1)"><g><path d="M71.42,165.677c-9.964,30.033 -33.193,51.146 -59.725,62.516c25.519,1.115 49.934,-8.444 63.588,-37.133c6.357,17.185 2.179,39.179 11.894,58.181c9.258,-30.115 8.442,-59.532 -15.757,-83.564Z" style="fill:url(#_Linear2);"/><path d="M46.446,151.823c-38.269,34.387 19.088,57.658 25.375,13.854c29.563,52.704 58.72,7.716 33.434,-17.896c32.599,-26.244 8.971,-65.319 -19.951,-30.199c-8.206,-33.959 -27.097,-38.76 -29.737,-9.536c-31.012,-5.588 -37.135,26.37 -9.121,43.776Z" style="fill:url(#_Linear3);"/><path d="M85.303,117.582c-1.048,-38.519 33.21,-51.521 72.326,-33.651c-28.168,5.842 -52.425,16.863 -72.326,33.651Z" style="fill:url(#_Linear4);"/></g><g><path d="M7.726,12.348c-31.1,5.838 -60.824,-4.25 -83.627,-21.949c11.391,22.862 31.584,39.587 63.296,37.629c-11.952,13.888 -33.216,20.893 -45.13,38.598c30.829,-6.495 56.165,-21.464 65.461,-54.278Z" style="fill:url(#_Linear5);"/><path d="M7.743,-16.211c-48.625,-16.812 -41.186,44.637 0.178,28.91c-31.776,51.4 21.706,55.104 31.856,20.574c38.754,15.798 61.485,-23.806 16.748,-32.086c25.729,-23.634 20.774,-42.486 -6.069,-30.633c-10.14,-29.836 -41.062,-19.705 -42.713,13.235Z" style="fill:url(#_Linear6);"/><path d="M56.524,1.186c33.187,-19.583 61.161,4.084 64.484,46.959c-18.76,-21.809 -40.155,-37.686 -64.484,-46.959Z" style="fill:url(#_Linear7);"/></g></g></g><defs><linearGradient id="_Linear2" x1="0" y1="0" x2="1" y2="0" gradientUnits="userSpaceOnUse" gradientTransform="matrix(0,33.128537,-33.128537,0,74.756638,186.941685)"><stop offset="0" style="stop-color:#d2ec6e;stop-opacity:1"/><stop offset="1" style="stop-color:#7ba865;stop-opacity:1"/></linearGradient><linearGradient id="_Linear3" x1="0" y1="0" x2="1" y2="0" gradientUnits="userSpaceOnUse" gradientTransform="matrix(12.098821,64.205172,-64.205172,12.098821,80.542912,125.951883)"><stop offset="0" style="stop-color:#fea4c6;stop-opacity:1"/><stop offset="1" style="stop-color:#fd5ea2;stop-opacity:1"/></linearGradient><linearGradient id="_Linear4" x1="0" y1="0" x2="1" y2="0" gradientUnits="userSpaceOnUse" gradientTransform="matrix(55.458173,-32.000366,32.000366,55.458173,92.641734,113.339689)"><stop offset="0" style="stop-color:#cee86b;stop-opacity:1"/><stop offset="1" style="stop-color:#7ba865;stop-opacity:1"/></linearGradient><linearGradient id="_Linear5" x1="0" y1="0" x2="1" y2="0" gradientUnits="userSpaceOnUse" gradientTransform="matrix(-28.978875,16.053808,-16.053808,-28.978875,-9.257835,25.571747)"><stop offset="0" style="stop-color:#d2ec6e;stop-opacity:1"/><stop offset="1" style="stop-color:#7ba865;stop-opacity:1"/></linearGradient><linearGradient id="_Linear6" x1="0" y1="0" x2="1" y2="0" gradientUnits="userSpaceOnUse" gradientTransform="matrix(-50.299883,41.696611,-41.696611,-50.299883,46.896399,1.078095)"><stop offset="0" style="stop-color:#fea4c6;stop-opacity:1"/><stop offset="1" style="stop-color:#fd5ea2;stop-opacity:1"/></linearGradient><linearGradient id="_Linear7" x1="0" y1="0" x2="1" y2="0" gradientUnits="userSpaceOnUse" gradientTransform="matrix(54.866579,33.004408,-33.004408,54.866579,63.791782,5.549663)"><stop offset="0" style="stop-color:#cee86b;stop-opacity:1"/><stop offset="1" style="stop-color:#7ba865;stop-opacity:1"/></linearGradient></defs></svg>