<?xml version="1.0" encoding="UTF-8" standalone="no"?><!DOCTYPE svg PUBLIC "-//W3C//DTD SVG 1.1//EN" "http://www.w3.org/Graphics/SVG/1.1/DTD/svg11.dtd"><svg width="100%" height="100%" viewBox="0 0 836 836" version="1.1" xmlns="http://www.w3.org/2000/svg" xmlns:xlink="http://www.w3.org/1999/xlink" xml:space="preserve" xmlns:serif="http://www.serif.com/" style="fill-rule:evenodd;clip-rule:evenodd;stroke-linejoin:round;stroke-miterlimit:2;"><g id="Abby-arm-right"><rect x="-0" y="-0" width="835.946" height="835.946" style="fill:none;"/><path d="M835.946,0l-154.852,116.672l123.265,161.74l31.587,-16.625l0,-261.786Z" style="fill:#a8f4e4;"/><clipPath id="_clip1"><path d="M835.946,0l-154.852,116.672l123.265,161.74l31.587,-16.625l0,-261.786Z"/></clipPath><g clip-path="url(#_clip1)"><g><path d="M731.523,271.298c-13.766,57.739 49.263,37.499 46.641,3.68c47.089,-1.697 41.406,-48.737 3.682,-33.906c49.402,-36.311 16.172,-76.531 -15.249,-33.595c-16.993,-38.703 -55.894,-11.413 -45.304,23.029c-44.2,15.2 -35.473,65.466 10.23,40.791Z" style="fill:url(#_Linear2);"/><path d="M784.242,239.499c10.712,-34.547 31.97,-80.606 35.283,-101.665c20.116,18.854 6.254,51.639 -9.677,81.826c18.339,-9.441 26.317,-32.441 48.826,-40.84c-15.438,40.566 -36.07,59.109 -74.432,60.678Z" style="fill:url(#_Linear3);"/></g><g><path d="M851.418,70.746c57.501,-14.729 10.22,-61.062 -18.48,-42.982c-23.446,-40.872 -62.417,-13.921 -31.714,12.544c-55.15,-26.787 -75.248,21.357 -22.617,29.148c-26.323,33.072 15.95,54.772 41.489,29.351c34.047,32.023 74.453,0.876 31.323,-28.061Z" style="fill:url(#_Linear4);"/><path d="M798.714,38.921c-35.559,6.623 -86.216,9.279 -106.393,16.162c7.307,-26.585 42.774,-29.599 76.907,-29.572c-16.9,-11.826 -40.967,-8.165 -58.888,-24.167c43.086,-5.246 69.107,4.367 88.373,37.577Z" style="fill:url(#_Linear5);"/></g></g></g><defs><linearGradient id="_Linear2" x1="0" y1="0" x2="1" y2="0" gradientUnits="userSpaceOnUse" gradientTransform="matrix(24.353777,-30.175255,30.175255,24.353777,744.289558,255.400422)"><stop offset="0" style="stop-color:#fea4c6;stop-opacity:1"/><stop offset="1" style="stop-color:#fd64a5;stop-opacity:1"/></linearGradient><linearGradient id="_Linear3" x1="0" y1="0" x2="1" y2="0" gradientUnits="userSpaceOnUse" gradientTransform="matrix(37.254773,-43.406097,43.406097,37.254773,794.846314,229.630067)"><stop offset="0" style="stop-color:#d3ed70;stop-opacity:1"/><stop offset="1" style="stop-color:#7ba866;stop-opacity:1"/></linearGradient><linearGradient id="_Linear4" x1="0" y1="0" x2="1" y2="0" gradientUnits="userSpaceOnUse" gradientTransform="matrix(-38.047756,-7.484703,7.484703,-38.047756,831.402688,66.859149)"><stop offset="0" style="stop-color:#fea4c6;stop-opacity:1"/><stop offset="1" style="stop-color:#fd64a5;stop-opacity:1"/></linearGradient><linearGradient id="_Linear5" x1="0" y1="0" x2="1" y2="0" gradientUnits="userSpaceOnUse" gradientTransform="matrix(-55.76627,-12.733046,12.733046,-55.76627,785.040752,34.138091)"><stop offset="0" style="stop-color:#d3ed70;stop-opacity:1"/><stop offset="1" style="stop-color:#7ba866;stop-opacity:1"/></linearGradient></defs></svg>