<?xml version="1.0" encoding="UTF-8" standalone="no"?><!DOCTYPE svg PUBLIC "-//W3C//DTD SVG 1.1//EN" "http://www.w3.org/Graphics/SVG/1.1/DTD/svg11.dtd"><svg width="100%" height="100%" viewBox="0 0 836 836" version="1.1" xmlns="http://www.w3.org/2000/svg" xmlns:xlink="http://www.w3.org/1999/xlink" xml:space="preserve" xmlns:serif="http://www.serif.com/" style="fill-rule:evenodd;clip-rule:evenodd;stroke-linejoin:round;stroke-miterlimit:2;"><g id="Baby-eyes"><rect x="-0" y="0" width="835.946" height="835.946" style="fill:none;"/><g><path d="M136.481,405.386c-42.107,10.441 -22.134,27.128 -9.93,38.375l182.133,22.328c-24.314,-68.3 -142.949,-67.957 -172.203,-60.703Z" style="fill:url(#_Linear1);"/><g><path d="M699.465,405.386c42.107,10.441 22.134,27.128 9.93,38.375l-182.133,22.328c24.314,-68.3 142.949,-67.957 172.203,-60.703Z" style="fill:url(#_Linear2);"/><path d="M715.079,424.981c-62.521,-8.098 -185.274,32.948 -187.817,41.108c-3.241,10.399 -4.987,21.454 -4.987,32.914c0,61.057 49.567,110.624 110.624,110.624c61.053,0 110.624,-49.567 110.624,-110.624c0,-28.453 -10.766,-54.412 -28.443,-74.022Z"/></g><path d="M120.866,424.981c62.521,-8.098 185.274,32.948 187.817,41.108c3.241,10.399 4.987,21.454 4.987,32.914c0,61.057 -49.567,110.624 -110.624,110.624c-61.053,0 -110.624,-49.567 -110.624,-110.624c0,-28.453 10.766,-54.412 28.443,-74.022Z"/></g></g><defs><linearGradient id="_Linear1" x1="0" y1="0" x2="1" y2="0" gradientUnits="userSpaceOnUse" gradientTransform="matrix(221.983133,8.60937,-8.60937,221.983133,54.841539,363.768524)"><stop offset="0" style="stop-color:#060050;stop-opacity:1"/><stop offset="1" style="stop-color:#fcd5c6;stop-opacity:1"/></linearGradient><linearGradient id="_Linear2" x1="0" y1="0" x2="1" y2="0" gradientUnits="userSpaceOnUse" gradientTransform="matrix(-221.983133,8.60937,8.60937,221.983133,781.103931,363.768524)"><stop offset="0" style="stop-color:#060050;stop-opacity:1"/><stop offset="1" style="stop-color:#fcd5c6;stop-opacity:1"/></linearGradient></defs></svg>