<?xml version="1.0" encoding="UTF-8" standalone="no"?><!DOCTYPE svg PUBLIC "-//W3C//DTD SVG 1.1//EN" "http://www.w3.org/Graphics/SVG/1.1/DTD/svg11.dtd"><svg width="100%" height="100%" viewBox="0 0 836 836" version="1.1" xmlns="http://www.w3.org/2000/svg" xmlns:xlink="http://www.w3.org/1999/xlink" xml:space="preserve" xmlns:serif="http://www.serif.com/" style="fill-rule:evenodd;clip-rule:evenodd;stroke-linejoin:round;stroke-miterlimit:2;"><g id="Romance-eyebrown"><rect x="-0" y="-0" width="835.946" height="835.946" style="fill:none;"/><g><g><path d="M314.513,346.095c-5.582,-6.894 -163.964,-37.025 -206.942,-21.75c-17.499,6.221 -63.896,52.413 -63.896,52.413c0,0 63.015,-19.185 81.988,-20.947c39.509,-3.666 178.926,25.073 185.776,19.526c5.713,-4.626 7.7,-23.528 3.073,-29.241" style="fill:#8f3b4d;"/><path d="M521.432,346.095c5.582,-6.894 163.964,-37.025 206.942,-21.75c17.499,6.221 63.896,52.413 63.896,52.413c0,0 -63.015,-19.185 -81.988,-20.947c-39.509,-3.666 -178.926,25.073 -185.776,19.526c-5.713,-4.626 -7.7,-23.528 -3.073,-29.241" style="fill:#8f3b4d;"/></g></g></g></svg>