<?xml version="1.0" encoding="UTF-8" standalone="no"?><!DOCTYPE svg PUBLIC "-//W3C//DTD SVG 1.1//EN" "http://www.w3.org/Graphics/SVG/1.1/DTD/svg11.dtd"><svg width="100%" height="100%" viewBox="0 0 836 836" version="1.1" xmlns="http://www.w3.org/2000/svg" xmlns:xlink="http://www.w3.org/1999/xlink" xml:space="preserve" xmlns:serif="http://www.serif.com/" style="fill-rule:evenodd;clip-rule:evenodd;stroke-linecap:square;stroke-linejoin:round;stroke-miterlimit:1.5;"><g id="Mesa-de-trabajo3" serif:id="Mesa de trabajo3"><rect x="0" y="0" width="835.946" height="835.946" style="fill:none;"/><g><g><path d="M593.949,436.467l31.19,266.721l86.493,55.363l31.502,77.394l-306.093,0l-19.068,-399.478l175.976,0Z" style="fill:#14275c;fill-opacity:0;"/><clipPath id="_clip1"><path d="M593.949,436.467l31.19,266.721l86.493,55.363l31.502,77.394l-306.093,0l-19.068,-399.478l175.976,0Z"/></clipPath><g clip-path="url(#_clip1)"><path d="M618.058,436.467c-60.023,151.402 -207.76,143.391 -212.979,279.786l103.116,9.589c-2.45,-137.235 101.57,-114.453 122.356,-154.262l-12.493,-135.112Z" style="fill:#fdc53f;"/><path d="M618.058,436.467l12.493,135.112c-20.787,39.809 -124.806,17.027 -122.356,154.262l-103.116,-9.589c5.219,-136.395 152.956,-128.383 212.979,-279.786Zm-3.502,21.485c-31.135,63.83 -78.521,96.96 -120.25,128.4c-42.614,32.107 -79.252,62.277 -83.493,124.944l91.878,8.543c0.195,-39.335 9.341,-65.353 22.498,-83.522c13.936,-19.245 32.474,-29.794 50.388,-37.759c11.31,-5.029 22.332,-8.999 31.553,-13.695c7.651,-3.897 14.034,-8.204 17.824,-14.475l-10.397,-112.437Z"/><path d="M624.855,636.206c-48.767,16.87 -207.983,-6.925 -219.776,-68.735" style="fill:none;stroke:#31519b;stroke-width:36.97px;"/><rect x="417.973" y="682.382" width="229.651" height="43.459" style="fill:#fdc53f;"/><rect x="417.973" y="682.382" width="229.651" height="43.459"/><path d="M532.289,374.122c-5.45,72.271 -44.762,125.331 -114.316,149.3l-0.785,-16.437c0,0 79.398,-64.659 86.133,-132.863l28.968,0Z"/><path d="M532.289,374.122c-5.45,72.271 -44.762,125.331 -114.316,149.3l-0.785,-16.437c0,0 79.398,-64.659 86.133,-132.863l28.968,0Zm-3.265,3.006l-23.016,-0c-3.387,26.856 -17.501,53.076 -33.486,74.997c-21.634,29.669 -46.611,51.44 -52.26,56.21l0.52,10.899c64.947,-23.776 102.09,-74.067 108.241,-142.106Z" style="fill:#fdc53f;"/></g><path d="M430.766,704.481l6.275,131.465l306.093,0l-31.502,-77.394l-86.493,-55.363l-194.373,1.292Z" style="fill:#0e66b1;"/><clipPath id="_clip2"><path d="M430.766,704.481l6.275,131.465l306.093,0l-31.502,-77.394l-86.493,-55.363l-194.373,1.292Z"/></clipPath><g clip-path="url(#_clip2)"><rect x="430.766" y="816.14" width="321.211" height="30.744" style="fill:#fdc53f;"/></g><path d="M683.223,740.367c0,0 -45.292,15.067 -46.659,29.2c-1.367,14.133 38.456,55.596 38.456,55.596l-44.992,0c0,0 -27.471,-43.051 -22.577,-59.726c4.893,-16.675 51.938,-40.326 51.938,-40.326l23.835,15.256Z" style="fill:#fdc53f;"/><path d="M718.383,775.137l-85.584,3.341l4.898,18.254l90.407,2.288l-9.721,-23.883Z" style="fill:#fdc53f;"/><clipPath id="_clip3"><rect x="442.382" y="436.467" width="103.739" height="12.305"/></clipPath><g clip-path="url(#_clip3)"><path d="M532.289,374.122c-5.45,72.271 -44.762,125.331 -114.316,149.3l-0.785,-16.437c0,0 79.398,-64.659 86.133,-132.863l28.968,0Z" style="fill:#080605;"/><path d="M532.289,374.122c-5.45,72.271 -44.762,125.331 -114.316,149.3l-0.785,-16.437c0,0 79.398,-64.659 86.133,-132.863l28.968,0Zm-3.265,3.006l-23.016,-0c-3.387,26.856 -17.501,53.076 -33.486,74.997c-21.634,29.669 -46.611,51.44 -52.26,56.21l0.52,10.899c64.947,-23.776 102.09,-74.067 108.241,-142.106Z" style="fill:#fdc53f;"/></g><clipPath id="_clip4"><rect x="417.973" y="436.467" width="167.969" height="147.643"/></clipPath><g clip-path="url(#_clip4)"><path d="M571.912,382.715c8.617,117.008 -83.486,175.591 -138.244,185.024" style="fill:none;stroke:#fdc53f;stroke-width:21.86px;"/></g><clipPath id="_clip5"><rect x="480.187" y="436.467" width="132.364" height="131.004"/></clipPath><g clip-path="url(#_clip5)"><path d="M493.46,377.022c-8.617,117.008 55.189,170.17 109.947,179.603" style="fill:none;stroke:#00b5c7;stroke-width:13.66px;"/></g><path d="M506.365,459.231l-8.877,3.55c-2.45,0.98 -3.653,3.739 -2.685,6.158l4.563,11.409c0.967,2.419 3.742,3.588 6.191,2.609l8.877,-3.55c2.45,-0.98 3.653,-3.739 2.685,-6.158l-4.563,-11.409c-0.967,-2.419 -3.742,-3.588 -6.191,-2.609Zm8.106,16.798l-11.396,4.557l-5.734,-14.338l11.396,-4.557l5.734,14.338Z"/><path d="M629.079,705.71c0,0 -74.859,26.354 -107.865,27.124c-30.969,0.723 -90.168,-22.501 -90.168,-22.501l0.935,19.598c0,0 57.377,13.359 74.691,29.231c17.313,15.872 29.19,66 29.19,66l34.523,-2.903c0,0 -39.212,-44.865 -26.691,-62.537c12.521,-17.672 101.816,-43.496 101.816,-43.496l-16.431,-10.517Z" style="fill:#fdc53f;"/></g></g></g></svg>