<?xml version="1.0" encoding="UTF-8" standalone="no"?><!DOCTYPE svg PUBLIC "-//W3C//DTD SVG 1.1//EN" "http://www.w3.org/Graphics/SVG/1.1/DTD/svg11.dtd"><svg width="100%" height="100%" viewBox="0 0 836 836" version="1.1" xmlns="http://www.w3.org/2000/svg" xmlns:xlink="http://www.w3.org/1999/xlink" xml:space="preserve" xmlns:serif="http://www.serif.com/" style="fill-rule:evenodd;clip-rule:evenodd;stroke-linecap:round;stroke-linejoin:round;stroke-miterlimit:1.5;"><g id="Mystery-leg-right"><rect x="0" y="-0" width="835.946" height="835.946" style="fill:none;"/><path d="M248.96,564.322c20.825,24.941 69.4,23.875 96.283,-0.897c-34.307,-25.959 -69.578,-29.595 -96.283,0.897Z" style="fill:#fcd5c6;stroke:#d5d7d6;stroke-width:3.33px;"/><path d="M210.808,703.19l-86.493,55.357l-31.502,77.399l306.091,0l6.203,-129.949l-194.3,-2.807Z" style="fill:#8166f1;"/><clipPath id="_clip1"><path d="M210.808,703.19l-86.493,55.357l-31.502,77.399l306.091,0l6.203,-129.949l-194.3,-2.807Z"/></clipPath><g clip-path="url(#_clip1)"><path d="M175.078,703.19l23.583,33.73" style="fill:none;stroke:#8100f1;stroke-width:8.33px;"/><path d="M193.951,690.025l23.583,33.73" style="fill:none;stroke:#8100f1;stroke-width:8.33px;"/><path d="M381.518,717.894c2.398,41.165 -5.403,67.126 -33.481,88.462l-139.917,1.898c19.069,-48.046 64.616,-57.412 75.207,-92.005l98.191,1.645Z" style="fill:#db7efa;"/><path d="M81.424,835.946l319.798,0" style="fill:none;stroke:#fee043;stroke-width:50px;"/></g><path d="M124.315,758.547c10.859,17.207 62.27,-1.33 62.27,-1.33l-18.41,-26.741l-43.86,28.071Z" style="fill:#db7efa;"/></g></svg>