<?xml version="1.0" encoding="UTF-8" standalone="no"?><!DOCTYPE svg PUBLIC "-//W3C//DTD SVG 1.1//EN" "http://www.w3.org/Graphics/SVG/1.1/DTD/svg11.dtd"><svg width="100%" height="100%" viewBox="0 0 836 836" version="1.1" xmlns="http://www.w3.org/2000/svg" xmlns:xlink="http://www.w3.org/1999/xlink" xml:space="preserve" xmlns:serif="http://www.serif.com/" style="fill-rule:evenodd;clip-rule:evenodd;stroke-linecap:round;stroke-miterlimit:1.5;"><g id="Abby-torso-front"><rect x="-0" y="-0" width="835.946" height="835.946" style="fill:none;"/><rect x="241.998" y="0" width="351.95" height="436.464" style="fill:#a8f4e4;fill-opacity:0;"/><clipPath id="_clip1"><rect x="241.998" y="0" width="351.95" height="436.464"/></clipPath><g clip-path="url(#_clip1)"><path d="M587.841,359.934c-12.82,-16.547 -15.43,-37.343 -12.985,-59.347c10.037,15.175 9.824,34.61 17.038,48.629c6.571,-26.345 23.997,-37.532 43.723,-39.667c-18.208,12.59 -32.798,32.665 -36.934,58.488c0.455,0.29 0.915,0.576 1.378,0.86c-0.543,0.276 -1.086,0.543 -1.628,0.801c-0.042,0.297 -0.083,0.595 -0.122,0.894c-0.218,-0.177 -0.434,-0.355 -0.648,-0.534c-24.274,11.187 -48.358,5.127 -71.098,-8.163c17.944,-3.008 35.617,5.081 51.357,4.182c-21.405,-16.705 -24.549,-37.173 -18.488,-56.066c3.434,18.179 12.672,36.173 28.407,49.922Z" style="fill:#0562ab;"/><path d="M254.489,367.577c1.278,-20.893 13.033,-38.246 29.383,-53.172c-2.465,18.026 -15.444,32.495 -19.267,47.79c22.315,-15.468 42.793,-12.383 59.027,-0.977c-21.99,-2.547 -46.198,2.92 -66.338,19.601c0.151,0.518 0.307,1.036 0.469,1.555c-0.59,-0.151 -1.174,-0.308 -1.752,-0.472c-0.228,0.196 -0.455,0.393 -0.682,0.592c-0.047,-0.277 -0.092,-0.553 -0.135,-0.829c-25.624,-7.602 -39.73,-28.042 -48.056,-53.03c15.471,9.574 23.421,27.311 35.844,37.017c-5.071,-26.675 6.066,-44.133 23.083,-54.336c-9.409,15.929 -14.334,35.547 -11.575,56.26Z" style="fill:#0562ab;"/><path d="M339.031,-9.18c-8.684,19.046 -25.88,31.029 -46.495,39.1c8.765,-15.944 26.068,-24.796 35.122,-37.703c-26.378,6.438 -44.387,-3.785 -55.452,-20.253c19.614,10.262 44.173,13.839 68.956,5.489c0.045,-0.538 0.085,-1.078 0.12,-1.62c0.497,0.352 0.985,0.709 1.466,1.069c0.283,-0.101 0.566,-0.204 0.848,-0.308c-0.055,0.275 -0.112,0.549 -0.171,0.822c21.195,16.285 27.033,40.423 25.846,66.735c-11.009,-14.485 -12.07,-33.893 -20.187,-47.408c-4.831,26.719 -21.488,39.023 -41.031,42.446c14.495,-11.496 26.127,-28.043 30.978,-48.369Z" style="fill:#0562ab;"/><path d="M419.306,108.54c0.969,16.737 -6.639,31.271 -18.092,44.141c0.236,-14.521 9.079,-26.827 10.642,-39.25c-16.094,13.656 -32.495,12.407 -46.344,4.272c17.54,0.73 36.068,-5.062 50.336,-19.557c-0.168,-0.404 -0.34,-0.808 -0.516,-1.212c0.478,0.085 0.953,0.176 1.423,0.273c0.161,-0.17 0.321,-0.34 0.48,-0.512c0.063,0.218 0.125,0.436 0.185,0.653c20.877,4.546 33.905,20.011 42.816,39.445c-13.075,-6.72 -21.005,-20.393 -31.696,-27.399c6.51,20.972 -0.602,35.553 -13.025,44.696c5.897,-13.259 7.918,-29.195 3.79,-45.55Z" style="fill:#0562ab;"/><g><path d="M519.443,65.692c10.318,27.996 5.611,57.218 -7.259,81.202c19.465,-14.185 31.84,-35.588 25.033,-64.764c14.791,8.928 24.647,27.597 42.982,35.89c-10.886,-27.642 -28.786,-48.844 -60.756,-52.327Z" style="fill:url(#_Linear2);"/><path d="M492.888,70.167c-7.985,47.851 47.976,31.273 26.85,-4.71c52.784,21.462 47.819,-28.845 14.119,-32.852c8.595,-38.515 -31.8,-53.421 -32.465,-10.526c-26.019,-20.205 -42.767,-12.634 -27.526,10.459c-26.145,14.118 -11.864,41.275 19.021,37.63Z" style="fill:url(#_Linear3);"/><path d="M501.394,22.078c-23.424,-27.776 -5.819,-57.505 33.521,-67.336c-17.327,20.871 -28.725,43.258 -33.521,67.336Z" style="fill:url(#_Linear4);"/></g><g><path d="M508.223,251.603c-7.709,23.238 -25.682,39.573 -46.211,48.37c19.744,0.862 38.635,-6.533 49.2,-28.731c4.919,13.296 1.686,30.314 9.203,45.017c7.163,-23.301 6.532,-46.061 -12.192,-64.656Z" style="fill:url(#_Linear5);"/><path d="M488.9,240.883c-29.61,26.606 14.769,44.611 19.633,10.719c22.874,40.778 45.433,5.97 25.869,-13.847c25.223,-20.306 6.941,-50.539 -15.437,-23.366c-6.349,-26.275 -20.966,-29.99 -23.008,-7.378c-23.995,-4.324 -28.732,20.403 -7.057,33.871Z" style="fill:url(#_Linear6);"/><path d="M518.965,214.39c-0.811,-29.803 25.696,-39.863 55.96,-26.037c-21.794,4.52 -40.562,13.047 -55.96,26.037Z" style="fill:url(#_Linear7);"/></g><g><path d="M319.654,123.769c-25.383,-45.697 -54.301,4.925 -32.491,25.338c-29.585,29.098 2.074,56.281 17.765,24.218c-10.509,52.962 34.992,59.337 29.88,12.761c34.05,15.042 43.1,-25.815 15.743,-41.897c19.68,-36.153 -15.874,-63.623 -30.898,-20.42Z" style="fill:url(#_Linear8);"/><path d="M304.308,175.772c13.58,28.814 27.151,71.377 37.518,87.028c-24.279,-0.29 -34.764,-29.832 -42.36,-58.916c-6.302,17.037 2.189,36.723 -7.442,55.561c-14.087,-35.534 -11.707,-59.848 12.284,-83.674Z" style="fill:url(#_Linear9);"/></g><g><path d="M384.672,396.84c19.459,25.362 32.403,-7.856 17.377,-18.245c15.282,-20.258 -6.309,-33.857 -12.921,-13.053c1.6,-32.98 -26.496,-32.749 -19.22,-5.035c-21.947,-6.041 -23.752,19.486 -5.76,26.757c-8.657,23.636 15.316,37.059 20.524,9.577Z" style="fill:url(#_Linear10);"/><path d="M389.285,364.006c-10.802,-16.21 -22.834,-40.736 -30.511,-49.273c14.712,-2.005 23.708,14.922 30.915,31.833c2.282,-10.872 -4.622,-22.017 -0.489,-34.277c11.713,20.229 12.457,35.15 0.085,51.717Z" style="fill:url(#_Linear11);"/></g></g><path d="M322.945,0l190.056,0c-55.914,36.512 -95.028,119.595 -95.028,119.595c0,0 -33.926,-89.806 -95.028,-119.595Zm95.028,334.817c0,0 12.854,27.303 31.229,39.303l-62.458,0c20.08,-9.79 31.229,-39.303 31.229,-39.303Z" style="fill:#fcd5c6;"/><circle cx="417.973" cy="195.622" r="9.323" style="fill:#3f9a93;"/><circle cx="417.973" cy="250.336" r="9.323" style="fill:#3f9a93;"/><circle cx="417.973" cy="304.681" r="9.323" style="fill:#3f9a93;"/><rect x="241.998" y="374.119" width="351.95" height="62.345" style="fill:#91c9fa;"/><clipPath id="_clip12"><rect x="241.998" y="374.119" width="351.95" height="62.345"/></clipPath><g clip-path="url(#_clip12)"><path d="M289.02,394.824l-47.023,0l-0,41.641c29.666,-1.592 44.685,-16.047 47.023,-41.641Z" style="fill:#7bb2e7;"/><path d="M291.47,395.047c-1.233,13.498 -5.883,24.025 -14.063,31.422c-8.111,7.334 -19.763,11.619 -35.277,12.451c-0.674,0.036 -1.334,-0.206 -1.824,-0.671c-0.49,-0.464 -0.768,-1.11 -0.768,-1.785l0,-41.641c0,-1.358 1.101,-2.459 2.459,-2.459l47.023,0c0.691,0 1.35,0.291 1.816,0.801c0.466,0.51 0.696,1.193 0.633,1.882Zm-2.449,-0.224l-47.023,0l-0,41.641c29.666,-1.592 44.685,-16.047 47.023,-41.641Z" style="fill:#d5d7d6;"/><path d="M546.925,394.824l47.023,0l0,41.641c-29.666,-1.592 -44.685,-16.047 -47.023,-41.641Z" style="fill:#7bb2e7;"/><path d="M546.925,392.364l47.023,0c1.358,0 2.459,1.101 2.459,2.459l0,41.641c-0,0.675 -0.278,1.321 -0.768,1.785c-0.49,0.464 -1.149,0.707 -1.824,0.671c-15.513,-0.832 -27.166,-5.118 -35.277,-12.451c-8.18,-7.396 -12.83,-17.924 -14.063,-31.422c-0.063,-0.688 0.167,-1.371 0.633,-1.882c0.466,-0.51 1.125,-0.801 1.816,-0.801Zm0,2.459c2.338,25.593 17.357,40.049 47.023,41.641l-0,-41.641l-47.023,0Z" style="fill:#d5d7d6;"/><rect x="416.435" y="394.824" width="3.075" height="41.641" style="fill:#d5d7d6;"/></g><rect x="241.998" y="374.119" width="351.95" height="20.704" style="fill:#fee678;"/><clipPath id="_clip13"><rect x="241.998" y="374.119" width="351.95" height="20.704"/></clipPath><g clip-path="url(#_clip13)"><g><path d="M210.937,390.229l18.052,0l0,-11.565l23.502,0l0,5.978l-11.325,0l0.013,5.636l27.845,0l-0.079,-11.238l24.439,0l0,5.602l-11.804,0l0.063,5.636l21.176,0" style="fill:none;stroke:#000;stroke-width:2.08px;"/><path d="M291.707,390.229l18.052,0l0,-11.565l23.502,0l0,5.978l-11.325,0l0.013,5.636l27.845,0l-0.079,-11.238l24.439,0l0,5.602l-11.804,0l0.063,5.636l21.176,0" style="fill:none;stroke:#000;stroke-width:2.08px;"/><path d="M373.234,390.229l18.052,0l0,-11.565l23.502,0l0,5.978l-11.325,0l0.013,5.636l27.845,0l-0.079,-11.238l24.439,0l0,5.602l-11.804,0l0.063,5.636l21.176,0" style="fill:none;stroke:#000;stroke-width:2.08px;"/><path d="M453.706,390.229l18.052,0l0,-11.565l23.502,0l0,5.978l-11.325,0l0.013,5.636l27.845,0l-0.079,-11.238l24.439,0l0,5.602l-11.804,0l0.063,5.636l21.176,0" style="fill:none;stroke:#000;stroke-width:2.08px;"/><path d="M533.125,390.229l18.052,0l0,-11.565l23.502,0l0,5.978l-11.325,0l0.013,5.636l27.845,0l-0.079,-11.238l24.439,0l0,5.602l-11.804,0l0.063,5.636l21.176,0" style="fill:none;stroke:#000;stroke-width:2.08px;"/></g></g></g><defs><linearGradient id="_Linear2" x1="0" y1="0" x2="1" y2="0" gradientUnits="userSpaceOnUse" gradientTransform="matrix(19.481875,24.418428,-24.418428,19.481875,534.40798,79.403757)"><stop offset="0" style="stop-color:#d2ec6e;stop-opacity:1"/><stop offset="1" style="stop-color:#7ba865;stop-opacity:1"/></linearGradient><linearGradient id="_Linear3" x1="0" y1="0" x2="1" y2="0" gradientUnits="userSpaceOnUse" gradientTransform="matrix(46.674906,40.209492,-40.209492,46.674906,502.806705,31.046579)"><stop offset="0" style="stop-color:#fea4c6;stop-opacity:1"/><stop offset="1" style="stop-color:#fd5ea2;stop-opacity:1"/></linearGradient><linearGradient id="_Linear4" x1="0" y1="0" x2="1" y2="0" gradientUnits="userSpaceOnUse" gradientTransform="matrix(22.058755,-56.200123,56.200123,22.058755,504.307678,14.635421)"><stop offset="0" style="stop-color:#cee86b;stop-opacity:1"/><stop offset="1" style="stop-color:#7ba865;stop-opacity:1"/></linearGradient><linearGradient id="_Linear5" x1="0" y1="0" x2="1" y2="0" gradientUnits="userSpaceOnUse" gradientTransform="matrix(0,25.632452,-25.632452,0,510.804816,268.055784)"><stop offset="0" style="stop-color:#d2ec6e;stop-opacity:1"/><stop offset="1" style="stop-color:#7ba865;stop-opacity:1"/></linearGradient><linearGradient id="_Linear6" x1="0" y1="0" x2="1" y2="0" gradientUnits="userSpaceOnUse" gradientTransform="matrix(9.361188,49.677292,-49.677292,9.361188,515.281814,220.866312)"><stop offset="0" style="stop-color:#fea4c6;stop-opacity:1"/><stop offset="1" style="stop-color:#fd5ea2;stop-opacity:1"/></linearGradient><linearGradient id="_Linear7" x1="0" y1="0" x2="1" y2="0" gradientUnits="userSpaceOnUse" gradientTransform="matrix(42.9095,-24.759556,24.759556,42.9095,524.643002,211.107914)"><stop offset="0" style="stop-color:#cee86b;stop-opacity:1"/><stop offset="1" style="stop-color:#7ba865;stop-opacity:1"/></linearGradient><linearGradient id="_Linear8" x1="0" y1="0" x2="1" y2="0" gradientUnits="userSpaceOnUse" gradientTransform="matrix(2.117065,34.083786,-34.083786,2.117065,320.811168,141.687721)"><stop offset="0" style="stop-color:#fea4c6;stop-opacity:1"/><stop offset="1" style="stop-color:#fd64a5;stop-opacity:1"/></linearGradient><linearGradient id="_Linear9" x1="0" y1="0" x2="1" y2="0" gradientUnits="userSpaceOnUse" gradientTransform="matrix(1.601245,50.349815,-50.349815,1.601245,303.285261,188.48783)"><stop offset="0" style="stop-color:#d3ed70;stop-opacity:1"/><stop offset="1" style="stop-color:#7ba866;stop-opacity:1"/></linearGradient><linearGradient id="_Linear10" x1="0" y1="0" x2="1" y2="0" gradientUnits="userSpaceOnUse" gradientTransform="matrix(-4.341955,-20.426722,20.426722,-4.341955,382.36328,386.10556)"><stop offset="0" style="stop-color:#fea4c6;stop-opacity:1"/><stop offset="1" style="stop-color:#fd64a5;stop-opacity:1"/></linearGradient><linearGradient id="_Linear11" x1="0" y1="0" x2="1" y2="0" gradientUnits="userSpaceOnUse" gradientTransform="matrix(-5.490938,-30.312178,30.312178,-5.490938,388.760958,356.222577)"><stop offset="0" style="stop-color:#d3ed70;stop-opacity:1"/><stop offset="1" style="stop-color:#7ba866;stop-opacity:1"/></linearGradient></defs></svg>