<?xml version="1.0" encoding="UTF-8" standalone="no"?><!DOCTYPE svg PUBLIC "-//W3C//DTD SVG 1.1//EN" "http://www.w3.org/Graphics/SVG/1.1/DTD/svg11.dtd"><svg width="100%" height="100%" viewBox="0 0 836 836" version="1.1" xmlns="http://www.w3.org/2000/svg" xmlns:xlink="http://www.w3.org/1999/xlink" xml:space="preserve" xmlns:serif="http://www.serif.com/" style="fill-rule:evenodd;clip-rule:evenodd;stroke-linecap:round;stroke-linejoin:round;stroke-miterlimit:1.5;"><g id="Mesa-de-trabajo3" serif:id="Mesa de trabajo3"><rect x="0" y="0" width="835.946" height="835.946" style="fill:none;"/><clipPath id="_clip1"><rect x="0" y="0" width="835.946" height="835.946"/></clipPath><g clip-path="url(#_clip1)"><g><g><path d="M835.946,0l-116.28,87.61l83.608,191.37l32.672,-17.199l0,-261.781Z" style="fill:#243266;"/><clipPath id="_clip2"><path d="M835.946,0l-116.28,87.61l83.608,191.37l32.672,-17.199l0,-261.781Z"/></clipPath><g clip-path="url(#_clip2)"><path d="M769.807,-63.984c40.521,3.641 70.1,43.549 66.01,89.063c-4.089,45.514 -40.308,79.51 -80.829,75.87c-40.521,-3.641 -70.1,-43.549 -66.01,-89.063c4.089,-45.514 40.308,-79.51 80.829,-75.87Z"/><path d="M769.807,-63.984c40.521,3.641 70.1,43.549 66.01,89.063c-4.089,45.514 -40.308,79.51 -80.829,75.87c-40.521,-3.641 -70.1,-43.549 -66.01,-89.063c4.089,-45.514 40.308,-79.51 80.829,-75.87Zm-0.353,3.928c-38.486,-3.458 -72.664,29.066 -76.548,72.294c-3.884,43.228 23.949,81.324 62.435,84.782c38.486,3.458 72.664,-29.066 76.548,-72.294c3.884,-43.228 -23.949,-81.324 -62.435,-84.782Z" style="fill:#e6d5dd;"/></g><path d="M544.145,219.854l-88.188,66.445l-1.081,236.649c0,0 57.6,-30.7 85.858,-34.051c28.086,-3.331 83.694,13.941 83.694,13.941c0,0 -6.951,-49.539 -1.946,-73.547c5.063,-24.284 32.326,-72.159 32.326,-72.159l-110.664,-137.278Z"/><clipPath id="_clip3"><path d="M544.145,219.854l-88.188,66.445l-1.081,236.649c0,0 57.6,-30.7 85.858,-34.051c28.086,-3.331 83.694,13.941 83.694,13.941c0,0 -6.951,-49.539 -1.946,-73.547c5.063,-24.284 32.326,-72.159 32.326,-72.159l-110.664,-137.278Z"/></clipPath><g clip-path="url(#_clip3)"><path d="M418.864,299.383c12.516,-45.288 45.25,-75.818 73.054,-68.134c27.803,7.684 40.215,50.69 27.699,95.978c-12.516,45.288 -45.25,75.818 -73.054,68.134c-27.803,-7.684 -40.215,-50.69 -27.699,-95.978Z" style="fill:#eb174e;"/><path d="M418.864,299.383c12.516,-45.288 45.25,-75.818 73.054,-68.134c27.803,7.684 40.215,50.69 27.699,95.978c-12.516,45.288 -45.25,75.818 -73.054,68.134c-27.803,-7.684 -40.215,-50.69 -27.699,-95.978Zm15.943,4.406c-6.332,22.912 -5.622,45.145 1.443,60.654c3.355,7.364 8.04,13.129 14.719,14.974c6.679,1.846 13.66,-0.694 20.32,-5.291c14.026,-9.68 26.053,-28.394 32.384,-51.306c6.332,-22.912 5.622,-45.145 -1.443,-60.654c-3.355,-7.364 -8.04,-13.129 -14.719,-14.974c-6.679,-1.846 -13.66,0.694 -20.32,5.291c-14.026,9.68 -26.053,28.394 -32.384,51.306Z" style="fill:#f8f0ef;"/><path d="M395.713,343.22c-0.425,-4.5 -0.604,-9.128 -0.524,-13.85l6.736,-0.252l0.518,13.851l-6.73,0.252Zm1.499,-34.986l6.709,0.827l-0.848,6.878l-0.848,6.878l-6.706,-0.827c0.328,-4.526 0.889,-9.12 1.693,-13.756Zm5.14,-20.604l6.523,1.803l-1.846,6.68l-1.846,6.68l-6.523,-1.803c0.506,-2.236 1.069,-4.478 1.69,-6.723c0.621,-2.245 1.289,-4.458 2.003,-6.637Zm8.09,-19.633l6.179,2.734l-2.804,6.337l-2.804,6.337l-6.181,-2.735c1.691,-4.391 3.569,-8.622 5.612,-12.673Zm11.068,-18.117l5.646,3.672l-3.779,5.809l-3.778,5.809l-5.651,-3.675c2.357,-4.093 4.886,-7.973 7.562,-11.616Zm14.131,-15.832l4.844,4.62l-4.783,5.015l-4.783,5.015l-4.852,-4.628c3.05,-3.639 6.252,-6.989 9.574,-10.022Zm17.27,-12.297l3.609,5.547l-5.809,3.779l-5.809,3.779l-3.62,-5.564c3.77,-2.924 7.66,-5.45 11.629,-7.541Zm20.087,-6.634l1.679,6.276l-6.695,1.791l-6.695,1.791l-1.686,-6.304c4.42,-1.745 8.905,-2.946 13.397,-3.554Zm21.019,1.712l-1.003,6.339l-6.845,-1.083l-6.845,-1.083l1.004,-6.343c4.072,0.046 8.124,0.603 12.115,1.706c0.529,0.146 1.054,0.301 1.575,0.465Zm18.244,10.569l-3.66,5.326l-5.711,-3.925l-5.711,-3.925l3.648,-5.308c4.129,2.045 7.949,4.681 11.435,7.832Zm12.966,16.705l-5.438,3.717l-3.91,-5.722l-3.91,-5.721l5.417,-3.702c2.924,3.416 5.545,7.246 7.842,11.428Zm7.757,19.727l-6.315,2.168l-2.251,-6.555l-2.251,-6.554l6.3,-2.163c1.788,4.118 3.298,8.502 4.516,13.104Zm3.376,20.949l-6.673,0.843l-0.869,-6.875l-0.869,-6.875l6.664,-0.842c0.842,4.43 1.428,9.026 1.746,13.75Zm-0.34,21.227l-6.745,-0.303l0.311,-6.923l0.311,-6.923l6.741,0.302c0.037,4.529 -0.165,9.155 -0.617,13.847Zm-3.618,20.924l-6.634,-1.326l1.358,-6.796l1.358,-6.796l6.632,1.326c-0.674,4.493 -1.576,9.032 -2.715,13.592Zm-6.618,20.178l-6.371,-2.268l2.324,-6.529l2.324,-6.529l6.374,2.269c-1.364,4.497 -2.921,8.855 -4.65,13.057Zm-9.571,18.953l-5.939,-3.202l3.289,-6.1l3.289,-6.1l5.943,3.204c-2.021,4.258 -4.223,8.331 -6.581,12.198Zm-12.587,17.093l-5.286,-4.145l4.276,-5.454l4.276,-5.453l5.293,4.15c-2.699,3.89 -5.562,7.533 -8.559,10.902Zm-15.7,14.266l-4.295,-5.091l5.297,-4.469l5.297,-4.469l4.305,5.103c-3.408,3.324 -6.955,6.31 -10.604,8.925Zm-18.779,9.798l-2.747,-5.958l6.293,-2.902l6.293,-2.902l2.758,5.982c-4.119,2.409 -8.335,4.35 -12.598,5.78Zm-20.94,2.745l-0.405,-6.428l6.916,-0.435l6.916,-0.435l0.406,6.45c-4.61,0.914 -9.242,1.214 -13.834,0.849Zm-20.109,-6.315l2.396,-5.958l6.43,2.585l6.43,2.585l-2.394,5.955c-0.531,-0.127 -1.061,-0.264 -1.59,-0.41c-3.991,-1.103 -7.754,-2.706 -11.271,-4.757Zm-15.725,-14.087l4.684,-4.543l4.825,4.974l4.825,4.974l-4.663,4.524c-3.542,-2.829 -6.774,-6.162 -9.671,-9.929Zm-10.265,-18.521l5.963,-2.915l3.044,6.226l3.044,6.226l-5.945,2.906c-2.332,-3.832 -4.373,-7.998 -6.106,-12.443Zm-5.467,-20.494l6.54,-1.479l1.529,6.759l1.529,6.759l-6.529,1.477c-1.293,-4.309 -2.321,-8.828 -3.069,-13.516Z" style="fill:#f8f0ef;"/><path d="M461.427,289.426l1.082,56.908l24.237,-61.208l-25.319,4.3Z" style="fill:#fff;"/></g><path d="M748.67,94.618c2.028,0 3.672,1.644 3.672,3.672c-0,13.944 -0,63.527 -0,77.471c0,2.028 -1.644,3.672 -3.672,3.672l-0.001,0c-2.028,-0 -3.672,-1.644 -3.672,-3.672c0,-13.944 0,-63.527 0,-77.471c-0,-2.028 1.644,-3.672 3.672,-3.672c0,-0 0,-0 0.001,-0Z" style="fill:#e6d5dd;stroke:#000;stroke-width:2.47px;"/><path d="M730.034,90.64c2.028,0 3.672,1.644 3.672,3.672l-0,77.471c0,2.028 -1.644,3.672 -3.672,3.672c-0,0 -0,0 -0.001,0c-2.028,-0 -3.672,-1.644 -3.672,-3.672c0,-13.944 0,-63.527 0,-77.471c-0,-2.028 1.644,-3.672 3.672,-3.672c0,-0 0,-0 0.001,-0Z" style="fill:#e6d5dd;stroke:#000;stroke-width:2.47px;"/><path d="M768.102,93.572c2.028,0 3.672,1.644 3.672,3.672l-0,77.471c0,2.028 -1.644,3.672 -3.672,3.672c-0,0 -0,0 -0.001,0c-2.028,-0 -3.672,-1.644 -3.672,-3.672c0,-13.944 0,-63.527 0,-77.471c-0,-2.028 1.644,-3.672 3.672,-3.672l0.001,0Z" style="fill:#e6d5dd;stroke:#000;stroke-width:2.47px;"/><path d="M788.507,86.704c2.028,0 3.672,1.644 3.672,3.672l-0,77.471c0,2.028 -1.644,3.672 -3.672,3.672l-0.001,0c-2.028,-0 -3.672,-1.644 -3.672,-3.672c0,-13.944 0,-63.527 0,-77.471c-0,-2.028 1.644,-3.672 3.672,-3.672l0.001,0Z" style="fill:#e6d5dd;stroke:#000;stroke-width:2.47px;"/><path d="M807.324,74.76c2.028,0 3.672,1.644 3.672,3.672c-0,13.944 -0,63.527 -0,77.471c0,2.028 -1.644,3.672 -3.672,3.672l-0.001,0c-2.028,-0 -3.672,-1.644 -3.672,-3.672c0,-13.944 0,-63.527 0,-77.471c-0,-2.028 1.644,-3.672 3.672,-3.672l0.001,0Z" style="fill:#e6d5dd;stroke:#000;stroke-width:2.47px;"/><path d="M822.76,57.158c2.028,0 3.672,1.644 3.672,3.672c-0,13.944 -0,63.527 -0,77.471c0,2.028 -1.644,3.672 -3.672,3.672l-0.001,0c-2.028,-0 -3.672,-1.644 -3.672,-3.672l0,-77.471c-0,-2.028 1.644,-3.672 3.672,-3.672c0,-0 0,0 0.001,0Z" style="fill:#e6d5dd;stroke:#000;stroke-width:2.47px;"/></g></g></g></g></svg>