<?xml version="1.0" encoding="UTF-8" standalone="no"?><!DOCTYPE svg PUBLIC "-//W3C//DTD SVG 1.1//EN" "http://www.w3.org/Graphics/SVG/1.1/DTD/svg11.dtd"><svg width="100%" height="100%" viewBox="0 0 836 836" version="1.1" xmlns="http://www.w3.org/2000/svg" xmlns:xlink="http://www.w3.org/1999/xlink" xml:space="preserve" xmlns:serif="http://www.serif.com/" style="fill-rule:evenodd;clip-rule:evenodd;stroke-linejoin:round;stroke-miterlimit:2;"><g id="Baby-eyebrown"><rect x="0" y="-0" width="835.946" height="835.946" style="fill:none;"/><g><g><path d="M309.445,303.252c-6.894,-5.582 -168.079,-2.126 -206.942,21.75c-15.824,9.723 -51.603,64.552 -51.603,64.552c0,0 57.649,-31.868 75.842,-37.536c37.883,-11.8 180.229,-12.676 185.776,-19.526c4.626,-5.713 2.64,-24.615 -3.073,-29.241" style="fill:#007077;"/><path d="M526.501,303.252c6.894,-5.582 168.079,-2.126 206.942,21.75c15.824,9.723 51.603,64.552 51.603,64.552c0,0 -57.649,-31.868 -75.842,-37.536c-37.883,-11.8 -180.229,-12.676 -185.776,-19.526c-4.626,-5.713 -2.64,-24.615 3.073,-29.241" style="fill:#007077;"/></g></g></g></svg>